<?xml version="1.0" standalone="no"?>
<!DOCTYPE svg PUBLIC "-//W3C//DTD SVG 20010904//EN"
 "http://www.w3.org/TR/2001/REC-SVG-20010904/DTD/svg10.dtd">
<svg version="1.0" xmlns="http://www.w3.org/2000/svg"
 width="1080.000000pt" height="720.000000pt" viewBox="0 0 1080.000000 720.000000"
 preserveAspectRatio="xMidYMid meet">

<g transform="translate(0.000000,720.000000) scale(0.100000,-0.100000)"
fill="#000000" stroke="none">
<path d="M0 3600 l0 -3600 5400 0 5400 0 0 3215 c0 2028 -4 3215 -10 3215 -5
0 -46 -16 -90 -36 -45 -19 -84 -34 -86 -31 -15 15 18 35 94 57 l87 26 3 377 2
377 -5400 0 -5400 0 0 -3600z m8535 3480 c-3 -5 -12 -10 -18 -10 -7 0 -6 4 3
10 19 12 23 12 15 0z m915 -30 c-8 -5 -19 -10 -25 -10 -5 0 -3 5 5 10 8 5 20
10 25 10 6 0 3 -5 -5 -10z m-87 -35 c-11 -8 -32 -19 -45 -24 -12 -5 -48 -19
-78 -31 -79 -31 -54 -14 42 30 89 41 115 49 81 25z m-2198 -25 c-33 -15 -71
-31 -85 -34 -15 -3 -11 0 10 9 19 9 53 24 75 35 22 10 45 19 50 19 6 -1 -17
-13 -50 -29z m-150 -70 c-3 -5 -12 -10 -18 -10 -7 0 -6 4 3 10 19 12 23 12 15
0z m3075 -49 c-8 -5 -26 -11 -40 -15 -21 -5 -20 -3 5 9 32 15 60 20 35 6z
m-2840 -28 c0 -14 -2 -15 -9 -4 -5 8 -14 10 -21 6 -9 -5 -11 -4 -6 3 11 18 36
14 36 -5z m2745 -12 c-17 -10 -49 -24 -70 -32 -22 -7 -47 -18 -55 -23 -12 -8
-13 -8 -3 4 12 13 128 68 148 69 6 1 -4 -7 -20 -18z m-2395 -41 c0 -11 -59
-44 -66 -37 -3 3 10 14 28 25 40 25 38 24 38 12z m740 -48 c0 -10 5 -23 12
-30 6 -6 10 -13 7 -14 -2 -2 -22 -12 -44 -23 -37 -19 -40 -23 -39 -60 l1 -40
-10 38 c-9 31 -15 37 -31 33 -11 -3 -41 0 -67 5 -37 8 -54 7 -84 -5 -21 -9
-43 -16 -49 -15 -6 0 21 13 59 28 39 15 104 44 145 64 86 41 100 44 100 19z
m480 -94 c0 -7 3 -23 6 -35 5 -17 2 -23 -9 -23 -8 0 -28 -7 -43 -15 -16 -8
-37 -15 -47 -15 -10 0 -27 -5 -38 -10 -15 -8 -23 -7 -35 5 -11 11 -26 14 -48
10 l-31 -6 36 19 c20 11 45 22 55 25 11 3 46 17 79 31 69 29 75 30 75 14z
m758 7 c-9 -9 -171 -75 -175 -71 -2 2 34 20 79 39 78 34 108 44 96 32z m-1565
-42 c-7 -2 -19 -2 -25 0 -7 3 -2 5 12 5 14 0 19 -2 13 -5z m314 -49 c-3 -3
-12 -4 -19 -1 -8 3 -5 6 6 6 11 1 17 -2 13 -5z m1007 -19 c-10 -8 -23 -15 -28
-15 -6 0 -1 7 10 15 10 8 23 15 28 15 6 0 1 -7 -10 -15z m-807 -11 c-3 -3 -12
-4 -19 -1 -8 3 -5 6 6 6 11 1 17 -2 13 -5z m-50 -10 c-3 -3 -12 -4 -19 -1 -8
3 -5 6 6 6 11 1 17 -2 13 -5z m813 -4 c0 -5 -7 -7 -15 -4 -8 4 -15 8 -15 10 0
2 7 4 15 4 8 0 15 -4 15 -10z m-435 -50 c-3 -5 -21 -12 -40 -16 -20 -3 -38
-10 -41 -15 -3 -5 -17 -9 -32 -8 -21 0 -13 6 33 23 67 26 89 31 80 16z m715
-54 c0 -3 -4 -8 -10 -11 -5 -3 -10 -1 -10 4 0 6 5 11 10 11 6 0 10 -2 10 -4z
m-620 -40 c0 -2 -7 -7 -16 -10 -8 -3 -12 -2 -9 4 6 10 25 14 25 6z m1150 -21
c0 -9 -9 -15 -25 -15 -14 0 -25 -3 -25 -7 0 -5 -14 -9 -31 -10 -40 -3 -36 1
26 25 28 11 51 20 53 21 1 1 2 -6 2 -14z m-4534 -65 c23 0 16 -28 -8 -32 -15
-2 -22 -9 -20 -20 1 -9 -2 -19 -8 -23 -5 -3 -10 1 -10 9 0 12 -11 16 -44 16
-40 0 -43 2 -39 24 4 21 12 26 47 29 22 2 47 2 54 0 8 -2 20 -3 28 -3z m4199
0 c-3 -5 -12 -10 -18 -10 -7 0 -6 4 3 10 19 12 23 12 15 0z m132 -6 c-3 -3
-12 -4 -19 -1 -8 3 -5 6 6 6 11 1 17 -2 13 -5z m181 -146 c-1 -57 -2 -58 -5
-15 -4 40 -7 47 -26 47 -22 1 -22 1 -3 15 32 24 36 18 34 -47z m-4778 32 c0
-5 -4 -10 -10 -10 -5 0 -10 5 -10 10 0 6 5 10 10 10 6 0 10 -4 10 -10z m-420
-105 c0 -11 11 -15 40 -15 22 0 40 -4 40 -10 0 -5 18 -10 40 -10 29 0 40 -4
40 -15 0 -11 -11 -15 -40 -15 -22 0 -40 -4 -40 -10 0 -5 -18 -10 -40 -10 -22
0 -40 5 -40 10 0 6 -7 10 -15 10 -11 0 -15 11 -15 40 0 29 4 40 15 40 8 0 15
-7 15 -15z m-337 -22 c-13 -2 -33 -2 -45 0 -13 2 -3 4 22 4 25 0 35 -2 23 -4z
m95 -33 c2 -5 21 -10 41 -10 25 0 52 -9 77 -26 23 -16 40 -22 42 -15 6 18 82
14 82 -4 0 -11 11 -15 40 -15 22 0 40 -4 40 -10 0 -5 18 -10 40 -10 29 0 40 4
40 15 0 11 11 15 40 15 22 0 40 5 40 10 0 6 100 10 280 10 242 0 280 2 280 15
0 13 38 15 280 15 175 0 280 -4 280 -10 0 -6 -65 -11 -162 -12 -90 -2 108 -4
440 -5 525 -2 602 -1 602 12 0 11 11 15 40 15 28 0 40 -4 40 -15 0 -18 47 -65
65 -65 8 0 15 -9 15 -19 0 -16 11 -20 80 -26 58 -5 80 -11 80 -21 0 -10 15
-14 60 -14 47 0 60 -3 58 -14 -5 -25 50 -66 88 -66 24 0 34 -5 34 -15 0 -11
11 -15 40 -15 22 0 40 -4 40 -10 0 -5 18 -10 40 -10 29 0 40 -4 40 -15 0 -12
16 -15 80 -15 72 0 80 -2 80 -19 0 -16 11 -20 80 -26 58 -5 80 -11 80 -21 0
-10 12 -14 40 -14 54 0 51 -20 -2 -22 l-43 -1 43 -4 c23 -2 42 -8 42 -14 0 -5
18 -9 40 -9 29 0 40 -4 40 -15 0 -11 11 -15 40 -15 29 0 40 -4 40 -15 0 -11
11 -15 40 -15 22 0 40 -4 40 -10 0 -6 49 -11 123 -12 l122 -2 -122 -3 c-71 -2
-123 -8 -123 -13 0 -9 56 -15 90 -10 18 3 22 3 137 1 l92 -1 3 -47 c3 -48 3
-48 41 -51 20 -2 37 -8 37 -14 0 -6 -16 -9 -40 -6 -36 3 -40 1 -40 -19 0 -20
5 -23 40 -23 22 0 40 -4 40 -9 0 -6 17 -11 37 -13 27 -2 39 -8 41 -20 3 -15
-4 -18 -33 -18 -36 0 -74 -24 -60 -38 4 -4 10 -1 12 6 3 7 23 12 50 12 36 0
44 -3 39 -15 -4 -12 3 -15 34 -15 29 0 40 4 40 15 0 11 11 15 40 15 27 0 40
-4 40 -13 0 -20 189 -32 433 -28 240 4 367 -5 367 -25 0 -23 51 -18 57 6 3 12
12 19 22 18 11 -2 15 4 14 20 -2 17 2 22 22 22 l25 0 0 120 c0 112 -1 120 -19
120 -14 0 -21 9 -26 33 -13 62 -16 70 -28 58 -6 -6 -24 -11 -39 -11 -20 0 -28
-5 -28 -18 0 -9 -9 -23 -20 -30 -18 -11 -20 -10 -20 15 0 16 9 39 20 53 11 14
20 31 20 38 0 6 5 12 10 12 6 0 10 11 10 25 0 18 8 29 28 37 28 13 62 45 62
60 0 4 11 8 25 8 21 0 25 5 25 32 0 17 2 29 4 27 3 -2 1 -229 -3 -504 -8 -470
-10 -504 -30 -564 -23 -71 -26 -115 -9 -181 10 -44 13 -488 3 -521 -12 -37
-124 -67 -228 -61 -31 2 -28 22 4 22 10 0 19 4 19 9 0 5 8 11 18 14 9 2 -3 2
-28 0 -25 -3 -52 -7 -60 -10 -82 -33 -113 -36 -435 -40 -345 -5 -629 -17 -680
-28 -21 -4 -59 3 -125 25 -93 30 -98 31 -290 30 -260 0 -415 -13 -463 -36 -46
-22 -57 -12 -57 54 0 164 -200 235 -323 116 -39 -38 -48 -59 -45 -109 1 -16 1
-50 0 -74 -2 -34 -5 -42 -17 -37 -8 3 -15 0 -15 -6 0 -7 -5 -6 -15 2 -12 10
-15 10 -16 -1 0 -10 -2 -11 -6 -1 -3 7 -24 12 -56 11 -40 -1 -46 -3 -27 -8 15
-5 -14 -8 -70 -7 -52 0 -151 -1 -220 -3 -69 -3 -246 2 -395 10 -305 16 -1123
19 -1877 6 -283 -5 -478 -4 -478 1 0 5 -18 9 -40 8 -26 -1 -40 -6 -40 -14 0
-9 -13 -12 -42 -10 -30 2 -42 7 -40 17 2 9 -3 11 -13 7 -8 -3 -142 -6 -298 -6
-209 0 -300 3 -352 14 -38 8 -128 17 -200 21 -71 3 -161 8 -200 10 -136 8
-742 15 -1695 21 -531 3 -967 8 -969 10 -2 2 82 4 188 4 107 0 190 4 187 9 -3
5 17 11 44 13 28 3 59 13 69 22 34 31 83 31 201 1 3 -1 14 -6 25 -11 31 -14
258 -11 263 4 4 14 32 16 32 2 0 -15 21 -12 41 6 17 15 113 33 204 37 43 2 98
26 62 27 -11 0 -17 6 -14 13 3 8 23 11 65 9 33 -2 63 1 66 6 6 10 -73 52 -96
52 -7 0 2 9 20 20 21 13 50 20 83 20 49 0 50 1 47 28 -2 22 -10 29 -40 36 -21
5 -38 13 -38 18 0 4 -18 11 -40 14 -22 4 -40 10 -40 15 0 5 -5 9 -12 9 -6 0
-19 7 -28 15 -8 8 -41 21 -72 29 -31 8 -64 21 -74 29 -11 9 -34 28 -52 42 -17
15 -29 31 -26 36 3 6 -8 15 -25 22 -17 6 -31 14 -31 18 0 3 -19 12 -42 19 -60
19 -68 27 -68 71 l0 39 54 0 c39 0 55 -4 60 -15 6 -16 76 -22 76 -6 0 13 153
26 158 13 2 -7 61 -11 160 -12 86 0 173 -4 192 -9 19 -4 76 -6 125 -4 50 2
115 -2 145 -8 74 -16 250 -15 260 2 12 19 0 39 -24 39 -12 0 -28 6 -35 13 -11
10 -14 10 -18 0 -5 -15 -79 -18 -87 -4 -3 5 -29 15 -57 21 -30 7 -60 22 -72
36 -15 18 -31 24 -59 24 -41 0 -165 26 -184 38 -6 4 -15 18 -19 31 l-7 23 81
-7 c61 -5 81 -4 81 5 0 16 152 3 162 -13 7 -11 78 20 78 35 0 4 -27 15 -60 25
-40 11 -59 22 -56 30 3 7 -6 20 -19 29 -14 9 -25 24 -25 33 0 17 -50 61 -70
61 -5 0 -10 5 -10 10 0 6 -11 10 -25 10 -22 0 -25 4 -25 40 0 36 3 40 25 40
24 0 25 2 25 65 l0 65 40 0 c29 0 40 4 40 15 0 11 11 15 40 15 l40 0 0 55 0
55 40 0 c22 0 40 5 40 10 0 6 18 10 40 10 28 0 40 4 40 14 0 8 6 17 13 19 9 4
8 8 -3 16 -12 8 -5 11 28 11 38 0 42 2 42 25 0 15 6 25 15 25 8 0 25 11 39 25
24 24 30 25 146 25 100 0 120 2 120 15 0 11 11 15 40 15 29 0 40 4 40 15 0 11
11 15 40 15 22 0 40 5 40 10 0 6 18 10 40 10 29 0 40 4 40 15 0 11 11 15 39
15 22 0 41 -4 43 -9 2 -5 38 -12 81 -16 67 -6 77 -5 77 9 0 12 10 16 40 16 27
0 40 4 40 14 0 14 160 34 315 39 59 2 49 4 -37 5 -71 1 -118 6 -118 12 0 6 33
10 80 10 64 0 80 3 80 15 0 11 11 15 40 15 36 0 40 3 40 25 0 37 17 30 40 -15
l20 -40 -30 0 c-18 0 -29 -4 -25 -10 3 -5 40 -10 81 -10 43 0 74 4 74 10 0 6
18 10 40 10 29 0 40 4 40 15 0 11 11 15 40 15 29 0 40 -4 40 -15 0 -8 7 -15
15 -15 11 0 15 11 15 40 0 29 -4 40 -15 40 -8 0 -15 6 -15 14 0 23 98 27 134
5 23 -14 50 -19 109 -19 77 0 77 0 77 26 0 26 2 26 50 22 45 -5 70 4 70 24 0
4 -9 8 -20 8 -18 0 -20 7 -20 57 l0 56 117 -6 c66 -4 119 -11 121 -17z m5449
-122 c-2 -24 -4 -7 -4 37 0 44 2 63 4 43 2 -21 2 -57 0 -80z m0 -80 c-3 -7 -5
-2 -5 12 0 14 2 19 5 13 2 -7 2 -19 0 -25z m-7544 -205 c-13 -2 -33 -2 -45 0
-13 2 -3 4 22 4 25 0 35 -2 23 -4z m8087 -203 c8 12 10 10 10 -8 0 -13 -4 -21
-9 -17 -5 3 -12 1 -16 -5 -7 -11 -19 -399 -19 -617 0 -73 -3 -128 -7 -121 -4
7 -9 -8 -12 -32 -2 -25 -2 83 1 240 4 263 16 557 26 605 2 11 5 29 7 40 1 11
4 -7 6 -40 3 -41 7 -55 13 -45z m-770 30 c0 -5 -4 -10 -10 -10 -5 0 -10 5 -10
10 0 6 5 10 10 10 6 0 10 -4 10 -10z m-20 -45 c0 -16 -6 -25 -15 -25 -18 0
-20 21 -3 38 17 17 18 16 18 -13z m787 -227 c-2 -13 -4 -3 -4 22 0 25 2 35 4
23 2 -13 2 -33 0 -45z m-8787 -374 c0 -14 -3 -14 -15 -4 -8 7 -15 14 -15 16 0
2 7 4 15 4 8 0 15 -7 15 -16z m-700 -141 c-8 -3 -18 -11 -22 -17 -4 -6 -10 -7
-15 -3 -9 10 16 27 37 26 13 -1 13 -1 0 -6z m9437 -155 c-3 -8 -6 -5 -6 6 -1
11 2 17 5 13 3 -3 4 -12 1 -19z m-9352 -58 c3 -5 -1 -10 -9 -10 -9 0 -16 5
-16 10 0 6 4 10 9 10 6 0 13 -4 16 -10z m9361 -357 c13 -5 13 -7 2 -14 -24
-16 -28 -9 -26 49 1 50 2 52 5 14 3 -27 10 -45 19 -49z m-827 -127 c-12 -10
-79 -16 -79 -6 0 5 19 10 42 10 23 0 39 -2 37 -4z m-966 -33 c-7 -2 -19 -2
-25 0 -7 3 -2 5 12 5 14 0 19 -2 13 -5z m-848 -129 c67 -19 101 -35 132 -62
31 -27 40 -41 34 -51 -8 -12 -12 -12 -26 3 -26 26 -59 17 -62 -16 -1 -20 3
-28 15 -28 9 0 24 -5 32 -11 11 -7 2 -8 -32 -3 -60 8 -99 -10 -42 -20 30 -5
47 -17 74 -52 65 -84 173 -194 190 -194 10 0 25 -10 34 -22 16 -23 17 -22 11
15 -3 21 -9 46 -12 55 -7 21 0 13 52 -52 47 -59 122 -182 154 -251 13 -27 27
-58 32 -67 6 -11 5 -18 -1 -18 -5 0 -10 3 -10 8 0 8 -49 32 -64 31 -6 0 0 -4
12 -10 37 -15 20 -33 -44 -47 -32 -7 -72 -20 -89 -28 -41 -20 -125 -30 -125
-15 0 6 8 11 18 11 26 0 112 30 112 40 0 18 -32 32 -66 28 -32 -4 -34 -3 -18
9 10 7 21 13 26 13 4 0 8 4 8 8 0 4 -20 14 -45 21 -33 10 -50 22 -66 48 -16
25 -27 33 -40 30 -21 -6 -25 13 -7 31 9 9 8 12 -5 12 -9 0 -17 6 -17 13 0 8
-7 29 -16 47 -12 23 -19 29 -25 19 -8 -14 -8 -14 -24 36 -2 8 -8 15 -13 15 -4
0 1 -29 12 -64 12 -35 23 -62 26 -61 3 2 7 -6 7 -18 1 -12 11 -29 21 -37 10
-9 22 -29 26 -45 8 -32 -5 -26 -28 13 -6 10 -23 37 -37 58 -14 21 -29 52 -33
67 -18 73 -59 139 -53 86 1 -12 -3 -24 -9 -26 -6 -2 -11 9 -12 27 -1 46 -11
83 -33 126 -10 21 -19 47 -19 57 0 29 -20 9 -21 -21 0 -15 -3 -21 -6 -13 -4
10 -9 8 -18 -8 -11 -21 -12 -20 -25 21 -7 24 -18 48 -23 53 -9 10 -7 -18 9
-102 5 -26 3 -33 -10 -33 -14 0 -15 -3 -4 -21 35 -57 37 -63 27 -81 -5 -10
-21 -21 -34 -24 -29 -7 -31 -16 -9 -35 21 -17 34 -19 127 -21 42 -1 77 -6 77
-10 0 -4 -13 -21 -30 -38 -16 -17 -30 -37 -30 -44 0 -8 -7 -16 -15 -20 -8 -3
-15 -10 -15 -17 0 -6 7 -8 16 -5 11 4 14 1 12 -12 -1 -9 1 -22 5 -29 14 -22
-37 -10 -80 19 -27 18 -45 39 -48 56 -12 59 -57 193 -76 226 -17 29 -21 164
-8 221 7 28 12 57 11 67 0 9 9 19 24 22 30 8 49 51 36 81 -5 11 -6 30 -1 43
11 29 40 29 154 -4z m225 -150 c26 -30 50 -73 50 -88 0 -9 -68 62 -83 86 -32
52 -12 53 33 2z m-27 -62 c42 -36 -6 -40 -61 -4 l-25 16 24 7 c26 6 35 4 62
-19z m-483 -1 c0 -19 -28 -56 -37 -48 -3 4 29 67 35 67 1 0 2 -9 2 -19z m600
-106 c0 -5 -5 -3 -10 5 -5 8 -10 20 -10 25 0 6 5 3 10 -5 5 -8 10 -19 10 -25z
m-652 0 c0 -13 -4 -22 -9 -19 -8 4 -54 -75 -47 -81 2 -1 22 -14 46 -29 48 -30
53 -39 17 -30 -24 6 -24 6 -9 -26 9 -17 14 -34 11 -36 -3 -3 -54 -12 -113 -20
-103 -13 -127 -23 -118 -49 7 -18 61 -46 78 -39 9 3 16 2 16 -4 0 -14 -22 -21
-53 -15 -22 4 -26 2 -21 -11 4 -12 0 -16 -15 -16 -12 0 -21 -5 -21 -11 0 -6
-9 -9 -20 -6 -10 3 -24 -1 -30 -8 -15 -18 -35 -10 -49 21 -13 29 -15 84 -3 84
5 0 20 9 33 21 13 11 37 30 53 42 16 12 40 33 53 47 14 14 28 25 31 26 37 6
74 18 78 26 12 20 -7 20 -41 0 -19 -12 -35 -19 -35 -17 0 11 74 77 95 85 13 5
34 27 47 49 13 23 24 41 24 41 1 0 2 -11 2 -25z m676 -21 c3 -8 2 -12 -4 -9
-6 3 -10 10 -10 16 0 14 7 11 14 -7z m-21 -39 c9 -25 12 -45 8 -45 -11 0 -42
70 -36 81 10 15 12 11 28 -36z m-645 5 c15 0 15 -2 2 -11 -11 -8 -12 -12 -2
-16 22 -9 13 -20 -14 -15 -17 3 -23 9 -20 19 3 8 6 22 7 31 0 11 2 12 6 5 2
-7 12 -13 21 -13z m472 -371 c0 -8 5 -8 15 1 10 8 15 9 15 2 0 -6 7 -9 16 -5
11 4 15 2 12 -8 -4 -13 -23 -15 -120 -11 -42 2 -51 18 -15 25 44 9 77 7 77 -4z
m-3876 -19 c-10 -4 -21 -6 -24 -3 -8 7 24 22 34 16 5 -4 1 -10 -10 -13z m159
3 c-7 -2 -19 -2 -25 0 -7 3 -2 5 12 5 14 0 19 -2 13 -5z m2429 -15 c-7 -7 -12
-8 -12 -2 0 14 12 26 19 19 2 -3 -1 -11 -7 -17z m1407 -14 c-13 -14 -25 -20
-27 -14 -2 6 4 18 14 25 31 24 39 17 13 -11z m-3819 -14 c5 8 10 11 10 6 0 -5
-6 -17 -14 -25 -11 -12 -12 -28 -5 -70 8 -55 14 -69 25 -58 4 3 1 20 -5 38 -6
18 -11 41 -11 53 1 38 20 -8 35 -82 10 -51 13 -59 14 -32 1 24 4 30 10 20 13
-24 20 -89 10 -95 -5 -4 -9 3 -9 14 0 12 -7 21 -15 21 -8 0 -15 9 -15 20 0 11
-4 20 -9 20 -6 0 -5 -15 1 -36 7 -26 6 -44 -2 -65 -7 -16 -10 -35 -7 -43 5
-13 -19 -26 -50 -26 -23 0 -14 28 10 33 12 2 1 5 -25 6 l-46 1 8 33 c5 17 13
51 19 73 6 23 11 53 11 68 0 14 5 26 11 26 8 0 10 20 5 68 l-6 67 20 -25 c17
-21 21 -23 30 -10z m1709 14 c-8 -10 -21 -13 -38 -9 -49 12 -47 25 3 25 43 0
47 -2 35 -16z m2187 -3 c-6 -9 -56 -22 -56 -14 0 4 40 21 53 22 5 1 6 -3 3 -8z
m-4056 -16 c0 -8 -4 -15 -8 -15 -5 0 -9 7 -9 15 0 8 4 15 9 15 4 0 8 -7 8 -15z
m100 -4 c0 -5 -7 -12 -16 -15 -22 -9 -24 -8 -24 9 0 8 9 15 20 15 11 0 20 -4
20 -9z m-7 -92 c-7 -9 -10 -24 -7 -34 6 -14 3 -16 -14 -10 -13 4 -22 2 -22 -4
0 -6 -6 -11 -14 -11 -11 0 -11 9 -2 48 16 70 39 95 49 55 3 -13 5 -11 7 7 2
24 3 23 9 -5 5 -20 3 -36 -6 -46z m4087 50 c0 -6 -4 -7 -10 -4 -5 3 -10 11
-10 16 0 6 5 7 10 4 6 -3 10 -11 10 -16z m147 -8 c11 -17 9 -18 -20 -16 -20 1
-33 8 -35 19 -5 23 40 21 55 -3z m-70 -43 c1 -10 -1 -18 -5 -18 -4 -1 -26 -5
-50 -9 -41 -8 -42 -8 -26 10 14 15 14 19 3 20 -8 0 -4 4 9 9 12 5 25 16 28 24
5 12 8 12 23 -2 9 -9 17 -25 18 -34z m-6224 35 c-13 -2 -33 -2 -45 0 -13 2 -3
4 22 4 25 0 35 -2 23 -4z m1928 -107 c-16 -33 -22 -88 -9 -80 4 3 8 0 8 -5 0
-6 -8 -12 -17 -12 -17 -1 -17 -2 0 -6 21 -6 23 -23 1 -23 -10 0 -14 -6 -11
-14 3 -8 -1 -17 -9 -20 -28 -11 -38 -6 -19 7 15 11 17 22 11 55 -6 44 6 110
33 177 l16 40 5 -45 c3 -28 0 -56 -9 -74z m2399 104 c0 -5 -7 -7 -15 -4 -8 4
-15 8 -15 10 0 2 7 4 15 4 8 0 15 -4 15 -10z m1744 1 c3 -5 -5 -11 -19 -13
-26 -5 -35 6 -12 15 19 8 25 8 31 -2z m-2334 -11 c0 -5 -7 -10 -16 -10 -9 0
-12 -5 -8 -12 5 -8 0 -7 -10 2 -18 14 -18 15 5 21 13 4 25 7 27 8 1 1 2 -3 2
-9z m427 4 c-3 -3 -12 -4 -19 -1 -8 3 -5 6 6 6 11 1 17 -2 13 -5z m1843 -14
c-18 -34 -33 -21 -21 18 1 1 8 2 16 2 13 0 14 -4 5 -20z m-4930 0 c0 -5 -13
-10 -30 -10 -16 0 -30 4 -30 8 0 4 14 9 30 10 17 1 30 -2 30 -8z m2530 0 c0
-5 -15 -10 -32 -10 -25 0 -29 3 -18 10 20 13 50 13 50 0z m713 -15 c-3 -9 -8
-14 -10 -11 -3 3 -2 9 2 15 9 16 15 13 8 -4z m1372 6 c3 -5 1 -12 -5 -16 -5
-3 -10 1 -10 9 0 18 6 21 15 7z m-4955 -22 c0 -5 -4 -9 -10 -9 -5 0 -10 7 -10
16 0 8 5 12 10 9 6 -3 10 -10 10 -16z m2470 -10 c0 -5 -6 -9 -13 -9 -7 0 -13
9 -13 19 0 15 3 17 13 9 7 -6 13 -14 13 -19z m2850 20 c0 -6 -9 -13 -20 -16
-27 -7 -26 -33 2 -33 21 0 21 0 2 -16 -18 -15 -18 -15 11 -10 l30 5 -33 -15
c-41 -18 -52 -12 -52 32 0 20 -5 34 -12 35 -7 0 3 6 22 13 46 18 50 18 50 5z
m-4540 -9 c-34 -11 -60 -11 -35 0 11 5 29 8 40 8 16 0 15 -2 -5 -8z m-78 -20
c10 0 18 -4 18 -10 0 -5 -9 -10 -20 -10 -11 0 -20 5 -20 10 0 6 -3 9 -7 9 -17
-3 -24 2 -17 12 4 8 9 8 17 0 6 -6 19 -11 29 -11z m1265 14 c-3 -3 -12 -4 -19
-1 -8 3 -5 6 6 6 11 1 17 -2 13 -5z m393 2 c0 -3 -4 -8 -10 -11 -5 -3 -10 -1
-10 4 0 6 5 11 10 11 6 0 10 -2 10 -4z m-2863 -22 c-3 -3 -12 -4 -19 -1 -8 3
-5 6 6 6 11 1 17 -2 13 -5z m1033 2 c0 -3 -4 -8 -10 -11 -5 -3 -10 -1 -10 4 0
6 5 11 10 11 6 0 10 -2 10 -4z m457 -4 c9 -6 7 -11 -7 -20 -17 -11 -20 -10
-20 8 0 21 7 25 27 12z m2735 -4 c31 -9 41 -9 47 0 5 8 19 10 39 6 32 -6 45
-24 18 -24 -9 0 -17 -15 -21 -40 -5 -31 -11 -40 -26 -40 -11 0 -30 -12 -43
-26 -20 -24 -27 -26 -64 -19 -23 4 -42 9 -42 13 0 12 44 142 48 142 3 0 22 -5
44 -12z m-3562 -2 c0 -3 -4 -8 -10 -11 -5 -3 -10 -1 -10 4 0 6 5 11 10 11 6 0
10 -2 10 -4z m60 -3 c-8 -3 -18 -10 -21 -15 -3 -5 -9 -3 -11 4 -4 9 3 14 21
15 14 1 19 -1 11 -4z m900 -8 c-7 -8 -14 -15 -15 -15 -2 0 -5 7 -9 15 -4 10 1
15 16 15 17 0 18 -2 8 -15z m-1287 -2 c-7 -2 -19 -2 -25 0 -7 3 -2 5 12 5 14
0 19 -2 13 -5z m622 -17 c-19 -14 -75 -9 -75 6 0 6 16 8 35 6 19 -2 35 0 35 5
0 4 5 5 11 2 6 -5 4 -11 -6 -19z m768 -11 c-7 -21 -13 -19 -13 6 0 11 4 18 10
14 5 -3 7 -12 3 -20z m4324 -32 c-3 -10 -5 -2 -5 17 0 19 2 27 5 18 2 -10 2
-26 0 -35z m-3182 27 c-3 -5 -13 -10 -20 -10 -10 0 -14 -9 -13 -25 2 -23 6
-24 55 -22 39 2 53 -1 53 -11 0 -10 4 -10 16 2 16 16 39 12 29 -5 -4 -5 4 -13
17 -18 22 -9 22 -10 -5 -10 -29 -1 -57 -21 -57 -40 0 -6 -4 -11 -10 -11 -5 0
-10 14 -10 30 0 23 -6 33 -22 39 -14 5 -26 5 -29 -2 -8 -12 -79 -19 -79 -7 0
4 7 13 15 20 8 7 15 21 15 30 0 32 12 50 32 50 10 0 16 -4 13 -10z m105 0 c0
-5 -7 -10 -15 -10 -8 0 -15 5 -15 10 0 6 7 10 15 10 8 0 15 -4 15 -10z m1379
-38 c-6 -14 -16 -33 -22 -41 -9 -11 -9 -15 1 -18 6 -3 9 -9 6 -15 -4 -6 -10
-5 -15 3 -14 23 -34 -4 -20 -28 8 -14 11 -14 11 -3 0 12 3 11 11 -3 18 -31 -1
-38 -27 -9 -13 15 -23 23 -22 17 2 -5 -1 -12 -6 -15 -13 -7 -18 39 -5 58 9 14
10 13 5 -6 -4 -19 -2 -21 10 -11 8 6 14 18 14 25 0 8 7 14 15 14 8 0 14 3 13
8 -1 4 4 20 10 35 15 37 35 26 21 -11z m-2553 -11 c-13 -20 -26 -11 -26 16 0
25 1 26 16 11 9 -9 13 -21 10 -27z m1094 29 c0 -5 -5 -10 -11 -10 -5 0 -7 5
-4 10 3 6 8 10 11 10 2 0 4 -4 4 -10z m110 -4 c0 -3 -4 -8 -10 -11 -5 -3 -10
-1 -10 4 0 6 5 11 10 11 6 0 10 -2 10 -4z m1372 -18 c-7 -7 -12 -8 -12 -2 0
14 12 26 19 19 2 -3 -1 -11 -7 -17z m-3282 -8 c0 -5 -4 -10 -10 -10 -5 0 -10
5 -10 10 0 6 5 10 10 10 6 0 10 -4 10 -10z m2017 -57 c-3 -10 -5 -2 -5 17 0
19 2 27 5 18 2 -10 2 -26 0 -35z m-2794 6 c3 -10 1 -19 -4 -19 -5 0 -9 7 -9
15 0 16 -25 21 -34 6 -3 -5 -15 -7 -26 -4 -37 10 -29 18 20 20 40 1 49 -2 53
-18z m47 7 c0 -9 -7 -12 -20 -9 -11 3 -20 9 -20 14 0 5 9 9 20 9 11 0 20 -6
20 -14z m1660 10 c0 -3 -4 -8 -10 -11 -5 -3 -10 -1 -10 4 0 6 5 11 10 11 6 0
10 -2 10 -4z m180 -6 c0 -5 -7 -7 -15 -4 -8 4 -15 8 -15 10 0 2 7 4 15 4 8 0
15 -4 15 -10z m-240 -15 c0 -8 -2 -15 -4 -15 -2 0 -6 7 -10 15 -3 8 -1 15 4
15 6 0 10 -7 10 -15z m-1380 -3 c0 -4 -16 -6 -35 -4 -19 2 -35 6 -35 8 0 2 16
4 35 4 19 0 35 -4 35 -8z m60 -2 c0 -5 -4 -10 -10 -10 -5 0 -10 5 -10 10 0 6
5 10 10 10 6 0 10 -4 10 -10z m1080 -12 c0 -16 -3 -19 -11 -11 -6 6 -8 16 -5
22 11 17 16 13 16 -11z m-1010 -4 c0 -12 -3 -14 -12 -6 -7 5 -22 12 -33 15
-13 3 -9 5 13 6 23 1 32 -3 32 -15z m812 -1 c24 -21 23 -39 -3 -46 -43 -11
-85 37 -46 53 30 12 28 12 49 -7z m-747 -13 c-27 -12 -35 -12 -35 0 0 6 12 10
28 9 24 0 25 -1 7 -9z m3451 -9 c-12 -13 -13 -20 -6 -23 8 -2 7 -8 -4 -17 -14
-12 -16 -10 -16 9 0 13 8 29 18 36 24 19 28 17 8 -5z m-826 -11 c0 -5 7 -6 17
-3 18 7 13 -5 -16 -39 -14 -16 -16 -16 -38 8 -27 29 -29 39 -8 31 8 -4 17 -2
20 3 8 13 25 13 25 0z m-135 -10 c-3 -6 1 -7 9 -4 23 9 19 -4 -11 -34 l-26
-27 -29 26 c-30 29 -37 44 -15 36 8 -3 20 -1 28 4 19 12 52 11 44 -1z m-2460
-10 c-3 -5 -11 -10 -16 -10 -6 0 -7 5 -4 10 3 6 11 10 16 10 6 0 7 -4 4 -10z
m1082 -16 c-3 -3 -12 -4 -19 -1 -8 3 -5 6 6 6 11 1 17 -2 13 -5z m1113 -28 c8
-23 12 -24 51 -15 23 5 43 8 45 6 2 -2 -9 -18 -26 -35 l-30 -32 -28 31 c-28
31 -62 33 -62 3 0 -8 -7 -14 -15 -14 -8 0 -15 6 -15 14 0 8 -10 22 -22 31
l-23 17 23 -7 c12 -3 22 -2 22 4 0 10 21 18 53 20 10 1 21 -9 27 -23z m-2865
4 c8 -13 -5 -13 -25 0 -13 8 -13 10 2 10 9 0 20 -4 23 -10z m4071 -15 c-9 -9
-16 -13 -16 -8 0 12 22 34 28 28 2 -2 -3 -11 -12 -20z m-4703 8 c-7 -2 -21 -2
-30 0 -10 3 -4 5 12 5 17 0 24 -2 18 -5z m101 -1 c3 -5 -8 -6 -25 -4 -16 2
-29 6 -29 8 0 8 49 4 54 -4z m436 -2 c0 -5 -7 -10 -16 -10 -8 0 -12 5 -9 10 3
6 10 10 16 10 5 0 9 -4 9 -10z m3950 -5 c0 -8 -6 -12 -12 -10 -17 6 -45 -12
-35 -22 5 -4 13 -1 18 7 9 12 10 12 5 -2 -3 -10 -1 -18 4 -18 6 0 10 -4 10 -8
0 -5 -21 -6 -47 -2 -27 5 -52 5 -57 2 -5 -3 -6 0 -1 7 4 7 16 10 27 8 24 -7
35 17 18 38 -11 13 -7 15 29 15 29 0 41 -4 41 -15z m63 8 c-7 -2 -19 -2 -25 0
-7 3 -2 5 12 5 14 0 19 -2 13 -5z m231 -11 c-6 -4 -14 -16 -18 -27 -6 -14 -10
-16 -13 -7 -5 14 27 56 36 47 3 -4 1 -9 -5 -13z m-4084 -2 c0 -5 -7 -10 -16
-10 -8 0 -12 5 -9 10 3 6 10 10 16 10 5 0 9 -4 9 -10z m1680 -30 c0 -5 -4 -10
-10 -10 -5 0 -10 5 -10 10 0 6 5 10 10 10 6 0 10 -4 10 -10z m2270 -15 c-7 -8
-20 -15 -29 -15 -11 0 -8 5 9 14 33 19 35 19 20 1z m-855 -6 c83 -1 155 -5
160 -9 6 -4 39 -11 75 -14 168 -18 278 -62 280 -111 0 -17 -74 -45 -82 -31 -4
6 -1 12 7 14 30 7 14 17 -32 20 -26 2 -53 7 -59 13 -8 6 -20 6 -36 -2 -20 -8
-35 -7 -72 5 -26 9 -73 16 -106 16 -99 0 -154 -34 -66 -41 24 -2 42 0 39 4 -6
10 49 -3 62 -14 15 -14 -73 -11 -150 6 -101 21 -119 20 -112 -7 9 -34 -10 -48
-62 -46 -42 1 -43 2 -9 5 20 2 39 11 42 19 3 7 1 14 -4 14 -6 0 -10 -5 -10
-11 0 -9 -46 -8 -170 4 -39 4 -177 -17 -195 -29 -23 -17 -51 -18 -60 -4 -4 6
7 15 24 21 17 6 31 14 31 18 0 10 -23 31 -34 31 -6 0 -5 -5 2 -12 19 -19 14
-27 -24 -34 -22 -4 -31 -9 -24 -14 19 -12 -60 -22 -163 -22 -63 0 -86 -3 -76
-10 10 -7 3 -8 -24 -3 -20 3 -54 8 -74 11 -63 8 -50 15 22 13 77 -3 219 10
211 19 -3 3 -1 11 6 19 17 21 0 31 -78 47 -68 14 -68 14 -24 16 25 1 49 2 53
1 4 -1 17 3 27 9 17 9 19 8 13 -7 -6 -16 -5 -16 11 -4 12 10 45 14 114 14 53
0 102 -2 107 -3 6 -1 31 -2 58 -1 l47 1 0 43 c0 23 4 37 8 30 4 -6 25 -13 47
-16 l40 -4 -42 -1 c-42 -2 -43 -3 -43 -36 0 -33 2 -35 38 -38 41 -3 131 8 141
17 3 4 -1 12 -10 18 -8 7 -18 20 -22 29 -3 10 -12 16 -19 14 -7 -1 -10 -1 -5
1 4 3 7 14 7 25 0 17 5 19 33 14 17 -3 100 -7 182 -7z m722 -5 c-3 -3 -12 -4
-19 -1 -8 3 -5 6 6 6 11 1 17 -2 13 -5z m-1097 -14 c0 -5 -4 -10 -10 -10 -5 0
-10 5 -10 10 0 6 5 10 10 10 6 0 10 -4 10 -10z m-270 -15 c0 -8 5 -15 10 -15
6 0 10 -5 10 -11 0 -6 -7 -9 -16 -7 -8 2 -14 7 -12 11 2 5 -8 15 -22 22 l-25
14 28 1 c17 0 27 -5 27 -15z m-210 -5 c42 -7 41 -8 -25 -7 -38 0 -81 3 -95 8
-35 10 61 10 120 -1z m1747 -123 c-2 -23 -3 -1 -3 48 0 50 1 68 3 42 2 -26 2
-67 0 -90z m49 21 c-4 -62 -11 -131 -16 -153 -8 -35 -9 -32 -4 20 2 33 7 102
11 153 3 50 8 92 11 92 3 0 2 -51 -2 -112z m-1731 63 c19 -12 19 -12 -1 -6
-12 3 -42 10 -65 15 l-44 9 45 -3 c25 -1 54 -8 65 -15z m-141 2 c4 -4 26 -7
49 -6 l42 2 -48 -9 c-27 -5 -51 -11 -54 -14 -6 -5 -33 18 -33 28 0 8 35 7 44
-1z m-60 -27 c-2 -15 25 -42 72 -74 17 -11 16 -12 -11 -8 -16 3 -52 8 -78 11
-42 6 -48 9 -44 26 5 17 3 18 -9 8 -8 -7 -14 -19 -13 -28 3 -29 -1 -42 -9 -37
-5 3 -6 22 -3 43 5 28 15 43 40 60 38 26 57 25 55 -1z m83 -21 c0 -8 -4 -12
-9 -9 -5 3 -6 10 -3 15 9 13 12 11 12 -6z m1307 -21 c9 -3 16 -10 16 -16 0
-20 -70 -37 -175 -41 l-110 -6 55 15 c30 9 76 20 103 26 26 6 47 15 47 19 0
10 41 12 64 3z m-2754 -50 c0 -9 28 -43 62 -75 77 -72 70 -77 -12 -8 -34 28
-67 48 -75 45 -18 -6 -39 19 -31 39 8 21 56 20 56 -1z m60 -30 c0 -2 -9 0 -20
6 -11 6 -20 13 -20 16 0 2 9 0 20 -6 11 -6 20 -13 20 -16z m1810 -9 c0 -8 12
-16 28 -19 15 -2 -25 -2 -88 1 -113 5 -224 18 -185 23 11 1 44 4 74 6 30 2 55
5 57 6 1 2 27 1 58 0 38 -3 56 -8 56 -17z m-560 11 c0 -3 -4 -8 -10 -11 -5 -3
-10 -1 -10 4 0 6 5 11 10 11 6 0 10 -2 10 -4z m1230 -6 c-30 -5 -73 -8 -95 -8
-38 0 -39 1 -10 8 17 4 59 8 95 7 l65 0 -55 -7z m-953 -6 c-3 -3 -12 -4 -19
-1 -8 3 -5 6 6 6 11 1 17 -2 13 -5z m806 -6 c-2 -5 -36 -8 -74 -8 -41 0 -68 4
-64 9 3 6 36 9 74 8 38 -1 67 -5 64 -9z m1645 -15 c-10 -2 -28 -2 -40 0 -13 2
-5 4 17 4 22 1 32 -1 23 -4z m-5558 -32 c0 -5 -7 -12 -16 -15 -14 -5 -15 -4
-4 9 14 17 20 19 20 6z m1745 -49 c-4 -5 -75 37 -75 44 0 3 18 -6 39 -18 22
-12 38 -24 36 -26z m3065 -40 c-5 -22 -19 -51 -30 -64 -17 -20 -16 -15 5 37
14 33 25 71 26 85 2 23 2 23 6 3 2 -12 -1 -39 -7 -61z m2400 48 c0 -5 -4 -10
-10 -10 -5 0 -10 5 -10 10 0 6 5 10 10 10 6 0 10 -4 10 -10z m-5529 -27 c13
-15 12 -15 -8 -4 -24 12 -29 21 -14 21 5 0 15 -7 22 -17z m125 -11 c-7 -7 -46
9 -46 18 0 5 11 4 25 -2 14 -6 23 -13 21 -16z m114 -27 c89 -19 147 -17 268 5
57 11 120 19 140 19 25 -1 10 -6 -43 -14 -44 -7 -100 -18 -125 -24 -25 -6 -73
-11 -108 -11 -71 0 -212 26 -227 42 -7 8 -4 9 10 4 11 -4 49 -14 85 -21z
m3240 -5 c0 -11 -4 -20 -9 -20 -6 0 -9 9 -8 20 1 11 5 20 9 20 4 0 8 -9 8 -20z
m-3586 -107 c10 -32 22 -67 26 -79 11 -28 1 -40 -36 -48 -36 -8 -86 8 -83 26
1 7 -1 25 -5 40 -5 16 -3 35 4 50 12 22 58 67 70 68 3 0 14 -26 24 -57z m3446
27 c0 -5 -9 -6 -20 -3 -11 3 -17 9 -15 14 7 10 35 1 35 -11z m-2681 -17 c65
-12 94 -24 129 -51 49 -37 88 -52 139 -52 17 0 35 -4 38 -10 4 -6 -15 -8 -52
-4 -39 4 -89 0 -147 -11 -146 -29 -305 -12 -434 47 -59 26 -144 79 -138 85 7
8 239 19 316 15 36 -1 103 -10 149 -19z m2628 21 c-3 -3 -12 -4 -19 -1 -8 3
-5 6 6 6 11 1 17 -2 13 -5z m88 -22 c-3 -3 -11 0 -18 7 -9 10 -8 11 6 5 10 -3
15 -9 12 -12z m-3254 -34 c11 -21 11 -22 -4 -9 -10 7 -17 17 -17 22 0 15 9 10
21 -13z m2817 -3 c-3 -3 -9 2 -12 12 -6 14 -5 15 5 6 7 -7 10 -15 7 -18z
m1652 21 c0 -2 -7 -7 -16 -10 -8 -3 -12 -2 -9 4 6 10 25 14 25 6z m-4510 -28
c0 -18 -2 -20 -9 -8 -6 8 -7 18 -5 22 9 14 14 9 14 -14z m977 -15 c-3 -10 -5
-4 -5 12 0 17 2 24 5 18 2 -7 2 -21 0 -30z m2088 27 c3 -5 1 -10 -4 -10 -6 0
-11 5 -11 10 0 6 2 10 4 10 3 0 8 -4 11 -10z m35 6 c0 -3 -4 -8 -10 -11 -5 -3
-10 -1 -10 4 0 6 5 11 10 11 6 0 10 -2 10 -4z m1021 -19 c-10 -9 -11 -8 -5 6
3 10 9 15 12 12 3 -3 0 -11 -7 -18z m-4141 -12 c0 -8 -4 -15 -10 -15 -5 0 -10
7 -10 15 0 8 5 15 10 15 6 0 10 -7 10 -15z m2977 -7 c-3 -8 -6 -5 -6 6 -1 11
2 17 5 13 3 -3 4 -12 1 -19z m-3007 -23 c0 -5 -5 -3 -10 5 -5 8 -10 20 -10 25
0 6 5 3 10 -5 5 -8 10 -19 10 -25z m80 -8 c0 -10 -4 -15 -10 -12 -5 3 -10 18
-10 33 0 21 2 24 10 12 5 -8 10 -23 10 -33z m20 18 c0 -8 -2 -15 -4 -15 -2 0
-6 7 -10 15 -3 8 -1 15 4 15 6 0 10 -7 10 -15z m4507 -89 c-5 -12 -12 -13 -42
-4 -29 10 -34 15 -29 32 4 12 11 23 17 25 5 2 17 11 26 20 15 16 17 14 25 -21
5 -20 6 -43 3 -52z m-4564 64 c3 -11 1 -18 -4 -14 -5 3 -9 12 -9 20 0 20 7 17
13 -6z m157 -16 c0 -21 -20 -37 -20 -16 0 4 -3 17 -6 30 -5 18 -3 21 10 16 9
-3 16 -17 16 -30z m2999 5 c-61 -48 -191 -96 -286 -105 -60 -6 -146 5 -198 26
-80 33 -118 42 -152 37 -26 -5 -33 -3 -23 3 23 14 81 12 114 -5 15 -8 36 -15
45 -15 9 0 22 -5 29 -12 8 -8 15 -8 24 -1 7 6 47 17 88 26 41 8 89 21 105 28
40 17 157 36 224 36 l54 0 -24 -18z m-3069 -24 c0 -5 -5 -3 -10 5 -5 8 -10 20
-10 25 0 6 5 3 10 -5 5 -8 10 -19 10 -25z m887 -12 c-3 -10 -5 -2 -5 17 0 19
2 27 5 18 2 -10 2 -26 0 -35z m4468 37 c3 -5 -1 -10 -10 -10 -9 0 -13 5 -10
10 3 6 8 10 10 10 2 0 7 -4 10 -10z m-5237 -23 c2 -12 -1 -15 -12 -11 -19 7
-22 38 -3 32 6 -3 13 -12 15 -21z m3080 1 c-2 -6 -10 -14 -16 -16 -7 -2 -10 2
-6 12 7 18 28 22 22 4z m35 -8 c-3 -11 -7 -20 -9 -20 -2 0 -4 9 -4 20 0 11 4
20 9 20 5 0 7 -9 4 -20z m29 -25 c-4 -5 -7 -17 -7 -25 -1 -8 -2 -26 -3 -39 -2
-29 -15 -20 -19 14 -2 14 1 25 7 25 6 0 9 4 5 10 -3 5 -2 21 1 37 6 24 8 25
14 8 4 -11 5 -24 2 -30z m58 31 c0 -8 -7 -16 -15 -20 -17 -6 -18 -4 -9 18 8
20 24 21 24 2z m-3150 -18 c0 -13 -23 -5 -28 10 -2 7 2 10 12 6 9 -3 16 -11
16 -16z m3186 -30 c-10 -40 -11 -41 -14 -15 -4 33 3 57 17 57 5 0 4 -18 -3
-42z m46 0 c-10 -22 -11 -21 -11 12 -1 26 2 31 11 22 8 -8 8 -17 0 -34z m-197
-6 c-5 -14 -7 -14 -15 -2 -6 8 -10 20 -10 25 0 6 5 3 10 -5 8 -12 10 -12 11 5
0 11 3 14 6 7 3 -7 2 -20 -2 -30z m216 -45 c-19 -19 -22 -1 -9 43 l13 42 3
-37 c2 -21 -1 -42 -7 -48z m-3701 63 c0 -5 -7 -10 -16 -10 -8 0 -12 5 -9 10 3
6 10 10 16 10 5 0 9 -4 9 -10z m507 4 c-3 -3 -12 -4 -19 -1 -8 3 -5 6 6 6 11
1 17 -2 13 -5z m493 -4 c0 -5 -7 -10 -15 -10 -8 0 -15 5 -15 10 0 6 7 10 15
10 8 0 15 -4 15 -10z m40 0 c0 -5 -2 -10 -4 -10 -3 0 -8 5 -11 10 -3 6 -1 10
4 10 6 0 11 -4 11 -10z m2611 -73 c-18 -18 -20 -4 -8 43 l12 45 3 -39 c2 -21
-1 -43 -7 -49z m-261 43 c0 -20 -5 -30 -15 -30 -15 0 -21 40 -8 53 14 15 23 6
23 -23z m196 14 c-3 -9 -6 -23 -7 -32 -1 -10 -4 -7 -8 8 -9 28 -5 40 11 40 5
0 7 -7 4 -16z m170 -6 c-4 -13 -9 -34 -12 -48 -6 -29 -10 -35 -16 -23 -8 14
13 93 24 93 6 0 8 -9 4 -22z m-155 -71 c-18 -18 -21 -3 -8 43 l12 45 3 -39 c2
-21 -1 -43 -7 -49z m184 26 c-3 -19 -9 -33 -12 -30 -3 3 -2 25 2 49 5 24 10
37 12 30 3 -7 2 -29 -2 -49z m-342 32 c-3 -9 -8 -14 -10 -11 -3 3 -2 9 2 15 9
16 15 13 8 -4z m1307 -4 c0 -14 -6 -19 -20 -18 -33 2 -22 33 13 36 4 1 7 -8 7
-18z m-1410 -11 c0 -11 -4 -20 -10 -20 -5 0 -10 9 -10 20 0 11 5 20 10 20 6 0
10 -9 10 -20z m142 -16 c-4 -22 -6 -24 -14 -10 -9 16 -3 36 11 36 5 0 6 -12 3
-26z m72 -1 c-1 -16 -3 -31 -3 -35 -1 -5 -6 -8 -11 -8 -6 0 -8 11 -4 28 12 48
21 56 18 15z m1145 13 c-12 -10 -59 -15 -59 -6 0 5 14 10 32 10 17 0 29 -2 27
-4z m-1443 -43 c-11 -11 -17 4 -9 23 7 18 8 18 11 1 2 -10 1 -21 -2 -24z m41
15 c-3 -8 -6 -5 -6 6 -1 11 2 17 5 13 3 -3 4 -12 1 -19z m213 -20 c0 -10 -7
-18 -15 -18 -17 0 -18 4 -8 38 4 18 8 20 14 10 5 -7 9 -21 9 -30z m-653 10
c-3 -8 -6 -5 -6 6 -1 11 2 17 5 13 3 -3 4 -12 1 -19z m533 10 c0 -17 -20 -47
-20 -31 0 6 -3 18 -6 27 -4 11 -1 16 10 16 9 0 16 -6 16 -12z m-176 -25 c-7
-28 -34 -63 -34 -44 0 5 5 13 10 16 6 3 10 17 10 31 0 13 5 24 10 24 6 0 8
-11 4 -27z m113 -5 c-3 -7 -5 -2 -5 12 0 14 2 19 5 13 2 -7 2 -19 0 -25z m366
0 c-3 -25 -2 -30 6 -18 9 12 11 11 11 -7 0 -26 -15 -31 -24 -7 -9 23 -7 64 2
64 5 0 7 -15 5 -32z m1029 16 c-12 -8 -22 -21 -22 -27 0 -8 3 -9 8 -1 4 6 15
13 24 17 15 5 17 -1 14 -66 -2 -40 -4 -95 -5 -124 -1 -49 -2 -52 -32 -58 -17
-4 -35 -3 -39 1 -11 12 10 40 35 47 11 4 4 4 -15 2 -21 -3 -43 1 -53 9 -18 14
-17 14 2 21 21 7 28 21 12 27 -4 2 -11 13 -15 24 -6 19 -1 22 46 30 l53 9 -67
3 c-71 3 -95 22 -30 23 34 0 35 1 12 10 -24 10 -24 11 25 39 53 31 85 41 47
14z m-4786 -37 c85 -6 123 -6 136 2 17 10 18 6 18 -48 0 -50 4 -64 24 -85 14
-13 30 -26 37 -28 9 -3 9 -13 -2 -43 -7 -22 -12 -43 -12 -46 1 -3 -19 -6 -45
-8 -25 -1 -60 -8 -77 -16 -16 -7 -37 -16 -45 -19 -8 -3 -1 -4 15 -1 84 14 135
17 135 8 0 -13 -77 -23 -192 -26 -48 -2 -90 -6 -94 -10 -4 -4 4 -7 18 -7 22 0
34 -10 36 -30 0 -3 12 -28 26 -56 38 -75 35 -90 -16 -99 -24 -4 -55 -7 -70 -8
-24 0 -26 -1 -12 -12 16 -11 16 -12 0 -18 -9 -4 -16 -2 -16 3 0 6 -16 10 -35
10 -19 0 -35 -5 -35 -11 0 -5 -5 -7 -10 -4 -6 3 -24 -9 -41 -27 -26 -28 -30
-30 -24 -10 8 27 1 28 -27 2 -20 -18 -34 -20 -177 -18 -156 1 -260 -11 -287
-33 -9 -7 -32 -10 -62 -6 -52 6 -134 -2 -128 -12 2 -3 42 -7 88 -9 90 -3 121
-9 113 -21 -2 -5 -23 -5 -46 -1 -23 4 -53 4 -68 0 -20 -7 -22 -9 -6 -9 11 -1
28 -8 38 -15 18 -14 18 -14 -1 -20 -33 -11 -47 -33 -32 -51 7 -9 10 -18 7 -22
-12 -11 -77 -12 -77 -1 0 6 3 8 7 5 3 -4 12 2 20 13 12 17 12 23 -1 42 -9 12
-16 17 -16 10 0 -6 -9 -12 -19 -12 -11 0 -22 -4 -25 -9 -3 -4 -27 -14 -53 -21
-27 -7 -52 -17 -57 -21 -6 -5 -27 -9 -47 -9 -21 0 -39 -5 -41 -10 -2 -6 -50
-11 -113 -11 -61 -1 -104 -4 -97 -6 24 -9 0 -23 -39 -23 -22 0 -56 -7 -76 -15
-49 -20 -64 -4 -24 24 17 13 31 19 31 16 0 -4 12 0 26 10 20 13 28 14 40 4 10
-8 14 -8 14 0 0 6 -5 11 -11 11 -8 0 -8 4 -1 13 5 6 11 26 14 43 4 31 4 31
-31 23 -48 -11 -51 -11 -51 5 0 8 7 17 17 20 14 6 14 8 -3 21 -18 13 -18 14 2
9 12 -3 25 -1 28 5 5 7 -3 11 -18 11 -30 0 -35 25 -7 33 11 2 21 15 23 28 2
16 11 25 26 27 12 2 22 10 22 18 0 8 -5 12 -10 9 -17 -11 -40 14 -32 35 7 20
65 66 95 76 9 4 17 10 17 15 0 5 6 9 14 9 8 0 16 4 18 9 2 5 31 23 66 40 53
27 62 35 52 47 -8 9 -9 14 -2 14 6 0 12 -6 15 -12 3 -10 9 -8 24 5 11 9 27 17
36 17 9 0 17 5 17 10 0 6 6 10 13 10 12 0 88 38 159 78 45 26 116 26 138 0 11
-13 36 -19 95 -24 74 -6 84 -4 135 21 30 15 78 42 106 61 70 46 159 94 176 95
7 0 40 17 73 38 51 32 62 36 71 23 8 -11 45 -18 130 -25z m3238 28 c-6 -16
-24 -21 -24 -7 0 11 11 22 21 22 5 0 6 -7 3 -15z m277 -22 c-10 -17 -10 -16
-11 3 0 23 13 41 18 25 2 -6 -1 -18 -7 -28z m190 1 c-9 -28 -9 -29 -10 -3 -1
14 2 29 6 32 11 12 13 2 4 -29z m109 -11 c-11 -17 -11 -17 -6 0 3 10 7 26 7
35 1 15 2 15 6 0 2 -10 -1 -25 -7 -35z m-773 15 c-3 -8 -6 -5 -6 6 -1 11 2 17
5 13 3 -3 4 -12 1 -19z m153 13 c0 -6 -4 -13 -10 -16 -5 -3 -10 1 -10 9 0 9 5
16 10 16 6 0 10 -4 10 -9z m157 -13 c-3 -8 -6 -5 -6 6 -1 11 2 17 5 13 3 -3 4
-12 1 -19z m73 -3 c0 -8 -4 -17 -10 -20 -6 -4 -10 5 -10 20 0 15 4 24 10 20 6
-3 10 -12 10 -20z m-5338 3 c223 -2 401 -6 395 -10 -7 -4 9 -8 35 -8 26 0 49
4 52 9 4 5 22 5 43 0 21 -4 39 -5 40 -1 2 4 87 4 190 1 104 -4 274 -7 380 -8
119 -1 194 -5 198 -11 4 -6 25 -8 53 -4 45 5 122 -13 94 -23 -6 -3 -9 -9 -6
-15 7 -11 -51 -68 -69 -68 -7 0 -6 4 3 10 26 16 6 20 -34 6 -37 -13 -234 -14
-371 -1 -27 2 -178 8 -335 12 -157 4 -273 9 -257 11 15 2 27 9 27 15 0 16 -20
46 -20 30 0 -6 -10 -15 -22 -19 -13 -4 -26 -12 -30 -18 -8 -11 -175 -13 -186
-1 -3 3 3 11 13 18 17 13 17 14 0 21 -10 3 -34 1 -54 -5 -25 -9 -36 -9 -39 -1
-2 7 -11 8 -26 2 -12 -4 -28 -5 -35 0 -7 4 -22 5 -33 2 -11 -3 -32 5 -49 17
l-30 22 6 -24 c4 -15 1 -28 -9 -36 -13 -11 -17 -10 -24 10 -5 13 -18 23 -30
24 -14 1 -19 -2 -13 -9 4 -6 11 -19 14 -28 6 -16 0 -18 -46 -16 -50 1 -50 2
-9 5 28 3 42 9 42 19 0 11 -9 13 -40 8 -27 -4 -40 -3 -40 5 0 6 5 11 10 11 6
0 10 7 10 15 0 8 -4 15 -10 15 -5 0 -10 -6 -10 -14 0 -9 -15 -15 -43 -17 -39
-4 -43 -2 -39 15 4 16 1 18 -37 11 -26 -4 -41 -3 -41 4 0 10 -159 9 -255 -3
-27 -3 -44 -4 -37 0 6 3 10 10 6 15 -3 5 2 9 10 9 9 0 16 -6 16 -12 0 -10 2
-10 8 -1 7 12 106 20 187 16 22 -1 223 -3 447 -5z m5008 2 c0 -5 -4 -10 -10
-10 -5 0 -10 5 -10 10 0 6 5 10 10 10 6 0 10 -4 10 -10z m50 0 c0 -5 -4 -10
-10 -10 -5 0 -10 5 -10 10 0 6 5 10 10 10 6 0 10 -4 10 -10z m174 -5 c-4 -8
-8 -15 -10 -15 -2 0 -4 7 -4 15 0 8 4 15 10 15 5 0 7 -7 4 -15z m346 3 c0 -7
-5 -20 -10 -28 -8 -12 -10 -9 -10 13 0 15 5 27 10 27 6 0 10 -6 10 -12z
m-6381 -11 c-14 -7 -34 -18 -43 -26 -14 -12 -19 -11 -34 3 -10 9 -24 16 -30
16 -6 0 -14 5 -17 10 -4 6 22 10 72 9 68 -1 75 -2 52 -12z m94 6 c-7 -2 -19
-2 -25 0 -7 3 -2 5 12 5 14 0 19 -2 13 -5z m1160 0 c-7 -2 -19 -2 -25 0 -7 3
-2 5 12 5 14 0 19 -2 13 -5z m4834 -25 c-3 -7 -5 -2 -5 12 0 14 2 19 5 13 2
-7 2 -19 0 -25z m358 2 c-4 -12 -9 -19 -12 -17 -3 3 -2 15 2 27 4 12 9 19 12
17 3 -3 2 -15 -2 -27z m1270 20 c3 -5 -1 -10 -9 -10 -9 0 -16 5 -16 10 0 6 4
10 9 10 6 0 13 -4 16 -10z m-8342 -7 c-7 -2 -19 -2 -25 0 -7 3 -2 5 12 5 14 0
19 -2 13 -5z m50 0 c-7 -2 -19 -2 -25 0 -7 3 -2 5 12 5 14 0 19 -2 13 -5z m74
1 c-3 -3 -12 -4 -19 -1 -8 3 -5 6 6 6 11 1 17 -2 13 -5z m6453 2 c0 -3 -4 -8
-10 -11 -5 -3 -10 -1 -10 4 0 6 5 11 10 11 6 0 10 -2 10 -4z m97 -28 c-3 -7
-5 -2 -5 12 0 14 2 19 5 13 2 -7 2 -19 0 -25z m233 22 c0 -5 -5 -10 -11 -10
-5 0 -7 5 -4 10 3 6 8 10 11 10 2 0 4 -4 4 -10z m44 -5 c-4 -8 -8 -15 -10 -15
-2 0 -4 7 -4 15 0 8 4 15 10 15 5 0 7 -7 4 -15z m23 -7 c-3 -8 -6 -5 -6 6 -1
11 2 17 5 13 3 -3 4 -12 1 -19z m50 -10 c-3 -7 -5 -2 -5 12 0 14 2 19 5 13 2
-7 2 -19 0 -25z m-390 0 c-3 -8 -6 -5 -6 6 -1 11 2 17 5 13 3 -3 4 -12 1 -19z
m953 -3 c0 -8 -2 -15 -4 -15 -2 0 -6 7 -10 15 -3 8 -1 15 4 15 6 0 10 -7 10
-15z m106 4 c4 -8 0 -9 -15 -4 -15 4 -21 2 -22 -9 -3 -45 -1 -73 6 -91 4 -11
8 -25 10 -32 5 -16 45 -37 45 -23 0 5 -6 10 -12 10 -9 0 -10 3 -2 8 6 4 13 13
15 20 9 27 24 -84 18 -128 l-6 -45 -2 40 c-3 34 -4 36 -10 15 -10 -36 -76 -48
-138 -24 -45 18 -46 18 -24 35 12 10 17 20 12 23 -5 4 -12 0 -14 -6 -3 -7 -6
-4 -7 7 -1 18 -2 18 -15 -5 l-14 -25 0 35 c0 39 16 125 18 97 1 -13 7 -16 26
-11 16 4 25 2 25 -6 0 -6 -4 -9 -9 -5 -13 7 -23 -28 -15 -50 7 -17 8 -17 21 1
7 10 13 30 13 44 0 14 5 31 11 37 14 14 20 73 8 73 -5 0 -9 7 -9 15 0 18 75
21 86 4z m-149 -61 c-2 -13 -4 -5 -4 17 -1 22 1 32 4 23 2 -10 2 -28 0 -40z
m701 -23 c-2 -58 0 -78 12 -85 20 -13 33 -13 25 0 -3 6 2 10 12 10 15 0 16 2
3 10 -13 8 -13 11 -1 19 8 5 11 16 8 25 -5 11 0 15 21 14 15 -1 36 2 47 7 19
8 19 8 2 -12 -16 -19 -16 -21 3 -38 11 -10 20 -23 20 -29 0 -7 9 -19 20 -29
26 -22 19 -33 -29 -48 -30 -9 -43 -8 -67 4 -16 8 -42 17 -57 21 -21 5 -27 11
-22 25 3 10 -1 24 -9 30 -12 10 -13 9 -9 -8 3 -12 1 -21 -6 -21 -6 0 -11 8
-12 18 0 9 -6 2 -13 -17 -14 -39 -24 -26 -21 29 4 118 5 125 16 107 6 -10 8
-24 6 -32 -3 -7 -3 -16 0 -19 10 -10 30 20 37 57 11 59 16 44 14 -38z m113 42
c5 -20 4 -30 -6 -33 -40 -16 -70 21 -44 52 18 22 41 13 50 -19z m158 -107 c1
-82 -21 -36 -25 54 -4 70 -4 70 10 36 8 -19 15 -60 15 -90z m-7004 100 c15 -6
9 -9 -25 -9 -34 0 -40 3 -25 9 11 5 22 9 25 9 3 0 14 -4 25 -9z m6941 -15 c4
-8 10 -12 15 -9 14 8 11 -6 -5 -21 -12 -12 -16 -11 -30 4 -9 10 -16 23 -16 29
0 17 30 15 36 -3z m-749 -42 c-3 -10 -5 -4 -5 12 0 17 2 24 5 18 2 -7 2 -21 0
-30z m66 -11 c-3 -12 -9 -22 -14 -22 -5 0 -3 11 3 25 13 30 20 28 11 -3z m707
-24 l0 -43 -15 28 c-11 23 -12 31 -2 42 17 20 17 20 17 -27z m-4793 -49 c45
-8 63 -15 63 -26 0 -11 -4 -13 -12 -6 -7 5 -41 9 -74 7 -56 -2 -61 0 -57 17 6
22 0 22 80 8z m326 -6 c-13 -2 -33 -2 -45 0 -13 2 -3 4 22 4 25 0 35 -2 23 -4z
m-160 -33 c3 -11 1 -20 -3 -20 -5 0 -10 8 -12 18 -3 9 -8 -3 -12 -28 -5 -25
-13 -51 -18 -57 -6 -7 -6 -13 -2 -13 5 0 15 9 22 20 7 12 17 18 23 15 5 -4 18
-1 27 7 15 12 16 11 3 -5 -8 -10 -18 -16 -24 -14 -5 1 -23 -10 -40 -25 -16
-16 -31 -27 -33 -25 -2 2 6 36 18 75 22 71 41 91 51 52z m-123 -9 c0 -4 -15
-11 -32 -16 -23 -7 -32 -15 -30 -27 2 -15 -5 -18 -38 -18 -35 0 -40 -3 -39
-22 0 -17 2 -19 7 -8 5 10 22 15 55 15 50 0 52 -2 38 -25 -6 -8 -7 -18 -4 -23
7 -12 33 47 34 77 0 11 3 15 6 9 2 -7 -3 -47 -13 -90 -10 -43 -19 -71 -21 -63
-3 11 -15 14 -48 12 -32 -3 -45 0 -45 9 0 8 -6 5 -16 -7 -14 -18 -15 -18 -10
-1 15 46 15 68 0 29 -28 -74 -27 -38 1 61 22 76 30 94 44 90 9 -2 34 0 56 5
40 9 55 7 55 -7z m170 9 c-12 -8 -12 -10 -1 -10 8 0 12 -3 8 -6 -3 -3 -16 1
-29 10 l-22 16 29 0 c23 0 27 -3 15 -10z m70 -4 c0 -3 -4 -8 -10 -11 -5 -3
-10 -1 -10 4 0 6 5 11 10 11 6 0 10 -2 10 -4z m2413 -25 c44 -11 81 -22 84
-24 3 -3 -4 -10 -15 -16 -11 -6 -23 -22 -26 -36 -5 -19 -13 -25 -34 -25 -15 0
-51 -3 -79 -6 l-53 -7 0 72 c0 69 1 71 23 66 12 -3 57 -14 100 -24z m2822 -63
c-7 -89 1 -101 14 -21 8 47 8 47 8 -19 -1 -73 11 -100 33 -73 7 8 18 15 25 15
8 0 11 8 8 20 -3 11 -10 20 -15 20 -6 0 -4 10 4 23 25 37 30 74 13 91 -21 20
-19 26 10 26 21 0 25 -5 27 -32 3 -70 17 -168 23 -168 2 0 10 3 19 6 20 8 21
24 1 24 -8 0 -15 5 -15 10 0 6 7 10 15 10 9 0 16 10 16 23 1 18 3 16 9 -8 7
-29 8 -29 10 -5 3 33 19 -44 25 -125 5 -58 4 -59 -10 -30 -12 25 -14 27 -15 9
0 -23 -18 -34 -55 -34 -13 0 -26 -4 -29 -9 -4 -5 -34 4 -68 21 -39 19 -57 32
-49 37 6 4 9 15 5 24 -3 9 -2 17 4 17 6 0 12 -6 15 -12 4 -10 7 -10 17 -1 11
10 8 14 -13 22 -15 6 -27 16 -27 22 0 8 -4 8 -14 0 -9 -8 -16 -8 -20 -2 -4 5
-2 12 4 16 5 3 10 26 10 49 0 52 11 136 18 136 2 0 1 -37 -3 -82z m-815 37 c0
-16 -35 -21 -44 -6 -8 12 4 21 26 21 10 0 18 -7 18 -15z m864 -12 c-7 -39 -14
-42 -14 -5 0 18 4 32 9 32 5 0 7 -12 5 -27z m-2035 3 c113 -20 87 -33 -76 -40
-352 -15 -334 -15 -331 3 3 13 17 16 68 17 36 0 75 4 87 8 12 4 24 2 28 -4 5
-8 12 -7 23 3 30 27 99 32 201 13z m1668 -8 c-3 -8 -6 -5 -6 6 -1 11 2 17 5
13 3 -3 4 -12 1 -19z m-6824 5 c-7 -2 -21 -2 -30 0 -10 3 -4 5 12 5 17 0 24
-2 18 -5z m1454 -25 c-15 -44 -16 -45 -28 -28 -7 11 -9 7 -4 -16 3 -18 0 -43
-10 -65 l-16 -34 5 30 5 31 -55 -6 c-45 -5 -54 -3 -54 9 0 41 14 61 49 72 20
7 39 17 44 23 5 8 10 6 17 -4 8 -13 10 -12 10 3 0 11 8 17 24 17 23 0 24 -2
13 -32z m3151 16 c32 -4 42 -9 42 -24 0 -16 -10 -19 -75 -22 -55 -2 -75 0 -75
10 0 6 -4 12 -8 12 -4 0 -8 9 -8 19 0 21 -2 21 124 5z m927 6 c3 -5 -1 -10
-10 -10 -9 0 -13 5 -10 10 3 6 8 10 10 10 2 0 7 -4 10 -10z m-142 -25 c42 -4
77 -10 77 -15 0 -5 -13 -14 -30 -22 -35 -15 -35 -16 -11 -47 17 -22 21 -23
147 -20 151 5 169 11 128 46 l-29 25 35 -6 c19 -3 69 -8 110 -11 l75 -6 17
-92 c10 -55 23 -96 33 -103 18 -14 19 -24 3 -24 -7 0 -35 -21 -62 -46 l-49
-47 -62 6 c-43 4 -70 2 -89 -8 -28 -15 -47 -16 -56 -3 -4 4 -60 11 -125 15
-66 4 -112 9 -102 11 9 2 17 8 17 14 0 6 -9 8 -19 5 -15 -4 -21 3 -29 32 -15
59 -80 274 -88 295 -6 15 -3 17 12 13 10 -3 54 -8 97 -12z m207 6 c0 -12 -21
-19 -38 -13 -11 4 -11 6 0 13 17 11 38 11 38 0z m1809 -74 l-23 -22 18 22 c13
15 16 31 12 55 l-5 33 11 -33 c10 -30 9 -35 -13 -55z m-5566 56 c-7 -2 -13 -9
-13 -14 0 -6 5 -7 10 -4 6 3 10 1 10 -4 0 -6 -10 -11 -22 -11 -12 0 -18 -3
-15 -6 3 -4 2 -15 -4 -25 -7 -14 -21 -19 -53 -19 -44 0 -44 0 -52 -42 -4 -24
-9 -38 -11 -31 -7 19 17 93 29 93 6 0 20 7 30 16 15 14 20 15 35 3 15 -11 16
-11 6 1 -10 11 -8 17 15 32 15 10 32 18 37 17 6 0 4 -3 -2 -6z m3430 -140 c20
-65 39 -136 43 -158 l7 -39 -27 18 c-22 14 -30 15 -42 5 -11 -9 -23 -9 -55 0
-42 13 -65 7 -39 -9 8 -5 11 -12 7 -17 -5 -4 -12 -1 -16 6 -6 9 -18 11 -34 7
-14 -3 -29 -1 -32 4 -4 6 -10 8 -15 5 -5 -3 -15 1 -23 9 -11 11 -23 12 -56 5
-30 -7 -49 -5 -73 5 -18 8 -26 15 -18 16 8 1 2 5 -15 9 -23 5 -29 12 -28 27 1
13 -7 26 -22 34 -14 7 -25 20 -25 28 0 9 -3 13 -6 9 -9 -9 6 -48 17 -42 5 4 9
-5 9 -18 0 -14 -6 -24 -15 -24 -9 0 -18 18 -24 51 -26 130 -31 159 -26 164 3
3 69 7 148 10 78 2 147 5 152 7 6 2 46 4 91 4 l80 1 37 -117z m1607 97 c0 -13
-11 -13 -30 0 -12 8 -11 10 8 10 12 0 22 -4 22 -10z m-2280 -10 c0 -5 -5 -10
-10 -10 -6 0 -8 -10 -4 -24 7 -31 -23 -44 -42 -19 -21 28 -16 8 7 -31 14 -24
28 -36 42 -36 l22 1 -22 18 c-13 11 -23 22 -23 25 0 10 38 7 45 -4 4 -6 11 -8
16 -5 5 4 9 -10 9 -29 0 -29 -4 -36 -20 -36 -11 0 -20 -5 -20 -10 0 -7 -6 -7
-19 -1 -10 6 -21 8 -24 4 -3 -3 -14 -3 -23 1 -13 5 -14 9 -4 21 10 12 6 12
-25 4 -40 -11 -75 -4 -75 16 0 21 43 27 59 7 13 -16 13 -16 7 2 -4 13 -2 17 8
13 13 -5 13 -1 0 28 -15 36 -7 49 23 38 16 -6 16 -5 5 9 -12 15 -9 17 20 21
18 2 36 5 41 5 4 1 7 -2 7 -8z m50 -26 c0 -24 -4 -34 -12 -31 -7 2 -12 15 -10
27 1 13 -3 27 -10 32 -9 5 -6 8 10 8 19 0 22 -5 22 -36z m-280 16 c0 -6 -23
-9 -52 -8 l-53 1 50 7 c28 4 51 8 53 8 1 1 2 -2 2 -8z m1220 0 c0 -5 -4 -10
-10 -10 -5 0 -10 5 -10 10 0 6 5 10 10 10 6 0 10 -4 10 -10z m-3728 -50 c6 0
8 -3 5 -6 -10 -11 -38 17 -30 30 5 7 9 5 11 -6 2 -10 8 -18 14 -18z m2472 5
c-4 -8 -7 -15 -9 -15 -2 0 -5 7 -9 15 -3 9 0 15 9 15 9 0 12 -6 9 -15z m1994
-2 c17 -3 32 -11 32 -17 0 -9 45 -18 137 -30 111 -13 142 -21 160 -38 12 -11
33 -26 45 -32 26 -14 26 -21 3 -88 l-17 -46 -76 -4 c-52 -2 -81 1 -90 10 -7 6
-28 12 -45 12 -18 1 -65 2 -105 3 -70 2 -73 1 -78 -23 -12 -55 -17 -52 -34 20
-9 41 -20 87 -23 102 -7 26 -6 27 25 23 l33 -5 -32 12 c-25 8 -33 17 -33 35 0
13 -7 38 -16 55 l-16 31 49 -7 c26 -4 63 -10 81 -13z m-4955 0 c-13 -2 -33 -2
-45 0 -13 2 -3 4 22 4 25 0 35 -2 23 -4z m377 -3 c0 -5 -7 -10 -16 -10 -8 0
-12 5 -9 10 3 6 10 10 16 10 5 0 9 -4 9 -10z m2717 -7 c2 -6 -3 -13 -12 -16
-10 -5 -15 0 -15 14 0 21 21 22 27 2z m-4912 -14 c-4 -19 -1 -20 30 -15 34 7
35 6 35 -25 0 -18 8 -41 18 -52 12 -14 17 -36 17 -81 0 -69 12 -86 57 -80 15
1 28 -1 28 -6 0 -10 -17 -13 -60 -11 -14 1 -36 -7 -49 -18 -13 -12 -30 -21
-37 -21 -7 0 -14 -4 -16 -10 -3 -10 -26 -14 -74 -12 -29 2 -32 5 -37 44 -3 23
-2 49 3 58 5 9 11 52 14 95 4 50 11 84 22 96 11 12 12 18 3 21 -22 7 -1 38 25
38 20 0 24 -4 21 -21z m45 11 c-18 -12 -30 -13 -30 -2 0 4 10 9 22 9 18 2 20
0 8 -7z m1735 -10 c-3 -5 -10 -10 -16 -10 -5 0 -9 5 -9 10 0 6 7 10 16 10 8 0
12 -4 9 -10z m1698 -10 c3 -11 1 -18 -4 -14 -5 3 -9 12 -9 20 0 20 7 17 13 -6z
m1695 -110 c-1 -28 -2 -25 -8 15 -5 28 -8 66 -8 85 1 28 2 25 8 -15 5 -27 8
-66 8 -85z m2412 105 c7 -9 8 -15 2 -15 -5 0 -12 7 -16 15 -3 8 -4 15 -2 15 2
0 9 -7 16 -15z m-2482 -57 c-1 -35 -4 -55 -6 -45 -4 18 -14 22 -25 10 -4 -3
-2 -12 4 -20 9 -10 7 -13 -10 -13 -13 0 -20 -4 -15 -11 4 -7 -2 -9 -17 -7 -15
2 -25 11 -27 23 -2 18 -1 18 10 4 11 -14 15 -14 26 -3 7 8 10 19 7 24 -4 6 2
13 12 17 24 9 33 23 33 56 0 15 2 27 5 27 3 0 4 -28 3 -62z m-3191 30 c-3 -8
-6 -5 -6 6 -1 11 2 17 5 13 3 -3 4 -12 1 -19z m-2190 -14 c62 -3 112 -9 111
-12 0 -4 0 -18 1 -32 l2 -25 14 25 14 25 1 -25 c1 -20 4 -17 15 15 12 37 13
32 13 -85 0 -131 -7 -177 -26 -173 -14 3 -16 -14 -3 -19 10 -4 2 -68 -9 -68
-3 0 -7 16 -8 36 -2 38 -12 62 -12 28 0 -11 -10 -24 -22 -29 -13 -6 -27 -20
-33 -32 -6 -15 -15 -21 -27 -17 -9 3 -26 -3 -37 -13 -39 -36 -52 -44 -87 -59
-20 -8 -34 -20 -31 -27 3 -8 -8 -11 -37 -9 -31 3 -54 -3 -89 -22 -25 -14 -59
-26 -74 -26 -16 0 -35 -6 -42 -12 -10 -11 -11 -10 -6 5 4 9 13 17 21 17 8 0
14 5 14 10 0 16 -60 12 -76 -5 -20 -20 -41 -20 -24 0 15 18 2 24 -45 23 -16
-1 -59 -1 -95 0 -107 2 -158 -2 -172 -16 -6 -6 -16 -12 -21 -12 -5 0 1 9 14
20 l24 19 -72 0 c-40 -1 -78 3 -85 8 -12 7 -40 11 -113 15 -16 0 -24 3 -17 5
6 3 12 11 12 19 0 11 -17 14 -78 14 -83 0 -94 3 -85 26 4 10 16 12 44 8 24 -4
39 -3 39 3 0 6 -18 13 -40 17 -39 6 -55 28 -27 39 7 3 5 6 -5 6 -10 1 -18 -3
-18 -9 0 -5 -7 -10 -15 -10 -30 0 -14 19 30 36 54 20 61 29 41 49 -19 19 -46
19 -46 0 0 -8 -7 -15 -15 -15 -8 0 -15 3 -15 8 0 9 105 92 118 92 5 0 15 7 23
16 7 8 34 27 61 40 44 22 63 44 38 44 -5 0 -10 4 -10 10 0 5 21 7 52 3 39 -5
49 -3 43 6 -4 7 -18 11 -31 8 -16 -3 -24 0 -24 9 0 8 16 16 40 20 22 4 38 10
35 13 -2 4 10 6 28 4 18 -2 26 0 19 3 -6 3 -10 9 -8 12 5 8 654 5 813 -4z
m1990 10 c-3 -3 -12 -4 -19 -1 -8 3 -5 6 6 6 11 1 17 -2 13 -5z m420 -16 c-3
-8 -6 -5 -6 6 -1 11 2 17 5 13 3 -3 4 -12 1 -19z m1362 -29 c6 -29 9 -54 7
-57 -5 -4 -10 15 -19 63 -2 11 -7 19 -13 18 -5 0 -15 5 -22 13 -11 12 -9 14
12 14 21 0 26 -6 35 -51z m-1592 9 c-3 -8 -6 -5 -6 6 -1 11 2 17 5 13 3 -3 4
-12 1 -19z m1650 -20 c-3 -8 -6 -5 -6 6 -1 11 2 17 5 13 3 -3 4 -12 1 -19z
m147 -51 c-3 -23 -7 -55 -8 -72 -2 -16 -6 -37 -9 -45 -4 -8 -6 -31 -4 -50 2
-33 0 -35 -32 -38 l-34 -3 7 38 c3 21 9 62 12 91 4 28 11 52 15 52 5 0 9 9 9
20 0 11 5 20 10 20 6 0 10 9 10 20 0 13 5 18 14 14 11 -4 13 -17 10 -47z
m4056 32 c0 -5 4 -8 9 -5 12 8 41 -3 41 -15 0 -5 -6 -9 -14 -9 -17 0 -65 39
-48 40 6 0 12 -5 12 -11z m-4260 -93 c-1 -56 -17 -28 -25 45 -7 53 -6 54 9 25
9 -15 16 -47 16 -70z m4082 72 c9 -15 1 -28 -18 -28 -8 0 -13 4 -10 9 4 5 -3
7 -13 4 -13 -3 -18 -11 -14 -21 9 -26 -2 -11 -22 27 l-17 34 43 -7 c24 -4 47
-12 51 -18z m139 9 c-1 -4 -3 -7 -6 -7 -3 0 -15 0 -27 1 -22 0 -22 1 -3 9 22
9 37 8 36 -3z m-6524 -23 c-3 -3 -12 -4 -19 -1 -8 3 -5 6 6 6 11 1 17 -2 13
-5z m1760 -56 c-2 -13 -4 -3 -4 22 0 25 2 35 4 23 2 -13 2 -33 0 -45z m-1911
22 c9 0 13 -4 10 -8 -8 -13 -49 -7 -54 8 -3 9 1 11 12 7 10 -4 24 -7 32 -7z
m2404 -43 c0 -10 7 -25 16 -34 10 -10 13 -26 10 -47 -3 -17 -3 -25 0 -18 3 6
12 12 19 12 7 0 12 8 10 18 -1 9 0 11 2 5 7 -21 23 -15 24 10 1 14 6 6 15 -23
8 -25 13 -63 12 -85 l-3 -40 -12 45 -11 45 -1 -37 c-1 -20 -6 -40 -13 -44 -8
-5 -9 -2 -5 9 3 10 2 17 -3 17 -6 0 -10 -11 -10 -24 0 -19 -9 -27 -41 -40 -38
-15 -139 -19 -139 -6 0 3 -12 6 -27 5 -21 0 -28 6 -34 29 -5 17 -6 32 -4 34 7
8 35 -19 35 -34 0 -8 5 -14 10 -14 16 0 11 19 -10 37 -27 23 -26 53 2 61 l22
5 -22 8 -21 8 22 52 c12 28 23 44 25 35 4 -20 52 -18 52 2 0 8 -6 12 -15 9 -8
-4 -17 -1 -21 5 -4 6 -3 9 2 6 5 -3 27 5 49 17 36 19 41 20 53 6 6 -8 12 -23
12 -34z m2037 37 c-3 -3 -12 -4 -19 -1 -8 3 -5 6 6 6 11 1 17 -2 13 -5z m2476
-9 c34 -8 122 -26 195 -42 l132 -27 0 -57 c0 -51 -2 -57 -19 -52 -20 5 -33 47
-25 80 3 12 1 24 -5 27 -7 5 -11 -10 -11 -43 0 -54 -1 -56 -28 -42 -9 5 -37
14 -62 20 -122 31 -231 60 -239 65 -5 4 -7 14 -4 24 2 10 -3 24 -11 31 -9 8
-16 17 -16 22 0 13 21 11 93 -6z m-7803 -9 c0 -2 -7 -6 -15 -10 -8 -3 -15 -1
-15 4 0 6 7 10 15 10 8 0 15 -2 15 -4z m5630 -40 c0 -26 -6 -18 -14 19 -5 22
-4 26 4 15 5 -8 10 -24 10 -34z m-4810 30 c0 -9 -30 -14 -35 -6 -4 6 3 10 14
10 12 0 21 -2 21 -4z m4677 -2 c-3 -3 -12 -4 -19 -1 -8 3 -5 6 6 6 11 1 17 -2
13 -5z m1978 -35 c22 -4 56 -8 76 -9 29 0 41 -6 55 -27 27 -43 72 -84 79 -74
3 5 1 12 -5 16 -19 12 -10 20 22 20 32 0 54 25 21 25 -10 1 -31 7 -48 16 l-30
14 45 -5 c25 -4 58 -13 74 -21 16 -7 36 -14 45 -14 37 0 191 -65 191 -80 0 -6
-12 -16 -27 -23 -16 -6 -31 -16 -35 -22 -4 -5 -42 -15 -85 -21 -43 -7 -85 -14
-93 -16 -8 -3 -12 -3 -7 -1 16 10 -6 23 -37 23 -26 0 -35 5 -41 23 -4 12 -7
25 -6 28 0 4 -9 15 -19 24 -12 11 -20 13 -20 7 0 -7 -10 -12 -22 -12 -36 0 -6
-16 37 -19 5 -1 4 -6 -2 -12 -8 -8 -17 -8 -33 1 -12 6 -24 9 -27 6 -8 -8 7
-26 23 -26 8 0 14 -4 14 -10 0 -16 -10 -12 -49 17 -20 15 -30 19 -21 9 14 -18
12 -18 -30 -12 l-45 6 30 -15 c38 -18 14 -19 -45 -1 -27 8 -38 15 -30 19 10 3
7 6 -7 6 -13 1 -23 5 -23 10 0 10 -52 33 -66 30 -18 -5 -104 14 -104 22 0 5
-15 9 -32 10 -18 1 -44 4 -58 8 -25 7 -25 7 -2 13 12 3 22 2 22 -3 0 -20 89
-6 233 37 13 4 15 12 11 31 -6 23 -5 25 12 18 10 -4 37 -11 59 -16z m-4378
-26 c-3 -10 -5 -4 -5 12 0 17 2 24 5 18 2 -7 2 -21 0 -30z m-3127 -2 c0 -5 -7
-11 -15 -15 -15 -5 -20 5 -8 17 9 10 23 9 23 -2z m7675 -11 c3 -5 1 -10 -4
-10 -6 0 -11 5 -11 10 0 6 2 10 4 10 3 0 8 -4 11 -10z m-6600 -13 c-4 -8 7
-13 30 -14 36 -2 84 -33 51 -33 -9 0 -16 5 -16 10 0 13 -40 13 -60 0 -13 -8
-11 -11 8 -16 12 -4 22 -10 22 -15 0 -14 -33 -10 -54 6 -16 12 -17 17 -6 30
20 24 0 38 -33 23 -15 -7 -27 -16 -27 -20 0 -4 -20 -10 -45 -14 -25 -3 -48
-11 -51 -16 -3 -5 0 -9 7 -7 40 5 48 -4 10 -12 -53 -10 -70 -24 -53 -41 9 -9
17 -7 35 10 24 23 77 30 77 11 0 -7 -12 -9 -30 -7 -22 3 -29 1 -26 -8 3 -7 -7
-20 -21 -30 -21 -13 -30 -14 -44 -6 -10 7 -21 8 -23 3 -3 -5 5 -12 19 -15 14
-4 25 -11 25 -16 0 -14 -13 -12 -29 3 -11 10 -13 9 -8 -5 7 -19 -8 -25 -18 -8
-10 16 -36 12 -54 -8 -16 -17 -71 -27 -71 -12 0 4 14 13 30 20 17 7 30 16 30
21 0 12 -27 11 -35 -1 -10 -16 -45 -12 -45 5 0 17 -47 20 -70 5 -11 -8 -8 -9
12 -4 18 4 33 1 43 -9 19 -20 19 -27 0 -27 -8 0 -15 5 -15 10 0 6 -10 10 -22
9 -16 0 -18 -2 -8 -6 8 -3 26 -15 40 -26 19 -15 20 -18 5 -12 -11 4 -54 11
-95 15 -72 7 -73 7 -20 9 39 1 51 4 40 11 -27 17 3 43 86 72 43 15 80 32 82
38 2 5 20 10 39 10 20 0 54 9 77 19 23 11 58 22 78 26 21 3 37 9 37 13 -3 15
3 17 51 19 36 2 48 -1 45 -10z m-492 -4 c-7 -2 -19 -2 -25 0 -7 3 -2 5 12 5
14 0 19 -2 13 -5z m-606 -9 c-3 -3 -12 -4 -19 -1 -8 3 -5 6 6 6 11 1 17 -2 13
-5z m3153 -31 c0 -26 -3 -34 -11 -26 -9 9 -3 63 7 63 2 0 4 -17 4 -37z m-2406
12 c3 -9 0 -15 -9 -15 -9 0 -12 6 -9 15 4 8 7 15 9 15 2 0 5 -7 9 -15z m306
-12 c-1 -11 -26 -43 -34 -43 -11 0 -6 38 7 43 19 8 27 8 27 0z m-1105 -12 c-6
-6 -30 -13 -55 -16 -42 -6 -44 -5 -26 9 21 17 97 23 81 7z m1305 -6 c0 -6 -73
-25 -78 -20 -2 2 11 8 29 14 41 11 49 12 49 6z m-687 -12 c-7 -2 -19 -2 -25 0
-7 3 -2 5 12 5 14 0 19 -2 13 -5z m2564 -113 c14 -11 32 -20 39 -20 24 0 15
-36 -11 -48 -30 -14 -48 -16 -42 -4 3 4 -9 8 -26 9 -27 1 -29 0 -12 -8 13 -5
-8 -6 -55 -2 -41 3 -81 11 -89 17 -11 8 -13 8 -7 -1 8 -15 -1 -17 -64 -13 -25
1 -48 7 -51 13 -4 5 -16 7 -28 4 -15 -4 -30 3 -50 23 -29 30 -24 40 20 40 10
0 19 6 19 13 0 8 20 11 70 10 70 -2 89 4 170 47 19 11 45 17 58 15 13 -3 23 0
24 7 1 7 3 -8 5 -34 3 -36 10 -52 30 -68z m5020 38 c-3 -7 -5 -2 -5 12 0 14 2
19 5 13 2 -7 2 -19 0 -25z m33 6 c0 -8 -4 -12 -10 -9 -5 3 -10 10 -10 16 0 5
5 9 10 9 6 0 10 -7 10 -16z m-4387 -11 c-7 -2 -19 -2 -25 0 -7 3 -2 5 12 5 14
0 19 -2 13 -5z m-4103 -18 c0 -8 -4 -15 -10 -15 -5 0 -10 -4 -10 -10 0 -5 11
-10 24 -10 14 0 27 -4 30 -9 8 -13 -18 -21 -44 -14 -13 4 -26 0 -32 -8 -7 -10
-11 -11 -14 -2 -4 8 -25 11 -62 8 -50 -3 -53 -2 -29 8 15 6 27 14 27 19 0 4 9
8 19 8 10 0 21 6 24 14 5 13 25 20 65 25 6 0 12 -6 12 -14z m885 5 c3 -6 -1
-13 -10 -16 -19 -8 -30 0 -20 15 8 14 22 14 30 1z m2966 -5 c16 -9 27 -20 24
-25 -4 -6 1 -10 10 -10 9 0 13 -5 10 -11 -4 -6 3 -13 16 -16 22 -6 22 -7 3
-14 -15 -6 -16 -8 -2 -8 11 -1 15 -7 11 -21 -8 -32 -64 -27 -103 10 -18 17
-38 30 -46 30 -20 0 -17 13 6 28 11 7 20 21 20 32 0 24 11 25 51 5z m4536 9
c-3 -3 -12 -4 -19 -1 -8 3 -5 6 6 6 11 1 17 -2 13 -5z m-7047 -14 c0 -5 -7
-10 -15 -10 -8 0 -15 5 -15 10 0 6 7 10 15 10 8 0 15 -4 15 -10z m6853 3 c-7
-2 -19 -2 -25 0 -7 3 -2 5 12 5 14 0 19 -2 13 -5z m-7356 -9 c-3 -3 -12 -4
-19 -1 -8 3 -5 6 6 6 11 1 17 -2 13 -5z m7573 -3 c0 -12 -20 -25 -27 -18 -7 7
6 27 18 27 5 0 9 -4 9 -9z m-7110 -11 c0 -5 -10 -10 -22 -10 -19 0 -20 2 -8
10 19 13 30 13 30 0z m6706 1 c-3 -5 -15 -7 -26 -4 -28 7 -25 13 6 13 14 0 23
-4 20 -9z m-4366 -10 c0 -10 -30 -24 -37 -17 -3 3 -2 9 2 15 8 13 35 15 35 2z
m564 -20 c-5 -5 -22 -12 -39 -15 -30 -6 -30 -5 3 6 17 6 32 15 32 21 0 6 3 7
7 4 4 -4 2 -11 -3 -16z m-3918 -12 c-15 -4 -34 -5 -41 -3 -11 5 -72 -8 -111
-23 -8 -3 -14 0 -14 6 0 6 7 11 15 11 8 0 15 4 15 10 0 5 30 10 68 12 78 4
109 -2 68 -13z m839 11 c3 -5 -1 -10 -10 -10 -9 0 -13 5 -10 10 3 6 8 10 10
10 2 0 7 -4 10 -10z m145 -5 c0 -2 -14 -3 -31 -3 -17 1 -25 4 -18 8 10 7 49 2
49 -5z m3069 -6 c-15 -15 -24 -18 -32 -10 -18 18 -35 13 -40 -11 -3 -21 -4
-21 -11 -5 -11 24 -3 30 41 34 19 1 38 5 41 8 3 3 9 5 14 5 4 0 -1 -9 -13 -21z
m-3019 1 c0 -13 -11 -13 -30 0 -12 8 -11 10 8 10 12 0 22 -4 22 -10z m-250
-10 c0 -5 -4 -10 -9 -10 -6 0 -13 5 -16 10 -3 6 1 10 9 10 9 0 16 -4 16 -10z
m3294 -24 c-7 -19 -63 -31 -77 -17 -15 15 -2 24 20 13 13 -7 24 -6 38 4 24 18
26 17 19 0z m-4630 -21 c-4 -9 2 -18 17 -24 14 -6 18 -10 9 -11 -8 0 -1 -7 15
-15 l30 -13 -30 -1 c-16 0 -48 2 -69 6 l-39 6 29 24 c18 14 23 23 14 23 -13 0
-13 1 0 10 22 14 30 12 24 -5z m756 5 c0 -5 -5 -10 -11 -10 -5 0 -7 5 -4 10 3
6 8 10 11 10 2 0 4 -4 4 -10z m-1310 -14 c0 -2 -7 -7 -16 -10 -8 -3 -12 -2 -9
4 6 10 25 14 25 6z m3920 -6 c-21 -7 -19 -8 18 -9 33 -1 42 -5 42 -18 1 -38
61 -81 135 -98 17 -4 56 -15 87 -25 31 -10 66 -16 77 -13 12 3 21 1 21 -4 0
-5 25 -8 55 -7 60 2 66 -6 35 -46 -18 -23 -24 -25 -117 -24 -54 0 -89 -1 -78
-3 11 -2 29 -8 40 -13 44 -18 57 -19 86 -5 17 9 29 11 29 5 0 -6 -7 -13 -15
-16 -12 -5 -13 -10 -4 -20 9 -12 4 -14 -32 -15 -37 -1 -40 -2 -19 -9 l25 -8
-25 0 c-14 0 -34 3 -45 7 -18 7 -17 9 10 19 29 12 29 12 3 7 -41 -8 -108 5
-108 21 0 8 -2 14 -4 14 -13 0 -72 -25 -78 -33 -4 -7 -13 -6 -24 3 -9 8 -24
15 -33 15 -9 0 -16 7 -16 15 0 12 -12 14 -55 12 -51 -2 -53 -1 -36 13 25 19
82 19 136 0 38 -14 46 -13 74 0 22 12 56 15 118 14 49 -1 87 2 85 7 -2 8 -62
9 -217 6 -37 -1 -207 3 -306 7 -12 1 -25 8 -28 17 -6 17 1 17 49 -1 19 -7 19
-7 2 6 -10 8 -23 26 -30 39 -7 15 -23 26 -38 28 -13 2 -30 12 -37 23 -12 18
-11 21 8 26 19 5 19 6 3 19 -16 12 -15 14 14 12 17 -1 37 3 45 10 15 12 102
30 148 30 l25 0 -25 -8z m-3423 -6 c-3 -3 -12 -4 -19 -1 -8 3 -5 6 6 6 11 1
17 -2 13 -5z m3805 -60 c26 -8 80 -16 120 -17 39 -1 64 -3 54 -5 -9 -2 -14 -7
-11 -12 6 -10 -124 -22 -175 -17 -43 5 -122 27 -134 39 -6 4 -19 8 -30 8 -19
0 -18 2 7 24 16 14 36 22 46 19 10 -3 22 0 25 6 5 7 14 4 28 -9 12 -11 43 -27
70 -36z m-2375 30 c-3 -3 -12 -4 -19 -1 -8 3 -5 6 6 6 11 1 17 -2 13 -5z
m2753 -4 c0 -13 -34 -30 -59 -30 -24 0 -26 5 -8 25 14 16 67 20 67 5z m-3480
-10 c-14 -4 -32 -8 -40 -9 -13 -1 -13 0 0 9 8 5 26 9 40 9 l25 -1 -25 -8z
m-200 -4 c0 -2 -7 -7 -16 -10 -8 -3 -12 -2 -9 4 6 10 25 14 25 6z m119 -24
c-18 -14 -35 -18 -64 -14 l-40 5 35 13 c19 7 48 13 64 13 l29 1 -24 -18z
m2521 8 c0 -5 -7 -10 -15 -10 -8 0 -15 5 -15 10 0 6 7 10 15 10 8 0 15 -4 15
-10z m-3050 -4 c0 -2 -13 -6 -29 -8 -17 -2 -28 -1 -25 4 5 8 54 12 54 4z
m4000 -22 c0 -9 -28 -3 -46 11 -17 13 -16 14 14 4 17 -6 32 -13 32 -15z
m-3495 -39 c-11 -8 -25 -19 -32 -25 -18 -15 -53 -12 -53 5 0 14 14 19 70 28
14 3 27 5 30 5 3 1 -4 -5 -15 -13z m3485 -26 c0 -5 -5 -9 -11 -9 -5 0 -8 -4
-4 -10 4 -6 15 -6 30 0 19 7 25 6 25 -5 0 -7 -4 -16 -10 -20 -5 -3 -7 -12 -4
-19 3 -9 -6 -15 -26 -20 -20 -4 -34 -13 -37 -26 -5 -18 -24 -24 -70 -23 -7 1
-13 -3 -13 -8 0 -6 -9 -5 -20 1 -14 7 -26 8 -39 0 -27 -14 -31 -13 -31 9 0 21
97 121 118 121 6 0 12 4 12 9 0 5 18 9 40 9 22 0 40 -3 40 -9z m340 -6 c-14
-3 -29 -9 -34 -14 -14 -13 -23 -11 -29 4 -4 10 7 14 42 14 25 1 35 -1 21 -4z
m107 1 c-3 -3 -12 -4 -19 -1 -8 3 -5 6 6 6 11 1 17 -2 13 -5z m53 -64 c-33
-26 -48 -26 -25 0 10 11 25 20 34 20 12 0 9 -6 -9 -20z m-3941 -11 c-18 -11
-59 -12 -59 -1 0 4 16 9 37 9 24 1 32 -2 22 -8z m-92 -5 c-3 -3 -12 -4 -19 -1
-8 3 -5 6 6 6 11 1 17 -2 13 -5z m4053 -40 c0 -17 -22 -14 -28 4 -2 7 3 12 12
12 9 0 16 -7 16 -16z m-3773 -26 c-3 -8 -6 -5 -6 6 -1 11 2 17 5 13 3 -3 4
-12 1 -19z m2700 7 c9 -25 -4 -29 -17 -6 -7 15 -7 21 0 21 6 0 13 -7 17 -15z
m147 -40 c4 -10 -1 -15 -14 -15 -20 0 -26 11 -13 23 10 11 20 8 27 -8z m-57
-1 c-3 -3 -12 -4 -19 -1 -8 3 -5 6 6 6 11 1 17 -2 13 -5z m-1707 -64 c-20 -13
-43 -13 -35 0 3 6 16 10 28 10 18 0 19 -2 7 -10z"/>
<path d="M8313 6725 c0 -8 4 -12 9 -9 5 3 6 10 3 15 -9 13 -12 11 -12 -6z"/>
<path d="M8170 6670 c-9 -6 -10 -10 -3 -10 6 0 15 5 18 10 8 12 4 12 -15 0z"/>
<path d="M8250 6669 c0 -5 5 -7 10 -4 6 3 10 8 10 11 0 2 -4 4 -10 4 -5 0 -10
-5 -10 -11z"/>
<path d="M8710 6600 c-9 -6 -10 -10 -3 -10 6 0 15 5 18 10 8 12 4 12 -15 0z"/>
<path d="M8640 6580 c0 -5 5 -10 11 -10 5 0 7 5 4 10 -3 6 -8 10 -11 10 -2 0
-4 -4 -4 -10z"/>
<path d="M8670 6580 c0 -6 7 -10 15 -10 8 0 15 2 15 4 0 2 -7 6 -15 10 -8 3
-15 1 -15 -4z"/>
<path d="M2598 5553 c23 -2 59 -2 80 0 20 2 1 4 -43 4 -44 0 -61 -2 -37 -4z"/>
<path d="M10034 5179 c-3 -6 -1 -16 5 -22 8 -8 11 -5 11 11 0 24 -5 28 -16 11z"/>
<path d="M2080 5110 c0 -5 5 -10 10 -10 6 0 10 5 10 10 0 6 -4 10 -10 10 -5 0
-10 -4 -10 -10z"/>
<path d="M2498 4593 c12 -2 32 -2 45 0 12 2 2 4 -23 4 -25 0 -35 -2 -22 -4z"/>
<path d="M9415 4330 c-4 -6 5 -10 19 -10 20 0 30 -9 46 -40 11 -22 25 -40 30
-40 6 0 10 -7 10 -15 0 -11 11 -15 39 -15 22 0 41 -4 43 -9 2 -5 40 -13 85
-16 81 -7 82 -7 110 21 l28 29 -72 3 c-78 3 -101 21 -30 23 39 1 38 2 -17 10
-47 7 -64 15 -86 39 -26 29 -30 30 -113 30 -47 0 -89 -4 -92 -10z"/>
<path d="M9280 4322 c0 -15 87 -52 122 -52 27 0 37 5 41 20 5 18 0 20 -39 20
-24 0 -44 5 -44 10 0 6 -18 10 -40 10 -22 0 -40 -4 -40 -8z"/>
<path d="M818 4003 c12 -2 32 -2 45 0 12 2 2 4 -23 4 -25 0 -35 -2 -22 -4z"/>
<path d="M738 3983 c12 -2 32 -2 45 0 12 2 2 4 -23 4 -25 0 -35 -2 -22 -4z"/>
<path d="M8598 3949 c-6 -4 4 -10 22 -14 19 -4 36 -3 43 4 6 6 9 12 7 12 -17
5 -62 4 -72 -2z"/>
<path d="M4455 3900 c-19 -8 -19 -9 3 -9 12 -1 22 4 22 9 0 6 -1 10 -2 9 -2 0
-12 -4 -23 -9z"/>
<path d="M4278 3893 c23 -2 61 -2 85 0 23 2 4 4 -43 4 -47 0 -66 -2 -42 -4z"/>
<path d="M7970 3530 c0 -5 3 -10 8 -10 4 0 27 -18 51 -40 52 -47 73 -53 34
-10 -14 17 -32 30 -40 30 -7 0 -13 3 -13 8 0 4 -9 13 -20 20 -12 7 -20 8 -20
2z"/>
<path d="M8026 3433 c10 -16 33 -53 51 -83 35 -59 91 -123 161 -182 23 -19 42
-39 42 -43 0 -4 -6 -2 -13 4 -20 16 -90 44 -83 32 12 -19 152 -81 184 -81 39
0 40 9 3 35 -15 11 -55 52 -88 90 -33 39 -104 108 -157 153 -53 46 -96 88 -96
93 0 5 -5 9 -11 9 -7 0 -4 -11 7 -27z m189 -190 c19 -9 35 -21 35 -25 0 -5
-10 -3 -22 3 -13 7 -34 18 -48 26 -37 19 -7 16 35 -4z"/>
<path d="M7756 3405 c-3 -9 0 -15 9 -15 16 0 20 16 6 24 -5 3 -11 -1 -15 -9z"/>
<path d="M7732 3385 c0 -16 2 -22 5 -12 2 9 2 23 0 30 -3 6 -5 -1 -5 -18z"/>
<path d="M7880 3151 c0 -26 16 -35 24 -15 10 25 7 34 -9 34 -8 0 -15 -9 -15
-19z"/>
<path d="M7885 3070 c3 -5 8 -10 11 -10 2 0 4 5 4 10 0 6 -5 10 -11 10 -5 0
-7 -4 -4 -10z"/>
<path d="M7531 3344 c0 -11 3 -14 6 -6 3 7 2 16 -1 19 -3 4 -6 -2 -5 -13z"/>
<path d="M7560 3306 c0 -14 0 -28 0 -31 0 -3 3 -5 8 -5 10 0 11 50 1 56 -5 3
-9 -6 -9 -20z"/>
<path d="M6787 2823 c-3 -5 -1 -17 4 -28 7 -17 8 -17 8 8 1 27 -4 34 -12 20z"/>
<path d="M6701 2764 c0 -11 3 -14 6 -6 3 7 2 16 -1 19 -3 4 -6 -2 -5 -13z"/>
<path d="M5460 2560 c0 -5 4 -10 9 -10 6 0 13 5 16 10 3 6 -1 10 -9 10 -9 0
-16 -4 -16 -10z"/>
<path d="M5610 2459 c0 -11 5 -17 10 -14 6 3 10 13 10 21 0 8 -4 14 -10 14 -5
0 -10 -9 -10 -21z"/>
<path d="M6006 2401 c19 -15 64 -30 69 -22 2 5 -14 13 -36 19 -23 6 -38 7 -33
3z"/>
<path d="M6090 2379 c0 -5 5 -7 10 -4 6 3 10 8 10 11 0 2 -4 4 -10 4 -5 0 -10
-5 -10 -11z"/>
<path d="M3230 1510 c0 -5 4 -10 9 -10 6 0 13 5 16 10 3 6 -1 10 -9 10 -9 0
-16 -4 -16 -10z"/>
<path d="M3195 1470 c3 -5 8 -10 11 -10 2 0 4 5 4 10 0 6 -5 10 -11 10 -5 0
-7 -4 -4 -10z"/>
<path d="M2680 1450 c-45 -7 -45 -7 -10 -10 52 -5 82 -2 94 10 11 11 -11 11
-84 0z"/>
<path d="M3098 1383 c7 -3 16 -2 19 1 4 3 -2 6 -13 5 -11 0 -14 -3 -6 -6z"/>
<path d="M2480 1310 c0 -5 5 -10 10 -10 6 0 10 5 10 10 0 6 -4 10 -10 10 -5 0
-10 -4 -10 -10z"/>
<path d="M3260 1290 c0 -5 5 -10 10 -10 6 0 10 5 10 10 0 6 -4 10 -10 10 -5 0
-10 -4 -10 -10z"/>
<path d="M3320 1240 c0 -11 5 -20 10 -20 6 0 10 9 10 20 0 11 -4 20 -10 20 -5
0 -10 -9 -10 -20z"/>
<path d="M3200 1220 c0 -5 18 -10 40 -10 22 0 40 5 40 10 0 6 -18 10 -40 10
-22 0 -40 -4 -40 -10z"/>
<path d="M2040 993 c0 -4 5 -15 10 -23 8 -13 10 -13 10 2 0 9 -4 20 -10 23 -5
3 -10 3 -10 -2z"/>
<path d="M2177 1666 c-9 -24 21 -27 71 -6 l47 19 -56 0 c-40 1 -58 -3 -62 -13z"/>
<path d="M2338 1673 c6 -2 18 -2 25 0 6 3 1 5 -13 5 -14 0 -19 -2 -12 -5z"/>
<path d="M1760 1660 c0 -5 7 -10 16 -10 8 0 12 5 9 10 -3 6 -10 10 -16 10 -5
0 -9 -4 -9 -10z"/>
<path d="M2753 1663 c9 -2 25 -2 35 0 9 3 1 5 -18 5 -19 0 -27 -2 -17 -5z"/>
<path d="M2058 1653 c7 -3 16 -2 19 1 4 3 -2 6 -13 5 -11 0 -14 -3 -6 -6z"/>
<path d="M2870 1640 c-9 -6 -10 -10 -3 -10 6 0 15 5 18 10 8 12 4 12 -15 0z"/>
<path d="M1960 1615 c0 -8 5 -15 10 -15 6 0 10 7 10 15 0 8 -4 15 -10 15 -5 0
-10 -7 -10 -15z"/>
<path d="M2010 1620 c20 -13 33 -13 25 0 -3 6 -14 10 -23 10 -15 0 -15 -2 -2
-10z"/>
<path d="M7760 1461 c0 -6 4 -13 10 -16 6 -3 7 1 4 9 -7 18 -14 21 -14 7z"/>
<path d="M6395 1320 c-3 -5 -1 -10 4 -10 6 0 11 5 11 10 0 6 -2 10 -4 10 -3 0
-8 -4 -11 -10z"/>
<path d="M9435 1180 c-3 -5 -1 -10 4 -10 6 0 11 5 11 10 0 6 -2 10 -4 10 -3 0
-8 -4 -11 -10z"/>
<path d="M3560 1350 c0 -5 5 -10 10 -10 6 0 10 5 10 10 0 6 -4 10 -10 10 -5 0
-10 -4 -10 -10z"/>
<path d="M3532 1290 c0 -14 2 -19 5 -12 2 6 2 18 0 25 -3 6 -5 1 -5 -13z"/>
<path d="M3448 1273 c6 -2 18 -2 25 0 6 3 1 5 -13 5 -14 0 -19 -2 -12 -5z"/>
<path d="M7620 1130 c14 -4 36 -8 50 -8 22 0 22 1 -5 8 -16 4 -39 8 -50 8 -16
0 -15 -2 5 -8z"/>
<path d="M7708 1113 c7 -3 16 -2 19 1 4 3 -2 6 -13 5 -11 0 -14 -3 -6 -6z"/>
<path d="M7575 1081 c3 -6 22 -11 42 -11 44 0 41 5 -10 14 -27 5 -37 4 -32 -3z"/>
<path d="M7830 1080 c14 -4 32 -8 40 -9 13 -1 13 0 0 9 -8 5 -26 9 -40 9 l-25
-1 25 -8z"/>
<path d="M7694 1069 c-6 -10 2 -14 61 -28 22 -5 58 -15 80 -20 22 -6 63 -13
90 -16 39 -4 46 -3 32 6 -10 6 -30 13 -45 15 -15 3 -58 13 -97 23 -106 28
-115 30 -121 20z"/>
<path d="M7940 1050 c36 -11 50 -11 50 0 0 6 -17 10 -37 9 -34 -1 -35 -2 -13
-9z"/>
<path d="M6920 1190 c0 -5 5 -10 10 -10 6 0 10 5 10 10 0 6 -4 10 -10 10 -5 0
-10 -4 -10 -10z"/>
<path d="M6951 1184 c0 -11 3 -14 6 -6 3 7 2 16 -1 19 -3 4 -6 -2 -5 -13z"/>
<path d="M7143 1113 c9 -2 25 -2 35 0 9 3 1 5 -18 5 -19 0 -27 -2 -17 -5z"/>
<path d="M7040 1070 c0 -5 5 -10 10 -10 6 0 10 5 10 10 0 6 -4 10 -10 10 -5 0
-10 -4 -10 -10z"/>
<path d="M7308 1043 c7 -3 16 -2 19 1 4 3 -2 6 -13 5 -11 0 -14 -3 -6 -6z"/>
<path d="M8417 1039 c6 -6 41 -14 77 -16 36 -3 66 -10 66 -14 0 -5 19 -9 42
-9 57 0 43 9 -39 25 -121 24 -159 27 -146 14z"/>
<path d="M8681 1001 c-9 -6 -5 -10 15 -13 16 -3 37 -9 47 -13 27 -12 20 11 -8
23 -31 14 -36 14 -54 3z"/>
<path d="M1750 990 c-13 -8 -12 -10 3 -10 9 0 17 5 17 10 0 12 -1 12 -20 0z"/>
<path d="M668 1123 c18 -2 30 -9 27 -14 -4 -5 1 -9 9 -9 9 0 16 7 16 15 0 11
-11 15 -42 13 -38 -1 -39 -2 -10 -5z"/>
<path d="M560 1095 c0 -9 6 -12 15 -9 8 4 12 10 9 15 -8 14 -24 10 -24 -6z"/>
<path d="M1530 1046 c0 -8 -6 -16 -12 -18 -8 -3 -4 -9 10 -17 20 -11 22 -10
22 13 0 14 -4 28 -10 31 -5 3 -10 0 -10 -9z"/>
<path d="M1510 970 c0 -6 -10 -10 -22 -10 -18 0 -20 -2 -9 -9 12 -8 9 -11 -12
-16 -53 -14 -26 -35 36 -27 33 4 37 7 37 32 0 16 -7 30 -15 34 -8 3 -15 1 -15
-4z m17 -32 c-3 -8 -6 -5 -6 6 -1 11 2 17 5 13 3 -3 4 -12 1 -19z"/>
<path d="M320 900 c0 -5 7 -7 15 -4 8 4 15 8 15 10 0 2 -7 4 -15 4 -8 0 -15
-4 -15 -10z"/>
<path d="M1444 889 c-3 -5 6 -9 20 -9 31 0 34 6 6 13 -11 3 -23 1 -26 -4z"/>
<path d="M320 770 c0 -5 5 -10 10 -10 6 0 10 5 10 10 0 6 -4 10 -10 10 -5 0
-10 -4 -10 -10z"/>
<path d="M258 713 c12 -2 32 -2 45 0 12 2 2 4 -23 4 -25 0 -35 -2 -22 -4z"/>
<path d="M1128 633 c-10 -2 -18 -9 -18 -14 0 -13 13 -11 36 6 19 14 14 17 -18
8z"/>
<path d="M5200 860 c0 -5 5 -10 11 -10 5 0 7 5 4 10 -3 6 -8 10 -11 10 -2 0
-4 -4 -4 -10z"/>
<path d="M9750 935 c-18 -21 8 -29 51 -16 l34 11 -38 -3 c-28 -2 -36 0 -33 10
7 17 1 16 -14 -2z"/>
<path d="M9850 913 c-8 -2 -21 -6 -28 -9 -10 -3 -10 -7 -1 -17 16 -17 61 -16
67 1 3 9 -4 11 -25 7 l-28 -6 30 15 c28 14 18 20 -15 9z"/>
<path d="M9344 889 c-3 -5 4 -9 14 -9 11 0 35 -3 53 -6 23 -5 31 -3 24 4 -13
14 -84 22 -91 11z"/>
<path d="M4680 650 c0 -5 5 -10 10 -10 6 0 10 5 10 10 0 6 -4 10 -10 10 -5 0
-10 -4 -10 -10z"/>
<path d="M5368 593 c7 -3 16 -2 19 1 4 3 -2 6 -13 5 -11 0 -14 -3 -6 -6z"/>
<path d="M4440 480 c-24 -8 -23 -8 8 -9 20 -1 31 3 27 9 -3 6 -7 10 -8 9 -1
-1 -13 -5 -27 -9z"/>
<path d="M4465 440 c-3 -5 -1 -10 4 -10 6 0 11 5 11 10 0 6 -2 10 -4 10 -3 0
-8 -4 -11 -10z"/>
</g>
</svg>
