<?xml version="1.0" standalone="no"?>
<!DOCTYPE svg PUBLIC "-//W3C//DTD SVG 20010904//EN"
 "http://www.w3.org/TR/2001/REC-SVG-20010904/DTD/svg10.dtd">
<svg version="1.0" xmlns="http://www.w3.org/2000/svg"
 width="1080.000000pt" height="720.000000pt" viewBox="0 0 1080.000000 720.000000"
 preserveAspectRatio="xMidYMid meet">

<g transform="translate(0.000000,720.000000) scale(0.100000,-0.100000)"
fill="#000000" stroke="none">
<path d="M8000 7190 c0 -5 12 -10 26 -10 14 0 23 4 19 10 -3 6 -15 10 -26 10
-10 0 -19 -4 -19 -10z"/>
<path d="M0 6706 c0 -114 -6 -110 158 -108 102 2 113 0 124 -18 23 -37 38 -24
38 33 l0 54 -40 12 c-21 6 -46 18 -54 27 -9 8 -25 16 -35 17 -11 0 -18 4 -15
9 2 4 -18 15 -46 25 -27 10 -50 23 -50 30 0 8 -14 13 -40 13 l-40 0 0 -94z"/>
<path d="M406 6575 c-8 -8 -19 -15 -25 -15 -14 0 -14 -3 6 -49 12 -27 26 -42
51 -51 18 -6 36 -9 39 -6 4 3 13 0 22 -8 22 -20 100 -46 139 -46 18 0 52 -9
74 -20 50 -24 152 -28 174 -6 21 22 18 23 -33 21 -27 -1 -35 0 -19 2 l29 4
-29 18 c-16 9 -48 23 -71 31 -24 7 -43 16 -43 21 0 7 -37 15 -117 25 -24 4
-43 9 -43 13 0 4 -18 14 -40 21 -22 7 -40 17 -40 22 0 16 -35 8 -48 -12 -7
-11 -17 -20 -22 -20 -6 0 -10 9 -10 20 0 11 7 20 15 20 8 0 15 7 15 15 0 8 -2
15 -4 15 -3 0 -11 -7 -20 -15z"/>
<path d="M4320 6189 c0 -5 -18 -9 -40 -9 -22 0 -40 -4 -40 -10 0 -6 -33 -10
-80 -10 -44 0 -80 -4 -80 -9 0 -11 -58 -71 -68 -71 -7 0 -52 -62 -52 -72 0
-10 55 -17 97 -11 30 4 44 11 52 29 14 31 51 40 90 19 17 -9 36 -13 41 -10 16
10 50 -5 50 -21 0 -8 7 -14 15 -14 22 0 19 -7 -20 -45 -19 -19 -44 -35 -56
-35 -11 0 -32 -9 -46 -20 -20 -15 -28 -17 -43 -7 -11 6 -22 8 -26 5 -10 -11 6
-28 27 -28 10 0 19 -6 19 -13 0 -7 21 -19 48 -26 43 -13 100 -39 112 -51 27
-29 230 -39 258 -13 7 7 20 17 29 21 13 8 14 15 4 45 -15 44 -9 57 27 58 46 1
87 22 87 44 0 16 -15 25 -75 44 -41 13 -91 30 -111 38 -28 12 -45 12 -75 4
-21 -6 -45 -11 -51 -11 -22 0 -14 27 12 44 14 9 25 23 25 31 0 7 -11 22 -25
33 -14 11 -25 25 -25 31 0 6 -9 11 -20 11 -12 0 -17 5 -14 14 3 9 -4 15 -20
18 -14 3 -26 1 -26 -3z"/>
<path d="M8871 6146 c-10 -11 -28 -13 -80 -9 -61 5 -71 3 -90 -16 -12 -12 -31
-23 -42 -24 -10 -1 -19 -5 -19 -9 0 -4 -7 -8 -15 -8 -11 0 -13 -8 -8 -32 3
-18 10 -37 14 -42 22 -24 9 -39 -29 -33 -32 6 -42 2 -69 -23 -21 -20 -42 -30
-62 -30 -20 0 -31 -5 -31 -14 0 -24 -40 -47 -62 -35 -19 10 -58 -4 -58 -21 0
-6 -7 -10 -15 -10 -8 0 -15 7 -15 15 0 8 -6 15 -14 15 -8 0 -21 -7 -30 -15 -8
-8 -20 -15 -26 -15 -6 0 -22 -7 -35 -16 -25 -16 -25 -16 -26 17 -1 19 -3 27
-6 18 -2 -9 -15 -16 -31 -16 -34 0 -122 -50 -122 -69 0 -8 -4 -14 -10 -14 -5
0 -10 -9 -10 -19 0 -11 5 -23 10 -26 6 -3 10 -21 10 -40 0 -19 -4 -37 -10 -40
-5 -3 -10 -13 -10 -21 0 -20 20 -17 21 4 0 14 3 12 17 -8 9 -13 30 -39 45 -57
l29 -33 -25 -30 c-14 -16 -27 -34 -29 -40 -2 -6 -18 -12 -36 -12 -38 -1 -59
-28 -43 -55 7 -14 2 -25 -27 -51 -22 -19 -44 -31 -54 -28 -10 2 -20 0 -23 -4
-3 -4 -14 -6 -25 -3 -11 3 -26 0 -34 -6 -8 -7 -21 -11 -28 -9 -27 6 -88 -25
-88 -44 0 -21 -46 -26 -53 -5 -3 9 -10 9 -30 -2 -15 -8 -27 -18 -27 -23 0 -5
9 -4 19 2 14 7 29 6 55 -5 20 -9 36 -11 36 -7 0 5 54 15 120 22 84 9 120 17
120 26 0 7 9 16 21 19 11 4 18 10 14 13 -4 4 17 12 47 17 50 10 53 12 50 38
-3 19 1 27 12 27 9 0 16 6 16 13 0 23 86 40 170 34 87 -6 129 -21 145 -53 19
-39 35 -51 67 -52 38 -1 85 22 115 57 28 31 29 41 6 42 -10 0 -4 5 12 10 17 5
40 7 53 4 12 -3 39 -1 60 4 20 5 56 13 80 16 24 3 64 17 90 31 26 14 61 27 77
29 102 14 166 16 177 8 13 -10 51 -10 78 0 54 19 80 25 75 17 -10 -16 3 -11
44 16 31 20 51 25 99 25 34 0 67 -3 74 -7 7 -5 21 -7 30 -6 13 2 16 -1 12 -12
-3 -9 -1 -16 5 -16 6 0 11 9 11 19 0 16 11 26 40 36 17 6 50 19 80 31 20 9 56
15 80 16 25 0 50 4 55 8 6 4 28 10 51 13 23 2 56 12 75 20 19 9 53 21 77 27
34 9 42 15 37 29 -13 42 57 81 133 73 35 -3 52 -1 52 7 0 6 17 11 40 11 35 0
40 3 40 24 0 14 -10 30 -26 41 -18 12 -24 23 -21 37 3 11 3 17 0 14 -3 -3 -19
9 -34 27 -62 69 -79 81 -79 57 0 -6 -28 -10 -64 -10 -36 0 -68 -5 -71 -11 -4
-6 -13 -8 -21 -5 -8 3 -31 -3 -52 -14 -20 -11 -56 -20 -80 -20 -40 0 -102 -24
-110 -42 -5 -12 -82 -9 -82 2 0 6 -37 10 -90 10 -49 0 -101 5 -115 12 -21 9
-28 9 -34 -1 -6 -9 -19 -1 -48 28 -32 33 -47 41 -76 41 -21 0 -37 -4 -37 -9 0
-16 -93 -19 -117 -4 -12 7 -29 13 -37 13 -8 0 -32 17 -53 38 -46 46 -85 64
-121 57 -15 -3 -21 -2 -13 1 10 5 4 12 -20 25 -19 10 -28 18 -21 19 7 0 10 5
7 10 -9 14 -21 12 -34 -4z"/>
<path d="M10382 5872 c-20 -6 -62 -56 -62 -74 0 -27 102 -6 125 26 8 10 27 16
55 16 36 0 41 -2 30 -15 -6 -8 -9 -19 -5 -25 8 -13 35 -13 35 0 0 6 18 10 40
10 27 0 40 4 40 13 0 23 -45 39 -116 42 -38 1 -80 5 -94 8 -14 3 -35 2 -48 -1z"/>
<path d="M6630 5309 c-118 -62 -253 -100 -385 -109 -88 -6 -105 -4 -144 14
-24 11 -51 31 -61 43 -10 13 -22 23 -28 23 -6 0 -33 11 -60 25 -57 28 -132 34
-155 11 -18 -18 -10 -66 10 -66 12 0 14 -8 9 -40 l-6 -40 57 -25 c32 -14 65
-34 73 -45 18 -22 138 -50 218 -50 29 0 76 8 105 18 38 14 60 16 82 10 51 -16
96 -10 136 17 21 14 45 25 53 25 8 0 18 5 21 10 3 6 24 10 47 10 40 0 40 -1
35 -30 -5 -24 -3 -30 11 -30 15 0 15 2 2 10 -11 7 -3 9 28 8 23 -1 42 -6 42
-12 0 -7 19 -10 50 -9 27 1 52 -3 55 -8 10 -15 43 -10 53 8 12 21 42 10 42
-17 0 -17 6 -20 40 -20 39 0 78 15 92 35 4 5 37 11 74 12 40 2 78 10 91 19 13
8 33 12 43 9 18 -6 20 -1 20 39 0 25 5 46 10 46 6 0 10 -7 10 -15 0 -8 9 -15
20 -15 18 0 19 3 10 20 -9 17 -8 20 14 20 14 0 28 -4 31 -10 8 -13 105 -13
125 0 12 7 12 13 4 27 -9 15 -26 18 -105 18 -52 0 -98 2 -104 4 -26 9 -95 0
-95 -12 0 -16 -70 -40 -119 -41 -19 -1 -36 -7 -38 -13 -7 -21 -23 -15 -23 8 0
11 16 37 36 56 l37 35 -74 -2 c-110 -5 -139 -2 -139 13 0 8 -18 22 -40 32 -22
10 -40 22 -40 27 0 4 -17 8 -37 7 -25 0 -70 -17 -133 -50z"/>
<path d="M6960 5290 c0 -5 5 -10 10 -10 6 0 10 5 10 10 0 6 -4 10 -10 10 -5 0
-10 -4 -10 -10z"/>
<path d="M2 5048 c3 -7 15 -15 29 -19 24 -7 24 -7 -3 -8 -23 -1 -28 -6 -28
-26 0 -18 5 -25 20 -25 11 0 20 -4 20 -10 0 -5 21 -15 47 -21 53 -14 43 -22
-41 -34 -45 -7 -46 -8 -46 -46 0 -37 1 -38 38 -41 20 -2 57 1 81 6 29 5 56 4
80 -3 20 -6 47 -12 61 -14 23 -2 25 2 30 43 4 39 8 45 31 48 31 4 57 -22 41
-40 -17 -21 -18 -62 -3 -74 13 -10 13 -14 -2 -29 -10 -10 -15 -25 -12 -35 3
-10 1 -21 -5 -25 -9 -6 -5 -66 6 -86 2 -4 31 0 65 8 34 8 74 13 88 11 26 -3
26 -3 -8 -21 -25 -12 -37 -14 -42 -6 -4 7 -12 8 -20 3 -8 -5 -23 -10 -33 -11
-11 -2 -27 -10 -36 -18 -9 -8 -22 -15 -29 -15 -7 0 -22 -11 -32 -24 -13 -17
-34 -27 -63 -31 -46 -7 -90 1 -81 15 3 4 -2 11 -11 14 -23 9 -6 28 18 20 14
-4 18 -2 14 5 -11 17 5 13 19 -5 9 -13 16 -14 30 -7 17 10 17 11 -3 17 -26 9
-28 22 -6 34 11 6 15 17 11 31 -4 17 0 24 16 31 12 5 16 9 8 9 -9 1 -12 9 -9
26 4 21 1 25 -18 25 -13 0 -24 -4 -24 -9 0 -11 -73 -21 -80 -11 -5 7 -77 15
-107 11 -21 -2 -15 -37 10 -54 l22 -16 -22 0 c-16 -1 -23 -7 -23 -21 0 -25 35
-43 71 -36 39 8 63 -2 49 -20 -19 -22 -66 -27 -94 -8 l-26 16 0 -2286 0 -2286
1080 1 c843 0 1079 2 1073 12 -5 9 -3 9 9 -1 20 -16 895 -17 915 0 9 7 13 7
13 -1 0 -8 51 -11 170 -11 129 0 170 3 170 13 0 9 2 9 8 0 5 -8 32 -12 80 -11
39 0 69 5 66 10 -3 4 0 8 5 8 6 0 11 -4 11 -10 0 -16 32 -11 46 8 9 11 13 13
14 4 0 -7 5 -10 10 -7 6 3 10 1 10 -5 0 -7 46 -10 145 -8 80 1 145 7 145 12 0
4 6 4 13 -2 20 -17 2494 -17 2500 0 4 10 6 10 6 1 1 -10 447 -13 2156 -13
l2155 0 -1 316 c-1 313 -1 315 -22 324 l-22 9 23 0 22 1 -1 638 c0 350 -3 631
-6 625 -7 -18 -70 -46 -88 -39 -8 3 -30 -3 -49 -13 -26 -15 -37 -17 -46 -8
-10 9 -14 9 -17 -1 -3 -6 -10 -9 -15 -6 -6 4 -16 1 -22 -7 -7 -8 -31 -14 -61
-15 -27 -1 -61 -3 -75 -4 -14 -2 -37 0 -52 4 -22 7 -28 5 -28 -8 0 -21 -10
-20 -25 1 -13 17 -14 17 -34 -1 -11 -10 -27 -16 -35 -13 -9 4 -18 2 -21 -3 -9
-15 -25 -12 -19 4 3 9 -4 15 -23 19 -31 6 -57 -9 -49 -29 8 -20 -11 -26 -19
-6 -6 15 -8 14 -16 -6 -5 -13 -14 -20 -19 -17 -6 4 -29 -3 -50 -14 -22 -11
-40 -16 -40 -10 0 18 -122 7 -152 -14 -23 -15 -28 -16 -28 -3 0 20 -49 15 -61
-7 -12 -21 -69 -33 -79 -16 -7 10 -11 10 -24 0 -14 -12 -16 -10 -16 8 0 32
-14 25 -35 -17 -10 -20 -20 -31 -22 -24 -6 16 -23 16 -23 -1 0 -18 -38 -48
-46 -36 -4 7 -10 6 -19 -1 -10 -8 -19 -8 -34 -1 -12 7 -22 7 -26 1 -3 -5 -12
-7 -20 -3 -11 3 -15 -2 -15 -17 0 -18 -3 -20 -14 -11 -14 12 -46 5 -46 -9 0
-13 -61 -30 -85 -24 -13 3 -26 1 -29 -4 -3 -6 -15 -8 -26 -5 -12 3 -22 -1 -26
-11 -7 -17 -34 -22 -34 -7 0 5 -21 7 -46 4 -41 -4 -46 -2 -40 12 4 11 2 15 -6
12 -7 -2 -12 -13 -10 -25 4 -25 -17 -40 -29 -21 -8 12 -12 11 -23 -3 -7 -10
-16 -15 -19 -11 -4 3 -7 2 -7 -3 0 -5 -4 -15 -9 -23 -7 -12 -14 -10 -36 8 -33
26 -62 27 -68 3 -4 -15 -5 -15 -6 2 -1 13 -6 17 -21 13 -11 -3 -20 -1 -20 4 0
5 -13 9 -30 9 -16 0 -30 -4 -30 -10 0 -5 -4 -10 -10 -10 -5 0 -10 7 -10 15 0
8 -4 15 -10 15 -5 0 -10 -7 -10 -15 0 -8 -6 -15 -14 -15 -8 0 -27 -5 -43 -12
-35 -14 -83 -18 -83 -7 0 15 -20 10 -51 -12 -17 -12 -39 -19 -49 -16 -13 3
-21 -1 -25 -13 -11 -34 -36 -32 -70 5 -32 34 -54 43 -69 28 -4 -5 -47 -9 -94
-10 -107 -2 -245 -22 -254 -37 -4 -6 -5 -22 -2 -36 4 -22 3 -22 -5 -5 -18 37
-13 103 9 125 11 11 20 25 20 30 0 6 3 10 8 10 7 0 32 48 32 63 0 4 -5 5 -12
1 -8 -5 -9 -2 -3 12 13 32 12 196 -2 226 -9 18 -11 46 -6 87 6 65 -4 79 -27
36 -13 -24 -15 -24 -38 -9 -22 14 -25 14 -44 -3 -20 -18 -21 -17 -47 15 -33
39 -43 41 -31 5 14 -46 20 -92 12 -97 -4 -2 -9 7 -10 20 -2 32 -20 64 -34 64
-7 0 -22 10 -35 22 -13 12 -23 17 -23 11 0 -5 9 -18 20 -28 11 -10 20 -28 20
-39 -1 -20 -2 -19 -14 3 -8 14 -36 38 -62 53 -28 16 -41 28 -31 28 10 0 15 5
12 10 -4 6 -10 8 -15 5 -11 -7 -80 21 -80 32 1 23 43 56 70 56 31 0 38 15 18
35 -9 9 -9 15 0 24 17 17 15 25 -9 31 -14 4 -20 12 -17 27 2 14 -6 26 -23 37
-37 22 -89 3 -89 -33 0 -15 -6 -24 -16 -24 -13 0 -14 -3 -5 -14 9 -11 7 -19
-14 -40 -29 -29 -32 -46 -7 -47 13 0 12 -2 -5 -9 -13 -5 -23 -12 -23 -15 0 -4
6 -3 13 1 6 4 3 -2 -8 -13 -21 -20 -55 -37 -67 -35 -19 4 -36 -51 -42 -136
l-6 -92 30 -26 c16 -15 27 -30 25 -35 -3 -4 -1 -10 4 -14 6 -3 -4 -25 -21 -50
l-32 -45 -15 24 c-8 14 -24 27 -35 30 -35 9 -84 7 -91 -5 -4 -6 -14 -8 -22 -4
-9 3 -31 3 -50 -1 -42 -8 -56 -33 -73 -139 -7 -44 -18 -83 -23 -86 -5 -4 -6
-13 -1 -20 5 -8 9 -20 11 -28 1 -8 11 -27 22 -42 23 -31 27 -49 11 -49 -5 0
-10 6 -10 14 0 17 -27 29 -35 16 -4 -6 -20 -10 -37 -10 -21 0 -31 -6 -35 -20
-3 -11 -12 -20 -19 -20 -8 0 -14 -4 -14 -9 0 -5 -7 -12 -16 -15 -15 -6 -15 -4
1 20 20 31 17 75 -14 189 -12 44 -26 109 -31 144 -5 34 -16 71 -26 82 -9 10
-19 39 -21 64 -3 25 -9 45 -13 45 -10 0 -40 -35 -40 -46 0 -12 -63 -30 -160
-45 -41 -6 -128 -29 -192 -50 -64 -22 -124 -39 -133 -39 -9 0 -37 -11 -63 -24
-26 -13 -53 -21 -61 -18 -10 3 -11 0 -5 -9 5 -9 -1 -8 -19 3 -32 22 -44 23
-27 3 9 -10 9 -15 1 -15 -10 0 -15 14 -12 33 1 4 -5 10 -13 13 -11 4 -13 15
-9 37 l6 32 -20 -24 c-18 -22 -51 -23 -38 -1 10 16 -26 63 -38 51 -20 -20 -24
-11 -19 42 3 43 0 56 -18 75 -14 15 -19 29 -15 42 4 12 2 20 -5 20 -6 0 -4 10
6 24 11 18 13 30 6 42 -14 25 6 74 34 84 32 13 30 26 -11 67 -31 31 -39 34
-81 31 -29 -2 -50 -9 -55 -18 -15 -29 -22 -55 -20 -72 1 -10 -2 -18 -8 -18 -5
0 -12 -9 -16 -20 -3 -11 -22 -38 -41 -61 -19 -22 -31 -46 -27 -51 3 -6 2 -8
-3 -5 -18 11 -38 -12 -41 -45 -1 -18 -9 -62 -18 -98 -9 -36 -15 -79 -13 -96 2
-21 -2 -35 -12 -42 -14 -8 -15 0 -14 64 l2 74 -31 0 c-39 0 -31 9 11 12 33 2
41 11 21 24 -7 4 -8 9 -1 13 6 3 11 42 12 86 4 141 2 149 -25 161 -18 9 -25 9
-29 0 -2 -6 -5 -3 -5 7 -1 24 -18 21 -32 -6 -7 -12 -12 -23 -11 -24 6 -9 0
-23 -9 -23 -7 0 -9 8 -4 23 9 30 11 104 2 113 -4 4 -16 -1 -27 -11 -11 -10
-20 -13 -20 -7 0 6 5 14 11 17 7 5 3 14 -10 27 -18 16 -19 23 -10 40 10 18 9
20 -6 14 -15 -6 -16 -4 -5 10 12 13 11 17 -1 24 -10 7 -16 3 -21 -11 -4 -11
-12 -17 -18 -14 -5 3 -10 1 -10 -4 0 -6 -4 -11 -10 -11 -5 0 -10 7 -10 16 0
12 6 15 20 11 17 -4 20 -2 15 14 -4 10 -2 19 3 19 31 0 17 86 -21 128 -27 29
-94 30 -152 1 -65 -33 -110 -129 -61 -129 12 0 14 -7 10 -30 -5 -22 -3 -30 7
-30 10 -1 8 -4 -4 -11 -9 -6 -15 -14 -12 -20 4 -5 1 -9 -5 -9 -23 0 -80 -53
-80 -74 0 -12 -7 -32 -16 -44 -9 -14 -16 -47 -17 -83 -2 -58 0 -62 33 -90 19
-16 46 -29 60 -29 24 0 25 -2 25 -70 0 -38 -3 -70 -6 -70 -3 0 -22 -11 -42
-24 -19 -13 -52 -30 -73 -36 -85 -28 -104 -39 -96 -60 12 -32 53 -72 68 -66
17 7 19 -10 2 -18 -7 -3 -4 -4 6 -3 10 1 21 -4 23 -11 3 -7 -1 -11 -8 -10 -8
2 -15 -7 -17 -20 -3 -19 -6 -21 -18 -11 -8 6 -14 20 -14 31 0 16 -3 18 -13 9
-10 -8 -18 -4 -34 17 -16 22 -28 28 -56 27 -23 -1 -38 4 -42 13 -3 8 -12 11
-20 8 -10 -3 -18 1 -22 12 -4 9 -12 21 -20 25 -7 4 -13 14 -13 20 0 7 -15 21
-32 31 -23 12 -27 13 -14 2 42 -34 1 -29 -72 8 -42 22 -94 48 -114 58 -57 29
-46 7 15 -29 46 -28 65 -41 114 -83 7 -5 17 -10 23 -10 5 0 10 -4 10 -10 0 -5
7 -10 15 -10 24 0 39 -39 25 -66 -7 -13 -16 -21 -20 -19 -12 7 -76 -52 -66
-62 5 -4 11 -2 13 5 7 19 23 3 23 -24 0 -16 14 -38 40 -63 34 -32 40 -44 40
-79 0 -49 -19 -68 -21 -20 -1 18 -3 25 -6 16 -3 -14 -7 -15 -18 -5 -7 6 -11
15 -9 18 5 8 -52 62 -61 57 -7 -3 -37 69 -36 87 0 6 4 25 7 43 5 25 2 38 -14
55 -11 12 -22 31 -24 42 -3 16 -10 19 -34 17 -35 -3 -52 16 -73 79 -8 26 -8
44 0 66 10 30 12 31 42 21 18 -6 37 -14 42 -18 13 -9 55 -20 55 -14 0 3 -14
10 -30 16 -28 9 -30 13 -24 44 3 19 1 63 -6 98 -12 67 -37 103 -64 93 -8 -3
-17 1 -20 9 -9 23 -8 24 13 24 25 0 38 20 14 20 -22 1 -53 23 -53 39 0 6 -4
11 -10 11 -5 0 -10 13 -10 30 0 73 -84 92 -169 39 -55 -35 -62 -48 -30 -56 17
-5 20 -11 15 -39 -4 -18 -2 -35 4 -39 16 -10 12 -23 -10 -30 -11 -3 -20 -10
-20 -15 0 -6 -22 -42 -49 -82 -54 -82 -69 -142 -52 -218 5 -24 8 -46 6 -48 -4
-4 -41 17 -67 38 -13 10 -14 16 -5 22 12 8 -10 12 -43 9 -13 -2 -13 0 -1 8 11
7 10 11 -8 22 -27 18 -27 33 0 26 15 -4 19 -2 15 10 -3 8 -6 17 -6 19 0 3 -5
2 -11 -2 -24 -14 -79 -22 -86 -11 -3 6 -1 7 5 3 7 -4 12 -2 12 3 0 6 -12 11
-27 11 -16 0 -39 6 -53 13 -21 11 -24 18 -22 52 l3 40 -25 -31 c-14 -17 -38
-34 -53 -37 -35 -7 -74 -43 -67 -61 4 -11 0 -13 -16 -9 -19 5 -20 7 -6 15 9 5
16 14 16 19 0 6 -4 8 -9 5 -4 -3 -26 10 -49 29 -22 19 -43 35 -45 35 -12 0 30
-109 46 -121 9 -7 -17 -71 -36 -88 -8 -6 -18 -37 -21 -69 -4 -31 -9 -69 -12
-84 -4 -22 -2 -28 13 -29 16 0 16 -1 -2 -9 -14 -6 -15 -9 -5 -10 10 -1 9 -4
-5 -10 -17 -7 -17 -9 -2 -9 9 -1 17 -8 17 -16 0 -18 -30 -20 -30 -2 -1 6 -7
-3 -16 -22 -17 -39 -5 -94 24 -110 9 -5 28 -28 42 -50 20 -34 31 -41 66 -47
23 -3 56 -3 73 1 l31 7 0 -76 c0 -41 5 -78 10 -81 6 -4 10 27 10 84 0 90 0 91
25 91 24 0 25 -2 25 -64 0 -47 -4 -65 -14 -69 -13 -5 -13 -11 2 -39 9 -18 24
-69 32 -112 9 -44 22 -82 29 -84 9 -3 11 6 7 34 l-5 39 13 -40 c18 -49 21
-155 5 -155 -6 0 -9 -6 -6 -14 8 -19 -3 -28 -19 -15 -8 7 -14 7 -19 -1 -5 -8
-13 -6 -26 6 -15 14 -19 14 -19 3 0 -16 -4 -17 -99 -25 -44 -4 -61 -3 -57 5 4
6 0 11 -8 11 -8 0 -19 -7 -24 -17 -11 -19 -42 -11 -42 12 0 17 -16 20 -25 5
-5 -8 -12 -7 -22 2 -12 10 -17 9 -28 -5 -11 -15 -13 -16 -19 -2 -3 8 -14 15
-25 15 -11 0 -26 6 -33 14 -10 10 -20 11 -32 4 -11 -6 -21 -6 -29 0 -7 6 -31
12 -55 15 -23 2 -48 9 -54 15 -17 17 -48 15 -48 -3 0 -9 -6 -12 -15 -9 -8 4
-12 10 -9 16 9 14 -26 36 -50 31 -12 -3 -17 -1 -11 4 17 12 15 51 -1 57 -8 3
-24 0 -35 -7 -15 -9 -21 -9 -27 0 -8 12 -62 6 -62 -7 0 -12 -29 -40 -41 -40
-5 0 -8 6 -6 13 2 13 -79 14 -122 1 -20 -6 -22 -4 -16 15 4 12 2 21 -4 21 -6
0 -11 -8 -11 -17 0 -22 -57 -24 -71 -2 -7 11 -9 11 -9 -3 0 -22 -18 -24 -26
-3 -5 13 -9 13 -22 3 -12 -11 -17 -9 -30 10 -14 21 -15 21 -28 5 -12 -16 -13
-16 -14 -1 0 13 -8 15 -47 12 -27 -3 -59 -7 -71 -9 -13 -2 -32 1 -41 7 -13 8
-27 8 -48 0 -26 -9 -34 -7 -52 11 -14 14 -21 17 -21 8 0 -11 -3 -11 -15 -1 -9
7 -22 9 -32 5 -10 -5 -28 -7 -40 -6 -11 1 -24 -2 -28 -8 -4 -7 -12 -7 -26 2
-17 10 -22 9 -30 -5 -6 -10 -17 -18 -24 -18 -8 0 -15 -4 -15 -10 0 -5 -9 -10
-19 -10 -11 0 -22 -4 -26 -10 -3 -5 -12 -7 -20 -3 -8 3 -15 0 -15 -6 0 -6 -9
-11 -20 -11 -11 0 -20 4 -20 9 0 16 -59 24 -75 11 -8 -7 -12 -16 -9 -21 8 -14
-40 -11 -54 3 -9 9 -12 9 -12 0 0 -7 -9 -12 -20 -12 -11 0 -20 -5 -20 -11 0
-5 -4 -8 -10 -4 -5 3 -6 13 -3 23 6 15 5 15 -10 4 -9 -8 -19 -22 -22 -33 -6
-17 -8 -18 -31 -3 -13 9 -31 13 -40 10 -9 -4 -23 -1 -30 5 -11 9 -16 6 -23
-12 -5 -16 -5 -26 3 -31 6 -4 -4 -6 -21 -5 -18 1 -33 6 -33 11 0 6 -6 2 -13
-8 -7 -10 -20 -17 -28 -15 -40 7 -64 -32 -37 -59 7 -7 8 -12 2 -12 -5 0 -15
10 -23 22 -12 19 -11 24 9 40 14 11 17 18 9 18 -8 0 -24 3 -36 6 -18 5 -23 2
-23 -13 0 -11 -3 -23 -7 -26 -8 -9 -32 23 -32 43 0 11 3 10 14 -4 13 -18 15
-18 15 -3 0 15 7 17 48 11 37 -5 51 -2 61 10 11 14 11 16 -3 16 -9 0 -16 -5
-16 -11 0 -5 -5 -7 -11 -4 -6 4 -8 10 -5 13 13 12 -19 32 -53 32 -21 0 -46 7
-57 15 -25 19 -34 19 -34 0 0 -18 -9 -19 -32 -1 -12 9 -18 27 -18 55 0 37 2
41 25 41 16 0 25 -6 25 -15 0 -11 11 -15 40 -15 22 0 40 -4 40 -10 0 -5 18
-10 40 -10 33 0 40 3 40 20 0 17 -7 20 -40 20 -39 0 -40 1 -40 36 l0 37 40 -6
c29 -4 40 -1 40 8 0 15 53 27 86 19 17 -5 24 -2 24 9 0 8 6 17 13 20 19 7 111
-5 125 -16 13 -10 25 -1 35 28 2 6 14 2 25 -9 20 -17 22 -18 28 -2 5 13 14 16
30 12 20 -5 24 -2 25 16 1 17 2 19 6 5 5 -21 23 -23 23 -2 0 8 9 15 20 15 11
0 20 -7 20 -15 0 -8 5 -15 10 -15 6 0 10 7 10 15 0 11 12 15 44 15 41 0 44 2
50 32 l6 32 16 -22 c13 -19 19 -21 30 -11 10 8 12 15 4 23 -15 15 -12 42 5 56
17 14 21 35 5 25 -6 -3 -13 0 -16 8 -3 8 -15 15 -27 16 -48 3 -86 3 -182 2
-129 -3 -125 -3 -125 10 0 6 7 9 15 5 8 -3 15 0 15 6 0 7 14 9 40 5 31 -4 40
-2 40 9 0 9 -8 14 -17 12 -12 -2 -18 3 -18 17 0 11 -4 23 -10 27 -5 4 0 8 12
8 12 0 23 -3 26 -7 2 -5 3 -3 1 3 -5 23 79 33 211 26 126 -7 176 -3 276 26 43
12 89 5 89 -14 0 -20 21 -28 31 -13 14 22 11 37 -8 42 -18 4 28 20 96 33 28 6
32 4 29 -11 -4 -21 28 -33 116 -41 32 -3 70 -10 83 -15 27 -10 97 -12 130 -3
32 9 29 37 -7 67 -33 28 -29 35 24 48 l31 7 -32 1 c-53 2 -47 19 12 31 30 6
65 20 77 30 l23 19 -23 1 c-13 0 -20 4 -17 10 6 10 -31 29 -56 28 -62 -4 -119
4 -119 15 0 9 27 12 99 13 117 1 197 19 180 40 -6 8 -27 14 -46 14 -20 0 -36
6 -39 14 -8 20 -42 27 -87 17 -36 -9 -61 1 -35 13 12 5 -12 0 -52 -11 -8 -2
-4 4 9 14 31 24 139 65 173 67 14 0 29 4 33 8 4 4 13 4 20 2 7 -3 30 4 52 16
22 11 64 29 94 40 30 11 45 20 34 20 -14 1 -16 3 -5 7 66 23 185 105 185 128
0 7 8 21 17 32 8 10 19 33 23 50 3 18 11 33 16 33 5 0 9 7 9 15 0 8 6 15 13
15 20 1 51 33 62 64 6 16 24 38 40 48 32 19 34 20 112 54 51 22 53 24 42 51
-19 50 -48 89 -76 102 -33 15 -103 70 -103 80 0 21 281 50 535 56 188 4 506
24 520 33 5 4 30 9 55 13 l45 6 -38 2 c-30 1 -47 10 -85 46 -27 26 -64 51 -87
57 -22 7 -51 19 -64 27 -13 8 -36 14 -51 13 -15 -1 -40 5 -56 13 -16 8 -45 15
-64 15 -20 0 -40 4 -45 9 -6 6 -28 14 -50 20 -131 32 -190 54 -215 81 -34 36
-84 58 -155 69 -44 7 -94 19 -112 26 -17 7 -34 11 -37 7 -3 -3 -6 -1 -6 5 0 6
-21 16 -47 22 -93 24 -154 43 -149 48 2 3 114 0 248 -7 133 -6 448 -12 698
-14 250 -2 529 -5 620 -6 l165 -2 -85 -18 c-47 -10 -119 -32 -160 -48 -41 -16
-88 -32 -105 -36 -16 -4 -57 -20 -90 -35 -33 -16 -69 -32 -80 -36 -56 -18 54
-38 400 -71 265 -25 371 -38 550 -69 173 -29 197 -34 208 -43 7 -6 30 -12 52
-15 117 -14 234 -27 350 -37 72 -7 159 -16 195 -21 186 -27 224 -30 333 -25
65 3 164 1 220 -5 182 -18 412 -51 421 -60 6 -5 0 -9 -14 -9 -13 0 -34 -10
-48 -22 -13 -13 -44 -30 -69 -38 -59 -19 -64 -35 -16 -47 21 -5 37 -14 36 -20
-5 -22 101 -38 452 -68 128 -10 140 -13 80 -15 l-70 -3 85 -8 c47 -4 180 -7
295 -8 142 -1 236 -6 289 -16 54 -10 203 -18 480 -26 645 -16 906 -27 981 -39
39 -6 122 -15 185 -20 297 -22 617 -51 633 -56 16 -5 17 40 17 890 0 800 -2
896 -16 896 -23 0 -117 -31 -134 -45 -8 -7 -64 -35 -125 -64 -112 -53 -117
-56 -170 -91 -16 -11 -40 -20 -52 -20 -12 0 -24 -4 -27 -8 -3 -4 -29 -20 -58
-34 -141 -69 -214 -102 -220 -100 -5 1 -8 -2 -8 -8 0 -5 -7 -7 -15 -4 -8 4
-15 1 -15 -5 0 -8 -5 -9 -19 -1 -11 5 -29 10 -40 10 -12 0 -21 7 -21 15 0 9 6
12 15 9 8 -4 15 -1 15 5 0 6 -6 11 -12 11 -7 0 -24 3 -38 6 -20 4 -22 3 -10
-5 13 -9 13 -11 -2 -11 -10 0 -18 4 -18 9 0 14 -64 41 -74 31 -5 -5 -16 -6
-25 -2 -14 5 -15 4 -1 -14 8 -10 20 -23 25 -27 6 -5 -1 -6 -15 -2 -14 3 -30 7
-37 7 -7 1 -10 5 -7 10 3 4 -4 8 -15 8 -14 0 -21 -6 -21 -20 0 -11 -4 -20 -8
-20 -15 0 -31 22 -25 35 2 8 -5 16 -18 20 -15 5 -18 9 -9 15 15 9 5 30 -16 30
-8 0 -14 5 -14 10 0 6 -8 10 -17 10 -10 0 -14 -4 -8 -8 12 -8 18 -27 19 -61 1
-33 -19 -38 -22 -5 -1 14 -4 30 -8 35 -9 15 -24 10 -24 -9 0 -42 -13 -37 -77
31 -14 15 -30 27 -35 27 -14 0 -9 -30 7 -36 8 -4 15 -14 15 -24 0 -13 -5 -17
-20 -13 -11 3 -20 9 -20 13 0 4 -16 20 -35 35 -28 21 -39 24 -50 15 -8 -7 -15
-7 -19 -1 -3 5 -1 11 6 13 10 4 10 10 1 31 -10 22 -10 27 0 27 7 0 19 -6 25
-12 7 -7 23 -14 35 -14 12 -1 37 -5 56 -9 25 -6 32 -5 27 3 -4 7 -13 12 -19
12 -7 0 -48 16 -91 35 -44 19 -82 32 -85 29 -3 -3 0 -14 7 -24 10 -17 8 -21
-16 -34 l-27 -14 37 -7 c21 -4 35 -12 32 -17 -3 -5 -12 -7 -20 -4 -25 10 -25
-14 0 -25 13 -6 27 -20 29 -30 6 -23 -1 -24 -27 -4 -37 28 -40 15 -6 -20 35
-36 31 -47 -6 -20 -12 8 -24 12 -27 9 -3 -3 -13 6 -23 21 -9 14 -30 33 -45 41
-31 15 -40 54 -14 54 8 0 15 5 15 10 0 6 6 10 14 10 13 0 26 20 26 41 0 21
-40 6 -95 -34 -33 -24 -66 -51 -73 -60 -7 -8 -32 -25 -55 -37 -23 -12 -63 -42
-89 -66 -26 -24 -57 -44 -68 -44 -28 0 -141 -28 -205 -51 -86 -30 -339 -102
-365 -103 -14 0 -31 -7 -38 -13 -7 -7 -21 -13 -30 -13 -15 1 -15 2 1 14 16 13
15 14 -10 19 -16 3 -32 0 -36 -6 -6 -9 -10 -9 -14 1 -8 21 -21 13 -16 -10 4
-17 2 -20 -5 -9 -9 12 -13 12 -27 -2 -17 -18 -45 -23 -45 -9 0 5 10 14 23 19
21 10 21 11 3 18 -12 6 -21 3 -27 -8 -6 -9 -17 -13 -30 -10 -11 3 -16 9 -11
12 6 3 -12 14 -40 23 -40 13 -47 14 -37 2 17 -21 3 -29 -25 -16 -23 10 -156
17 -276 13 -42 -1 -51 1 -40 10 13 9 12 10 -3 5 -10 -3 -21 -6 -23 -6 -3 0 -2
-5 1 -10 3 -6 0 -10 -9 -10 -8 0 -16 5 -18 12 -3 7 -25 12 -55 13 -28 0 -49
-3 -46 -7 2 -5 -3 -8 -11 -8 -9 0 -16 -6 -16 -12 0 -9 -3 -9 -9 1 -6 9 -20 12
-42 9 -19 -3 -45 -2 -59 2 -23 6 -22 7 12 14 21 4 41 14 46 23 8 12 13 13 31
3 14 -7 20 -17 17 -26 -3 -9 -2 -12 5 -9 5 4 8 19 6 33 -2 15 -2 21 0 15 6
-17 13 -16 29 4 19 25 17 31 -8 35 -13 2 -24 10 -24 18 -1 8 -2 24 -3 35 -2
19 -3 18 -24 -6 -13 -14 -29 -23 -35 -21 -9 3 -11 -4 -7 -25 6 -25 5 -26 -8
-11 -8 10 -18 14 -22 10 -4 -4 -6 0 -3 8 5 15 -13 40 -28 40 -5 0 -3 -5 4 -12
16 -16 15 -38 -1 -38 -8 0 -30 -16 -50 -35 -34 -33 -55 -46 -43 -26 7 11 -27
9 -35 -2 -3 -5 -22 -9 -42 -10 -20 -1 -37 -5 -37 -9 0 -5 -18 -8 -40 -8 -29 0
-40 -4 -40 -15 0 -9 -12 -18 -30 -21 -16 -4 -30 -13 -30 -20 0 -11 7 -13 26
-8 19 5 25 4 20 -5 -4 -6 0 -11 10 -11 10 0 14 3 10 8 -4 4 28 14 71 22 43 9
81 11 84 6 4 -4 25 -7 47 -5 46 5 49 -17 3 -27 -26 -6 -61 -19 -93 -35 -28
-14 -53 -11 -124 16 -72 27 -114 31 -162 14 -32 -11 -102 3 -102 20 0 13 -86
51 -113 51 -17 0 -32 9 -43 25 -9 14 -40 50 -68 81 -38 39 -57 53 -69 48 -9
-3 -17 -10 -17 -15 0 -5 -13 -9 -30 -9 -16 0 -30 5 -30 11 0 6 7 8 16 5 16 -6
51 20 40 31 -3 4 -12 1 -18 -5 -13 -13 -68 -16 -68 -4 0 4 5 13 12 20 9 9 9
12 0 12 -7 0 -15 -6 -18 -14 -6 -17 -56 -36 -90 -36 -21 0 -28 -11 -26 -40 0
-3 -20 -5 -44 -6 -24 0 -42 1 -39 4 3 3 -1 12 -8 20 -10 13 -8 14 13 9 14 -3
35 -9 48 -12 18 -6 22 -4 22 14 0 12 -4 20 -9 16 -6 -3 -15 4 -21 15 -11 21
-14 21 -87 10 -10 -1 0 -30 10 -31 6 -1 1 -4 -13 -8 -14 -4 -24 -14 -23 -22 2
-12 -10 -15 -62 -14 -47 0 -65 4 -65 13 0 10 -8 12 -30 7 -16 -4 -30 -3 -30 2
0 4 -19 17 -41 28 -34 16 -38 20 -22 26 20 8 17 9 -40 15 -43 3 -67 19 -67 41
0 12 -6 13 -27 7 -16 -4 -41 -8 -58 -9 -22 -1 -31 -7 -33 -23 -2 -12 -10 -22
-18 -22 -9 0 -12 5 -8 11 4 8 -3 9 -24 4 -17 -3 -44 -7 -61 -7 -16 -1 -30 -4
-29 -7 2 -21 -7 -27 -44 -27 -24 1 -58 -2 -75 -4 -18 -3 -33 0 -33 5 0 6 10
10 23 11 12 0 35 6 50 12 16 7 33 10 38 6 5 -3 9 0 9 5 0 6 -12 12 -27 12 -16
1 -40 3 -54 4 -15 2 -49 0 -75 -5 -27 -4 -40 -8 -30 -9 20 -1 20 -1 0 -16 -12
-9 -14 -14 -6 -15 18 0 4 -20 -14 -20 -20 0 -44 -24 -44 -44 0 -9 -4 -16 -8
-16 -5 0 -7 14 -4 30 3 18 0 30 -7 30 -6 0 -11 9 -11 20 0 24 -18 26 -35 3 -8
-11 -14 -13 -19 -5 -4 7 -2 12 5 12 8 0 8 4 -1 15 -17 20 -9 26 31 27 43 1 72
24 59 47 -15 28 -97 110 -104 104 -3 -4 -6 1 -6 9 0 18 -57 30 -65 14 -2 -6
-2 -1 0 10 5 20 0 22 -57 28 -116 12 -148 14 -148 7 0 -14 46 -51 63 -51 9 0
17 -7 17 -15 0 -8 -7 -15 -15 -15 -8 0 -15 -4 -15 -9 0 -6 -15 3 -32 20 -36
32 -41 34 -69 18 -22 -11 -63 -3 -54 12 3 5 -2 6 -11 2 -12 -4 -15 -3 -10 5 4
7 2 12 -3 12 -6 0 -11 -6 -11 -12 0 -7 -12 0 -27 14 -15 15 -25 30 -22 32 3 3
31 8 64 12 52 6 58 5 52 -9 -5 -13 -1 -17 18 -17 30 0 34 26 5 35 -11 3 -20
11 -20 17 0 6 -10 8 -24 4 -13 -3 -40 2 -64 14 -52 25 -65 25 -57 0 8 -25 -3
-26 -21 -2 -10 14 -15 15 -25 5 -7 -7 -21 -13 -30 -13 -9 0 -19 -10 -22 -21
-5 -17 -10 -20 -29 -14 -37 11 -59 7 -74 -12 -19 -26 -17 -32 13 -44 19 -7 29
-7 31 0 8 23 22 9 16 -15 -6 -23 -4 -25 15 -19 14 4 21 2 21 -7 0 -23 36 -46
63 -41 29 6 53 -12 59 -43 2 -11 15 -21 33 -25 17 -4 26 -7 21 -8 -5 0 -3 -8
4 -16 6 -8 9 -19 5 -25 -3 -5 -2 -10 3 -10 6 0 12 -7 16 -15 4 -11 -2 -15 -20
-15 -14 0 -23 4 -20 9 3 5 -3 11 -14 14 -11 3 -20 2 -20 -2 0 -12 45 -51 59
-51 20 0 51 -40 51 -66 0 -17 -4 -22 -16 -17 -10 4 -14 13 -10 27 5 19 4 19
-13 -3 -15 -20 -24 -23 -54 -17 -28 5 -57 27 -122 91 -47 47 -90 85 -96 85 -6
0 -32 14 -56 31 -29 19 -49 27 -55 21 -6 -6 -6 -12 1 -16 17 -11 -9 -45 -28
-38 -9 3 -19 10 -22 15 -4 5 -10 -1 -14 -14 -6 -18 -2 -28 19 -46 15 -13 38
-23 52 -23 15 0 24 -6 24 -16 0 -13 -3 -14 -13 -5 -20 16 -27 4 -20 -32 4 -21
3 -28 -5 -23 -6 4 -9 13 -6 21 4 9 -1 14 -13 14 -54 -1 -190 77 -155 89 17 5
15 22 -3 22 -12 0 -13 3 -3 19 7 12 22 19 40 19 16 -1 32 2 36 6 13 14 -30 35
-58 29 -15 -3 -31 0 -34 6 -4 6 -15 11 -24 11 -12 0 -9 -7 13 -25 17 -13 25
-24 18 -25 -6 0 -15 5 -18 10 -3 6 -14 10 -24 10 -10 0 -26 9 -36 20 l-18 20
-19 -20 c-19 -20 -38 -26 -38 -12 0 4 5 13 11 19 7 7 2 13 -19 21 -16 5 -51
32 -78 58 -27 27 -60 54 -74 61 -31 14 -81 27 -97 24 -7 -1 -13 2 -13 7 0 5
-23 10 -52 11 -29 1 -59 8 -68 16 -16 15 -90 29 -90 18 0 -10 42 -43 56 -43 6
0 17 -13 23 -30 9 -28 14 -30 57 -30 42 0 45 -2 33 -16 -7 -9 -12 -29 -11 -45
3 -22 -1 -29 -13 -29 -11 0 -15 -5 -11 -15 3 -9 -3 -19 -15 -25 -14 -8 -18
-17 -14 -31 5 -15 2 -19 -20 -19 -29 0 -60 24 -50 40 3 5 14 10 25 10 10 0 21
7 24 16 9 23 8 24 -13 24 -10 0 -21 7 -25 15 -4 10 -13 14 -28 10 -23 -6 -68
24 -68 45 0 6 -14 10 -30 10 -17 0 -38 4 -48 9 -9 5 -29 14 -44 20 -16 6 -38
15 -50 20 -13 5 -35 12 -50 15 -16 4 -28 13 -28 20 0 16 -42 46 -65 46 -21 0
-19 20 3 21 35 3 57 -3 70 -19 12 -15 13 -15 9 6 -4 15 0 22 11 22 20 0 5 15
-16 16 -10 1 -27 2 -39 3 -13 0 -23 6 -23 12 0 8 11 9 31 5 26 -5 30 -4 20 8
-8 9 -8 16 -2 20 5 4 12 2 16 -4 4 -6 46 -8 116 -4 94 5 110 3 115 -10 4 -10
18 -16 36 -16 24 0 28 3 24 18 -4 12 1 26 14 37 11 10 17 21 14 26 -2 5 14 20
36 35 29 19 39 32 35 45 -4 11 2 23 17 33 18 13 19 16 5 16 -9 0 -17 4 -17 10
0 5 -19 24 -42 41 -32 23 -51 30 -75 27 -22 -3 -33 0 -33 9 0 19 -17 16 -40
-7 -11 -11 -24 -20 -30 -20 -5 0 -10 -4 -10 -10 0 -16 -49 -23 -65 -10 -8 7
-26 10 -40 8 -35 -7 -42 8 -8 17 l27 6 -32 16 c-37 18 -56 8 -58 -28 -1 -10
-2 -26 -3 -35 -1 -12 -8 -15 -27 -11 -21 4 -29 -1 -45 -27 -13 -21 -19 -25
-19 -13 0 11 -8 17 -25 17 -14 0 -29 8 -35 21 -16 29 -67 17 -101 -23 -23 -27
-31 -30 -62 -25 -28 4 -43 1 -64 -16 l-28 -21 25 28 25 28 -40 -7 c-22 -4 -47
-11 -55 -15 -14 -7 -95 1 -152 15 -32 8 -78 -1 -78 -15 0 -6 11 -10 25 -10 18
0 25 -5 25 -18 0 -11 9 -27 20 -37 19 -17 22 -17 67 0 27 10 55 24 64 31 25
22 28 17 23 -33 -7 -72 4 -83 60 -55 46 22 57 36 34 45 -7 3 -3 6 9 6 12 1 24
7 27 14 3 6 4 -1 2 -16 -2 -15 -1 -26 3 -24 3 2 21 9 39 16 25 10 32 18 29 32
-4 14 2 21 21 25 15 4 37 13 49 20 20 13 22 12 16 -3 -4 -10 -16 -25 -26 -33
-18 -15 -17 -16 17 -17 27 -1 36 3 35 15 0 11 -2 12 -6 5 -2 -7 -9 -13 -14
-13 -13 0 21 58 38 64 9 4 12 -4 9 -24 -2 -20 1 -30 10 -30 18 0 18 -14 -1
-30 -22 -18 -18 -30 7 -27 15 1 23 -4 26 -17 2 -10 0 -16 -6 -12 -5 3 -15 -1
-21 -8 -8 -10 -9 -16 -1 -21 15 -9 12 -25 -5 -25 -8 0 -15 4 -15 9 0 5 -9 11
-20 14 -11 3 -20 1 -20 -4 0 -5 -9 -9 -20 -9 -22 0 -45 -31 -56 -73 -5 -23
-11 -28 -28 -23 -22 6 -76 -13 -76 -26 0 -5 -6 -8 -14 -8 -7 0 -19 -7 -26 -15
-10 -12 -10 -18 0 -30 10 -12 10 -15 -3 -15 -8 0 -17 7 -21 15 -3 9 -19 15
-41 15 -30 0 -35 -3 -35 -24 0 -19 4 -23 19 -19 14 3 19 0 18 -14 -1 -12 4
-17 16 -15 12 2 17 -4 17 -23 0 -14 5 -25 10 -25 21 0 28 -44 12 -72 -17 -30
-31 -35 -48 -18 -13 13 -60 -9 -80 -39 -9 -12 -19 -21 -25 -21 -15 0 -139 90
-183 133 -23 22 -70 59 -106 83 -36 23 -76 54 -89 68 l-24 26 49 1 c27 1 52 1
56 0 4 0 22 6 40 14 26 11 29 14 11 15 -19 0 -40 31 -35 51 2 12 -134 56 -156
51 -8 -2 -20 2 -27 8 -8 7 -18 9 -24 6 -5 -4 -12 3 -16 14 -3 11 -10 20 -16
20 -9 0 -64 81 -60 90 1 3 9 4 18 2 8 -2 12 1 8 7 -3 6 -13 11 -21 11 -8 0
-14 5 -14 10 0 6 4 10 8 10 5 0 7 14 4 30 -2 17 -8 30 -13 30 -5 0 -9 18 -9
41 0 32 -3 40 -15 35 -8 -3 -15 -2 -15 3 0 9 -34 22 -62 24 -18 1 -20 -6 -10
-31 2 -7 2 -16 -2 -19 -3 -4 -12 8 -19 26 l-12 33 -60 -4 c-88 -7 -98 -3 -270
117 -44 30 -87 55 -96 55 -10 0 -36 16 -59 35 -23 19 -48 35 -55 35 -7 0 -27
14 -45 30 -18 17 -41 30 -51 30 -10 0 -44 11 -75 25 -31 14 -60 23 -64 20 -5
-3 -24 4 -42 15 -75 45 -127 65 -208 76 -47 7 -107 18 -133 25 -39 10 -53 10
-69 0 -13 -8 -23 -9 -32 -2 -25 21 -137 51 -210 57 -27 2 -56 10 -65 17 -32
27 -183 98 -238 112 -69 18 -76 18 -71 3z m491 -245 c-7 -2 -19 -2 -25 0 -7 3
-2 5 12 5 14 0 19 -2 13 -5z m347 -68 c21 -26 4 -48 -32 -41 -20 4 -39 1 -52
-8 -29 -18 -146 -32 -146 -17 0 7 6 13 13 15 17 5 130 29 142 30 6 1 16 9 23
19 16 21 35 22 52 2z m223 -6 c22 -6 36 -15 34 -22 -4 -12 -38 -11 -47 2 -3 4
-14 13 -25 19 -25 14 -11 15 38 1z m-973 -39 c-8 -5 -26 -9 -40 -9 -23 0 -23
1 -5 9 11 5 29 9 40 9 17 1 17 -1 5 -9z m1038 -41 c43 -27 12 -50 -40 -28 -17
7 -26 15 -19 17 8 3 7 8 -5 16 -15 11 -14 13 12 11 16 -1 39 -8 52 -16z m-440
-58 c12 7 26 7 46 -1 28 -10 28 -11 10 -25 -12 -9 -14 -14 -6 -15 7 0 21 -7
30 -16 15 -15 14 -16 -5 -10 -12 4 -24 3 -27 -3 -16 -25 -78 35 -75 72 0 9 2
9 6 0 3 -9 9 -9 21 -2z m716 -41 c9 0 16 -4 16 -10 0 -5 -18 -10 -40 -10 -31
0 -47 6 -65 26 -36 39 -20 49 30 19 24 -14 51 -25 59 -25z m-440 19 c-9 -15
-74 -11 -68 4 3 8 17 11 39 9 19 -2 32 -8 29 -13z m286 -104 c5 -14 16 -28 23
-31 9 -3 14 -20 14 -45 0 -33 -3 -39 -22 -39 -18 0 -24 9 -33 51 -15 62 -15
89 -2 89 6 0 15 -11 20 -25z m-1090 -5 c0 -5 -4 -10 -10 -10 -5 0 -10 5 -10
10 0 6 5 10 10 10 6 0 10 -4 10 -10z m690 -50 c13 -11 29 -20 36 -20 25 0 64
-23 64 -38 0 -10 7 -12 25 -8 39 10 52 -4 24 -25 -13 -10 -18 -19 -11 -19 6 0
12 -5 12 -11 0 -7 -7 -8 -17 -4 -10 4 -49 14 -88 22 -78 17 -115 32 -77 33 26
0 29 22 8 63 -17 32 -8 35 24 7z m366 -3 c4 -4 -5 -7 -19 -7 -15 0 -27 4 -27
8 0 10 36 9 46 -1z m614 -81 c0 -14 10 -32 22 -40 13 -9 17 -16 9 -16 -8 0
-27 14 -44 31 -23 25 -27 33 -16 40 22 14 29 11 29 -15z m-550 -39 c0 -15 9
-26 30 -35 29 -13 41 -32 20 -32 -5 0 -10 5 -10 12 0 7 -6 6 -17 -4 -19 -15
-26 -16 -59 -5 -16 6 -20 13 -17 27 3 11 9 20 13 20 5 0 12 9 15 20 9 27 25
25 25 -3z m-563 -2 c9 -25 -4 -29 -17 -6 -7 15 -7 21 0 21 6 0 13 -7 17 -15z
m1273 -24 c0 -6 -9 -11 -19 -11 -11 0 -21 -5 -23 -11 -2 -7 -12 -7 -31 2 -39
18 -34 24 23 27 30 2 50 -1 50 -7z m1530 -2 c0 -6 -9 -8 -20 -4 -13 4 -20 2
-20 -6 0 -7 -3 -10 -6 -6 -3 3 -3 10 1 16 8 14 45 14 45 0z m-363 -15 c-3 -3
-12 -4 -19 -1 -8 3 -5 6 6 6 11 1 17 -2 13 -5z m-1242 -13 c3 -5 1 -12 -5 -16
-5 -3 -10 1 -10 9 0 18 6 21 15 7z m1540 -1 c3 -5 13 -7 23 -4 14 5 14 4 -2
-6 -14 -10 -21 -9 -34 4 -10 9 -12 16 -5 16 7 0 14 -4 18 -10z m-215 -12 c0
-4 -4 -8 -10 -8 -5 0 -10 -4 -10 -10 0 -5 21 -10 46 -10 37 0 45 -3 40 -15 -3
-10 1 -18 12 -22 9 -4 21 -12 25 -20 4 -7 15 -13 23 -13 8 0 12 5 9 10 -3 6 3
10 14 10 11 0 25 -9 31 -20 10 -18 8 -20 -18 -20 -15 0 -33 -5 -40 -12 -9 -9
-12 -8 -12 4 0 16 -25 24 -107 35 -32 4 -43 2 -43 -8 0 -11 -2 -11 -10 1 -8
12 -10 12 -15 -2 -4 -9 -13 -14 -21 -11 -8 3 -21 0 -29 -7 -19 -16 -39 -1 -54
41 -12 36 6 40 34 8 l19 -20 18 23 c10 13 18 31 18 40 0 11 5 15 15 12 8 -4
15 -2 15 4 0 6 -5 12 -11 14 -7 2 4 4 25 4 20 0 36 -4 36 -8z m-2400 -33 c20
-24 6 -28 -15 -5 -10 11 -13 20 -8 20 6 0 16 -7 23 -15z m2590 8 c-8 -3 -21
-10 -27 -16 -9 -7 -13 -5 -13 7 0 11 8 16 28 15 15 0 21 -3 12 -6z m-56 -19
c3 -8 2 -12 -4 -9 -6 3 -10 10 -10 16 0 14 7 11 14 -7z m-1314 -94 c8 -5 12
-11 10 -14 -3 -2 -14 2 -24 10 -22 15 -10 19 14 4z m1012 -125 c0 -5 -5 -11
-11 -13 -6 -2 -11 4 -11 13 0 9 5 15 11 13 6 -2 11 -8 11 -13z m-2012 -5 c0
-5 -2 -10 -4 -10 -3 0 -8 5 -11 10 -3 6 -1 10 4 10 6 0 11 -4 11 -10z m2050
-10 c0 -5 -4 -10 -10 -10 -5 0 -10 5 -10 10 0 6 5 10 10 10 6 0 10 -4 10 -10z
m-2012 -30 c7 -11 10 -20 6 -20 -7 0 -34 27 -34 34 0 13 16 5 28 -14z m2017
-1 c11 -17 2 -18 -19 -3 -17 12 -17 14 -4 14 9 0 20 -5 23 -11z m1380 -9 c-3
-5 -10 -10 -16 -10 -5 0 -9 5 -9 10 0 6 7 10 16 10 8 0 12 -4 9 -10z m-1705
-20 c0 -5 -7 -10 -15 -10 -8 0 -15 5 -15 10 0 6 7 10 15 10 8 0 15 -4 15 -10z
m894 -6 c3 -8 2 -12 -4 -9 -6 3 -10 10 -10 16 0 14 7 11 14 -7z m857 -2 c-7
-2 -18 1 -23 6 -8 8 -4 9 13 5 13 -4 18 -8 10 -11z m-867 -53 c-10 -11 -22
-19 -28 -19 -6 0 -5 5 2 12 7 7 12 21 12 31 0 16 2 17 15 7 14 -12 14 -15 -1
-31z m-844 14 c-1 -5 -10 -19 -20 -32 -24 -28 -57 -22 -41 8 6 10 7 21 4 25
-3 3 8 6 25 6 18 0 32 -3 32 -7z m810 -3 c0 -5 -12 -10 -26 -10 -14 0 -23 4
-19 10 3 6 15 10 26 10 10 0 19 -4 19 -10z m927 -8 c7 -5 9 -13 3 -22 -7 -11
-11 -11 -24 -1 -24 20 -6 40 21 23z m-757 -12 c0 -5 -7 -10 -15 -10 -8 0 -15
5 -15 10 0 6 7 10 15 10 8 0 15 -4 15 -10z m790 -14 c0 -3 -4 -8 -10 -11 -5
-3 -10 -1 -10 4 0 6 5 11 10 11 6 0 10 -2 10 -4z m-960 -10 c0 -3 -4 -8 -10
-11 -5 -3 -10 -1 -10 4 0 6 5 11 10 11 6 0 10 -2 10 -4z m-190 -26 c0 -5 -16
-10 -35 -10 -19 0 -35 5 -35 10 0 6 16 10 35 10 19 0 35 -4 35 -10z m1235 0
c4 -6 19 -9 33 -6 15 3 34 2 42 -4 12 -8 8 -10 -15 -11 -17 -1 -22 -3 -12 -6
9 -2 17 -9 17 -15 0 -5 -7 -8 -15 -4 -8 3 -15 1 -15 -4 0 -6 -5 -10 -11 -10
-6 0 -8 7 -5 16 5 14 4 15 -9 4 -20 -16 -19 -27 3 -33 13 -4 12 -5 -4 -6 -22
-1 -39 23 -28 40 3 5 -1 9 -8 9 -10 0 -9 3 2 11 12 9 11 10 -7 6 -12 -3 -29 0
-38 7 -14 10 -10 12 23 14 22 2 43 -2 47 -8z m-3645 -37 c0 -7 -4 -13 -10 -13
-5 0 -10 12 -10 28 0 21 2 24 10 12 5 -8 10 -21 10 -27z m2310 33 c0 -11 -19
-15 -25 -6 -3 5 1 10 9 10 9 0 16 -2 16 -4z m1560 -44 c0 -7 -4 -10 -10 -7 -5
3 -10 16 -10 28 0 18 2 19 10 7 5 -8 10 -21 10 -28z m-2003 -8 c-3 -3 -12 -4
-19 -1 -8 3 -5 6 6 6 11 1 17 -2 13 -5z m1098 -4 c3 -5 -1 -10 -10 -10 -9 0
-13 5 -10 10 3 6 8 10 10 10 2 0 7 -4 10 -10z m-572 -21 c4 -13 0 -23 -11 -27
-9 -4 -17 -16 -17 -26 0 -11 -6 -21 -13 -24 -18 -6 -12 59 7 80 21 22 28 22
34 -3z m1342 11 c3 -6 -1 -7 -9 -4 -18 7 -21 14 -7 14 6 0 13 -4 16 -10z
m-727 -49 c8 -25 -32 -10 -57 22 -13 16 -12 16 20 3 18 -8 35 -19 37 -25z
m927 29 c7 -12 -43 -33 -62 -26 -20 8 -15 24 10 29 39 8 46 7 52 -3z m4375 0
c13 -8 13 -10 -2 -10 -9 0 -20 5 -23 10 -8 13 5 13 25 0z m-5025 -30 c3 -5 1
-10 -4 -10 -6 0 -11 5 -11 10 0 6 2 10 4 10 3 0 8 -4 11 -10z m1325 0 c0 -5
-4 -10 -9 -10 -6 0 -13 5 -16 10 -3 6 1 10 9 10 9 0 16 -4 16 -10z m3720 0 c0
-5 -7 -10 -15 -10 -8 0 -15 5 -15 10 0 6 7 10 15 10 8 0 15 -4 15 -10z m-5080
-10 c0 -5 -5 -10 -11 -10 -5 0 -7 5 -4 10 3 6 8 10 11 10 2 0 4 -4 4 -10z
m4720 0 c0 -5 -2 -10 -4 -10 -3 0 -8 5 -11 10 -3 6 -1 10 4 10 6 0 11 -4 11
-10z m-4740 -20 c8 -5 11 -10 5 -10 -5 0 -17 5 -25 10 -8 5 -10 10 -5 10 6 0
17 -5 25 -10z m1174 -19 c-10 -10 -21 -17 -23 -15 -6 6 20 34 32 34 6 0 2 -8
-9 -19z m171 9 c3 -5 -3 -10 -14 -10 -11 0 -23 5 -26 10 -3 6 3 10 14 10 11 0
23 -4 26 -10z m3702 -6 c-3 -3 -12 -4 -19 -1 -8 3 -5 6 6 6 11 1 17 -2 13 -5z
m-3783 -13 c3 -5 -1 -12 -10 -15 -27 -11 -37 -7 -24 9 14 17 26 19 34 6z m63
-7 c-3 -3 -12 -4 -19 -1 -8 3 -5 6 6 6 11 1 17 -2 13 -5z m193 -14 c9 0 10 -3
5 -9 -12 -12 -65 -2 -65 11 0 6 10 8 23 4 12 -3 29 -6 37 -6z m540 -30 c0 -5
-2 -10 -4 -10 -3 0 -8 5 -11 10 -3 6 -1 10 4 10 6 0 11 -4 11 -10z m2987 -6
c-3 -3 -12 -4 -19 -1 -8 3 -5 6 6 6 11 1 17 -2 13 -5z m-8347 -14 c0 -5 -2
-10 -4 -10 -3 0 -8 5 -11 10 -3 6 -1 10 4 10 6 0 11 -4 11 -10z m5000 -10 c0
-5 -4 -10 -10 -10 -5 0 -10 5 -10 10 0 6 5 10 10 10 6 0 10 -4 10 -10z m125 0
c-3 -5 -13 -10 -21 -10 -8 0 -14 5 -14 10 0 6 9 10 21 10 11 0 17 -4 14 -10z
m1188 -13 c4 -10 -2 -13 -19 -9 -13 2 -24 8 -24 13 0 14 37 10 43 -4z m-6058
-55 c10 -41 10 -52 0 -52 -7 0 -16 17 -19 38 -4 20 -10 45 -13 56 -3 12 -1 17
8 14 7 -2 18 -28 24 -56z m2295 38 c0 -5 -4 -10 -10 -10 -5 0 -10 5 -10 10 0
6 5 10 10 10 6 0 10 -4 10 -10z m-27 -62 c3 -20 -1 -39 -9 -49 -8 -8 -14 -23
-14 -32 0 -9 -4 -17 -10 -17 -15 0 -12 43 4 66 8 10 12 29 9 42 -3 12 -1 22 5
22 5 0 12 -15 15 -32z m3857 -17 c33 -10 32 -10 -15 -6 -27 3 -54 10 -60 16
-11 12 8 10 75 -10z m90 3 c0 -2 -12 -4 -27 -4 -21 0 -24 3 -14 9 13 8 41 5
41 -5z m450 0 c25 -15 25 -15 -10 -8 -40 7 -65 24 -34 24 10 -1 30 -7 44 -16z
m70 -14 c0 -5 -7 -10 -15 -10 -8 0 -15 5 -15 10 0 6 7 10 15 10 8 0 15 -4 15
-10z m160 0 c0 -5 -2 -10 -4 -10 -3 0 -8 5 -11 10 -3 6 -1 10 4 10 6 0 11 -4
11 -10z m-7850 -10 c0 -5 -5 -10 -11 -10 -5 0 -7 5 -4 10 3 6 8 10 11 10 2 0
4 -4 4 -10z m1918 -115 c-3 -27 -22 -34 -32 -10 -3 8 2 19 12 24 23 14 22 14
20 -14z m3303 -25 c28 -15 24 -40 -6 -40 -14 0 -25 5 -25 10 0 6 -3 9 -7 8 -5
0 -19 4 -33 11 l-25 11 28 -3 c15 -3 27 0 27 4 0 12 17 11 41 -1z m-2086 -30
c-3 -5 -11 -10 -16 -10 -6 0 -7 5 -4 10 3 6 11 10 16 10 6 0 7 -4 4 -10z
m5065 -59 c0 -19 -17 -38 -25 -29 -7 7 7 48 16 48 5 0 9 -9 9 -19z m-60 5 c0
-3 -4 -8 -10 -11 -5 -3 -10 -1 -10 4 0 6 5 11 10 11 6 0 10 -2 10 -4z m-6962
-86 c0 -9 -3 -7 -8 5 -5 11 -8 29 -8 40 0 16 2 15 8 -5 4 -14 8 -32 8 -40z
m2122 -60 c0 -5 -4 -10 -10 -10 -5 0 -10 5 -10 10 0 6 5 10 10 10 6 0 10 -4
10 -10z m-2009 -197 c13 -16 12 -17 -3 -4 -10 7 -18 15 -18 17 0 8 8 3 21 -13z
m3784 -583 c3 -5 1 -10 -4 -10 -6 0 -11 5 -11 10 0 6 2 10 4 10 3 0 8 -4 11
-10z m-908 -257 c-3 -10 -5 -4 -5 12 0 17 2 24 5 18 2 -7 2 -21 0 -30z m1412
13 c19 -20 20 -24 7 -29 -10 -4 -22 3 -32 18 -9 14 -21 22 -27 18 -6 -3 -7 -1
-3 5 11 18 30 14 55 -12z m2068 -60 c0 -8 -8 -11 -20 -8 -14 4 -16 7 -5 13 19
12 25 11 25 -5z m-3542 -45 c3 -10 5 -23 4 -27 -5 -28 4 -43 28 -49 24 -6 26
-8 10 -16 -9 -6 -17 -19 -17 -29 0 -28 -20 -35 -21 -8 -1 17 -3 18 -6 6 -2
-10 -7 -18 -10 -18 -11 0 -42 47 -43 65 0 17 -2 17 -10 5 -8 -13 -10 -12 -10
4 0 24 41 86 57 86 6 0 14 -9 18 -19z m1095 9 c0 -5 -2 -10 -4 -10 -3 0 -8 5
-11 10 -3 6 -1 10 4 10 6 0 11 -4 11 -10z m2423 -38 c-4 -20 -15 -45 -25 -56
-18 -20 -18 -20 -12 14 4 19 11 43 16 53 5 9 6 22 3 27 -3 5 1 7 9 4 11 -4 13
-15 9 -42z m-2015 9 c25 -21 28 -31 9 -31 -8 0 -19 11 -25 25 -14 30 -12 31
16 6z m1885 -21 c-20 -35 -29 -37 -36 -10 -4 15 0 20 13 20 11 0 22 5 25 10
16 25 14 7 -2 -20z m207 -78 c0 -21 -2 -24 -10 -12 -13 20 -13 53 0 45 6 -3
10 -18 10 -33z m-2040 13 c0 -8 -4 -15 -10 -15 -5 0 -7 7 -4 15 4 8 8 15 10
15 2 0 4 -7 4 -15z m801 -63 c-8 -14 -10 -13 -16 10 -4 15 -3 32 1 39 11 19
26 -29 15 -49z m-2923 17 c-3 -40 -18 -49 -18 -11 0 25 7 42 17 42 2 0 2 -14
1 -31z m-73 -17 c-8 -8 -25 10 -25 26 0 13 2 13 14 -4 8 -10 13 -21 11 -22z
m145 2 c0 -2 -9 0 -20 6 -11 6 -20 13 -20 16 0 2 9 0 20 -6 11 -6 20 -13 20
-16z m351 -33 c-24 -24 -26 -37 -8 -44 6 -3 3 -6 -8 -7 -17 -2 -17 -3 4 -9
l23 -6 -35 -45 c-20 -25 -44 -58 -52 -73 -16 -27 -15 -29 2 -23 17 5 18 2 15
-30 -4 -29 -10 -39 -33 -47 -15 -6 -33 -20 -39 -32 -9 -16 -18 -20 -41 -17
-32 5 -34 7 -19 25 27 31 109 188 125 240 10 32 24 57 31 57 8 0 21 12 31 26
9 15 19 22 21 16 2 -6 -6 -20 -17 -31z m3556 14 c21 -14 43 -29 50 -35 19 -15
25 -12 18 10 -4 14 -2 20 8 20 9 0 17 6 20 13 2 6 2 -14 -1 -46 -4 -50 -2 -61
18 -82 13 -14 20 -25 16 -25 -4 0 -33 26 -64 58 -31 32 -73 70 -92 85 -44 34
-24 35 27 2z m-4027 -5 c0 -5 -2 -10 -4 -10 -3 0 -8 5 -11 10 -3 6 -1 10 4 10
6 0 11 -4 11 -10z m3050 -4 c0 -3 -4 -8 -10 -11 -5 -3 -10 -1 -10 4 0 6 5 11
10 11 6 0 10 -2 10 -4z m1015 -101 l28 -50 -29 26 c-16 15 -38 31 -49 37 -17
10 -18 11 -2 12 9 0 17 5 17 11 0 6 -8 8 -19 4 -12 -4 -21 0 -25 11 -5 14 -4
15 9 4 19 -16 19 -1 0 24 -8 11 -15 14 -15 7 0 -7 -5 -9 -11 -5 -8 4 -7 9 2
15 18 11 56 -29 94 -96z m-2645 53 c0 -12 -28 3 -34 18 -4 11 -2 12 14 1 11
-6 20 -15 20 -19z m376 10 c3 -4 -15 -6 -38 -5 -24 0 -52 -2 -63 -7 -12 -4
-10 -1 5 8 25 16 87 18 96 4z m-1609 -35 c-3 -10 -5 -4 -5 12 0 17 2 24 5 18
2 -7 2 -21 0 -30z m339 5 c-10 -6 -20 -7 -24 -3 -9 8 20 25 31 18 5 -3 2 -10
-7 -15z m919 -8 c-3 -4 1 -11 7 -13 9 -4 10 -6 1 -6 -6 -1 -14 3 -18 9 -3 5
-13 6 -23 3 -13 -4 -13 -2 3 10 20 15 40 13 30 -3z m433 -7 c-2 -23 1 -29 22
-31 53 -7 176 -45 202 -63 32 -23 45 -25 24 -3 -18 17 -21 34 -7 34 15 0 29
-24 33 -55 1 -16 9 -30 16 -30 7 0 17 -7 22 -15 5 -8 10 -10 10 -5 0 6 -7 21
-16 33 -19 27 -10 112 12 112 8 0 14 6 14 14 0 17 53 32 58 16 2 -6 12 -19 22
-28 39 -37 87 -172 62 -172 -6 0 -13 -10 -15 -22 -2 -13 -5 -5 -6 18 0 23 -8
47 -16 54 -8 7 -15 18 -15 25 0 7 -7 16 -16 19 -13 5 -14 9 -4 21 10 13 9 15
-10 15 -13 0 -31 7 -41 16 -42 38 -48 -14 -14 -134 16 -55 21 -90 16 -105 -5
-12 -7 -30 -5 -41 1 -11 -5 -20 -17 -23 -23 -6 -24 -13 -4 -39 20 -26 19 -34
-5 -34 -16 0 -20 7 -20 35 0 24 -5 35 -15 35 -9 0 -15 10 -16 25 -3 51 -21 81
-54 89 -14 4 -25 13 -25 21 0 12 -12 15 -55 14 l-55 -2 22 -35 c12 -20 16 -32
10 -28 -7 4 -12 3 -12 -2 0 -13 25 -22 58 -22 30 -1 68 -43 56 -62 -5 -8 -10
-6 -16 8 -5 12 -7 -9 -5 -53 1 -40 0 -73 -4 -73 -11 0 -26 23 -32 51 -4 14
-18 42 -32 63 -14 21 -23 42 -20 47 4 5 1 9 -4 9 -6 0 -11 7 -11 15 0 8 -7 15
-16 15 -11 0 -14 -5 -9 -17 15 -38 26 -85 21 -91 -9 -9 -19 6 -21 30 -2 35
-15 68 -27 68 -5 0 -8 7 -4 15 3 9 0 15 -8 15 -8 0 -17 -15 -20 -35 -4 -19
-11 -35 -17 -35 -6 0 -7 5 -4 11 4 6 -2 17 -14 25 -13 9 -21 26 -21 43 0 41
-20 91 -36 91 -16 0 -19 -16 -4 -25 13 -8 13 -25 -1 -25 -6 0 -17 -7 -26 -15
-16 -17 -33 -12 -33 10 0 8 6 12 14 9 13 -5 13 -2 3 20 -11 23 -12 24 -15 6
-4 -24 -10 -25 -34 -3 -15 14 -18 14 -18 1 0 -8 5 -29 11 -47 6 -18 9 -34 6
-37 -9 -9 -36 56 -30 72 3 8 -1 22 -8 31 -12 15 -12 16 3 10 12 -4 15 -2 11 9
-3 7 -13 14 -22 15 -9 0 5 8 31 17 26 9 50 20 54 25 16 15 33 6 39 -23 9 -43
21 -37 28 13 9 67 35 108 75 116 2 1 2 -11 0 -26z m-1858 6 c0 -5 -4 -7 -10
-4 -5 3 -10 1 -10 -6 0 -7 -3 -10 -6 -6 -8 7 4 27 17 27 5 0 9 -5 9 -11z
m1729 -5 c2 -2 -10 -4 -27 -4 -18 0 -35 0 -39 -1 -4 0 -9 4 -11 10 -3 9 66 4
77 -5z m-2726 -1 c-13 -2 -33 -2 -45 0 -13 2 -3 4 22 4 25 0 35 -2 23 -4z
m824 -30 c-3 -10 -5 -4 -5 12 0 17 2 24 5 18 2 -7 2 -21 0 -30z m2563 17 c0
-5 -2 -10 -4 -10 -3 0 -8 5 -11 10 -3 6 -1 10 4 10 6 0 11 -4 11 -10z m1107
-37 c-21 -19 -36 -37 -33 -40 3 -3 13 3 23 12 11 12 18 14 21 6 8 -23 -6 -39
-31 -34 -14 3 -28 0 -31 -6 -10 -16 -29 -13 -23 3 4 10 0 12 -16 8 -20 -5 -20
-4 -7 9 26 26 124 89 129 83 3 -3 -11 -21 -32 -41z m83 43 c0 -3 -4 -8 -10
-11 -5 -3 -10 -1 -10 4 0 6 5 11 10 11 6 0 10 -2 10 -4z m-3362 -31 c-3 -3 -9
2 -12 12 -6 14 -5 15 5 6 7 -7 10 -15 7 -18z m3442 11 c0 -8 8 -34 19 -58 10
-24 21 -64 25 -88 5 -40 4 -41 -4 -14 -6 18 -17 34 -25 38 -13 4 -13 2 -5 -14
13 -25 13 -51 -1 -28 -8 14 -19 16 -59 11 -45 -5 -50 -4 -50 14 0 10 5 24 11
30 8 8 4 16 -17 28 l-29 16 32 -4 c30 -3 32 -1 29 20 -3 12 -8 27 -11 33 -4 7
8 8 36 4 37 -6 41 -5 36 9 -4 10 -2 17 3 17 6 0 10 -6 10 -14z m27 -8 c-3 -8
-6 -5 -6 6 -1 11 2 17 5 13 3 -3 4 -12 1 -19z m94 -50 c22 -43 24 -64 7 -74
-7 -4 -10 -4 -6 0 9 11 -22 97 -33 90 -5 -3 -6 1 -3 9 3 8 -2 17 -10 20 -9 4
-16 12 -16 18 0 19 40 -22 61 -63z m-3791 55 c0 -5 -7 -17 -15 -27 -15 -20
-20 -10 -9 18 6 16 24 22 24 9z m3730 -28 c0 -5 -5 -3 -10 5 -5 8 -10 20 -10
25 0 6 5 3 10 -5 5 -8 10 -19 10 -25z m-3000 -7 c18 -30 18 -54 1 -43 -5 2
-14 -14 -20 -36 -7 -23 -14 -39 -16 -37 -9 9 -12 98 -3 104 5 3 8 15 5 25 -8
30 11 22 33 -13z m560 22 c0 -5 -5 -10 -11 -10 -5 0 -7 5 -4 10 3 6 8 10 11
10 2 0 4 -4 4 -10z m159 -12 c11 -15 10 -17 -7 -15 -13 1 -18 7 -14 19 2 11 5
17 6 16 1 -2 7 -11 15 -20z m-789 -26 c0 -15 -7 -36 -15 -46 -12 -16 -12 -22
-2 -28 8 -5 7 -8 -5 -8 -10 0 -17 -5 -15 -12 1 -6 -5 -13 -15 -15 -14 -4 -15
1 -8 29 4 18 12 44 18 58 6 14 13 33 16 43 8 26 26 11 26 -21z m3240 28 c0 -5
-2 -10 -4 -10 -3 0 -8 5 -11 10 -3 6 -1 10 4 10 6 0 11 -4 11 -10z m-60 -64
c-1 -15 -6 -11 -20 18 -25 50 -25 55 0 26 11 -13 20 -32 20 -44z m-4007 24
c-3 -12 -8 -19 -11 -16 -5 6 5 36 12 36 2 0 2 -9 -1 -20z m384 -22 c-3 -7 -5
-2 -5 12 0 14 2 19 5 13 2 -7 2 -19 0 -25z m1223 17 c-14 -17 -30 -20 -30 -6
0 5 8 12 18 14 9 3 19 5 21 6 2 0 -2 -6 -9 -14z m-3055 -25 c15 -7 10 -9 -23
-9 -26 -1 -41 3 -37 9 7 12 32 12 60 0z m2884 -34 c-9 -8 -10 -7 -5 7 3 10 7
24 7 30 1 7 3 4 6 -7 3 -10 -1 -23 -8 -30z m-3009 25 c0 -5 -6 -14 -14 -20
-12 -10 -13 -8 -9 8 5 21 23 30 23 12z m50 0 c0 -5 -7 -12 -16 -15 -24 -9 -28
-7 -14 9 14 17 30 20 30 6z m4625 -97 c12 -36 12 -40 -7 -50 -23 -13 -36 -11
-126 18 l-62 20 20 28 c12 16 37 43 58 60 l37 30 33 -33 c18 -19 39 -51 47
-73z m595 52 c-1 -17 -2 -18 -9 -6 -5 8 -12 26 -15 40 -7 24 -6 24 8 6 9 -11
16 -29 16 -40z m-1900 1 c0 -5 -4 -5 -10 -2 -5 3 -10 14 -10 23 0 15 2 15 10
2 5 -8 10 -19 10 -23z m-4995 -17 c-3 -5 -13 -10 -21 -10 -8 0 -14 5 -14 10 0
6 9 10 21 10 11 0 17 -4 14 -10z m3358 -9 c-3 -10 0 -22 6 -25 8 -5 6 -17 -6
-39 l-17 -32 -8 42 c-7 31 -6 47 4 57 18 21 27 20 21 -3z m48 -24 c-13 -13
-15 1 -4 30 7 17 8 17 11 -1 2 -10 -1 -23 -7 -29z m1179 5 c0 -7 -4 -10 -10
-7 -5 3 -10 16 -10 28 0 18 2 19 10 7 5 -8 10 -21 10 -28z m-4655 18 c-3 -5
-14 -10 -23 -10 -15 0 -15 2 -2 10 20 13 33 13 25 0z m90 -10 c-3 -5 -13 -10
-21 -10 -8 0 -12 5 -9 10 3 6 13 10 21 10 8 0 12 -4 9 -10z m3190 -18 c-3 -3
-11 0 -18 7 -9 10 -8 11 6 5 10 -3 15 -9 12 -12z m5535 14 c0 -3 -4 -8 -10
-11 -5 -3 -10 -1 -10 4 0 6 5 11 10 11 6 0 10 -2 10 -4z m-5295 -77 c-10 -32
-25 -11 -25 34 l1 42 15 -28 c8 -15 12 -37 9 -48z m3630 61 c3 -5 1 -10 -4
-10 -6 0 -11 5 -11 10 0 6 2 10 4 10 3 0 8 -4 11 -10z m2115 6 c0 -9 -40 -13
-46 -5 -3 5 6 9 20 9 14 0 26 -2 26 -4z m-5890 -16 c0 -5 -4 -10 -10 -10 -5 0
-10 5 -10 10 0 6 5 10 10 10 6 0 10 -4 10 -10z m1077 -12 c-3 -8 -6 -5 -6 6
-1 11 2 17 5 13 3 -3 4 -12 1 -19z m1966 -15 c7 -9 5 -13 -7 -13 -11 0 -16 8
-15 28 0 15 3 21 6 12 3 -8 10 -21 16 -27z m3007 17 c0 -5 12 -10 26 -10 14 0
23 -4 19 -10 -3 -5 -10 -10 -14 -10 -14 0 -57 39 -43 40 6 0 12 -4 12 -10z
m-65 -10 c3 -5 1 -10 -4 -10 -6 0 -11 5 -11 10 0 6 2 10 4 10 3 0 8 -4 11 -10z
m-5978 -51 c3 -18 12 -29 23 -29 9 0 17 -7 17 -15 0 -26 -32 -17 -66 19 -25
25 -31 39 -26 55 5 17 10 19 26 10 11 -5 22 -23 26 -40z m69 14 c-11 -11 -17
4 -9 23 7 18 8 18 11 1 2 -10 1 -21 -2 -24z m2004 27 c0 -5 -2 -10 -4 -10 -3
0 -8 5 -11 10 -3 6 -1 10 4 10 6 0 11 -4 11 -10z m813 -25 c48 -10 87 -22 87
-26 0 -5 -9 -13 -20 -19 -16 -8 -22 -8 -26 3 -7 18 -44 10 -44 -9 0 -8 -11
-19 -24 -24 -14 -5 -30 -19 -37 -32 -6 -13 -13 -24 -14 -26 -2 -2 -19 3 -38
12 -32 13 -36 13 -41 -1 -9 -22 -17 -10 -23 32 -4 29 1 43 29 79 23 31 37 42
48 36 8 -4 54 -15 103 -25z m3119 13 c-7 -7 -12 -8 -12 -2 0 14 12 26 19 19 2
-3 -1 -11 -7 -17z m-5902 -9 c0 -5 -4 -9 -10 -9 -5 0 -10 7 -10 16 0 8 5 12
10 9 6 -3 10 -10 10 -16z m216 -6 c-3 -14 -10 -31 -16 -37 -8 -8 -9 -3 -4 19
12 50 28 66 20 18z m-2250 -9 c-30 -21 -45 -16 -16 6 14 10 27 16 30 13 3 -2
-4 -11 -14 -19z m8259 16 c7 -12 -2 -12 -30 0 -19 8 -19 9 2 9 12 1 25 -3 28
-9z m-1640 -10 c3 -6 -1 -7 -9 -4 -18 7 -21 14 -7 14 6 0 13 -4 16 -10z
m-4529 -35 c-4 -14 -13 -25 -21 -25 -19 0 -19 6 3 35 21 28 27 25 18 -10z
m-2039 -7 c-3 -7 -5 -2 -5 12 0 14 2 19 5 13 2 -7 2 -19 0 -25z m1843 -16 c0
-7 7 -15 15 -18 23 -9 18 -24 -7 -24 -44 0 -69 13 -84 41 -12 24 -12 28 0 23
8 -3 20 1 27 9 11 11 16 11 31 -2 10 -8 18 -21 18 -29z m140 36 c-1 -18 -25
-48 -39 -48 -16 0 -14 17 7 39 20 23 32 26 32 9z m1700 -8 c0 -5 -2 -10 -4
-10 -3 0 -8 5 -11 10 -3 6 -1 10 4 10 6 0 11 -4 11 -10z m2460 0 c0 -5 -4 -10
-10 -10 -5 0 -10 5 -10 10 0 6 5 10 10 10 6 0 10 -4 10 -10z m-6170 -10 c0 -5
-7 -10 -16 -10 -8 0 -12 5 -9 10 3 6 10 10 16 10 5 0 9 -4 9 -10z m3630 -76
c0 -12 -10 -2 -25 25 -32 55 -32 60 0 23 14 -17 25 -38 25 -48z m187 44 c-3
-8 -6 -5 -6 6 -1 11 2 17 5 13 3 -3 4 -12 1 -19z m-3892 -8 c3 -5 -1 -10 -10
-10 -9 0 -13 5 -10 10 3 6 8 10 10 10 2 0 7 -4 10 -10z m55 0 c0 -5 -4 -10
-10 -10 -5 0 -10 5 -10 10 0 6 5 10 10 10 6 0 10 -4 10 -10z m7097 -5 c0 -8
-4 -12 -9 -9 -4 3 -8 9 -8 15 0 5 4 9 8 9 5 0 9 -7 9 -15z m-5027 -2 c0 -5 -5
-15 -10 -23 -8 -12 -10 -11 -10 8 0 12 5 22 10 22 6 0 10 -3 10 -7z m3237 1
c-3 -3 -12 -4 -19 -1 -8 3 -5 6 6 6 11 1 17 -2 13 -5z m-1360 -20 c-3 -3 -12
-4 -19 -1 -8 3 -5 6 6 6 11 1 17 -2 13 -5z m27 -93 c-7 -8 -24 20 -24 42 0 9
-6 17 -12 17 -9 0 -8 3 2 10 12 7 18 2 28 -27 6 -20 10 -39 6 -42z m236 59 c0
-5 -5 -10 -11 -10 -5 0 -7 5 -4 10 3 6 8 10 11 10 2 0 4 -4 4 -10z m2830 0 c0
-5 -5 -10 -11 -10 -5 0 -7 5 -4 10 3 6 8 10 11 10 2 0 4 -4 4 -10z m-2861 -35
c9 5 24 -36 16 -43 -7 -8 -32 23 -39 48 -6 21 -5 22 4 7 6 -9 15 -15 19 -12z
m-362 -17 c-3 -8 -6 -5 -6 6 -1 11 2 17 5 13 3 -3 4 -12 1 -19z m-26 -7 c8 10
9 8 5 -8 -15 -58 -16 -60 -46 -61 -24 0 -30 4 -31 21 0 21 -1 21 -9 2 -8 -19
-9 -19 -9 3 -1 12 -5 22 -11 22 -5 0 -10 4 -10 8 0 5 13 7 29 4 16 -2 32 1 36
8 5 8 11 8 22 -1 12 -10 16 -10 24 2z m269 -26 c0 -5 -5 -3 -10 5 -5 8 -10 20
-10 25 0 6 5 3 10 -5 5 -8 10 -19 10 -25z m4040 25 c0 -5 -4 -10 -10 -10 -5 0
-10 5 -10 10 0 6 5 10 10 10 6 0 10 -4 10 -10z m-90 -10 c13 -8 13 -10 -2 -10
-9 0 -20 5 -23 10 -8 13 5 13 25 0z m-3970 -28 c0 -15 -2 -15 -10 -2 -13 20
-13 33 0 25 6 -3 10 -14 10 -23z m-382 -7 c-3 -3 -9 2 -12 12 -6 14 -5 15 5 6
7 -7 10 -15 7 -18z m4282 15 c0 -5 -6 -10 -14 -10 -8 0 -18 5 -21 10 -3 6 3
10 14 10 12 0 21 -4 21 -10z m-3940 -42 c0 -18 -26 5 -27 25 -2 21 -1 21 13 3
8 -11 14 -23 14 -28z m3990 32 c0 -5 -2 -10 -4 -10 -3 0 -8 5 -11 10 -3 6 -1
10 4 10 6 0 11 -4 11 -10z m-5212 -19 c3 -8 -1 -12 -9 -9 -7 2 -15 10 -17 17
-3 8 1 12 9 9 7 -2 15 -10 17 -17z m3109 3 c-3 -3 -12 -4 -19 -1 -8 3 -5 6 6
6 11 1 17 -2 13 -5z m-2207 -40 c0 -14 -4 -22 -10 -19 -5 3 -10 17 -10 31 0
14 4 22 10 19 6 -3 10 -17 10 -31z m4180 22 c0 -3 -4 -8 -10 -11 -5 -3 -10 -1
-10 4 0 6 5 11 10 11 6 0 10 -2 10 -4z m-103 -28 c-3 -8 -6 -5 -6 6 -1 11 2
17 5 13 3 -3 4 -12 1 -19z m62 11 c-18 -11 -39 -11 -39 0 0 5 12 9 26 9 18 0
22 -3 13 -9z m-5730 -52 c-1 -36 -2 -38 -9 -17 -12 36 -12 72 0 65 6 -3 10
-25 9 -48z m5501 23 c0 -5 -5 -10 -11 -10 -5 0 -7 5 -4 10 3 6 8 10 11 10 2 0
4 -4 4 -10z m140 1 c0 -5 -7 -11 -14 -14 -10 -4 -13 -1 -9 9 6 15 23 19 23 5z
m-1510 -11 c0 -5 -2 -10 -4 -10 -3 0 -8 5 -11 10 -3 6 -1 10 4 10 6 0 11 -4
11 -10z m35 -21 c-4 -5 -13 -9 -22 -9 -13 0 -13 3 -3 15 13 15 35 11 25 -6z
m-1705 7 c0 -2 -7 -6 -15 -10 -8 -3 -15 -1 -15 4 0 6 7 10 15 10 8 0 15 -2 15
-4z m17 -18 c-3 -8 -6 -5 -6 6 -1 11 2 17 5 13 3 -3 4 -12 1 -19z m1544 -1
c-10 -9 -11 -8 -5 6 3 10 9 15 12 12 3 -3 0 -11 -7 -18z m1384 -7 c3 -5 -1
-10 -10 -10 -9 0 -13 5 -10 10 3 6 8 10 10 10 2 0 7 -4 10 -10z m55 6 c0 -3
-4 -8 -10 -11 -5 -3 -10 -1 -10 4 0 6 5 11 10 11 6 0 10 -2 10 -4z m-8753 -12
c-3 -3 -12 -4 -19 -1 -8 3 -5 6 6 6 11 1 17 -2 13 -5z m3484 -12 c12 -11 18
-21 13 -24 -5 -3 -20 5 -34 18 -29 28 -13 32 21 6z m5160 0 c-7 -2 -18 1 -23
6 -8 8 -4 9 13 5 13 -4 18 -8 10 -11z m-4751 4 c0 -3 -4 -8 -10 -11 -5 -3 -10
-1 -10 4 0 6 5 11 10 11 6 0 10 -2 10 -4z m2255 -14 c-3 -3 -11 0 -18 7 -9 10
-8 11 6 5 10 -3 15 -9 12 -12z m-6232 1 c-7 -2 -21 -2 -30 0 -10 3 -4 5 12 5
17 0 24 -2 18 -5z m8867 -2 c0 -6 -4 -13 -10 -16 -5 -3 -10 1 -10 9 0 9 5 16
10 16 6 0 10 -4 10 -9z m-5270 -53 c17 2 30 -1 30 -6 0 -5 -11 -7 -25 -4 -17
3 -25 0 -25 -9 0 -11 -2 -11 -10 1 -6 10 -10 11 -10 3 0 -7 -5 -13 -10 -13 -6
0 -10 6 -9 13 3 27 -2 39 -15 34 -10 -4 -14 0 -13 13 1 18 4 17 30 -7 20 -20
36 -27 57 -25z m10 22 c0 -5 -5 -10 -11 -10 -5 0 -7 5 -4 10 3 6 8 10 11 10 2
0 4 -4 4 -10z m4510 -11 c0 -5 5 -7 10 -4 6 3 10 1 10 -4 0 -13 -3 -13 -24 -5
-18 7 -22 24 -6 24 6 0 10 -5 10 -11z m927 -5 c-3 -3 -12 -4 -19 -1 -8 3 -5 6
6 6 11 1 17 -2 13 -5z m-5519 -21 c-3 -15 4 -18 43 -17 41 1 46 -1 41 -19 -4
-14 -2 -18 7 -12 10 6 11 0 6 -26 -4 -19 -10 -38 -13 -44 -4 -5 -5 -20 -3 -32
2 -19 -2 -23 -23 -23 -14 0 -28 -4 -31 -10 -3 -5 -11 -10 -16 -10 -6 0 -7 5
-4 10 3 6 1 10 -4 10 -6 0 -11 -4 -11 -10 0 -5 -7 -7 -14 -4 -24 9 -6 204 19
204 3 0 5 -8 3 -17z m4692 -3 c0 -5 -5 -10 -11 -10 -5 0 -7 5 -4 10 3 6 8 10
11 10 2 0 4 -4 4 -10z m-6393 -6 c-3 -3 -12 -4 -19 -1 -8 3 -5 6 6 6 11 1 17
-2 13 -5z m1933 -3 c0 -5 -7 -11 -15 -15 -15 -5 -20 5 -8 17 9 10 23 9 23 -2z
m5375 -1 c8 -13 -5 -13 -25 0 -13 8 -13 10 2 10 9 0 20 -4 23 -10z m-965 -10
c0 -5 -4 -10 -10 -10 -5 0 -10 5 -10 10 0 6 5 10 10 10 6 0 10 -4 10 -10z
m-7400 -10 c0 -5 -4 -10 -10 -10 -5 0 -10 5 -10 10 0 6 5 10 10 10 6 0 10 -4
10 -10z m-40 -15 c0 -8 -7 -15 -15 -15 -18 0 -19 -14 -2 -32 14 -14 14 -24 2
-51 -7 -17 -8 -17 -21 0 -12 15 -15 16 -23 3 -8 -12 -13 -12 -35 -1 -21 12
-28 12 -42 0 -14 -11 -17 -10 -26 4 -6 12 -17 16 -31 13 -12 -3 -16 -3 -9 0
17 8 15 25 -3 18 -12 -5 -13 -1 -4 25 12 35 14 35 58 20 39 -14 41 -38 4 -40
-23 -1 -24 -3 -6 -6 12 -2 39 7 62 21 22 14 45 26 50 26 5 0 14 7 21 15 7 8
14 15 16 15 2 0 4 -7 4 -15z m85 -5 c13 -6 15 -9 5 -9 -8 0 -22 4 -30 9 -18
12 -2 12 25 0z m1043 -6 c34 -10 26 -24 -13 -24 -24 0 -35 5 -35 15 0 16 12
18 48 9z m4197 -4 c3 -5 1 -10 -4 -10 -6 0 -11 5 -11 10 0 6 2 10 4 10 3 0 8
-4 11 -10z m-5195 -20 c0 -12 -29 -20 -35 -10 -4 6 -17 10 -31 10 -13 0 -24 3
-24 8 0 4 20 6 45 4 25 -2 45 -8 45 -12z m-372 -38 c-5 -2 -16 0 -26 4 -16 8
-26 10 -47 13 -5 1 -4 5 3 10 8 5 27 1 46 -8 18 -9 29 -18 24 -19z m-84 3 c3
-8 1 -15 -4 -15 -6 0 -10 7 -10 15 0 8 2 15 4 15 2 0 6 -7 10 -15z m4406 5 c0
-5 -4 -10 -10 -10 -5 0 -10 5 -10 10 0 6 5 10 10 10 6 0 10 -4 10 -10z m5271
-20 c6 0 7 -5 3 -12 -5 -8 -11 -6 -20 7 -7 10 -10 23 -6 29 4 7 8 5 10 -6 2
-10 8 -18 13 -18z m-9641 0 c0 -5 -2 -10 -4 -10 -3 0 -8 5 -11 10 -3 6 -1 10
4 10 6 0 11 -4 11 -10z m440 -9 c0 -14 -6 -19 -20 -18 -23 1 -28 17 -5 17 8 0
15 5 15 10 0 6 2 10 5 10 3 0 5 -9 5 -19z m88 -3 c-2 -6 -10 -14 -16 -16 -7
-2 -10 2 -6 12 7 18 28 22 22 4z m122 8 c0 -3 -4 -8 -10 -11 -5 -3 -10 -1 -10
4 0 6 5 11 10 11 6 0 10 -2 10 -4z m9054 -34 c-4 -12 -11 -22 -16 -22 -6 0 -7
7 -4 16 3 9 6 23 6 32 0 10 3 13 10 6 5 -5 7 -19 4 -32z m-9654 13 c-7 -8 -17
-15 -22 -15 -6 0 -5 7 2 15 7 8 17 15 22 15 6 0 5 -7 -2 -15z m5204 -20 c-10
-15 -20 -23 -22 -17 -3 11 29 54 36 48 2 -3 -4 -17 -14 -31z m4416 15 c0 -5
-5 -10 -11 -10 -5 0 -7 5 -4 10 3 6 8 10 11 10 2 0 4 -4 4 -10z m-5887 -15
c-3 -9 -8 -14 -10 -11 -3 3 -2 9 2 15 9 16 15 13 8 -4z m3949 -7 c-7 -7 -12
-8 -12 -2 0 14 12 26 19 19 2 -3 -1 -11 -7 -17z m488 18 c0 -2 -7 -6 -15 -10
-8 -3 -15 -1 -15 4 0 6 7 10 15 10 8 0 15 -2 15 -4z m1590 -18 c0 -6 -7 -7
-16 -4 -9 3 -18 6 -20 6 -3 0 -3 4 1 10 7 11 35 2 35 -12z m-9550 2 c8 -5 12
-11 10 -14 -3 -2 -14 2 -24 10 -22 15 -10 19 14 4z m3319 -4 c9 -11 6 -15 -14
-18 -14 -3 -25 -1 -25 3 0 5 7 9 16 9 8 0 12 5 9 10 -9 15 1 12 14 -4z m1843
-21 c4 -5 8 -14 8 -20 -1 -5 -7 -2 -15 9 -7 10 -18 15 -24 11 -6 -3 -11 -1
-11 4 0 6 -3 10 -7 10 -5 -1 -17 -1 -28 0 -15 1 -17 3 -6 10 14 9 71 -7 83
-24z m2823 15 c3 -5 1 -10 -4 -10 -6 0 -11 5 -11 10 0 6 2 10 4 10 3 0 8 -4
11 -10z m423 -15 c-3 -3 -9 2 -12 12 -6 14 -5 15 5 6 7 -7 10 -15 7 -18z
m-8768 5 c0 -5 -5 -10 -11 -10 -5 0 -7 5 -4 10 3 6 8 10 11 10 2 0 4 -4 4 -10z
m3290 6 c0 -3 -4 -8 -10 -11 -5 -3 -10 -1 -10 4 0 6 5 11 10 11 6 0 10 -2 10
-4z m3975 -6 c3 -6 -1 -7 -9 -4 -18 7 -21 14 -7 14 6 0 13 -4 16 -10z m-665
-4 c0 -2 -7 -7 -16 -10 -8 -3 -12 -2 -9 4 6 10 25 14 25 6z m-6610 -48 c0 -3
-9 -4 -20 -1 -23 6 -22 5 -14 27 6 15 8 15 20 -1 7 -10 14 -21 14 -25z m5390
32 c0 -5 -4 -10 -10 -10 -5 0 -10 5 -10 10 0 6 5 10 10 10 6 0 10 -4 10 -10z
m220 -22 c0 -6 -7 -7 -16 -4 -13 5 -15 2 -11 -14 3 -11 1 -18 -4 -14 -5 3 -9
11 -9 19 0 7 -3 15 -7 18 -5 2 -2 2 5 1 6 -2 12 4 12 13 0 13 3 13 15 3 8 -7
15 -17 15 -22z m615 22 c3 -5 1 -10 -4 -10 -6 0 -11 5 -11 10 0 6 2 10 4 10 3
0 8 -4 11 -10z m-2578 -22 c-3 -8 -6 -5 -6 6 -1 11 2 17 5 13 3 -3 4 -12 1
-19z m1039 10 c3 -5 -9 -7 -26 -6 -17 1 -34 6 -36 10 -3 5 9 7 26 6 17 -1 34
-6 36 -10z m3669 -7 c-3 -6 -11 -11 -17 -11 -6 0 -6 6 2 15 14 17 26 13 15 -4z
m485 -6 c11 -13 10 -14 -4 -9 -9 3 -16 10 -16 15 0 13 6 11 20 -6z m-9180 -9
c0 -10 -7 -12 -22 -8 -21 5 -21 6 -2 13 10 4 20 8 22 8 1 1 2 -5 2 -13z m5674
6 c2 -4 1 -14 -4 -21 -10 -17 -31 -5 -23 14 6 16 19 20 27 7z m520 -1 c3 -5
-1 -11 -9 -14 -9 -4 -12 -1 -8 9 6 16 10 17 17 5z m-4769 -11 c3 -5 1 -10 -4
-10 -6 0 -11 5 -11 10 0 6 2 10 4 10 3 0 8 -4 11 -10z m2372 4 c-3 -3 -12 -4
-19 -1 -8 3 -5 6 6 6 11 1 17 -2 13 -5z m2498 -4 c3 -6 -1 -7 -9 -4 -18 7 -21
14 -7 14 6 0 13 -4 16 -10z m45 -5 c7 -9 8 -15 2 -15 -5 0 -12 7 -16 15 -3 8
-4 15 -2 15 2 0 9 -7 16 -15z m2220 11 c0 -3 -4 -8 -10 -11 -5 -3 -10 -1 -10
4 0 6 5 11 10 11 6 0 10 -2 10 -4z m-7549 -24 c-7 -2 -18 1 -23 6 -8 8 -4 9
13 5 13 -4 18 -8 10 -11z m4754 8 c-4 -6 -1 -17 5 -25 10 -12 9 -15 -4 -15
-16 0 -22 30 -9 43 10 11 15 8 8 -3z m1275 0 c0 -5 -2 -10 -4 -10 -3 0 -8 5
-11 10 -3 6 -1 10 4 10 6 0 11 -4 11 -10z m260 -2 c0 -4 -4 -8 -9 -8 -6 0 -12
4 -15 8 -3 5 1 9 9 9 8 0 15 -4 15 -9z m-7345 -8 c3 -5 -1 -10 -9 -10 -9 0
-16 5 -16 10 0 6 4 10 9 10 6 0 13 -4 16 -10z m6265 0 c0 -5 -4 -10 -10 -10
-5 0 -10 5 -10 10 0 6 5 10 10 10 6 0 10 -4 10 -10z m2391 -36 c-5 -16 -10
-21 -10 -12 -1 18 10 51 15 45 2 -1 -1 -16 -5 -33z m-2361 16 c0 -5 -5 -10
-11 -10 -5 0 -7 5 -4 10 3 6 8 10 11 10 2 0 4 -4 4 -10z m1360 0 c0 -5 -2 -10
-4 -10 -3 0 -8 5 -11 10 -3 6 -1 10 4 10 6 0 11 -4 11 -10z m1190 -8 c0 -5 -7
-9 -15 -9 -8 0 -12 4 -9 9 3 4 9 8 15 8 5 0 9 -4 9 -8z m-6065 -11 c3 -5 1
-12 -5 -16 -5 -3 -10 1 -10 9 0 18 6 21 15 7z m3075 -6 c0 -8 -2 -15 -4 -15
-2 0 -6 7 -10 15 -3 8 -1 15 4 15 6 0 10 -7 10 -15z m93 -19 c-3 -14 -11 -27
-18 -30 -10 -3 -9 3 2 25 18 35 22 37 16 5z m520 -1 c-7 -21 -13 -19 -13 6 0
11 4 18 10 14 5 -3 7 -12 3 -20z m1097 10 c0 -8 -2 -15 -4 -15 -2 0 -6 7 -10
15 -3 8 -1 15 4 15 6 0 10 -7 10 -15z m1298 -11 c0 -15 -4 -22 -10 -16 -5 5
-6 16 -2 25 9 23 12 21 12 -9z m-1828 5 c0 -6 7 -9 15 -6 8 4 17 2 20 -3 4 -6
-3 -10 -15 -10 -13 0 -19 -4 -14 -11 4 -8 0 -9 -15 -4 -14 4 -21 2 -21 -6 0
-7 -3 -9 -7 -5 -5 4 0 14 11 21 10 8 15 18 11 24 -3 6 -1 11 4 11 6 0 11 -5
11 -11z m1567 4 c-4 -3 -1 -13 6 -22 11 -14 10 -14 -5 -2 -16 12 -16 31 -1 31
4 0 3 -3 0 -7z m-5797 -7 c0 -3 -4 -8 -10 -11 -5 -3 -10 -1 -10 4 0 6 5 11 10
11 6 0 10 -2 10 -4z m105 -5 c3 -5 1 -12 -5 -16 -5 -3 -10 1 -10 9 0 18 6 21
15 7z m3845 -1 c13 -8 13 -10 -2 -10 -9 0 -20 5 -23 10 -8 13 5 13 25 0z m80
-30 c0 -13 -1 -13 -10 0 -5 8 -10 22 -10 30 0 13 1 13 10 0 5 -8 10 -22 10
-30z m283 25 c-3 -9 -8 -14 -10 -11 -3 3 -2 9 2 15 9 16 15 13 8 -4z m-4263
-15 c-24 -15 -36 -11 -14 4 10 8 21 12 24 10 2 -3 -2 -9 -10 -14z m3410 10 c0
-5 -2 -10 -4 -10 -3 0 -8 5 -11 10 -3 6 -1 10 4 10 6 0 11 -4 11 -10z m1274
-5 c3 -8 1 -15 -4 -15 -6 0 -10 7 -10 15 0 8 2 15 4 15 2 0 6 -7 10 -15z
m-4854 -16 c0 -6 -4 -7 -10 -4 -5 3 -10 11 -10 16 0 6 5 7 10 4 6 -3 10 -11
10 -16z m3154 6 c-4 -8 -11 -15 -16 -15 -6 0 -5 6 2 15 7 8 14 15 16 15 2 0 1
-7 -2 -15z m161 -3 c-3 -3 -11 0 -18 7 -9 10 -8 11 6 5 10 -3 15 -9 12 -12z
m985 8 c0 -5 -4 -10 -10 -10 -5 0 -10 5 -10 10 0 6 5 10 10 10 6 0 10 -4 10
-10z m-7393 -22 c-3 -8 -6 -5 -6 6 -1 11 2 17 5 13 3 -3 4 -12 1 -19z m3217 7
c11 -8 16 -15 10 -15 -5 0 -18 7 -28 15 -11 8 -16 15 -10 15 5 0 18 -7 28 -15z
m3916 11 c0 -3 -4 -8 -10 -11 -5 -3 -10 -1 -10 4 0 6 5 11 10 11 6 0 10 -2 10
-4z m80 -6 c0 -5 -2 -10 -4 -10 -3 0 -8 5 -11 10 -3 6 -1 10 4 10 6 0 11 -4
11 -10z m710 6 c0 -3 -4 -8 -10 -11 -5 -3 -10 -1 -10 4 0 6 5 11 10 11 6 0 10
-2 10 -4z m-1706 -21 c3 -8 1 -15 -3 -15 -5 0 -11 7 -15 15 -3 8 -1 15 3 15 5
0 11 -7 15 -15z m1786 6 c0 -5 -9 -7 -20 -4 -11 3 -20 7 -20 9 0 2 9 4 20 4
11 0 20 -4 20 -9z m-910 -11 c0 -5 -5 -10 -11 -10 -5 0 -7 5 -4 10 3 6 8 10
11 10 2 0 4 -4 4 -10z m204 1 c16 -7 26 -6 30 0 2 5 3 4 2 -3 -2 -7 -15 -12
-30 -11 -24 2 -26 0 -14 -14 12 -15 11 -15 -9 -4 -14 7 -20 17 -17 26 7 18 6
18 38 6z m256 -19 c0 -14 -2 -14 -9 -3 -5 7 -14 10 -20 7 -6 -4 -11 -3 -11 3
0 11 21 20 33 14 4 -2 7 -12 7 -21z m160 18 c0 -5 -4 -10 -10 -10 -5 0 -10 5
-10 10 0 6 5 10 10 10 6 0 10 -4 10 -10z m563 -10 c3 -11 1 -18 -4 -14 -5 3
-9 12 -9 20 0 20 7 17 13 -6z m37 -1 c0 -6 -4 -7 -10 -4 -5 3 -10 11 -10 16 0
6 5 7 10 4 6 -3 10 -11 10 -16z m-5069 -16 c-8 -15 -10 -15 -11 -2 0 17 10 32
18 25 2 -3 -1 -13 -7 -23z m2139 17 c0 -5 -2 -10 -4 -10 -3 0 -8 5 -11 10 -3
6 -1 10 4 10 6 0 11 -4 11 -10z m2595 -6 c9 -9 13 -19 10 -23 -4 -3 -11 2 -17
12 -7 14 -17 17 -36 13 -20 -5 -23 -4 -12 4 21 14 36 12 55 -6z m265 1 c0 -8
-4 -15 -10 -15 -5 0 -10 7 -10 15 0 8 5 15 10 15 6 0 10 -7 10 -15z m704 2
c-2 -7 -14 -18 -25 -25 -19 -12 -20 -12 -3 13 17 26 37 35 28 12z m106 3 c0
-5 -2 -10 -4 -10 -3 0 -8 5 -11 10 -3 6 -1 10 4 10 6 0 11 -4 11 -10z m70 -2
c0 -4 -9 -8 -20 -8 -11 0 -20 4 -20 8 0 4 9 8 20 8 11 0 20 -4 20 -8z m-3780
-8 c0 -5 -4 -10 -10 -10 -5 0 -10 5 -10 10 0 6 5 10 10 10 6 0 10 -4 10 -10z
m507 4 c-3 -3 -12 -4 -19 -1 -8 3 -5 6 6 6 11 1 17 -2 13 -5z m200 -16 c-3 -8
-6 -5 -6 6 -1 11 2 17 5 13 3 -3 4 -12 1 -19z m53 5 c0 5 5 5 11 1 8 -5 6 -10
-5 -16 -21 -12 -37 -2 -29 18 5 13 7 13 14 2 5 -7 9 -9 9 -5z m678 5 c8 -8 15
-8 27 2 17 14 22 12 25 -10 4 -26 0 -40 -10 -40 -5 0 -7 8 -4 18 4 12 0 11
-15 -7 -17 -19 -22 -20 -27 -7 -3 8 -3 20 1 26 6 9 -7 14 -27 11 -5 0 -8 4 -8
9 0 14 23 13 38 -2z m77 2 c3 -5 1 -10 -4 -10 -6 0 -11 5 -11 10 0 6 2 10 4
10 3 0 8 -4 11 -10z m320 -13 c4 5 5 3 1 -4 -8 -15 -32 -7 -41 15 -5 14 -4 14
13 -1 10 -9 22 -14 27 -10z m842 17 c-3 -3 -12 -4 -19 -1 -8 3 -5 6 6 6 11 1
17 -2 13 -5z m-6914 -11 c-7 -2 -19 -2 -25 0 -7 3 -2 5 12 5 14 0 19 -2 13 -5z
m964 1 c-3 -3 -12 -4 -19 -1 -8 3 -5 6 6 6 11 1 17 -2 13 -5z m4833 -9 c0 -8
-4 -15 -10 -15 -5 0 -7 7 -4 15 4 8 8 15 10 15 2 0 4 -7 4 -15z m1935 5 c4 -6
-5 -10 -20 -10 -15 0 -24 4 -20 10 3 6 12 10 20 10 8 0 17 -4 20 -10z m605 0
c0 -5 -5 -10 -11 -10 -5 0 -7 5 -4 10 3 6 8 10 11 10 2 0 4 -4 4 -10z m-1714
-18 c-10 -2 -22 0 -28 6 -6 6 0 7 19 4 21 -5 23 -7 9 -10z m214 2 c0 -8 -4
-12 -10 -9 -5 3 -10 10 -10 16 0 5 5 9 10 9 6 0 10 -7 10 -16z m-530 -15 c0
-6 -4 -7 -10 -4 -5 3 -10 11 -10 16 0 6 5 7 10 4 6 -3 10 -11 10 -16z m410 11
c0 -5 -2 -10 -4 -10 -3 0 -8 5 -11 10 -3 6 -1 10 4 10 6 0 11 -4 11 -10z
m1167 -10 c3 -10 2 -11 -4 -4 -4 7 -19 14 -33 17 -22 4 -21 5 4 4 17 -1 31 -9
33 -17z m-7047 0 c0 -5 -4 -10 -10 -10 -5 0 -10 5 -10 10 0 6 5 10 10 10 6 0
10 -4 10 -10z m3297 -22 c-3 -7 -5 -2 -5 12 0 14 2 19 5 13 2 -7 2 -19 0 -25z
m375 14 c-23 -3 -23 -4 -6 -23 16 -18 19 -18 43 -2 l25 16 -24 -30 c-20 -24
-29 -28 -43 -21 -10 5 -15 13 -12 17 2 5 -2 14 -10 21 -26 22 -18 37 18 31 27
-4 28 -6 9 -9z m608 -27 c5 3 11 1 15 -5 3 -5 -1 -10 -9 -10 -16 0 -37 30 -35
52 0 7 5 1 11 -15 5 -15 14 -25 18 -22z m320 35 c0 -5 -2 -10 -4 -10 -3 0 -8
5 -11 10 -3 6 -1 10 4 10 6 0 11 -4 11 -10z m97 -12 c-3 -8 -6 -5 -6 6 -1 11
2 17 5 13 3 -3 4 -12 1 -19z m279 -16 c-14 -14 -16 -14 -16 -1 0 20 23 44 29
28 2 -6 -4 -18 -13 -27z m54 29 c0 -5 -6 -16 -13 -23 -8 -7 -12 -20 -10 -28 4
-13 3 -13 -5 -1 -7 9 -7 22 1 38 10 23 27 32 27 14z m1670 5 c0 -11 -19 -15
-25 -6 -3 5 1 10 9 10 9 0 16 -2 16 -4z m540 -11 c-14 -8 -38 -14 -55 -14
l-30 1 35 13 c19 7 44 14 55 14 18 0 17 -1 -5 -14z m487 9 c-3 -3 -12 -4 -19
-1 -8 3 -5 6 6 6 11 1 17 -2 13 -5z m-7882 -20 c-9 -9 -18 -14 -21 -11 -9 9 6
27 22 27 13 0 13 -2 -1 -16z m3680 6 c-3 -5 -11 -10 -16 -10 -6 0 -7 5 -4 10
3 6 11 10 16 10 6 0 7 -4 4 -10z m260 0 c8 -13 -5 -13 -25 0 -13 8 -13 10 2
10 9 0 20 -4 23 -10z m42 -10 c-1 -11 -4 -20 -8 -20 -10 0 -19 27 -12 34 12
12 22 5 20 -14z m198 10 c3 -6 -1 -7 -9 -4 -18 7 -21 14 -7 14 6 0 13 -4 16
-10z m160 0 c3 -5 -1 -10 -10 -10 -9 0 -13 5 -10 10 3 6 8 10 10 10 2 0 7 -4
10 -10z m760 0 c3 -5 -1 -10 -9 -10 -9 0 -16 5 -16 10 0 6 4 10 9 10 6 0 13
-4 16 -10z m220 -1 c9 -13 6 -16 -30 -25 l-30 -7 19 22 c21 23 32 26 41 10z
m1635 1 c0 -5 -4 -10 -10 -10 -5 0 -10 5 -10 10 0 6 5 10 10 10 6 0 10 -4 10
-10z m53 3 c-7 -2 -19 -2 -25 0 -7 3 -2 5 12 5 14 0 19 -2 13 -5z m717 -3 c0
-5 -2 -10 -4 -10 -3 0 -8 5 -11 10 -3 6 -1 10 4 10 6 0 11 -4 11 -10z m420 -8
c0 -10 -7 -27 -15 -38 -14 -18 -15 -17 -9 11 10 47 24 62 24 27z m-3499 -16
c-6 -7 -22 -16 -34 -19 -19 -5 -18 -3 8 18 30 25 46 26 26 1z m2043 -8 c7 -5
4 -8 -6 -8 -12 0 -18 7 -17 23 0 15 2 17 6 7 3 -8 11 -18 17 -22z m1143 26
c-3 -3 -12 -4 -19 -1 -8 3 -5 6 6 6 11 1 17 -2 13 -5z m-9322 -22 c-3 -3 -11
0 -18 7 -9 10 -8 11 6 5 10 -3 15 -9 12 -12z m4793 -7 c-3 -3 -9 2 -12 12 -6
14 -5 15 5 6 7 -7 10 -15 7 -18z m82 21 c0 -2 -7 -7 -16 -10 -8 -3 -12 -2 -9
4 6 10 25 14 25 6z m904 -4 c3 -5 21 -7 40 -6 20 2 38 -2 42 -8 4 -6 1 -9 -7
-6 -8 3 -20 -2 -27 -11 -8 -10 -11 -10 -6 -2 5 10 2 13 -12 9 -10 -2 -27 4
-36 14 -10 10 -14 18 -9 18 6 0 12 -4 15 -8z m-3864 -34 c0 -5 -4 -8 -10 -8
-5 0 -10 10 -10 23 0 18 2 19 10 7 5 -8 10 -18 10 -22z m30 22 c0 -5 -2 -10
-4 -10 -3 0 -8 5 -11 10 -3 6 -1 10 4 10 6 0 11 -4 11 -10z m967 -12 c-3 -8
-6 -5 -6 6 -1 11 2 17 5 13 3 -3 4 -12 1 -19z m2839 9 c4 -4 -2 -7 -14 -7 -11
0 -23 4 -26 8 -6 10 30 9 40 -1z m267 -1 c12 4 14 1 10 -15 -4 -17 -8 -19 -19
-10 -7 6 -17 8 -22 6 -4 -3 -14 -1 -22 4 -13 8 -13 10 0 18 9 6 19 6 26 0 6
-5 18 -7 27 -3z m367 10 c0 -11 -19 -15 -25 -6 -3 5 1 10 9 10 9 0 16 -2 16
-4z m1310 0 c0 -2 -7 -7 -16 -10 -8 -3 -12 -2 -9 4 6 10 25 14 25 6z m790 -11
c0 -2 -9 -3 -19 -2 -11 0 -18 5 -15 9 4 6 34 0 34 -7z m310 7 c0 -4 -10 -9
-22 -9 -18 -2 -20 0 -8 7 18 12 30 13 30 2z m1645 -10 c-3 -3 -11 0 -18 7 -9
10 -8 11 6 5 10 -3 15 -9 12 -12z m-8422 1 c7 -6 -37 -33 -54 -33 -5 0 -9 7
-9 16 0 13 3 14 14 5 10 -9 15 -8 20 4 6 16 18 19 29 8z m8362 -11 c-3 -3 -11
0 -18 7 -9 10 -8 11 6 5 10 -3 15 -9 12 -12z m-8495 -34 c-1 -8 -6 -6 -15 6
-20 26 -19 42 0 22 8 -8 15 -21 15 -28z m1540 10 c0 -12 -13 -9 -32 6 -26 19
-22 26 7 13 14 -7 25 -15 25 -19z m1332 10 c-7 -7 -12 -8 -12 -2 0 14 12 26
19 19 2 -3 -1 -11 -7 -17z m4533 13 c3 -5 1 -12 -5 -16 -5 -3 -10 1 -10 9 0
18 6 21 15 7z m-6851 -26 c-9 -14 -19 -23 -22 -20 -5 4 26 45 35 45 2 0 -4
-11 -13 -25z m7401 15 c3 -5 1 -10 -4 -10 -6 0 -11 5 -11 10 0 6 2 10 4 10 3
0 8 -4 11 -10z m-6380 -10 c3 -5 1 -10 -4 -10 -6 0 -11 5 -11 10 0 6 2 10 4
10 3 0 8 -4 11 -10z m2845 -12 c0 -18 -2 -20 -9 -8 -6 8 -7 18 -5 22 9 14 14
9 14 -14z m960 18 c0 -3 -4 -8 -10 -11 -5 -3 -10 -1 -10 4 0 6 5 11 10 11 6 0
10 -2 10 -4z m2500 0 c0 -3 -4 -8 -10 -11 -5 -3 -10 -1 -10 4 0 6 5 11 10 11
6 0 10 -2 10 -4z m564 -2 c9 -3 16 -10 16 -15 0 -6 -8 -6 -19 0 -10 6 -22 7
-26 3 -5 -4 -5 -1 -1 6 8 14 9 14 30 6z m-8166 -18 c-8 -6 -13 -18 -11 -26 4
-13 3 -13 -5 -1 -13 18 -5 38 15 38 14 0 14 -2 1 -11z m306 -2 c3 -8 2 -12 -4
-9 -6 3 -10 10 -10 16 0 14 7 11 14 -7z m3470 4 c-3 -4 -12 -8 -20 -8 -8 0
-14 4 -14 8 0 4 9 8 19 8 11 0 17 -4 15 -8z m566 2 c0 -5 -5 -10 -11 -10 -5 0
-7 5 -4 10 3 6 8 10 11 10 2 0 4 -4 4 -10z m-4569 -43 c-13 -13 -15 1 -4 30 7
17 8 17 11 -1 2 -10 -1 -23 -7 -29z m1239 39 c0 -11 -19 -15 -25 -6 -3 5 1 10
9 10 9 0 16 -2 16 -4z m327 -2 c-3 -3 -12 -4 -19 -1 -8 3 -5 6 6 6 11 1 17 -2
13 -5z m1160 -16 c-3 -8 -6 -5 -6 6 -1 11 2 17 5 13 3 -3 4 -12 1 -19z m253 1
c0 -5 -4 -9 -10 -9 -5 0 -10 7 -10 16 0 8 5 12 10 9 6 -3 10 -10 10 -16z
m2740 17 c0 -11 -19 -15 -25 -6 -3 5 1 10 9 10 9 0 16 -2 16 -4z m1747 -2 c-3
-3 -12 -4 -19 -1 -8 3 -5 6 6 6 11 1 17 -2 13 -5z m843 -4 c0 -5 -7 -7 -15 -4
-8 4 -15 8 -15 10 0 2 7 4 15 4 8 0 15 -4 15 -10z m-8198 -32 c-8 -8 -9 -4 -5
13 4 13 8 18 11 10 2 -7 -1 -18 -6 -23z m4088 17 c0 -8 -2 -15 -4 -15 -2 0 -6
7 -10 15 -3 8 -1 15 4 15 6 0 10 -7 10 -15z m1880 -1 c0 -8 -5 -12 -10 -9 -6
4 -8 11 -5 16 9 14 15 11 15 -7z m40 6 c0 -5 -2 -10 -4 -10 -3 0 -8 5 -11 10
-3 6 -1 10 4 10 6 0 11 -4 11 -10z m1125 0 c3 -6 -1 -7 -9 -4 -18 7 -21 14 -7
14 6 0 13 -4 16 -10z m315 0 c0 -5 -2 -10 -4 -10 -3 0 -8 5 -11 10 -3 6 -1 10
4 10 6 0 11 -4 11 -10z m530 0 c0 -5 -2 -10 -4 -10 -3 0 -8 5 -11 10 -3 6 -1
10 4 10 6 0 11 -4 11 -10z m85 0 c3 -5 2 -10 -4 -10 -5 0 -13 5 -16 10 -3 6
-2 10 4 10 5 0 13 -4 16 -10z m-1848 -6 c-3 -3 -12 -4 -19 -1 -8 3 -5 6 6 6
11 1 17 -2 13 -5z m-6489 -26 c-2 -18 1 -22 16 -20 11 2 15 -1 11 -7 -9 -15
-24 -14 -41 4 -13 12 -13 17 -2 29 18 21 20 20 16 -6z m2962 1 c0 -5 -4 -9
-10 -9 -5 0 -10 7 -10 16 0 8 5 12 10 9 6 -3 10 -10 10 -16z m4370 14 c0 -5
-11 -13 -24 -19 -23 -11 -24 -10 -13 7 12 19 37 26 37 12z m35 -3 c3 -5 1 -10
-4 -10 -6 0 -11 5 -11 10 0 6 2 10 4 10 3 0 8 -4 11 -10z m-4193 -22 c-7 -7
-12 -8 -12 -2 0 14 12 26 19 19 2 -3 -1 -11 -7 -17z m-2812 -13 c0 -14 -4 -25
-10 -25 -5 0 -10 9 -10 20 0 30 -18 24 -40 -12 -11 -18 -20 -28 -20 -21 0 6
-3 18 -6 27 -4 11 -1 16 11 16 9 0 13 5 10 10 -4 6 8 10 29 10 32 0 36 -3 36
-25z m4080 15 c0 -5 8 -7 18 -4 14 5 14 4 2 -4 -8 -6 -18 -8 -22 -6 -5 3 -20
-4 -34 -15 -15 -12 -23 -21 -19 -21 5 0 6 -2 3 -5 -9 -9 -38 6 -32 16 3 5 9 7
14 4 5 -3 17 6 27 19 18 25 43 35 43 16z m-4275 -11 c11 -17 -1 -21 -15 -4 -8
9 -8 15 -2 15 6 0 14 -5 17 -11z m3135 -4 c10 -12 10 -15 -3 -15 -8 0 -17 7
-21 15 -3 8 -2 15 3 15 5 0 14 -7 21 -15z m-1645 -5 c3 -5 1 -10 -4 -10 -6 0
-11 5 -11 10 0 6 2 10 4 10 3 0 8 -4 11 -10z m1155 0 c0 -5 -2 -10 -4 -10 -3
0 -8 5 -11 10 -3 6 -1 10 4 10 6 0 11 -4 11 -10z m-2145 -10 c8 -13 -5 -13
-25 0 -13 8 -13 10 2 10 9 0 20 -4 23 -10z m2032 -15 c-15 -16 -19 -13 -11 9
3 9 10 13 15 10 5 -3 3 -11 -4 -19z m758 15 c-3 -5 -12 -10 -18 -10 -7 0 -6 4
3 10 19 12 23 12 15 0z m36 -7 c13 -16 12 -17 -3 -4 -17 13 -22 21 -14 21 2 0
10 -8 17 -17z m1139 -3 c0 -5 -4 -12 -10 -15 -5 -3 -10 -4 -10 -1 0 2 -3 12
-6 20 -5 12 -2 15 10 10 9 -3 16 -10 16 -14z m-1999 1 c11 6 25 8 32 5 7 -2 4
-5 -6 -5 -10 -1 -16 -4 -14 -8 3 -5 -6 -9 -19 -9 -16 -1 -24 3 -23 15 0 10 2
11 6 4 3 -10 10 -10 24 -2z m604 -8 c18 -14 18 -15 2 -9 -10 3 -23 6 -28 6 -5
0 -9 5 -9 10 0 14 12 12 35 -7z m-1238 1 c-3 -3 -12 -4 -19 -1 -8 3 -5 6 6 6
11 1 17 -2 13 -5z m1193 -14 c7 -14 7 -20 0 -20 -5 0 -10 6 -10 14 0 8 -8 17
-17 19 -17 4 -17 5 -1 6 10 0 22 -8 28 -19z m-2300 0 c8 -5 11 -10 5 -10 -5 0
-17 5 -25 10 -8 5 -10 10 -5 10 6 0 17 -5 25 -10z m2060 -10 c-8 -5 -17 -7
-19 -4 -3 3 1 9 9 14 8 5 17 7 19 4 3 -3 -1 -9 -9 -14z m1626 -8 c-18 -16 -18
-16 -6 6 6 13 14 21 18 18 3 -4 -2 -14 -12 -24z m-4436 2 c0 -8 4 -13 9 -10 5
3 12 -1 15 -10 9 -24 7 -31 -9 -31 -8 0 -15 6 -15 14 0 7 -4 13 -10 13 -5 0
-10 9 -10 20 0 11 5 20 10 20 6 0 10 -7 10 -16z m2445 6 c-3 -5 -11 -10 -16
-10 -6 0 -7 5 -4 10 3 6 11 10 16 10 6 0 7 -4 4 -10z m3006 -27 c-12 -20 -14
-14 -5 12 4 9 9 14 11 11 3 -2 0 -13 -6 -23z m-4571 7 c0 -5 -5 -10 -11 -10
-5 0 -7 5 -4 10 3 6 8 10 11 10 2 0 4 -4 4 -10z m1310 1 c0 -5 -7 -12 -16 -15
-14 -5 -15 -4 -4 9 14 17 20 19 20 6z m-2810 -5 c0 -3 -4 -8 -10 -11 -5 -3
-10 -1 -10 4 0 6 5 11 10 11 6 0 10 -2 10 -4z m1630 -6 c0 -5 -2 -10 -4 -10
-3 0 -8 5 -11 10 -3 6 -1 10 4 10 6 0 11 -4 11 -10z m1600 0 c-8 -5 -19 -10
-25 -10 -5 0 -3 5 5 10 8 5 20 10 25 10 6 0 3 -5 -5 -10z m-2470 -4 c0 -3 -4
-8 -10 -11 -5 -3 -10 -1 -10 4 0 6 5 11 10 11 6 0 10 -2 10 -4z m780 -7 c0 6
5 11 12 11 8 0 6 -6 -4 -16 -17 -18 -54 -12 -43 6 5 8 11 7 21 -1 10 -8 14 -8
14 0z m3565 1 c3 -5 -1 -10 -10 -10 -9 0 -13 5 -10 10 3 6 8 10 10 10 2 0 7
-4 10 -10z m2603 -15 c-3 -3 -9 2 -12 12 -6 14 -5 15 5 6 7 -7 10 -15 7 -18z
m-5468 5 c0 -5 -2 -10 -4 -10 -3 0 -8 5 -11 10 -3 6 -1 10 4 10 6 0 11 -4 11
-10z m505 1 c6 -11 -33 -26 -42 -17 -4 3 0 6 8 6 11 0 11 2 -1 10 -12 8 -11
10 7 10 12 0 24 -4 28 -9z m-1178 -33 c-3 -7 -5 -2 -5 12 0 14 2 19 5 13 2 -7
2 -19 0 -25z m326 12 c-3 -12 -8 -19 -11 -16 -5 6 5 36 12 36 2 0 2 -9 -1 -20z
m-446 -6 c-3 -3 -12 -4 -19 -1 -8 3 -5 6 6 6 11 1 17 -2 13 -5z m523 -4 c0 -5
-5 -10 -11 -10 -5 0 -7 5 -4 10 3 6 8 10 11 10 2 0 4 -4 4 -10z m2477 -12 c-3
-8 -6 -5 -6 6 -1 11 2 17 5 13 3 -3 4 -12 1 -19z m-3873 -4 c3 -8 2 -12 -4 -9
-6 3 -10 10 -10 16 0 14 7 11 14 -7z m1446 6 c0 -5 -4 -10 -9 -10 -6 0 -13 5
-16 10 -3 6 1 10 9 10 9 0 16 -4 16 -10z m70 0 c0 -5 -4 -10 -10 -10 -5 0 -10
5 -10 10 0 6 5 10 10 10 6 0 10 -4 10 -10z m2070 0 c0 -5 -7 -7 -15 -4 -8 4
-15 8 -15 10 0 2 7 4 15 4 8 0 15 -4 15 -10z m-3400 -10 c0 -5 -5 -10 -11 -10
-5 0 -7 5 -4 10 3 6 8 10 11 10 2 0 4 -4 4 -10z m660 0 c0 -5 -2 -10 -4 -10
-3 0 -8 5 -11 10 -3 6 -1 10 4 10 6 0 11 -4 11 -10z m1337 4 c-3 -3 -12 -4
-19 -1 -8 3 -5 6 6 6 11 1 17 -2 13 -5z m90 0 c-3 -3 -12 -4 -19 -1 -8 3 -5 6
6 6 11 1 17 -2 13 -5z m-2622 -14 c3 -5 1 -10 -4 -10 -6 0 -11 5 -11 10 0 6 2
10 4 10 3 0 8 -4 11 -10z m1940 0 c-3 -5 -10 -10 -16 -10 -5 0 -9 5 -9 10 0 6
7 10 16 10 8 0 12 -4 9 -10z m632 4 c-3 -3 -12 -4 -19 -1 -8 3 -5 6 6 6 11 1
17 -2 13 -5z m-407 -14 c0 -5 -2 -10 -4 -10 -3 0 -8 5 -11 10 -3 6 -1 10 4 10
6 0 11 -4 11 -10z m2230 1 c0 -5 -9 -7 -20 -4 -11 3 -20 7 -20 9 0 2 9 4 20 4
11 0 20 -4 20 -9z m3317 3 c-3 -3 -12 -4 -19 -1 -8 3 -5 6 6 6 11 1 17 -2 13
-5z"/>
<path d="M900 4360 c0 -5 5 -10 10 -10 6 0 10 5 10 10 0 6 -4 10 -10 10 -5 0
-10 -4 -10 -10z"/>
<path d="M4335 1800 c-3 -5 -1 -10 4 -10 6 0 11 5 11 10 0 6 -2 10 -4 10 -3 0
-8 -4 -11 -10z"/>
<path d="M4140 1435 c-8 -9 -8 -15 -2 -15 12 0 26 19 19 26 -2 2 -10 -2 -17
-11z"/>
<path d="M5590 1480 c0 -14 38 -32 45 -21 6 10 1 14 -27 24 -10 4 -18 2 -18
-3z"/>
<path d="M5697 1439 c7 -7 15 -10 18 -7 3 3 -2 9 -12 12 -14 6 -15 5 -6 -5z"/>
<path d="M5633 1416 c0 -23 34 -73 43 -63 3 2 -6 23 -20 46 -21 38 -23 40 -23
17z"/>
<path d="M5615 1330 c3 -5 8 -10 11 -10 2 0 4 5 4 10 0 6 -5 10 -11 10 -5 0
-7 -4 -4 -10z"/>
<path d="M6606 1442 c-2 -4 4 -8 14 -8 10 0 16 4 14 8 -3 4 -9 8 -14 8 -5 0
-11 -4 -14 -8z"/>
<path d="M1186 711 c-3 -5 1 -11 9 -15 8 -3 15 -1 15 4 0 13 -18 22 -24 11z"/>
<path d="M1128 703 c7 -3 16 -2 19 1 4 3 -2 6 -13 5 -11 0 -14 -3 -6 -6z"/>
<path d="M5242 4838 c3 -38 6 -43 28 -43 14 0 37 -8 52 -18 19 -13 31 -16 45
-8 10 5 26 12 37 15 17 6 16 9 -13 36 -17 17 -31 37 -31 45 0 23 -8 19 -51
-26 l-39 -41 0 41 c0 30 -4 41 -16 41 -12 0 -14 -9 -12 -42z"/>
<path d="M271 4736 c-16 -19 9 -40 26 -21 10 10 9 16 -1 24 -10 8 -16 8 -25
-3z"/>
<path d="M9773 4533 c-24 -9 -13 -24 15 -21 15 2 26 8 25 13 -2 12 -23 16 -40
8z"/>
<path d="M9130 4511 c-25 -11 -55 -17 -67 -14 -13 3 -23 0 -23 -6 0 -6 -17
-11 -40 -11 -22 0 -40 -4 -40 -10 0 -6 -33 -10 -80 -10 -72 0 -101 10 -67 23
21 9 -14 27 -54 27 -36 0 -62 -24 -36 -33 6 -2 -10 -10 -37 -18 -27 -8 -60
-26 -75 -40 -14 -14 -59 -38 -100 -53 -40 -14 -83 -33 -94 -41 -12 -8 -40 -15
-62 -14 -22 0 -34 3 -27 6 15 6 16 35 0 51 -7 7 -29 12 -50 12 -34 0 -38 3
-38 26 0 26 -1 26 -25 10 -13 -9 -38 -16 -55 -16 -19 0 -30 -5 -30 -14 0 -21
-52 -35 -156 -42 -52 -4 -97 -11 -100 -15 -3 -5 -16 -9 -30 -9 -13 0 -24 -5
-24 -10 0 -6 -8 -13 -17 -17 -47 -16 -103 -44 -103 -52 0 -14 -52 -36 -77 -33
-23 3 -24 1 -18 -27 6 -27 4 -31 -14 -31 -11 0 -23 5 -26 10 -9 15 -34 12 -63
-9 -15 -10 -53 -26 -84 -36 -34 -10 -58 -24 -58 -31 0 -9 -12 -14 -34 -14 -19
0 -38 -4 -41 -10 -3 -5 -16 -10 -28 -10 -15 0 -18 -3 -10 -11 6 -6 39 -13 74
-16 35 -2 70 -8 79 -13 25 -13 244 -25 236 -12 -11 18 33 34 118 44 44 5 83
13 86 18 11 17 96 40 152 40 31 0 58 5 60 10 5 15 53 21 82 11 17 -7 26 -7 28
1 3 8 36 12 92 13 48 0 90 5 94 11 15 22 70 36 118 29 27 -4 54 -12 61 -17 18
-14 290 -3 310 13 8 8 48 17 87 20 173 16 272 33 301 50 16 11 41 25 55 32 14
6 37 20 51 30 14 9 44 18 67 19 27 1 42 6 42 14 0 7 18 19 40 25 33 10 40 17
40 38 0 13 12 38 27 53 l27 28 -25 1 c-13 1 -41 0 -62 -1 -21 -1 -44 3 -51 9
-19 16 -101 32 -186 37 -58 3 -85 0 -120 -15z m-130 -56 c0 -8 -7 -15 -16 -15
-14 0 -14 3 -4 15 7 8 14 15 16 15 2 0 4 -7 4 -15z"/>
<path d="M10640 4390 c0 -5 9 -10 20 -10 11 0 20 5 20 10 0 6 -9 10 -20 10
-11 0 -20 -4 -20 -10z"/>
<path d="M3300 4379 c0 -5 5 -7 10 -4 6 3 10 8 10 11 0 2 -4 4 -10 4 -5 0 -10
-5 -10 -11z"/>
<path d="M3430 4370 c0 -6 7 -10 15 -10 8 0 15 2 15 4 0 2 -7 6 -15 10 -8 3
-15 1 -15 -4z"/>
<path d="M3481 4334 c0 -11 3 -14 6 -6 3 7 2 16 -1 19 -3 4 -6 -2 -5 -13z"/>
<path d="M3783 4273 c-12 -2 -27 -11 -33 -19 -10 -11 -8 -14 9 -14 12 0 19 5
16 10 -4 6 9 10 32 10 28 0 34 3 23 10 -8 5 -17 9 -20 8 -3 0 -15 -3 -27 -5z"/>
<path d="M3856 4233 c4 -16 10 -34 14 -42 11 -21 0 -50 -16 -44 -8 3 -14 -1
-14 -10 0 -14 20 -27 40 -27 5 0 9 21 9 48 0 49 -15 102 -30 102 -5 0 -6 -12
-3 -27z"/>
<path d="M3790 4240 c0 -5 5 -10 10 -10 6 0 10 5 10 10 0 6 -4 10 -10 10 -5 0
-10 -4 -10 -10z"/>
<path d="M3593 4233 c-15 -5 -17 -23 -4 -23 5 0 11 7 15 15 3 8 4 15 3 14 -1
0 -8 -3 -14 -6z"/>
<path d="M2055 4210 c3 -5 11 -10 16 -10 6 0 7 5 4 10 -3 6 -11 10 -16 10 -6
0 -7 -4 -4 -10z"/>
<path d="M3575 4180 c-19 -7 -19 -7 0 -17 11 -6 27 -8 35 -6 12 4 13 3 1 -5
-7 -5 -10 -15 -7 -21 5 -7 -1 -11 -13 -11 -12 0 -21 -7 -21 -15 0 -8 4 -15 10
-15 5 0 7 -7 4 -15 -4 -8 -1 -15 6 -15 8 0 11 9 8 25 -3 14 -4 25 -3 25 18 0
64 -26 78 -45 17 -24 17 -25 -18 -59 -19 -20 -35 -37 -35 -38 0 -2 11 -3 25
-3 14 0 25 5 25 11 0 12 24 11 54 -1 13 -6 21 -4 24 3 2 7 16 3 38 -10 24 -14
44 -19 64 -14 17 3 30 1 30 -4 0 -6 -5 -10 -10 -10 -6 0 -3 -11 6 -25 9 -14
24 -24 33 -23 9 2 15 -3 13 -9 -1 -9 14 -13 50 -13 49 0 50 1 35 18 -28 31
-19 35 14 8 17 -14 39 -26 49 -26 10 0 22 -4 25 -10 8 -13 45 -13 45 0 0 6 -9
28 -20 50 -24 47 -24 50 -5 50 8 0 15 5 15 11 0 6 -7 9 -15 5 -13 -5 -35 20
-35 39 0 12 45 -7 61 -25 8 -9 26 -21 39 -25 18 -6 22 -4 17 8 -3 9 1 21 8 27
19 16 10 30 -14 23 -10 -3 -22 0 -25 6 -4 6 -2 11 5 11 7 0 10 2 7 5 -3 3 -17
1 -32 -4 -14 -6 -26 -7 -26 -2 0 11 -59 36 -67 28 -3 -4 0 -13 7 -22 11 -13 8
-15 -16 -15 -39 0 -65 -37 -39 -56 10 -7 23 -15 29 -17 20 -7 1 -16 -22 -10
-12 3 -22 12 -22 19 0 19 -37 18 -48 -1 -7 -13 -14 -14 -36 -5 -35 13 -25 30
18 30 22 0 40 9 59 28 l27 28 -95 -4 -95 -4 -31 33 c-18 19 -36 46 -41 62 -8
20 -17 27 -36 27 -15 0 -47 6 -72 14 -25 7 -54 10 -65 6z m148 -88 c12 -10 16
-10 20 0 5 16 16 7 21 -19 4 -16 0 -19 -25 -15 -16 2 -26 8 -24 13 3 4 -7 15
-22 23 -23 13 -24 15 -6 13 11 -2 28 -9 36 -15z m344 -113 c-14 -8 -22 -8 -30
0 -8 8 -3 11 19 11 25 -1 27 -2 11 -11z"/>
<path d="M4615 4059 c-3 -4 -23 -5 -45 -3 -21 2 -42 -1 -45 -6 -3 -6 -24 -10
-46 -10 -32 0 -39 -3 -39 -20 0 -16 5 -19 30 -14 16 4 36 2 42 -3 19 -15 96
-25 103 -13 4 6 11 8 16 4 5 -3 7 -9 5 -13 -3 -4 7 -14 22 -22 15 -8 31 -20
35 -27 6 -9 19 -11 38 -7 22 5 29 3 29 -9 0 -10 14 -17 48 -21 26 -4 70 -11
97 -17 87 -17 135 -21 135 -10 0 6 -15 25 -32 41 -28 26 -41 31 -83 31 -40 1
-46 3 -32 11 10 6 25 8 33 5 30 -11 13 16 -18 29 -34 14 -61 9 -37 -6 10 -6 8
-9 -8 -9 -16 0 -20 5 -16 20 3 11 0 20 -6 20 -6 0 -11 -5 -11 -10 0 -6 -10 -8
-23 -5 -13 4 -30 7 -38 8 -8 2 -19 6 -26 10 -6 4 -23 3 -38 -3 -38 -14 -43
-12 -19 8 35 30 27 49 -23 49 -24 0 -46 -4 -48 -8z m115 -103 c0 -3 -4 -8 -10
-11 -5 -3 -10 -1 -10 4 0 6 5 11 10 11 6 0 10 -2 10 -4z"/>
<path d="M4218 4053 c7 -3 16 -2 19 1 4 3 -2 6 -13 5 -11 0 -14 -3 -6 -6z"/>
<path d="M4740 4050 c0 -5 0 -13 0 -17 -1 -5 15 -11 35 -14 36 -6 49 7 18 17
-10 3 -26 10 -35 15 -12 6 -18 6 -18 -1z"/>
<path d="M3443 4026 c4 -36 48 -58 90 -43 32 11 35 23 7 30 -13 3 -20 0 -20
-9 0 -12 -4 -12 -22 -2 -12 7 -30 22 -40 33 -18 20 -18 20 -15 -9z"/>
<path d="M4247 4024 c3 -8 11 -14 19 -14 21 0 17 17 -5 23 -14 3 -18 1 -14 -9z"/>
<path d="M3570 4022 c0 -5 7 -16 16 -23 14 -12 16 -11 13 5 -4 20 -29 35 -29
18z"/>
<path d="M4350 4022 c0 -6 17 -15 75 -37 11 -5 26 -7 33 -6 10 2 12 -4 7 -21
-7 -23 -7 -23 9 -3 17 23 21 39 6 30 -5 -3 -10 -3 -10 2 0 4 -12 9 -27 10 -14
0 -30 8 -35 17 -9 16 -58 23 -58 8z"/>
<path d="M2820 3999 c0 -5 5 -7 10 -4 6 3 10 8 10 11 0 2 -4 4 -10 4 -5 0 -10
-5 -10 -11z"/>
<path d="M7738 4003 c7 -3 16 -2 19 1 4 3 -2 6 -13 5 -11 0 -14 -3 -6 -6z"/>
<path d="M2630 3986 c0 -9 5 -16 10 -16 6 0 10 4 10 9 0 6 -4 13 -10 16 -5 3
-10 -1 -10 -9z"/>
<path d="M4260 3989 c0 -5 5 -7 10 -4 6 3 10 8 10 11 0 2 -4 4 -10 4 -5 0 -10
-5 -10 -11z"/>
<path d="M2748 3983 c6 -2 18 -2 25 0 6 3 1 5 -13 5 -14 0 -19 -2 -12 -5z"/>
<path d="M3150 3970 c0 -5 5 -10 10 -10 6 0 10 5 10 10 0 6 -4 10 -10 10 -5 0
-10 -4 -10 -10z"/>
<path d="M2790 3960 c0 -5 5 -10 11 -10 5 0 7 5 4 10 -3 6 -8 10 -11 10 -2 0
-4 -4 -4 -10z"/>
<path d="M4420 3930 c-7 -17 -10 -33 -8 -36 3 -3 8 7 12 21 4 14 11 25 16 25
6 0 10 5 10 10 0 21 -18 9 -30 -20z"/>
<path d="M9770 3919 c-19 -10 -30 -19 -25 -20 58 -4 125 -57 125 -99 0 -33 36
-26 43 8 5 23 11 28 29 26 13 -1 26 -3 31 -3 4 -1 7 -8 7 -16 0 -16 27 -20 46
-7 13 8 29 52 19 52 -3 0 -15 -5 -26 -10 -13 -7 -19 -7 -19 0 0 5 -11 10 -25
10 -13 0 -40 9 -59 19 -25 14 -37 16 -45 8 -8 -8 -11 -6 -11 9 -1 17 -2 17
-11 2 -5 -10 -16 -15 -24 -12 -19 8 -20 36 -1 32 8 -2 16 2 18 7 5 17 -35 14
-72 -6z"/>
<path d="M10200 3920 c-10 -6 -11 -10 -2 -10 23 0 12 -18 -18 -29 -36 -12 -43
-48 -7 -36 12 4 43 12 69 18 26 7 53 18 60 25 6 6 36 12 64 12 29 0 56 5 59
10 4 6 -26 10 -82 10 -48 0 -97 3 -108 5 -11 3 -27 1 -35 -5z"/>
<path d="M9598 3883 c-10 -3 -18 -11 -18 -18 0 -7 -8 -16 -17 -18 -10 -3 -3
-5 15 -6 31 -1 42 -14 22 -26 -19 -11 0 -24 23 -16 12 4 28 6 35 4 20 -7 14
26 -8 39 -11 7 -20 18 -20 25 0 15 -11 20 -32 16z"/>
<path d="M4150 3843 c0 -13 8 -23 22 -26 31 -9 32 -4 3 23 -24 23 -25 23 -25
3z"/>
<path d="M9430 3819 c-13 -8 -13 -10 0 -19 21 -14 30 -12 30 4 0 20 -13 27
-30 15z"/>
<path d="M9920 3811 c0 -6 5 -13 10 -16 6 -3 10 1 10 9 0 9 -4 16 -10 16 -5 0
-10 -4 -10 -9z"/>
<path d="M4160 3780 c0 -4 12 -13 28 -19 15 -6 35 -16 44 -23 23 -17 34 -3 14
18 -18 18 -86 37 -86 24z"/>
<path d="M5090 3771 c0 -5 5 -13 10 -16 6 -3 10 -2 10 4 0 5 -4 13 -10 16 -5
3 -10 2 -10 -4z"/>
<path d="M9555 3770 c-3 -5 -19 -10 -35 -10 -16 0 -32 -4 -35 -10 -4 -6 5 -10
20 -10 14 0 35 -6 46 -12 17 -11 23 -10 26 0 3 6 9 10 13 7 5 -3 7 -12 4 -20
-4 -10 0 -12 16 -8 16 4 23 0 27 -16 3 -13 11 -20 19 -17 7 3 29 -1 49 -10 19
-8 35 -11 35 -6 0 14 -41 53 -67 63 -14 5 -23 15 -20 22 7 19 -18 38 -32 24
-9 -9 -16 -8 -31 1 -24 15 -27 15 -35 2z"/>
<path d="M10191 3758 c-12 -33 -6 -37 39 -25 28 8 40 17 40 29 0 10 -4 18 -10
18 -5 0 -10 -5 -10 -12 0 -9 -3 -9 -12 0 -19 19 -38 14 -47 -10z"/>
<path d="M9780 3741 c0 -10 30 -24 37 -17 3 2 -5 9 -16 16 -12 6 -21 7 -21 1z"/>
<path d="M9500 3726 c0 -2 7 -9 15 -16 13 -11 14 -10 9 4 -5 14 -24 23 -24 12z"/>
<path d="M9938 3705 c-3 -14 -1 -25 3 -25 5 0 9 11 9 25 0 14 -2 25 -4 25 -2
0 -6 -11 -8 -25z"/>
<path d="M5202 3711 c-19 -12 12 -35 38 -28 11 3 20 2 20 -3 0 -4 7 -10 14
-13 11 -4 13 -1 9 11 -14 40 -48 54 -81 33z"/>
<path d="M9852 3684 c2 -18 15 -35 46 -56 24 -16 45 -28 48 -25 10 10 -10 37
-28 37 -23 0 -48 23 -48 44 0 8 -4 18 -10 21 -6 4 -9 -5 -8 -21z"/>
<path d="M4215 3690 c-3 -5 -1 -10 4 -10 6 0 11 5 11 10 0 6 -2 10 -4 10 -3 0
-8 -4 -11 -10z"/>
<path d="M5160 3691 c0 -6 5 -13 10 -16 6 -3 10 1 10 9 0 9 -4 16 -10 16 -5 0
-10 -4 -10 -9z"/>
<path d="M9470 3680 c0 -6 7 -10 15 -10 8 0 15 2 15 4 0 2 -7 6 -15 10 -8 3
-15 1 -15 -4z"/>
<path d="M10120 3675 c-7 -9 -8 -15 -2 -15 5 0 12 7 16 15 3 8 4 15 2 15 -2 0
-9 -7 -16 -15z"/>
<path d="M4109 3667 c15 -18 51 -23 51 -7 0 6 -6 10 -14 10 -8 0 -23 3 -33 7
-16 6 -16 5 -4 -10z"/>
<path d="M9958 3659 c-6 -17 13 -57 30 -64 9 -3 8 5 -3 32 -19 44 -22 48 -27
32z"/>
<path d="M5977 3613 c-7 -6 21 -32 36 -33 14 0 7 28 -9 34 -19 7 -19 7 -27 -1z"/>
<path d="M7555 3599 c4 -6 -1 -16 -11 -24 -18 -12 -17 -14 11 -20 17 -4 36 -8
42 -10 7 -2 16 3 21 12 6 10 11 12 16 4 12 -19 -33 -69 -57 -64 -19 4 -20 3
-7 -9 8 -8 21 -20 28 -28 11 -13 12 -13 6 3 -5 13 -2 16 9 11 26 -9 41 6 21
21 -16 11 -16 13 7 25 33 17 32 16 19 40 -10 18 -9 21 2 18 19 -7 22 -108 2
-108 -8 0 -14 -7 -14 -15 0 -8 5 -15 10 -15 6 0 10 6 10 13 0 8 4 7 10 -3 8
-12 11 -11 16 8 6 21 11 23 60 18 60 -5 74 8 19 18 -19 4 -35 11 -35 17 0 5
-9 4 -20 -3 -14 -9 -22 -10 -31 -1 -8 8 -6 14 9 22 21 11 21 11 -5 37 -28 28
-70 44 -116 44 -17 0 -26 -4 -22 -11z"/>
<path d="M5860 3580 c19 -13 30 -13 30 0 0 6 -10 10 -22 10 -19 0 -20 -2 -8
-10z"/>
<path d="M7480 3550 c0 -5 -14 -7 -32 -4 -32 6 -33 6 -11 -10 12 -9 29 -13 39
-9 12 4 15 3 10 -5 -5 -8 0 -12 13 -12 12 0 21 5 21 10 0 6 -4 10 -10 10 -5 0
-10 7 -10 15 0 8 -4 15 -10 15 -5 0 -10 -4 -10 -10z"/>
<path d="M7148 3543 c7 -3 16 -2 19 1 4 3 -2 6 -13 5 -11 0 -14 -3 -6 -6z"/>
<path d="M7200 3540 c0 -5 5 -10 11 -10 5 0 7 5 4 10 -3 6 -8 10 -11 10 -2 0
-4 -4 -4 -10z"/>
<path d="M7052 3515 c-10 -12 -10 -15 2 -15 7 0 16 7 20 15 7 19 -5 19 -22 0z"/>
<path d="M7433 3520 c2 -8 12 -16 23 -17 13 -2 15 -1 4 4 -8 3 -19 11 -23 17
-6 7 -7 6 -4 -4z"/>
<path d="M7511 3501 c-14 -10 -30 -17 -37 -14 -7 2 -15 0 -19 -6 -4 -7 4 -11
19 -11 14 0 26 -4 26 -10 0 -5 5 -10 10 -10 6 0 10 9 10 19 0 11 7 27 16 35
21 22 4 20 -25 -3z"/>
<path d="M7867 3479 c7 -7 15 -10 18 -7 3 3 -2 9 -12 12 -14 6 -15 5 -6 -5z"/>
<path d="M7078 3463 c7 -3 16 -2 19 1 4 3 -2 6 -13 5 -11 0 -14 -3 -6 -6z"/>
<path d="M7905 3460 c3 -5 8 -10 11 -10 2 0 4 5 4 10 0 6 -5 10 -11 10 -5 0
-7 -4 -4 -10z"/>
<path d="M6680 3456 c0 -2 7 -7 16 -10 8 -3 12 -2 9 4 -6 10 -25 14 -25 6z"/>
<path d="M8030 3450 c0 -5 5 -10 11 -10 5 0 7 5 4 10 -3 6 -8 10 -11 10 -2 0
-4 -4 -4 -10z"/>
<path d="M8070 3451 c0 -6 5 -13 10 -16 6 -3 10 1 10 9 0 9 -4 16 -10 16 -5 0
-10 -4 -10 -9z"/>
<path d="M6927 3433 c-12 -11 -8 -23 8 -23 8 0 15 7 15 15 0 16 -12 20 -23 8z"/>
<path d="M6058 2493 c7 -3 16 -2 19 1 4 3 -2 6 -13 5 -11 0 -14 -3 -6 -6z"/>
<path d="M6158 2483 c7 -3 16 -2 19 1 4 3 -2 6 -13 5 -11 0 -14 -3 -6 -6z"/>
<path d="M10296 2161 c-29 -11 -4 -22 33 -15 17 4 28 10 25 15 -6 11 -31 11
-58 0z"/>
<path d="M10650 2131 c0 -5 12 -12 28 -14 24 -4 24 -4 -8 -7 -32 -2 -31 -3 15
-10 89 -14 115 -12 115 9 0 10 -7 22 -16 25 -25 10 -134 7 -134 -3z"/>
<path d="M4463 2103 c9 -2 23 -2 30 0 6 3 -1 5 -18 5 -16 0 -22 -2 -12 -5z"/>
<path d="M7730 2022 c0 -12 19 -26 26 -19 2 2 -2 10 -11 17 -9 8 -15 8 -15 2z"/>
<path d="M4630 1714 c0 -2 14 -10 30 -19 17 -9 30 -12 30 -7 0 4 -13 13 -30
19 -16 6 -30 10 -30 7z"/>
<path d="M3040 1580 c0 -6 11 -8 28 -4 39 10 40 14 4 14 -18 0 -32 -5 -32 -10z"/>
<path d="M2200 1176 c0 -9 5 -16 10 -16 6 0 10 4 10 9 0 6 -4 13 -10 16 -5 3
-10 -1 -10 -9z"/>
<path d="M2160 1115 c0 -16 16 -20 24 -6 3 5 -1 11 -9 15 -9 3 -15 0 -15 -9z"/>
<path d="M1886 981 c-4 -7 -5 -15 -2 -18 9 -9 19 4 14 18 -4 11 -6 11 -12 0z"/>
<path d="M1472 911 c-10 -6 -6 -11 17 -19 28 -10 31 -9 31 9 0 20 -24 25 -48
10z"/>
<path d="M1650 794 c0 -10 31 -36 37 -31 3 3 -2 13 -10 22 -16 15 -27 19 -27
9z"/>
<path d="M1807 789 c7 -7 15 -10 18 -7 3 3 -2 9 -12 12 -14 6 -15 5 -6 -5z"/>
<path d="M1560 780 c0 -5 9 -10 20 -10 11 0 20 5 20 10 0 6 -9 10 -20 10 -11
0 -20 -4 -20 -10z"/>
<path d="M1540 710 c0 -5 5 -10 11 -10 5 0 7 5 4 10 -3 6 -8 10 -11 10 -2 0
-4 -4 -4 -10z"/>
</g>
</svg>
