<?xml version="1.0" standalone="no"?>
<!DOCTYPE svg PUBLIC "-//W3C//DTD SVG 20010904//EN"
 "http://www.w3.org/TR/2001/REC-SVG-20010904/DTD/svg10.dtd">
<svg version="1.0" xmlns="http://www.w3.org/2000/svg"
 width="969.000000pt" height="646.000000pt" viewBox="0 0 969.000000 646.000000"
 preserveAspectRatio="xMidYMid meet">

<g transform="translate(0.000000,646.000000) scale(0.100000,-0.100000)"
fill="#000000" stroke="none">
<path d="M0 6302 c0 -100 4 -162 11 -169 7 -7 7 -22 -1 -49 -7 -23 -10 -93 -8
-174 l3 -135 35 -18 35 -17 33 37 c47 54 82 127 89 183 6 54 -12 143 -33 161
-8 6 -14 16 -14 22 0 6 7 2 15 -9 14 -19 14 -19 15 1 1 14 3 16 7 5 3 -8 11
-22 18 -30 7 -8 15 -24 18 -35 3 -14 5 -11 6 10 l1 30 22 -38 c31 -52 40 -46
83 53 8 19 13 27 10 18 -2 -10 0 -18 5 -18 6 0 10 3 10 8 0 10 58 13 65 3 3
-5 14 -7 24 -4 24 6 70 -26 71 -49 0 -10 -4 -18 -10 -18 -5 0 -10 7 -10 15 0
8 -3 14 -7 13 -5 -1 -22 6 -40 15 -49 26 -81 23 -89 -10 -3 -16 -10 -44 -15
-63 -13 -50 -11 -124 3 -138 7 -7 24 -12 39 -12 21 0 36 12 68 55 24 31 47 69
53 85 5 17 14 27 20 24 6 -4 8 1 3 15 -7 23 4 28 24 9 11 -11 13 -10 8 5 -4
11 -1 20 8 23 8 4 12 10 9 15 -3 5 0 17 6 26 11 17 11 17 6 1 -9 -29 14 -21
25 8 5 15 12 24 16 21 3 -4 -9 -29 -27 -56 -40 -64 -37 -82 19 -98 24 -7 66
-30 95 -51 73 -56 92 -65 116 -52 35 19 45 52 50 170 5 104 6 112 17 80 6 -21
12 -27 12 -16 1 11 4 16 8 13 3 -4 13 -1 21 6 13 10 14 8 7 -12 -4 -15 -3 -21
3 -17 5 3 12 -3 15 -13 2 -10 29 -32 60 -50 51 -29 101 -81 77 -81 -6 0 -33
11 -60 25 -27 14 -58 25 -68 25 -24 0 -41 -38 -49 -110 -5 -49 -2 -64 16 -93
23 -37 75 -76 131 -98 19 -7 38 -18 43 -23 20 -29 26 36 26 267 0 137 2 251 5
254 2 3 13 -10 23 -29 17 -32 18 -129 21 -2333 3 -3115 2 -3459 -8 -3617 -2
-27 -21 -33 -37 -13 -12 18 -13 17 -13 -7 0 -14 -7 -31 -15 -38 -8 -7 -15 -19
-15 -27 0 -8 -8 -13 -17 -11 -11 2 -17 -2 -15 -11 2 -8 -3 -18 -10 -23 -10 -7
-9 -8 2 -4 8 3 23 9 33 12 9 4 17 15 17 26 0 10 4 17 8 14 5 -3 21 8 36 25 15
16 34 29 41 29 7 0 20 11 29 25 15 22 17 72 16 450 0 408 1 425 19 425 10 0
70 30 132 66 63 37 152 89 199 117 47 27 144 85 217 128 72 43 149 88 170 100
21 12 85 49 143 84 58 34 166 98 240 142 74 44 190 112 256 151 67 40 124 72
128 72 3 0 6 -106 6 -236 0 -219 1 -235 17 -223 13 11 89 14 397 14 210 0 382
3 384 8 1 4 2 23 2 42 l0 35 -390 0 -390 0 0 239 0 240 23 3 22 3 -4 1010 c-3
952 1 1159 20 1110 7 -17 8 -18 10 -2 1 9 2 22 3 27 2 19 15 15 50 -17 35 -30
52 -30 40 0 -3 9 -1 23 4 33 8 14 10 13 16 -10 3 -14 11 -26 16 -26 16 0 12
-30 -5 -36 -8 -4 -15 -10 -15 -15 0 -4 6 -6 14 -3 19 7 36 -25 36 -67 0 -27 3
-31 21 -26 15 4 23 0 26 -14 3 -10 9 -19 14 -19 5 0 9 -7 9 -15 0 -8 5 -15 11
-15 5 0 8 4 4 9 -3 5 4 12 15 16 11 3 20 13 20 21 0 8 10 14 24 14 42 0 38
-18 -8 -38 -32 -15 -51 -32 -71 -66 -14 -25 -23 -50 -20 -56 8 -13 21 0 68 63
28 37 67 50 67 22 0 -24 15 -17 26 12 9 26 9 26 38 -30 15 -31 32 -54 37 -51
5 3 9 11 8 17 -4 33 3 40 16 17 12 -22 11 -27 -3 -43 -15 -17 -14 -18 5 -23
15 -4 22 -16 26 -42 2 -21 0 -42 -5 -48 -13 -18 20 -46 51 -42 24 3 27 8 34
66 5 34 13 62 17 62 17 0 25 -101 25 -335 0 -253 -10 -415 -26 -415 -6 0 -8 3
-6 8 3 4 1 45 -4 92 -5 47 -9 107 -10 133 -2 56 -15 65 -59 47 -41 -17 -38
-34 5 -27 l35 6 0 -39 c0 -35 -4 -41 -32 -53 -30 -13 -69 -47 -54 -47 4 0 23
7 43 15 45 19 43 20 43 -13 0 -44 -175 -222 -217 -222 -7 0 -16 18 -19 40 -6
35 -8 38 -19 23 -7 -9 -11 -22 -9 -28 7 -17 -42 -65 -66 -65 -11 0 -20 -4 -20
-10 0 -5 14 -10 30 -10 36 0 37 -8 6 -85 -27 -65 -70 -186 -81 -224 -5 -16 -4
-21 4 -17 6 4 12 4 12 -1 8 -57 7 -63 -10 -63 -16 0 -19 -14 -26 -123 -4 -67
-8 -143 -9 -169 0 -27 -3 -48 -6 -48 -3 0 -6 -18 -7 -41 -2 -37 0 -40 20 -34
12 4 96 46 187 94 91 48 174 91 184 95 19 7 19 6 1 -14 -10 -11 -13 -20 -7
-20 7 0 12 4 12 9 0 17 91 34 235 46 96 7 146 13 162 19 7 3 10 -1 7 -8 -8
-20 11 -23 114 -16 50 3 92 2 92 -2 0 -11 -103 -108 -130 -123 -19 -9 -48 -11
-119 -5 -104 9 -112 8 -158 -27 -23 -17 -32 -31 -31 -48 1 -14 8 -25 15 -25 7
0 13 -8 14 -17 0 -11 3 -13 6 -5 6 16 2433 18 2433 2 0 -6 104 -10 293 -10
241 -1 295 -3 311 -15 11 -8 24 -15 29 -15 10 0 7 1467 -4 1495 -7 18 -8 18
-8 2 -1 -10 -5 -15 -11 -12 -13 8 -13 125 0 145 8 12 10 12 10 -5 1 -18 2 -18
10 -3 7 10 9 162 8 399 l-3 383 -113 -3 c-107 -2 -160 -11 -172 -31 -3 -5
-452 -10 -998 -11 l-992 -3 0 -247 c0 -155 4 -250 10 -254 7 -4 6 -14 -2 -28
-10 -17 -14 -197 -18 -772 -3 -412 -4 -755 -2 -762 2 -7 31 -13 73 -15 64 -3
71 -1 85 20 16 24 37 21 27 -4 -5 -14 35 -15 361 -12 l367 3 -3 -45 -3 -45
-270 3 c-148 1 -306 7 -350 13 -44 6 -135 11 -202 10 -129 0 -130 0 -124 47 1
6 -7 12 -17 12 -11 0 -25 7 -32 15 -8 9 -30 15 -59 15 l-46 0 -1 388 c-1 255
-5 396 -12 412 -9 22 -11 17 -11 -37 -1 -57 -3 -62 -21 -58 -13 2 -23 -2 -27
-11 -3 -9 -9 -11 -12 -6 -9 15 -51 25 -51 13 0 -6 -8 -11 -18 -11 -10 0 -23
-5 -28 -10 -7 -7 -18 -2 -33 14 -20 21 -27 23 -58 14 -29 -8 -37 -6 -49 9 -7
10 -14 21 -14 25 0 4 -22 10 -50 14 -34 4 -51 12 -55 24 -3 9 -17 23 -32 31
-15 8 -35 22 -45 32 -10 9 -22 17 -28 17 -5 0 -10 9 -10 20 0 11 -3 20 -8 20
-8 0 -9 2 -56 96 -27 56 -28 62 -24 176 2 73 9 123 16 130 7 7 12 20 12 29 0
9 7 22 15 29 8 6 13 15 12 19 -5 18 91 102 147 129 82 40 148 52 304 55 72 1
134 5 137 9 4 4 4 52 0 107 l-7 100 -42 -6 c-92 -12 -550 -8 -613 6 -63 14
-63 14 -64 50 -1 20 -3 43 -4 51 -1 8 -3 30 -4 48 -1 31 -21 47 -21 17 0 -18
-16 -20 -23 -2 -3 7 -22 14 -43 15 -22 2 -77 12 -124 23 -47 11 -95 20 -107
20 -13 -1 -23 4 -23 9 0 6 -7 10 -15 10 -8 0 -15 4 -15 9 0 5 -2 16 -5 23 -7
16 25 33 79 43 20 4 33 11 30 16 -3 5 4 13 15 17 19 7 17 12 -31 59 -52 51
-91 84 -178 155 -82 67 -110 93 -110 106 0 14 -44 27 -59 17 -7 -4 -10 4 -9
19 l2 26 2043 0 2043 0 0 -1655 0 -1655 -27 -2 c-16 -1 -210 -2 -433 -2 l-405
-1 0 -40 0 -40 429 0 c335 0 430 -3 433 -12 3 -7 9 -13 15 -13 8 0 9 71 5 235
-6 241 -4 253 32 221 41 -35 1412 -846 1430 -846 21 0 21 -1 21 -423 0 -233 2
-431 5 -439 7 -18 52 -44 61 -35 4 4 2 12 -3 19 -13 16 -17 108 -5 108 5 0 5
25 1 58 -13 93 -6 5771 7 5780 6 4 15 16 21 26 9 16 12 6 18 -55 4 -41 6 -88
4 -104 -4 -49 3 -382 8 -359 3 15 14 24 37 28 46 9 122 60 147 98 17 28 19 43
15 101 -10 112 -30 126 -116 82 -58 -29 -67 -31 -49 -9 12 15 11 16 -11 10
-14 -4 10 14 53 40 45 27 84 58 90 72 l12 25 6 -24 7 -24 1 25 2 25 15 -25 c8
-14 13 -17 10 -7 -6 20 2 47 15 47 5 0 9 -43 9 -96 0 -80 4 -102 20 -129 11
-18 28 -36 37 -39 17 -7 83 28 121 64 26 25 82 50 112 50 29 0 25 36 -10 89
-30 44 -42 83 -15 47 7 -10 19 -15 25 -11 6 4 17 -8 25 -29 9 -20 22 -36 30
-36 8 0 15 -6 16 -12 0 -7 4 -3 10 10 5 13 13 20 19 17 6 -4 9 -1 8 5 -2 6 13
23 32 38 l35 26 -24 -27 c-28 -31 -15 -37 17 -7 16 15 22 17 22 7 0 -8 -20
-24 -45 -37 -72 -37 -72 -69 0 -169 29 -40 43 -51 65 -51 52 0 66 46 44 143
-9 39 -24 76 -35 85 -10 8 -15 20 -12 25 3 4 17 -2 31 -15 l25 -23 -6 23 c-3
12 -1 22 4 22 5 0 9 -10 9 -22 0 -26 35 -88 49 -88 6 0 16 9 24 20 8 11 16 17
20 14 9 -10 27 33 21 53 -3 10 2 7 10 -7 14 -23 15 -23 16 -5 0 13 7 21 19 22
13 1 18 -3 14 -13 -3 -7 -8 -12 -12 -10 -4 3 -13 -22 -20 -54 -20 -90 -8 -147
50 -235 42 -65 53 -75 77 -75 31 0 51 17 76 67 30 60 23 130 -31 295 -3 12 0
16 14 14 10 -2 18 -12 19 -22 1 -10 2 -29 3 -41 0 -13 8 -23 16 -23 9 0 16
-10 16 -27 2 -25 2 -25 6 -5 3 13 -3 34 -11 47 -9 13 -16 32 -16 42 0 12 5 8
16 -12 8 -16 17 -31 20 -34 2 -2 4 89 4 202 l0 207 -4845 0 -4845 0 0 -158z
m1380 -24 c0 -4 20 -8 45 -8 25 0 45 -4 45 -10 0 -5 17 -10 38 -10 24 0 32 -3
23 -9 -9 -6 -3 -10 20 -14 78 -14 98 -20 93 -28 -3 -5 11 -9 30 -9 19 0 38 -4
41 -10 3 -5 19 -10 34 -10 18 0 28 -5 28 -15 0 -8 -6 -15 -14 -15 -7 0 -13 -4
-13 -10 0 -5 13 -10 29 -10 37 0 62 -10 55 -21 -3 -5 9 -9 26 -9 18 0 33 -6
36 -15 4 -8 18 -15 33 -15 18 0 22 -3 12 -9 -7 -5 -22 -6 -32 -4 -25 7 -24
-14 1 -22 11 -3 23 -17 26 -30 5 -21 12 -24 50 -23 25 0 48 -2 51 -6 4 -3 -3
-6 -15 -6 -34 0 -33 -15 1 -17 32 -3 57 -26 32 -31 -24 -5 21 -42 53 -42 15 0
34 -5 42 -10 12 -8 8 -10 -15 -11 -20 -2 -14 -4 20 -9 l50 -7 -44 -1 -45 -2
35 -31 c51 -46 77 -62 90 -53 8 5 10 2 6 -8 -6 -18 56 -78 81 -78 13 0 12 -3
-4 -15 -18 -14 -18 -14 8 -15 20 0 26 -4 22 -15 -4 -8 -1 -15 5 -15 6 0 20 -9
30 -19 11 -11 34 -27 50 -36 17 -8 31 -22 31 -30 0 -8 5 -15 11 -15 16 0 59
-48 59 -66 0 -7 7 -14 15 -14 8 0 33 -18 55 -40 22 -22 44 -40 47 -40 13 0 73
-64 73 -77 0 -7 11 -19 25 -25 14 -6 25 -14 25 -18 0 -4 12 -12 26 -18 14 -7
22 -17 18 -23 -6 -11 52 -68 71 -69 19 -1 58 -37 47 -44 -5 -3 -8 -15 -5 -26
5 -19 0 -20 -86 -20 l-91 0 0 -30 c0 -16 -3 -30 -7 -30 -7 0 -125 95 -354 285
-86 72 -212 176 -280 232 -415 343 -400 330 -664 550 l-190 158 -3 49 c-5 73
-3 75 62 63 31 -6 56 -14 56 -19z m6977 -34 l2 -59 -67 -56 c-122 -102 -1035
-871 -1121 -943 -46 -39 -127 -106 -180 -149 l-96 -79 -3 31 -3 31 -103 0
-104 0 2 29 c1 22 16 44 59 85 32 30 54 56 50 58 -4 3 -2 3 6 1 8 -2 24 6 37
18 12 11 27 18 33 14 6 -3 11 -2 11 4 0 5 -7 14 -16 19 -14 8 -11 11 17 21 22
7 44 26 64 55 17 25 40 47 52 51 27 6 159 136 168 164 6 20 16 25 43 22 6 -1
12 2 12 8 0 5 -6 12 -12 14 -7 3 1 6 17 6 43 1 80 28 64 47 -9 11 -9 14 0 14
7 0 18 6 25 13 7 6 25 21 39 32 34 25 34 31 0 43 l-28 10 30 0 c17 0 44 4 60
9 24 6 30 13 30 37 0 30 12 41 57 50 20 5 25 10 21 26 -5 17 0 20 28 20 23 0
30 3 20 9 -9 6 -10 11 -2 15 6 4 9 11 6 16 -3 4 2 13 10 20 8 7 12 16 9 21 -3
5 -2 9 3 8 4 -1 16 1 26 4 9 4 24 9 32 12 8 2 15 13 15 24 0 25 14 34 65 42
39 6 39 6 15 17 l-25 11 24 0 c17 1 22 5 17 17 -5 13 -1 15 18 10 14 -3 28 -1
32 5 12 20 68 38 82 27 8 -7 12 -7 12 0 0 6 -4 14 -10 17 -20 12 -9 20 43 33
28 7 54 17 55 22 2 6 27 10 55 11 38 0 47 3 32 9 -15 6 -7 9 30 9 36 1 46 4
35 11 -11 7 -3 10 29 10 24 0 41 3 37 7 -7 7 107 32 129 28 6 -1 11 -28 12
-61z m-7897 -90 c0 -2 -7 -4 -15 -4 -8 0 -15 4 -15 10 0 5 7 7 15 4 8 -4 15
-8 15 -10z m1518 -135 c-2 -6 -8 -10 -13 -10 -5 0 -11 4 -13 10 -2 6 4 11 13
11 9 0 15 -5 13 -11z m5439 -235 c-3 -3 -12 -4 -19 -1 -8 3 -5 6 6 6 11 1 17
-2 13 -5z m-2973 -213 c21 -43 39 -137 33 -170 -4 -17 0 -48 8 -72 21 -57 19
-69 -9 -69 -22 0 -26 6 -36 58 -6 31 -16 73 -20 92 -16 60 -29 168 -23 190 4
16 8 18 20 8 8 -6 20 -23 27 -37z m347 13 c22 -21 30 -24 47 -15 25 13 72 14
72 2 0 -5 -4 -21 -9 -34 -15 -40 -2 -65 45 -87 63 -31 63 -40 -3 -40 -68 0
-77 -5 -90 -45 -12 -37 -38 -43 -68 -15 -19 18 -29 20 -74 14 -55 -7 -64 3
-41 46 15 28 -3 65 -39 80 -44 18 -38 30 15 30 51 0 73 17 74 57 0 20 11 30
34 32 6 1 22 -11 37 -25z m-394 -236 c-3 -7 -5 -2 -5 12 0 14 2 19 5 13 2 -7
2 -19 0 -25z m1278 -14 c20 -15 20 -15 0 -30 -11 -8 -26 -12 -33 -9 -8 3 -27
5 -43 5 -16 0 -29 5 -29 10 0 6 7 10 15 10 8 0 15 4 15 9 0 9 20 17 45 20 6 0
19 -7 30 -15z m1687 -488 c14 -20 9 -86 -5 -86 -26 0 -73 71 -64 95 6 15 58 8
69 -9z m-4645 8 c-3 -3 -12 -4 -19 -1 -8 3 -5 6 6 6 11 1 17 -2 13 -5z m4238
-4 c-27 -12 -35 -12 -35 0 0 6 12 10 28 9 24 0 25 -1 7 -9z m275 -5 c0 -8 -8
-15 -19 -15 -10 0 -35 -13 -56 -30 -21 -16 -41 -30 -46 -30 -14 0 -39 43 -39
67 0 22 3 23 80 23 64 0 80 -3 80 -15z m339 -16 c6 -18 11 -53 11 -78 0 -82
-40 -95 -82 -27 -27 41 -38 112 -21 129 3 4 23 7 44 7 33 0 38 -4 48 -31z
m131 23 c0 -11 -49 -57 -54 -51 -6 7 -26 48 -26 53 0 3 18 6 40 6 22 0 40 -4
40 -8z m-676 -28 c9 -25 7 -83 -4 -105 -12 -21 -60 -49 -85 -49 -12 0 -15 13
-15 63 l0 63 43 21 c52 27 53 27 61 7z m265 -53 c33 -46 27 -69 -34 -129 -78
-75 -82 -72 -77 69 4 83 70 119 111 60z m418 -206 c-5 -6 -10 -6 -15 0 -4 6
-24 19 -45 29 -58 30 -62 39 -37 90 12 25 38 60 58 77 l37 33 5 -110 c3 -60 1
-113 -3 -119z m-5750 108 c-1 -64 -6 -108 -13 -110 -7 -2 -9 23 -7 74 1 43 2
93 3 111 0 17 4 32 9 32 5 0 9 -47 8 -107z m5475 16 c3 -24 11 -57 17 -72 14
-36 14 -37 -3 -37 -20 0 -126 48 -126 57 0 16 83 104 94 100 6 -2 14 -24 18
-48z m-302 14 c0 -10 -5 -52 -12 -95 l-12 -76 -36 -5 c-19 -2 -43 0 -52 4 -9
5 -35 9 -57 9 l-41 0 0 44 c0 41 2 44 32 50 17 3 47 19 67 34 70 55 111 67
111 35z m431 -136 c34 -63 50 -97 29 -64 -9 13 -19 17 -36 13 -21 -6 -27 -1
-39 28 -8 20 -15 49 -15 65 0 45 22 30 61 -42z m-201 8 c29 -15 68 -55 53 -55
-5 0 -13 3 -17 7 -3 4 -49 6 -101 4 -52 -1 -95 1 -95 6 0 4 14 20 32 36 27 22
39 26 68 21 19 -3 46 -12 60 -19z m306 -51 c0 -9 5 -19 12 -21 7 -3 10 1 6 11
-4 11 -1 16 10 16 18 0 17 5 21 -79 2 -57 1 -62 -11 -46 -8 10 -14 34 -14 52
0 22 -5 33 -14 33 -8 0 -17 7 -20 16 -8 22 -7 34 3 34 5 0 8 -7 7 -16z m-5706
-41 c-1 -27 -7 -59 -15 -73 -14 -24 -14 -23 -15 32 0 31 3 63 6 72 12 31 24
15 24 -31z m5058 7 l32 -20 0 -96 0 -96 -27 6 c-16 4 -45 9 -65 13 l-38 6 0
103 0 104 33 0 c17 0 47 -9 65 -20z m-2575 -37 c-7 -2 -21 -2 -30 0 -10 3 -4
5 12 5 17 0 24 -2 18 -5z m777 -63 c19 -19 19 -19 35 2 14 21 18 21 67 10 64
-15 56 -15 148 -6 42 3 228 3 414 -1 l337 -7 9 -23 c6 -17 15 -21 32 -18 13 2
35 0 50 -6 22 -8 26 -16 25 -43 -2 -30 -5 -33 -36 -36 -47 -5 -58 16 -23 46
21 18 23 22 7 17 -11 -3 -49 -9 -85 -13 -65 -7 -65 -7 -20 -12 31 -3 45 -10
45 -20 0 -12 -40 -14 -270 -15 -476 -2 -645 -5 -645 -12 0 -5 205 -8 455 -7
433 0 455 -1 455 -18 0 -21 -30 -24 -48 -6 -9 9 -12 9 -12 0 0 -16 -47 -15
-53 1 -3 9 -7 9 -20 -1 -12 -10 -48 -12 -164 -6 -183 9 -448 11 -547 4 l-75
-5 -3 50 c-2 28 -6 49 -10 48 -5 -2 -33 -3 -63 -3 l-55 0 -1 -42 c-1 -24 -5
-54 -9 -68 -8 -24 -8 -24 -9 -3 l-1 23 -217 -1 c-120 -1 -222 -3 -226 -6 -4
-3 -3 -11 4 -19 8 -10 8 -14 0 -14 -6 0 -11 -7 -11 -15 0 -7 -8 -19 -17 -24
-17 -10 -17 -10 0 -11 10 0 17 -6 16 -12 -5 -37 2 -50 21 -45 11 3 23 1 26 -4
3 -5 -7 -9 -23 -10 -15 -1 -44 -2 -63 -4 -19 -2 -48 -3 -64 -4 -51 -2 -13 -24
41 -24 57 1 78 -8 43 -18 -15 -4 12 -7 62 -7 52 0 85 4 82 10 -3 5 4 12 15 15
16 4 20 11 16 24 -6 18 0 19 74 19 47 0 81 4 81 10 0 6 5 10 11 10 5 0 7 -4 4
-10 -3 -5 3 -10 14 -10 15 0 21 7 22 23 0 12 3 16 6 9 4 -9 9 -8 22 6 16 19
115 37 104 18 -3 -4 4 -5 16 -1 17 5 21 2 22 -17 l0 -23 11 25 11 25 7 -30 c4
-16 8 -24 9 -16 1 11 5 11 19 -2 15 -14 42 -17 156 -17 125 0 137 2 135 18 -3
30 1 42 12 42 7 0 10 -12 7 -30 -4 -29 -4 -30 40 -30 39 0 44 2 39 20 -3 11
-1 18 4 14 5 -3 9 -12 9 -20 0 -10 13 -14 50 -14 49 0 50 1 50 30 0 24 4 30
23 31 12 0 32 2 45 5 l22 4 1 -228 c1 -125 1 -256 0 -293 -2 -48 1 -68 12 -78
13 -10 18 -8 29 15 7 15 19 29 26 30 7 1 8 0 2 -3 -7 -3 -7 -11 0 -24 9 -15 7
-19 -8 -19 -23 0 -28 -47 -8 -95 8 -19 13 -35 11 -35 -9 0 -49 85 -46 99 1 7
-2 10 -8 6 -14 -8 -15 -439 -1 -464 14 -27 1 -121 -16 -114 -8 3 -14 0 -14 -6
0 -6 -10 -11 -22 -11 -28 0 -18 -10 18 -16 16 -3 30 -7 32 -9 9 -9 -9 -55 -19
-49 -6 3 -8 12 -5 20 9 23 -23 28 -45 8 -15 -13 -22 -15 -28 -6 -5 9 -13 6
-30 -9 -19 -18 -25 -19 -32 -8 -5 8 -9 20 -9 27 0 21 -18 13 -22 -10 -4 -28
-32 -35 -54 -14 -19 20 -34 20 -34 1 0 -7 -8 -19 -17 -24 -14 -8 0 -10 54 -11
75 0 108 -16 97 -45 -4 -10 1 -16 12 -17 11 -1 -8 -4 -41 -8 -58 -6 -59 -6
-32 -18 16 -7 56 -12 90 -12 34 0 69 -5 77 -10 11 -7 -4 -10 -50 -10 -40 0
-60 -4 -52 -9 17 -10 12 -53 -7 -59 -10 -3 -12 0 -8 11 7 19 -8 33 -18 17 -4
-6 -11 -8 -16 -5 -5 4 -9 0 -9 -7 0 -7 -13 1 -29 18 -20 23 -36 31 -59 30 -27
-1 -32 3 -32 23 0 20 2 22 15 11 18 -15 30 -7 22 14 -4 9 -13 13 -22 10 -13
-5 -15 10 -16 107 0 63 -2 129 -5 147 -7 53 -50 128 -97 166 -74 60 -174 95
-192 66 -4 -6 8 -10 28 -10 53 0 147 -53 186 -106 56 -74 61 -112 61 -453 0
-167 -3 -301 -7 -297 -5 4 -10 155 -13 334 l-5 327 -29 48 c-60 101 -162 150
-268 128 -64 -13 -173 -55 -325 -126 l-103 -48 0 -68 c0 -39 4 -69 10 -69 6 0
10 9 10 19 0 17 6 19 56 15 41 -3 54 -1 51 9 -2 7 -23 12 -55 12 -51 0 -52 0
-52 31 0 29 5 34 98 79 238 116 362 157 398 130 11 -8 26 -15 33 -15 28 0 93
-54 119 -99 32 -54 32 -57 39 -144 6 -74 -4 -97 -41 -96 -20 0 -21 1 -1 9 13
6 -3 8 -50 8 -69 -1 -69 -1 -20 -8 49 -7 48 -7 -23 -8 -47 -1 -71 2 -67 8 3 6
-1 13 -10 16 -13 6 -14 8 -3 15 9 6 7 9 -9 9 -13 0 -22 -5 -20 -12 1 -9 -9
-13 -30 -12 -18 1 -33 -2 -33 -5 0 -4 -19 -5 -41 -3 -31 3 -44 0 -51 -12 -7
-12 -25 -16 -78 -16 -39 0 -70 -3 -70 -7 0 -5 46 -7 102 -7 57 1 87 -1 68 -5
-24 -4 -31 -9 -22 -15 7 -4 11 -14 8 -22 -3 -7 0 -11 7 -9 7 3 41 1 77 -4 74
-10 -616 -14 -732 -4 l-68 6 0 38 0 39 277 0 c152 0 274 3 270 6 -3 3 -108 6
-234 7 -125 0 -247 2 -270 5 -42 4 -43 5 -43 41 0 27 3 32 10 21 8 -12 10 -12
10 -1 0 9 7 11 23 6 33 -10 59 -8 68 7 6 10 13 10 26 2 10 -6 27 -8 38 -3 11
4 57 8 103 8 76 1 82 -1 82 -19 0 -11 5 -20 10 -20 6 0 10 31 10 73 l0 72 118
58 c64 31 104 55 89 52 -25 -5 -27 -4 -18 14 16 29 13 38 -5 15 -8 -10 -13
-13 -9 -6 3 6 1 12 -5 12 -8 0 -10 -9 -6 -23 5 -20 -3 -26 -67 -56 -40 -18
-83 -34 -97 -35 -25 -1 -25 -3 -22 -57 l4 -56 -74 -5 c-66 -4 -149 -4 -250 0
-33 2 -38 5 -38 27 0 17 6 25 18 25 9 0 24 5 32 11 11 7 7 9 -19 7 -47 -4 -51
18 -7 39 29 13 36 22 36 45 0 17 -4 27 -10 23 -5 -3 -10 3 -10 14 0 12 -4 21
-10 21 -5 0 -10 -9 -10 -20 0 -23 -15 -27 -24 -5 -8 23 -9 368 0 470 8 90 20
90 23 0 2 -37 3 -38 16 -21 13 17 14 15 17 -20 2 -22 7 27 11 108 l9 147 -32
58 c-18 32 -36 63 -42 70 -9 11 -10 366 -1 410 3 12 10 20 16 18 17 -5 400
-19 482 -17 39 1 84 6 100 11 27 8 25 9 -25 11 -30 1 -64 5 -75 10 -12 5 42 9
143 9 148 1 164 -1 182 -19z m2379 -36 c5 3 7 -3 4 -14 -5 -20 -21 -36 -28
-28 -2 1 -7 17 -11 33 -7 27 -6 29 9 17 9 -8 20 -11 26 -8z m-399 -40 c0 -19
-4 -21 -42 -17 -51 5 -52 6 -44 36 5 23 8 24 46 14 31 -9 40 -16 40 -33z m90
35 c6 10 15 6 39 -16 17 -17 31 -32 31 -34 0 -2 -21 -4 -47 -4 -46 1 -60 12
-62 54 -1 11 2 11 15 0 13 -10 17 -10 24 0z m153 -16 c7 -38 1 -40 -22 -12
-26 30 -26 39 -2 39 12 0 20 -9 24 -27z m-4143 -2 c0 -4 -6 -15 -13 -25 -12
-16 -15 -16 -56 6 l-44 23 49 5 c51 6 64 4 64 -9z m105 10 c10 -17 -11 -21
-31 -6 -18 14 -18 14 3 15 12 0 24 -4 28 -9z m3064 -6 c6 -6 -51 -27 -77 -29
-23 -2 -48 25 -35 38 6 6 104 -2 112 -9z m-3091 -21 c14 -10 22 -26 22 -44 0
-34 -13 -45 -32 -28 -7 7 -20 13 -28 13 -16 0 -25 36 -16 61 7 18 26 18 54 -2z
m4321 -19 c8 -16 16 -73 19 -127 4 -86 3 -98 -12 -98 -14 0 -16 14 -16 93 0
115 -5 136 -31 130 -12 -4 -19 0 -19 9 0 39 39 35 59 -7z m-5739 -100 c0 -109
-2 -125 -16 -125 -15 0 -16 13 -12 108 5 96 13 142 24 142 2 0 4 -56 4 -125z
m5544 110 c3 -8 1 -15 -4 -15 -6 0 -10 7 -10 15 0 8 2 15 4 15 2 0 6 -7 10
-15z m-519 -46 c50 -13 65 -32 65 -80 0 -34 -4 -40 -50 -68 -78 -48 -80 -46
-80 64 0 104 -2 102 65 84z m-690 -29 c-3 -5 -13 -10 -21 -10 -8 0 -14 5 -14
10 0 6 9 10 21 10 11 0 17 -4 14 -10z m-2196 -90 c39 0 34 -13 -7 -17 -15 -1
-110 1 -212 5 l-185 7 135 6 c74 3 158 4 185 3 28 -2 65 -4 84 -4z m1416 -33
c17 -4 16 -5 -5 -7 l-25 -2 25 -8 c21 -7 19 -8 -17 -9 -41 -1 -48 7 -29 37 5
8 12 10 19 4 7 -6 21 -12 32 -15z m260 -25 c-12 -13 -24 22 -12 37 10 12 13
11 15 -8 2 -13 1 -26 -3 -29z m-745 28 c0 -5 -4 -10 -10 -10 -5 0 -10 5 -10
10 0 6 5 10 10 10 6 0 10 -4 10 -10z m2038 -43 c13 3 22 -10 40 -54 12 -32 25
-73 28 -90 6 -29 4 -33 -16 -33 -14 0 -37 17 -61 44 -22 25 -62 55 -89 67 -61
27 -68 55 -16 64 18 4 46 15 62 26 l29 19 3 -24 c2 -17 8 -23 20 -19z m-2241
-3 c-3 -3 -12 -4 -19 -1 -8 3 -5 6 6 6 11 1 17 -2 13 -5z m1098 -4 c-3 -5 -10
-10 -16 -10 -5 0 -9 5 -9 10 0 6 7 10 16 10 8 0 12 -4 9 -10z m1327 -60 c-23
-43 -43 -69 -51 -68 -14 3 -49 86 -50 121 -1 15 9 17 68 17 l69 0 -36 -70z
m330 62 c29 -12 98 -83 104 -108 7 -27 -2 -74 -14 -74 -14 0 -182 164 -182
178 0 13 62 16 92 4z m-965 -74 c-2 -13 -4 -3 -4 22 0 25 2 35 4 23 2 -13 2
-33 0 -45z m778 50 c20 -9 25 -19 26 -52 l2 -41 7 35 c8 41 17 26 23 -35 l4
-40 1 43 c1 23 6 42 11 42 5 0 21 -14 35 -31 41 -49 33 -90 -32 -161 -23 -25
-26 -26 -47 -12 -33 21 -94 150 -102 212 -6 51 -5 52 20 52 14 0 38 -5 52 -12z
m-426 -88 c63 -31 82 -64 79 -129 l-3 -56 -40 -6 c-22 -3 -50 -11 -62 -17
l-23 -13 0 121 c0 66 2 120 5 120 3 0 23 -9 44 -20z m-689 -95 c0 -25 -4 -45
-10 -45 -5 0 -10 20 -10 45 0 25 5 45 10 45 6 0 10 -20 10 -45z m1037 23 c24
-26 73 -144 73 -176 0 -11 -11 -33 -24 -49 -21 -24 -26 -26 -40 -13 -36 29
-67 98 -73 163 -3 36 -3 73 0 81 9 23 40 20 64 -6z m296 -32 c27 -21 37 -70
37 -178 0 -128 1 -128 -139 -1 l-34 31 16 44 c16 40 79 118 95 118 4 0 15 -7
25 -14z m-1407 -86 c11 0 14 -47 16 -227 3 -195 -4 -460 -10 -397 -1 11 -7 25
-14 32 -8 8 -9 12 -1 12 15 0 9 81 -9 109 -11 17 -11 25 0 42 7 12 11 24 8 27
-3 3 -6 -1 -7 -9 0 -8 -7 3 -14 24 -12 31 -19 131 -15 207 11 216 14 244 23
213 5 -18 16 -33 23 -33z m1019 -86 c47 -75 55 -101 31 -110 -15 -6 -110 19
-134 35 -21 13 -37 158 -22 196 l12 30 34 -40 c18 -22 54 -72 79 -111z m-945
106 c0 -11 -4 -20 -10 -20 -5 0 -10 9 -10 20 0 11 5 20 10 20 6 0 10 -9 10
-20z m-356 -45 c-3 -8 3 -31 15 -50 27 -47 27 -56 -2 -25 -23 24 -30 50 -21
78 2 6 6 12 8 12 3 0 3 -7 0 -15z m356 -74 c0 -44 -4 -83 -10 -86 -6 -4 -10
25 -10 79 0 51 4 86 10 86 6 0 10 -33 10 -79z m760 67 c1 -2 7 -39 15 -83 8
-44 15 -85 15 -91 0 -22 -31 -24 -91 -7 l-59 16 0 66 c0 62 2 68 28 83 22 14
91 25 92 16z m408 -126 c2 -25 -1 -42 -7 -42 -6 0 -11 5 -11 12 0 6 -3 8 -6 5
-9 -9 16 -38 27 -31 5 3 9 23 9 45 0 21 4 39 9 39 11 0 81 -77 81 -89 0 -22
-67 -121 -88 -130 -20 -10 -25 -6 -53 37 -27 42 -30 53 -26 103 6 67 22 101
45 97 12 -2 18 -15 20 -46z m-3951 -34 c-2 -13 -4 -3 -4 22 0 25 2 35 4 23 2
-13 2 -33 0 -45z m2483 52 c0 -5 -4 -10 -10 -10 -5 0 -10 5 -10 10 0 6 5 10
10 10 6 0 10 -4 10 -10z m300 -115 c0 -30 -4 -55 -10 -55 -5 0 -10 25 -10 55
0 30 5 55 10 55 6 0 10 -25 10 -55z m137 23 c-3 -8 -6 -5 -6 6 -1 11 2 17 5
13 3 -3 4 -12 1 -19z m805 -15 c90 -63 94 -66 126 -113 37 -55 44 -93 19 -98
-21 -4 -145 67 -183 105 -39 39 -69 110 -54 129 18 21 32 18 92 -23z m-193
-16 c37 -18 143 -188 128 -204 -4 -3 -27 9 -53 26 -26 17 -52 31 -58 31 -5 0
-36 12 -68 27 l-58 27 0 59 0 60 42 -7 c23 -4 53 -12 67 -19z m-411 -67 c0
-46 -3 -78 -9 -75 -5 4 -9 40 -9 81 0 41 4 74 9 74 5 0 9 -36 9 -80z m992 -55
c0 -57 -3 -110 -6 -119 -15 -40 -94 4 -94 52 0 26 52 144 73 167 22 24 27 5
27 -100z m-1483 48 c-3 -10 -5 -4 -5 12 0 17 2 24 5 18 2 -7 2 -21 0 -30z
m153 -39 c0 -27 -4 -43 -10 -39 -5 3 -10 24 -10 46 0 21 5 39 10 39 6 0 10
-21 10 -46z m783 -98 c105 -73 115 -83 151 -148 37 -68 36 -71 -34 -66 -73 5
-98 25 -102 81 -3 46 -28 65 -28 22 l0 -28 -32 27 c-18 15 -48 36 -65 47 -32
20 -33 24 -33 85 l0 64 26 -10 c14 -6 67 -39 117 -74z m-785 -11 c-2 -45 -18
-34 -18 11 0 20 4 33 10 29 5 -3 9 -21 8 -40z m1065 -22 c140 -79 128 -68 125
-125 l-3 -51 -72 -1 c-49 -1 -73 3 -73 10 0 7 -20 39 -45 72 -33 44 -45 69
-45 94 0 61 7 62 113 1z m-1013 9 c0 -15 -2 -15 -10 -2 -13 20 -13 33 0 25 6
-3 10 -14 10 -23z m290 -124 c0 -34 -3 -58 -7 -54 -10 10 -10 126 -1 120 5 -3
8 -33 8 -66z m-340 35 c0 -21 -3 -24 -9 -14 -5 8 -7 20 -4 28 8 21 13 15 13
-14z m716 -26 c55 -51 56 -53 56 -107 1 -68 -9 -115 -27 -130 -10 -8 -22 -5
-50 15 -21 14 -42 25 -46 25 -5 0 -9 56 -9 125 0 73 4 125 10 125 5 0 34 -24
66 -53z m-3606 35 c0 -4 -11 -23 -23 -42 -13 -19 -27 -47 -31 -62 -8 -33 -28
-28 -45 9 -11 25 -10 29 26 59 21 18 41 30 46 27 4 -2 7 1 7 6 0 6 5 11 10 11
6 0 10 -3 10 -8z m4330 -27 c-10 -12 -10 -27 -1 -72 6 -31 12 -77 13 -102 1
-26 4 -7 8 44 l6 90 2 -82 c3 -111 4 -113 51 -97 26 9 50 10 77 4 21 -5 71
-11 109 -14 39 -2 94 -10 123 -16 40 -9 56 -9 67 0 10 9 19 8 38 -5 16 -10 43
-15 81 -14 31 1 59 0 62 -4 3 -3 8 -33 11 -67 l6 -61 -34 5 c-30 5 -633 86
-641 86 -2 0 -3 51 -3 114 0 63 -3 112 -7 109 -5 -2 -8 5 -8 16 0 12 5 21 10
21 6 0 10 7 10 16 0 20 20 57 27 50 3 -3 0 -12 -7 -21z m-5776 -27 c9 -40 11
-142 5 -220 -4 -55 -4 -56 -39 -62 -19 -3 -159 -21 -310 -41 -151 -19 -292
-38 -312 -41 l-38 -6 0 40 c0 54 25 83 75 87 85 5 171 18 182 27 6 5 45 9 85
8 114 -3 180 0 198 10 11 6 21 5 28 -2 9 -9 16 -7 28 8 8 10 13 14 9 7 -3 -7
4 -17 15 -23 19 -10 20 -8 20 29 0 27 5 43 16 49 13 7 17 26 18 90 1 82 9 97
20 40z m4151 -38 c3 -5 2 -10 -4 -10 -5 0 -13 5 -16 10 -3 6 -2 10 4 10 5 0
13 -4 16 -10z m1441 -17 c-10 -10 -19 5 -10 18 6 11 8 11 12 0 2 -7 1 -15 -2
-18z m-4256 -24 c0 -11 -4 -19 -10 -19 -5 0 -10 -6 -10 -12 -1 -7 -15 -30 -33
-50 -25 -29 -37 -36 -54 -32 -19 5 -23 13 -23 50 0 42 2 45 45 65 25 12 48 26
51 31 9 13 34 -11 34 -33z m2750 31 c12 -8 11 -10 -5 -9 -11 1 -31 5 -45 9
-24 8 -24 8 5 9 17 0 37 -4 45 -9z m233 -60 c14 -21 15 -21 20 -1 3 15 10 18
27 14 12 -3 24 -12 27 -19 6 -17 114 -7 129 12 22 28 46 9 36 -28 -3 -13 -14
-18 -36 -18 -18 0 -37 -5 -44 -12 -8 -8 -12 -8 -12 -1 0 9 -54 13 -207 12 -29
0 -53 3 -53 6 0 3 12 17 28 30 33 30 66 32 85 5z m-188 -30 c3 -5 2 -10 -4
-10 -5 0 -13 5 -16 10 -3 6 -2 10 4 10 5 0 13 -4 16 -10z m542 -22 c-3 -7 -5
-2 -5 12 0 14 2 19 5 13 2 -7 2 -19 0 -25z m571 6 c15 -8 34 -14 43 -14 21 0
35 -18 41 -53 4 -21 2 -27 -9 -23 -7 3 -16 -1 -19 -8 -3 -8 -13 -13 -22 -11
-9 2 -24 4 -32 5 -10 1 -9 4 5 10 14 6 -1 9 -47 9 -58 1 -68 -2 -68 -16 -1
-16 -2 -16 -11 1 -16 27 0 33 89 35 106 3 105 11 -1 11 -48 0 -87 2 -87 5 0 3
7 22 15 41 13 33 17 35 46 29 16 -4 42 -13 57 -21z m242 11 c0 -15 -83 -12
-88 3 -3 9 9 12 42 9 26 -1 46 -7 46 -12z m167 7 c29 -19 50 -92 26 -92 -8 0
-11 5 -8 10 4 6 -7 10 -25 10 -54 0 -112 42 -95 70 6 10 87 11 102 2z m-1553
-63 c-3 -5 -10 -7 -15 -3 -5 3 -7 10 -3 15 3 5 10 7 15 3 5 -3 7 -10 3 -15z
m106 4 c-1 -31 -74 -43 -85 -14 -4 11 2 12 30 8 19 -3 35 -2 35 4 0 5 5 9 10
9 6 0 10 -3 10 -7z m467 -75 c-2 -18 -4 -6 -4 27 0 33 2 48 4 33 2 -15 2 -42
0 -60z m409 -22 c10 -31 -10 -40 -60 -26 l-46 13 0 48 0 49 50 -32 c27 -18 53
-41 56 -52z m416 56 c10 -12 10 -14 1 -8 -7 4 -13 2 -13 -3 0 -6 -5 -11 -11
-11 -5 0 -7 5 -4 10 4 6 -7 10 -27 9 -31 -1 -32 -1 -8 -10 l25 -8 -25 2 c-17
1 -26 9 -28 22 -2 18 2 20 37 17 22 -2 46 -11 53 -20z m-1437 -72 c3 -5 -3
-10 -14 -10 -11 0 -23 5 -26 10 -3 6 3 10 14 10 11 0 23 -4 26 -10z m-757 -7
c-10 -2 -26 -2 -35 0 -10 3 -2 5 17 5 19 0 27 -2 18 -5z m202 -8 c0 -8 -4 -15
-10 -15 -5 0 -10 -4 -10 -9 0 -6 19 -14 43 -19 36 -9 28 -10 -63 -11 l-105 -1
0 35 0 35 73 0 c57 0 72 -3 72 -15z m56 -32 c-14 -14 -23 4 -13 27 l10 25 5
-23 c2 -13 1 -26 -2 -29z m580 22 l29 -16 -29 3 c-16 2 -31 9 -34 16 -5 16 0
15 34 -3z m924 -35 c22 -11 40 -24 40 -29 0 -5 10 -12 23 -16 l22 -8 -22 -4
c-18 -3 -23 -11 -23 -34 0 -16 -4 -29 -8 -29 -4 0 -34 23 -65 51 -45 39 -57
57 -57 80 0 26 2 28 25 19 13 -5 42 -19 65 -30z m-2487 -27 c-7 -2 -21 -2 -30
0 -10 3 -4 5 12 5 17 0 24 -2 18 -5z m431 -9 c9 -8 16 -12 16 -7 0 4 30 6 66
5 48 -3 69 0 75 10 5 7 9 8 9 2 0 -8 40 -10 133 -7 166 5 163 5 215 -3 94 -14
32 -24 -148 -24 -104 0 -190 -3 -190 -7 0 -5 11 -25 24 -45 26 -43 43 -40 21
3 -17 32 -18 39 -7 39 4 0 12 -10 17 -22 6 -12 21 -23 34 -25 14 -2 33 -11 43
-19 11 -11 24 -14 35 -9 29 12 62 14 68 4 12 -19 25 -8 19 16 -5 22 -3 25 17
24 17 -1 19 -3 7 -6 -10 -2 -18 -9 -18 -14 0 -6 9 -7 21 -4 13 4 25 2 29 -5 4
-6 21 -12 38 -12 l32 -1 0 -63 0 -62 -50 -7 c-59 -8 -77 -25 -26 -25 19 0 38
-4 41 -10 5 -9 -137 -16 -148 -7 -2 1 -11 -4 -21 -12 -20 -17 -25 -13 -28 21
-1 17 -13 32 -32 44 -28 17 -29 17 -21 -2 13 -31 19 -70 9 -61 -5 5 -9 14 -9
20 -1 7 -6 23 -12 37 -7 14 -21 46 -32 73 -14 32 -26 47 -38 47 -11 0 -25 6
-32 13 -10 10 -10 7 0 -16 9 -19 15 -24 20 -15 12 20 18 5 8 -21 -6 -14 -15
-21 -24 -18 -9 4 -12 1 -9 -7 6 -16 -13 -32 -48 -41 -36 -9 -48 17 -22 47 11
12 13 18 5 13 -11 -6 -13 -4 -8 8 7 19 -23 33 -34 15 -5 -7 -6 -23 -2 -35 4
-17 1 -23 -11 -23 -9 0 -18 0 -21 0 -3 0 -4 1 -3 3 8 9 -40 66 -59 70 -23 4
-33 -16 -13 -28 6 -3 10 -1 10 4 0 22 15 10 33 -25 20 -41 9 -61 -35 -61 -31
0 -28 22 4 30 19 5 19 7 4 22 -28 29 -55 2 -47 -47 1 -11 -21 -10 -39 2 -9 6
-20 5 -29 -3 -12 -10 -14 -9 -8 6 5 13 1 17 -19 17 -21 0 -25 4 -22 18 8 29
-14 63 -32 52 -13 -8 -12 -10 4 -10 12 0 16 -5 12 -16 -3 -9 -6 -20 -6 -25 0
-5 -12 -9 -27 -9 -16 0 -41 -9 -57 -19 -33 -22 -31 -23 -92 50 -18 21 -35 35
-39 30 -3 -6 -12 -8 -20 -4 -8 3 -15 0 -15 -6 0 -6 -5 -11 -11 -11 -6 0 -9 7
-6 15 4 8 2 17 -3 20 -10 6 -25 -22 -34 -67 -9 -42 -25 -34 -19 9 3 21 14 44
24 51 11 7 17 17 14 22 -10 16 55 22 245 20 251 -3 270 -2 270 10 0 6 -31 10
-72 11 -52 1 -66 3 -48 9 21 7 18 8 -18 9 -26 1 -41 -3 -37 -9 3 -6 -4 -10
-17 -10 -18 0 -20 2 -8 10 11 7 -1 10 -39 10 -63 0 -64 9 -2 12 72 3 19 20
-83 27 -80 5 -67 7 104 11 107 3 198 7 202 8 4 1 14 -5 22 -14z m2726 -39 c0
-41 -1 -42 -27 -36 -26 5 -26 6 -5 9 12 2 22 10 22 18 0 8 -3 13 -8 10 -4 -2
-15 2 -25 9 -17 12 -17 14 -2 22 34 19 45 11 45 -32z m-360 25 c0 -6 -27 -10
-60 -10 -33 0 -60 4 -60 10 0 6 27 10 60 10 33 0 60 -4 60 -10z m258 -1 c-2
-6 -7 -10 -11 -10 -4 1 -43 1 -87 1 -47 0 -80 4 -80 10 0 6 37 10 91 10 60 0
89 -4 87 -11z m-1788 -49 c0 -16 -4 -30 -8 -30 -9 0 -13 27 -6 48 6 22 14 13
14 -18z m1238 -94 c37 -50 31 -59 -35 -51 -32 4 -61 9 -65 12 -5 2 -8 41 -8
85 l0 81 43 -48 c23 -27 52 -62 65 -79z m-1815 99 c-3 -9 -8 -14 -10 -11 -3 3
-2 9 2 15 9 16 15 13 8 -4z m-606 -2 c-20 -2 -52 -2 -70 0 -17 2 0 4 38 4 39
0 53 -2 32 -4z m101 0 c-10 -2 -26 -2 -35 0 -10 3 -2 5 17 5 19 0 27 -2 18 -5z
m869 -25 c-3 -8 -6 -5 -6 6 -1 11 2 17 5 13 3 -3 4 -12 1 -19z m343 -38 c0
-11 -7 -23 -15 -26 -8 -4 -15 -12 -15 -20 0 -11 -16 -14 -65 -14 -63 0 -65 -1
-65 -25 0 -25 0 -25 -95 -25 l-95 0 0 65 0 65 175 0 c169 0 175 -1 175 -20z
m1593 0 c10 -9 -9 -50 -23 -50 -8 0 -50 53 -50 64 0 7 63 -5 73 -14z m-5463 0
c0 -5 -5 -10 -11 -10 -5 0 -7 5 -4 10 3 6 8 10 11 10 2 0 4 -4 4 -10z m5199
-24 c12 -11 21 -23 21 -28 0 -4 -35 -8 -77 -8 -61 1 -83 5 -100 19 -44 37 -30
46 56 41 59 -4 84 -10 100 -24z m371 14 c6 -11 19 -20 29 -20 10 0 28 -8 39
-19 18 -15 22 -29 22 -84 0 -36 5 -69 10 -72 15 -9 13 -135 -3 -135 -22 0 -37
72 -30 148 6 71 6 72 -18 73 -23 0 -23 1 -4 9 14 7 8 8 -20 4 -30 -4 -36 -3
-25 5 9 6 10 11 3 11 -6 0 -20 3 -30 6 -15 5 -15 4 -3 -5 13 -9 13 -11 -2 -11
-36 0 -41 56 -8 93 20 22 27 21 40 -3z m-3074 -46 c18 -15 18 -15 -8 -10 -33
7 -60 -2 -51 -18 4 -6 -1 -4 -12 4 -17 14 -17 13 -12 -10 4 -14 4 -20 1 -13
-3 7 -12 9 -20 6 -12 -5 -13 -1 -3 20 7 15 15 25 18 23 3 -2 15 0 26 5 30 12
39 11 61 -7z m-2583 -111 c4 -84 1 -115 -10 -141 -24 -52 -33 -47 -33 16 0 44
-4 61 -15 66 -10 4 -15 20 -15 50 l0 44 -104 -33 c-58 -18 -107 -31 -109 -28
-3 2 -13 0 -24 -5 -24 -12 -75 -27 -143 -42 -30 -6 -64 -15 -75 -19 -37 -15
-167 -41 -176 -35 -16 10 -11 74 6 74 9 0 156 34 327 75 171 41 313 75 315 75
2 0 3 -35 3 -77 0 -95 20 -88 22 8 1 35 3 67 5 72 13 24 21 -6 26 -100z m3832
59 c-22 -5 -29 3 -21 25 7 17 8 17 22 -2 13 -18 13 -20 -1 -23z m1472 26 c-2
-7 0 -23 4 -35 8 -22 6 -23 -40 -23 -41 0 -49 3 -59 25 -6 14 -16 25 -22 25
-5 0 -10 5 -10 10 0 6 29 10 66 10 48 0 64 -3 61 -12z m153 -28 c16 -12 30
-25 30 -29 0 -4 -26 -9 -59 -10 l-59 -2 -5 33 c-2 18 -3 36 -1 40 6 10 60 -8
94 -32z m585 -25 c127 -30 260 -63 298 -71 65 -16 67 -18 67 -48 0 -41 -11
-57 -35 -51 -11 3 -50 11 -86 19 -36 8 -88 23 -115 34 -27 10 -57 17 -66 14
-10 -2 -18 1 -18 6 0 6 -22 13 -50 17 -27 4 -52 11 -55 15 -3 5 -27 12 -53 16
-26 4 -56 13 -67 20 -11 8 -32 14 -47 14 -28 0 -28 0 -30 -72 -1 -66 -2 -63
-8 32 -3 58 -4 109 -2 113 2 4 11 6 20 3 10 -3 121 -30 247 -61z m-961 10 c23
-7 33 -13 24 -14 -14 -1 -18 -10 -18 -35 l0 -35 -57 35 c-31 19 -60 34 -65 34
-4 0 -8 9 -8 20 0 17 5 19 42 14 23 -4 60 -12 82 -19z m-2009 5 c4 -6 -6 -10
-22 -9 -25 0 -26 1 -8 9 11 5 21 9 22 9 1 1 5 -3 8 -9z m2630 -22 c4 -3 -10
-2 -30 2 -21 5 -42 13 -48 19 -6 6 7 5 31 -2 22 -7 44 -15 47 -19z m-2650 -8
c-3 -5 -11 -10 -16 -10 -6 0 -7 5 -4 10 3 6 11 10 16 10 6 0 7 -4 4 -10z
m-968 -6 c-3 -3 -12 -4 -19 -1 -8 3 -5 6 6 6 11 1 17 -2 13 -5z m803 -14 c0
-13 -20 -13 -40 0 -12 8 -9 10 13 10 15 0 27 -4 27 -10z m996 -35 c30 -14 110
-93 102 -100 -2 -2 -49 -5 -106 -6 l-102 -3 -42 40 c-56 53 -77 77 -78 89 0
15 187 -1 226 -20z m1150 -19 c43 -44 54 -61 54 -88 0 -22 3 -28 9 -20 6 11
13 7 30 -14 24 -30 21 -44 -6 -23 -11 9 -14 10 -9 2 4 -7 3 -13 -3 -13 -5 0
-12 6 -14 13 -3 7 -6 5 -6 -5 -1 -25 -23 -22 -81 7 l-50 25 0 85 c0 54 4 85
11 85 6 0 35 -24 65 -54z m429 44 c-28 -12 -65 -12 -65 0 0 6 19 10 43 9 32 0
37 -2 22 -9z m3 -40 c11 -19 9 -20 -38 -20 -41 0 -50 3 -50 18 0 26 71 28 88
2z m-323 -10 c3 -6 -1 -7 -9 -4 -18 7 -21 14 -7 14 6 0 13 -4 16 -10z m45 0
c0 -5 -5 -10 -11 -10 -5 0 -7 5 -4 10 3 6 8 10 11 10 2 0 4 -4 4 -10z m-750
-10 c94 -1 126 -4 106 -10 -16 -5 -59 -8 -95 -6 -70 4 -94 -1 -85 -15 3 -5 0
-9 -5 -9 -6 0 -11 5 -11 10 0 6 -65 10 -174 10 -99 0 -177 4 -181 9 -7 12 56
16 200 14 61 0 171 -2 245 -3z m825 -40 c3 -5 1 -10 -4 -10 -6 0 -11 5 -11 10
0 6 2 10 4 10 3 0 8 -4 11 -10z m-3297 -14 c-7 -8 -15 -12 -17 -11 -5 6 10 25
20 25 5 0 4 -6 -3 -14z m3522 10 c0 -7 -76 -56 -88 -56 -7 0 -12 7 -12 15 0 9
6 12 18 9 11 -4 8 1 -8 15 l-25 21 58 0 c31 0 57 -2 57 -4z m178 -53 c38 -12
52 -21 52 -34 0 -16 8 -19 46 -19 43 0 92 -15 534 -169 l105 -36 3 -37 c4 -44
-6 -47 -58 -21 -18 9 -61 26 -94 38 -195 72 -264 98 -372 140 -65 26 -123 51
-128 56 -6 5 -20 9 -32 9 -12 0 -24 5 -26 12 -3 7 -32 14 -71 16 -65 4 -67 5
-67 31 0 44 3 45 108 14z m-1140 -15 l3 -28 -230 0 c-190 0 -231 2 -231 14 0
7 -10 21 -22 29 -21 15 -3 16 227 14 l250 -2 3 -27z m773 0 c7 -27 6 -28 -37
-28 -39 0 -46 3 -54 26 -14 36 -15 35 37 32 41 -3 47 -6 54 -30z m-2081 2
c-14 -4 -41 -9 -60 -11 -29 -2 -25 -3 20 -9 l55 -7 -80 -3 c-60 -2 -73 -4 -50
-10 20 -5 -2 -8 -65 -8 -66 0 -86 3 -65 8 23 7 17 8 -27 6 -56 -2 -77 7 -40
17 9 3 -64 5 -163 6 -191 2 -377 10 -384 17 -2 2 196 4 440 3 244 -1 433 -5
419 -9z m2278 -12 c-3 -7 -18 -14 -34 -16 l-29 -2 25 14 c31 19 43 20 38 4z
m272 2 c0 -5 -2 -10 -4 -10 -3 0 -8 5 -11 10 -3 6 -1 10 4 10 6 0 11 -4 11
-10z m-4153 -20 c1 -16 -1 -17 -12 -7 -11 10 -8 19 10 27 1 0 1 -9 2 -20z
m186 8 c-6 -11 -53 -10 -53 2 0 5 13 8 29 7 16 -1 27 -5 24 -9z m72 -16 c-8
-8 -25 10 -19 20 4 6 9 5 15 -3 4 -7 6 -15 4 -17z m205 7 l45 -12 -40 -8 c-22
-3 -49 -3 -60 2 -19 9 -18 9 3 5 12 -2 20 0 16 5 -3 5 -19 9 -35 9 -18 0 -28
4 -24 10 7 11 26 9 95 -11z m250 11 c-20 -13 -33 -13 -25 0 3 6 14 10 23 10
15 0 15 -2 2 -10z m87 4 c-3 -3 -12 -4 -19 -1 -8 3 -5 6 6 6 11 1 17 -2 13 -5z
m1040 -6 c-19 -7 -32 -7 -39 0 -7 7 3 10 29 10 37 -1 38 -1 10 -10z m58 2 c-3
-5 -10 -10 -16 -10 -5 0 -9 5 -9 10 0 6 7 10 16 10 8 0 12 -4 9 -10z m115 6
c0 -2 -9 -6 -20 -9 -11 -3 -20 -1 -20 4 0 5 9 9 20 9 11 0 20 -2 20 -4z m353
-15 c7 -5 21 -11 32 -14 15 -4 13 -5 -7 -6 -16 0 -28 4 -28 9 0 6 -3 9 -7 9
-5 -1 -54 -1 -111 0 -71 1 -101 4 -97 12 8 13 201 5 218 -10z m-2270 2 c-7 -2
-19 -2 -25 0 -7 3 -2 5 12 5 14 0 19 -2 13 -5z m474 1 c-3 -3 -12 -4 -19 -1
-8 3 -5 6 6 6 11 1 17 -2 13 -5z m517 -2 c2 -4 22 -9 42 -10 61 -4 53 -12 -12
-12 -36 1 -67 6 -78 15 -19 14 -18 15 11 15 18 0 34 -4 37 -8z m1046 -1 c0 -5
8 -12 18 -14 9 -3 -3 -5 -28 -4 -25 0 -35 2 -22 4 12 2 20 9 17 14 -4 5 -1 9
4 9 6 0 11 -4 11 -9z m-3737 -21 c-11 -10 -212 -89 -333 -130 -91 -31 -336
-120 -372 -135 -15 -6 -18 -2 -18 29 0 20 2 36 4 36 2 0 109 36 237 81 313
108 355 121 419 128 57 7 78 4 63 -9z m2822 10 c3 -5 -1 -10 -9 -10 -9 0 -16
5 -16 10 0 6 4 10 9 10 6 0 13 -4 16 -10z m855 -6 c0 -2 -11 -4 -25 -4 -14 0
-25 4 -25 9 0 4 11 6 25 3 14 -2 25 -6 25 -8z m-1992 -1 c-10 -2 -26 -2 -35 0
-10 3 -2 5 17 5 19 0 27 -2 18 -5z m85 0 c-13 -2 -33 -2 -45 0 -13 2 -3 4 22
4 25 0 35 -2 23 -4z m64 1 c-3 -3 -12 -4 -19 -1 -8 3 -5 6 6 6 11 1 17 -2 13
-5z m111 -1 c-10 -2 -26 -2 -35 0 -10 3 -2 5 17 5 19 0 27 -2 18 -5z m380 0
c-10 -2 -26 -2 -35 0 -10 3 -2 5 17 5 19 0 27 -2 18 -5z m185 0 c-29 -2 -78
-2 -110 0 -32 2 -8 3 52 3 61 0 87 -1 58 -3z m130 0 c-7 -2 -19 -2 -25 0 -7 3
-2 5 12 5 14 0 19 -2 13 -5z m645 0 c-15 -2 -42 -2 -60 0 -18 2 -6 4 27 4 33
0 48 -2 33 -4z m168 0 c-7 -7 -87 -5 -95 3 -2 2 20 4 49 4 29 0 50 -3 46 -7z
m1514 3 c0 -3 -4 -8 -10 -11 -5 -3 -10 -1 -10 4 0 6 5 11 10 11 6 0 10 -2 10
-4z"/>
<path d="M5908 4303 c6 -2 18 -2 25 0 6 3 1 5 -13 5 -14 0 -19 -2 -12 -5z"/>
<path d="M4863 4253 c-68 -2 -123 -7 -123 -12 0 -4 91 -6 203 -4 111 2 202 7
202 11 0 8 -96 9 -282 5z"/>
<path d="M4680 4240 c0 -5 5 -10 11 -10 5 0 7 5 4 10 -3 6 -8 10 -11 10 -2 0
-4 -4 -4 -10z"/>
<path d="M4411 4224 c0 -11 3 -14 6 -6 3 7 2 16 -1 19 -3 4 -6 -2 -5 -13z"/>
<path d="M4425 4190 c3 -5 8 -10 11 -10 2 0 4 5 4 10 0 6 -5 10 -11 10 -5 0
-7 -4 -4 -10z"/>
<path d="M4440 4115 c0 -8 -4 -15 -10 -15 -5 0 -10 -4 -10 -10 0 -5 7 -10 15
-10 9 0 15 9 15 25 0 14 -2 25 -5 25 -3 0 -5 -7 -5 -15z"/>
<path d="M5147 4094 c-14 -14 -6 -24 19 -24 16 0 24 5 22 13 -5 14 -31 21 -41
11z"/>
<path d="M4413 4047 c-6 -10 -4 -13 25 -21 18 -6 22 -3 22 13 0 14 -6 19 -21
18 -11 -1 -23 -5 -26 -10z"/>
<path d="M5145 4040 c3 -5 8 -10 11 -10 2 0 4 5 4 10 0 6 -5 10 -11 10 -5 0
-7 -4 -4 -10z"/>
<path d="M4648 3923 c7 -3 16 -2 19 1 4 3 -2 6 -13 5 -11 0 -14 -3 -6 -6z"/>
<path d="M4750 3921 c0 -19 20 -22 36 -7 14 15 13 16 -10 16 -14 0 -26 -4 -26
-9z"/>
<path d="M5140 3914 c0 -8 5 -12 10 -9 6 3 10 10 10 16 0 5 -4 9 -10 9 -5 0
-10 -7 -10 -16z"/>
<path d="M5142 3715 c0 -16 2 -22 5 -12 2 9 2 23 0 30 -3 6 -5 -1 -5 -18z"/>
<path d="M5140 3602 c0 -22 5 -44 10 -47 7 -4 8 8 4 37 -9 57 -14 61 -14 10z"/>
<path d="M5003 3213 c-11 -4 -19 -43 -9 -43 20 0 64 24 60 34 -5 12 -30 17
-51 9z"/>
<path d="M5168 3105 c-1 -36 -2 -69 -1 -73 2 -4 26 -5 54 -3 44 3 51 1 46 -13
-3 -8 -2 -18 3 -21 13 -8 41 6 33 18 -3 6 -7 25 -8 41 0 17 -2 50 -3 74 l-2
42 -59 0 -59 0 -4 -65z"/>
<path d="M4880 3140 c0 -5 7 -7 15 -4 8 4 15 8 15 10 0 2 -7 4 -15 4 -8 0 -15
-4 -15 -10z"/>
<path d="M4814 3129 c-3 -6 -2 -15 4 -21 7 -7 14 -3 21 11 10 17 9 21 -3 21
-8 0 -18 -5 -22 -11z"/>
<path d="M4532 3064 c-28 -14 -42 -27 -19 -18 9 3 24 1 31 -5 8 -7 17 -8 20
-3 3 5 24 9 46 10 23 1 46 4 50 7 5 3 10 0 12 -7 3 -8 11 -7 28 5 14 9 22 17
20 18 -46 6 -171 2 -188 -7z"/>
<path d="M5056 3040 c5 -25 3 -31 -17 -39 -23 -9 -22 -10 9 -10 31 -1 32 0 32
39 0 29 -4 40 -15 40 -11 0 -13 -8 -9 -30z"/>
<path d="M5610 3035 c0 -19 5 -35 10 -35 6 0 10 5 10 12 0 6 6 4 13 -6 8 -11
22 -16 38 -14 l24 4 -25 11 c-27 11 -56 40 -49 48 10 9 89 -40 85 -52 -4 -8 3
-13 19 -13 34 0 31 14 -7 50 -26 23 -43 29 -75 30 -42 0 -43 0 -43 -35z"/>
<path d="M5773 3058 c2 -7 10 -13 17 -13 7 0 15 6 18 13 2 7 -5 12 -18 12 -13
0 -20 -5 -17 -12z"/>
<path d="M5368 3053 c7 -3 16 -2 19 1 4 3 -2 6 -13 5 -11 0 -14 -3 -6 -6z"/>
<path d="M5786 3015 c-3 -9 1 -18 10 -22 19 -7 28 2 21 22 -8 19 -23 19 -31 0z"/>
<path d="M4920 2992 c0 -13 23 -32 39 -32 9 0 7 6 -9 20 -25 22 -30 24 -30 12z"/>
<path d="M4415 2980 c3 -5 13 -10 21 -10 8 0 14 5 14 10 0 6 -9 10 -21 10 -11
0 -17 -4 -14 -10z"/>
<path d="M4984 2952 c-15 -2 -21 -10 -21 -28 0 -22 3 -24 51 -23 28 1 85 5
126 9 l75 7 -75 3 c-41 1 -95 2 -120 2 -25 0 -35 2 -22 5 39 8 26 32 -14 25z"/>
<path d="M5038 2943 c7 -3 16 -2 19 1 4 3 -2 6 -13 5 -11 0 -14 -3 -6 -6z"/>
<path d="M5265 2910 c3 -5 12 -10 20 -10 8 0 17 5 20 10 4 6 -5 10 -20 10 -15
0 -24 -4 -20 -10z"/>
<path d="M5418 2913 c7 -3 16 -2 19 1 4 3 -2 6 -13 5 -11 0 -14 -3 -6 -6z"/>
<path d="M5610 2910 c0 -5 5 -10 10 -10 6 0 10 5 10 10 0 6 -4 10 -10 10 -5 0
-10 -4 -10 -10z"/>
<path d="M5650 2910 c19 -13 30 -13 30 0 0 6 -10 10 -22 10 -19 0 -20 -2 -8
-10z"/>
<path d="M5716 2910 c7 -7 24 -7 50 -1 l39 9 -49 1 c-34 1 -47 -2 -40 -9z"/>
<path d="M5320 2860 c0 -5 5 -10 11 -10 5 0 7 5 4 10 -3 6 -8 10 -11 10 -2 0
-4 -4 -4 -10z"/>
<path d="M5612 2792 c-23 -7 -12 -21 24 -28 23 -4 39 -2 47 6 10 10 7 12 -11
7 -12 -3 -28 0 -35 7 -7 7 -18 11 -25 8z"/>
<path d="M7458 3827 c-3 -19 -2 -25 4 -19 6 6 8 18 6 28 -3 14 -5 12 -10 -9z"/>
<path d="M6186 3664 c-8 -22 -7 -34 3 -34 12 0 21 39 11 45 -4 3 -11 -2 -14
-11z"/>
<path d="M6201 3594 c0 -11 3 -14 6 -6 3 7 2 16 -1 19 -3 4 -6 -2 -5 -13z"/>
<path d="M6192 3510 c0 -14 2 -19 5 -12 2 6 2 18 0 25 -3 6 -5 1 -5 -13z"/>
<path d="M6310 3000 c0 -5 5 -10 10 -10 6 0 10 5 10 10 0 6 -4 10 -10 10 -5 0
-10 -4 -10 -10z"/>
<path d="M4928 2713 c7 -3 16 -2 19 1 4 3 -2 6 -13 5 -11 0 -14 -3 -6 -6z"/>
<path d="M4558 2593 c6 -2 18 -2 25 0 6 3 1 5 -13 5 -14 0 -19 -2 -12 -5z"/>
<path d="M5055 2590 c3 -5 8 -10 11 -10 2 0 4 5 4 10 0 6 -5 10 -11 10 -5 0
-7 -4 -4 -10z"/>
<path d="M4785 2580 c-25 -4 -34 -9 -25 -13 19 -8 39 -5 65 11 22 12 20 13
-40 2z"/>
<path d="M5075 2550 c3 -5 8 -10 11 -10 2 0 4 5 4 10 0 6 -5 10 -11 10 -5 0
-7 -4 -4 -10z"/>
<path d="M5328 2513 c12 -2 32 -2 45 0 12 2 2 4 -23 4 -25 0 -35 -2 -22 -4z"/>
<path d="M5322 2474 c10 -9 45 -12 57 -5 7 4 -4 8 -25 9 -20 1 -35 -1 -32 -4z"/>
<path d="M4908 2233 c6 -2 18 -2 25 0 6 3 1 5 -13 5 -14 0 -19 -2 -12 -5z"/>
<path d="M4978 2233 c12 -2 32 -2 45 0 12 2 2 4 -23 4 -25 0 -35 -2 -22 -4z"/>
<path d="M5008 2213 c7 -3 16 -2 19 1 4 3 -2 6 -13 5 -11 0 -14 -3 -6 -6z"/>
<path d="M472 6116 c7 -8 15 -12 17 -11 5 6 -10 25 -20 25 -5 0 -4 -6 3 -14z"/>
<path d="M9050 6075 c0 -5 5 -17 10 -25 5 -8 10 -10 10 -5 0 6 -5 17 -10 25
-5 8 -10 11 -10 5z"/>
<path d="M9653 5996 c1 -11 9 -21 17 -23 10 -3 11 -2 4 4 -6 4 -14 15 -17 23
-5 11 -6 9 -4 -4z"/>
<path d="M531 5979 c-18 -11 -35 -27 -38 -37 -4 -9 -15 -28 -25 -41 -22 -29
-23 -76 0 -118 22 -42 165 -171 198 -179 42 -11 47 4 42 148 -3 115 -6 138
-25 168 -40 64 -104 89 -152 59z"/>
<path d="M8983 5969 c-55 -35 -68 -77 -68 -226 0 -72 3 -134 7 -138 16 -16 61
9 133 72 84 74 115 119 115 165 0 34 -52 123 -81 138 -28 16 -71 11 -106 -11z"/>
<path d="M257 5873 c-3 -5 -10 -39 -16 -78 -6 -38 -20 -94 -31 -124 -26 -67
-20 -91 23 -91 39 0 215 84 224 106 4 10 -9 31 -34 57 -21 23 -56 63 -77 90
-26 32 -45 47 -61 47 -13 0 -26 -3 -28 -7z"/>
<path d="M9279 5838 c-19 -24 -52 -63 -74 -86 -22 -24 -40 -51 -40 -60 0 -22
178 -111 223 -111 45 -1 49 18 22 98 -12 37 -27 96 -34 132 -10 58 -13 64 -37
67 -21 2 -33 -6 -60 -40z"/>
<path d="M768 5834 c-3 -11 3 -66 13 -124 10 -58 18 -138 19 -178 0 -113 26
-139 86 -87 50 44 109 66 176 68 53 2 63 -1 66 -16 2 -10 0 -16 -5 -15 -22 6
-101 -16 -151 -42 -96 -50 -97 -51 -97 -133 1 -115 15 -204 35 -229 l18 -23
69 19 c37 10 84 21 103 24 30 4 33 3 22 -11 -10 -12 -10 -17 -1 -23 7 -4 -20
-15 -65 -26 -102 -24 -112 -30 -142 -89 -43 -85 -35 -102 76 -169 53 -32 104
-59 114 -61 11 -2 21 -10 24 -18 4 -11 -5 -13 -48 -8 -37 5 -68 17 -104 42
-53 36 -96 45 -114 23 -6 -7 -17 -38 -25 -68 -9 -30 -27 -85 -40 -122 -59
-160 -57 -198 9 -198 29 0 40 9 89 71 31 38 74 83 95 98 43 31 128 66 137 57
3 -3 2 -20 -3 -38 -7 -22 -21 -38 -49 -52 -68 -35 -92 -55 -134 -110 -45 -58
-51 -97 -28 -186 l12 -45 53 -2 c62 -2 140 -36 151 -66 7 -18 9 -16 14 13 4
26 2 1507 -3 1590 0 11 -2 12 -8 2 -18 -27 -125 11 -180 65 -67 65 -174 104
-184 67z"/>
<path d="M8752 5825 c-23 -13 -63 -42 -90 -63 -60 -50 -76 -58 -134 -67 l-48
-7 0 -314 c0 -290 4 -338 25 -304 3 6 1 10 -4 10 -6 0 -11 5 -11 10 0 16 56
11 112 -10 108 -41 122 -26 140 148 12 117 11 123 -8 149 -27 37 -116 85 -184
98 -38 8 -56 17 -58 28 -3 14 4 17 35 17 64 0 138 -24 191 -63 83 -61 102 -49
102 65 0 44 6 111 14 151 32 163 31 177 -13 177 -14 0 -45 -11 -69 -25z"/>
<path d="M9666 5782 c-8 -15 -17 -44 -21 -63 -6 -30 -2 -41 19 -65 l25 -29 1
93 c0 50 -2 92 -5 92 -2 0 -11 -13 -19 -28z"/>
<path d="M104 5694 c-38 -20 -47 -30 -78 -86 -26 -47 -26 -47 -25 -280 l1
-233 30 64 c23 50 31 85 38 165 6 80 14 114 38 166 32 67 54 202 35 213 -5 3
-23 -1 -39 -9z"/>
<path d="M9470 5668 c1 -56 26 -151 53 -205 19 -38 27 -68 27 -106 0 -104 45
-257 76 -257 7 0 24 15 38 33 25 33 26 39 26 178 l0 144 -61 100 c-67 112 -99
145 -135 145 -21 0 -24 -5 -24 -32z"/>
<path d="M465 5626 c-116 -38 -257 -133 -280 -189 -16 -40 -5 -137 21 -193 13
-27 18 -56 16 -96 -4 -76 8 -75 78 5 155 176 147 170 353 266 37 18 67 38 67
45 0 13 -120 125 -169 158 -30 21 -33 21 -86 4z"/>
<path d="M9067 5621 c-47 -32 -167 -144 -167 -157 0 -7 29 -27 65 -43 36 -17
93 -44 128 -61 62 -29 93 -57 234 -213 28 -31 56 -57 62 -57 7 0 11 24 11 60
0 37 7 74 16 93 24 46 36 165 19 197 -36 70 -201 174 -302 190 -31 5 -49 3
-66 -9z"/>
<path d="M9681 5554 c0 -11 3 -14 6 -6 3 7 2 16 -1 19 -3 4 -6 -2 -5 -13z"/>
<path d="M694 5387 c-24 -21 -27 -32 -41 -175 l-16 -152 28 -35 c34 -46 109
-84 133 -69 41 26 20 296 -31 400 -26 54 -40 59 -73 31z"/>
<path d="M8882 5401 c-38 -23 -82 -199 -82 -330 0 -112 11 -130 68 -113 53 16
112 81 112 124 0 78 -24 265 -36 285 -17 28 -46 44 -62 34z"/>
<path d="M510 5266 c-19 -13 -55 -48 -80 -77 -25 -30 -73 -84 -107 -120 -43
-46 -63 -77 -67 -100 -11 -72 -15 -258 -6 -264 14 -9 82 30 116 67 45 49 66
81 155 243 29 54 69 193 69 244 0 26 -4 31 -23 31 -12 0 -38 -11 -57 -24z"/>
<path d="M9030 5256 c0 -103 118 -364 212 -471 37 -42 102 -85 128 -85 13 0 2
255 -14 292 -6 15 -36 53 -66 85 -31 32 -71 78 -90 102 -45 57 -117 111 -146
111 -21 0 -24 -5 -24 -34z"/>
<path d="M90 5048 c-18 -57 -44 -124 -57 -150 -41 -83 -31 -96 63 -78 79 15
94 36 94 134 0 71 -35 196 -54 196 -7 0 -27 -46 -46 -102z"/>
<path d="M9456 5103 c-22 -69 -30 -171 -17 -220 13 -46 33 -57 122 -69 47 -6
49 -6 49 18 0 14 -11 45 -23 69 -13 24 -27 58 -31 74 -18 72 -60 175 -71 175
-8 0 -20 -21 -29 -47z"/>
<path d="M8480 4881 c0 -94 2 -171 5 -171 19 0 103 41 168 83 70 44 77 52 77
80 0 18 -13 54 -28 82 -30 55 -70 76 -169 90 l-53 7 0 -171z"/>
<path d="M9683 4960 c0 -41 2 -58 4 -37 2 20 2 54 0 75 -2 20 -4 3 -4 -38z"/>
<path d="M583 4936 c-21 -19 -57 -68 -81 -110 -46 -81 -48 -108 -9 -135 11 -8
37 -53 59 -100 45 -96 82 -151 103 -151 27 0 70 109 120 302 23 91 25 110 14
124 -19 23 -93 73 -134 90 -34 14 -36 13 -72 -20z"/>
<path d="M8899 4916 c-36 -24 -69 -50 -72 -59 -3 -8 6 -59 19 -113 45 -184 92
-304 117 -304 23 0 53 42 98 135 23 49 55 102 71 118 15 17 28 37 28 46 0 23
-76 150 -113 189 -41 43 -68 41 -148 -12z"/>
<path d="M3245 4870 c28 -5 66 -8 85 -8 28 1 25 2 -15 8 -27 5 -66 8 -85 8
-28 -1 -25 -2 15 -8z"/>
<path d="M3110 4845 c-19 -23 -2 -37 20 -15 11 11 20 22 20 25 0 11 -28 4 -40
-10z"/>
<path d="M3180 4770 c0 -5 5 -10 10 -10 6 0 10 5 10 10 0 6 -4 10 -10 10 -5 0
-10 -4 -10 -10z"/>
<path d="M100 4764 c-8 -3 -34 -15 -57 -27 l-43 -22 0 -108 0 -109 43 37 c58
51 85 84 102 124 21 47 19 88 -4 101 -11 5 -21 10 -23 9 -2 0 -10 -3 -18 -5z"/>
<path d="M8643 4734 c-38 -26 -65 -37 -107 -41 l-56 -6 0 -288 c0 -159 2 -289
4 -289 2 0 29 12 60 26 34 15 74 26 101 26 56 0 65 13 72 111 l6 72 -41 51
c-45 57 -76 81 -139 110 -23 10 -43 26 -44 34 -1 8 -3 25 -4 38 -3 29 5 28 79
-8 60 -28 106 -70 174 -157 26 -33 41 -43 62 -43 42 0 60 10 60 32 0 24 -34
143 -60 208 -9 25 -25 71 -34 103 -16 54 -19 57 -49 57 -22 0 -51 -13 -84 -36z"/>
<path d="M9476 4754 c-43 -43 4 -134 124 -240 l85 -74 3 106 c2 99 1 109 -19
130 -13 13 -28 24 -36 24 -7 0 -13 4 -13 8 0 11 -67 48 -102 56 -18 4 -32 1
-42 -10z"/>
<path d="M305 4642 c-116 -64 -220 -152 -231 -196 -11 -46 5 -91 65 -178 87
-123 85 -122 137 -63 47 55 113 168 146 248 12 30 22 86 25 135 l6 82 -49 0
c-34 0 -64 -9 -99 -28z"/>
<path d="M9173 4654 c-10 -27 5 -147 26 -199 43 -109 142 -264 182 -286 15 -8
27 2 73 60 69 86 108 168 98 204 -4 14 -20 41 -35 60 -28 36 -177 142 -230
165 -41 18 -106 16 -114 -4z"/>
<path d="M6258 4503 c12 -2 32 -2 45 0 12 2 2 4 -23 4 -25 0 -35 -2 -22 -4z"/>
<path d="M4083 4480 c-43 -6 -70 -20 -40 -20 10 0 17 -4 17 -10 0 -5 16 -12
36 -16 33 -6 35 -9 31 -34 -7 -33 2 -72 14 -64 5 3 9 25 9 48 l0 43 80 7 c61
5 85 11 100 26 20 20 20 20 -17 21 -132 5 -193 5 -230 -1z"/>
<path d="M446 4368 c-29 -29 -48 -58 -56 -88 -7 -25 -25 -75 -41 -111 -42 -95
-37 -153 19 -211 36 -38 64 -36 102 10 74 89 119 236 107 352 -9 82 -14 90
-53 90 -27 0 -44 -9 -78 -42z"/>
<path d="M9051 4360 c-29 -134 6 -269 102 -392 32 -43 60 -48 95 -18 51 42 66
133 33 198 -10 20 -29 69 -41 107 -30 91 -89 155 -143 155 -34 0 -36 -1 -46
-50z"/>
<path d="M9581 4293 c-36 -40 -78 -100 -104 -150 l-42 -83 100 -100 c55 -56
112 -108 128 -116 l27 -15 0 248 c-1 248 -1 248 -24 265 -23 17 -24 16 -85
-49z"/>
<path d="M0 4105 l0 -229 37 36 c21 20 62 58 91 85 28 28 52 55 52 61 0 31
-77 164 -126 217 l-54 59 0 -229z"/>
<path d="M778 4248 c-40 -33 -244 -329 -253 -370 -11 -43 9 -68 56 -68 54 0
157 27 204 53 48 27 51 40 61 212 6 116 4 138 -10 160 -18 28 -34 31 -58 13z"/>
<path d="M8789 4243 c-10 -12 -14 -47 -13 -128 2 -167 11 -222 38 -241 39 -25
138 -56 198 -61 119 -11 116 33 -16 230 -101 150 -156 217 -179 217 -8 0 -21
-7 -28 -17z"/>
<path d="M935 4087 c-19 -29 -58 -233 -53 -279 5 -49 25 -55 115 -34 43 10 88
20 101 23 12 3 22 0 22 -6 0 -6 -8 -11 -17 -11 -12 0 -14 -3 -6 -8 24 -15 -6
-34 -88 -54 -119 -29 -118 -28 -255 -287 -30 -56 -44 -111 -29 -111 11 0 70
33 100 56 32 24 167 90 254 124 46 18 53 18 47 5 -3 -9 -6 -21 -6 -26 0 -5
-19 -18 -42 -30 -92 -46 -358 -231 -392 -272 -43 -53 -113 -198 -122 -252 -4
-32 -2 -46 14 -65 l19 -24 47 22 c73 35 143 89 248 190 90 88 204 182 221 182
12 0 8 -18 -5 -23 -10 -3 -10 -8 1 -18 12 -12 13 -12 6 0 -5 9 -4 12 3 7 17
-10 15 -14 -12 -28 -38 -20 -226 -199 -242 -230 -13 -25 -12 -32 9 -75 14 -27
28 -59 32 -73 3 -14 18 -49 32 -77 30 -60 47 -66 96 -29 49 36 52 36 70 16 16
-19 14 -21 -46 -64 -86 -61 -99 -78 -95 -118 3 -36 8 -38 98 -23 42 6 46 5 47
-14 1 -12 -3 -21 -9 -21 -13 0 -140 -64 -177 -89 -14 -10 -65 -43 -113 -74
-61 -40 -89 -64 -94 -82 -9 -35 1 -55 27 -55 22 0 22 0 4 21 -18 19 -18 22 -3
47 10 15 31 30 50 35 128 34 323 76 327 70 3 -3 0 -8 -6 -10 -10 -4 -9 -8 2
-20 16 -16 22 -8 -137 -196 -58 -68 -78 -111 -61 -128 7 -7 41 -6 98 1 63 8
91 8 99 0 8 -8 7 -13 -4 -20 -12 -8 -10 -10 8 -10 14 0 22 6 23 18 0 9 3 55 6
102 2 47 2 104 -2 128 -5 36 -9 41 -21 31 -19 -16 -18 -4 3 16 14 15 17 49 19
257 l3 241 -77 -8 c-134 -14 -122 -18 -146 57 -21 63 -21 66 -4 65 12 -1 17
-7 13 -17 -4 -12 -3 -12 8 1 7 9 24 17 39 17 14 0 53 3 85 8 32 4 62 8 68 8 9
1 16 1125 7 1174 -2 12 -9 22 -16 21 -6 -1 -28 5 -49 15 -20 9 -57 19 -81 22
-39 6 -46 4 -61 -19z"/>
<path d="M8581 4098 c-19 -5 -44 -16 -55 -24 -27 -18 -40 -18 -32 2 3 8 2 12
-4 9 -6 -4 -10 -223 -10 -610 l0 -604 28 5 c24 4 57 0 140 -20 13 -3 22 0 22
7 0 8 3 8 11 0 6 -6 17 -9 24 -7 9 4 5 -17 -10 -63 -18 -54 -26 -68 -41 -66
-161 16 -174 16 -174 -3 -1 -11 0 -118 0 -238 1 -207 2 -221 22 -250 l22 -31
-22 19 -22 19 0 -146 0 -147 33 1 c30 0 31 1 10 11 -13 6 -23 15 -23 20 0 10
26 10 119 -2 40 -5 79 -6 87 -2 22 12 -16 77 -110 186 -73 85 -84 102 -75 119
6 11 7 17 2 14 -4 -3 -14 2 -22 10 -12 13 -11 14 10 8 23 -7 24 -7 4 9 -11 8
-15 16 -9 16 15 0 310 -69 337 -79 34 -13 54 -57 38 -82 -11 -18 -10 -20 6
-17 24 4 28 41 9 71 -26 38 -335 226 -373 227 -7 0 -13 9 -13 20 0 23 20 25
86 9 38 -10 48 -9 61 4 29 29 1 76 -82 135 -41 29 -75 58 -75 64 0 6 7 5 16
-3 15 -12 16 -11 10 9 -10 30 0 28 64 -13 55 -36 55 -36 72 -15 9 11 24 42 34
68 9 26 30 75 46 109 27 58 28 65 14 91 -17 33 -187 197 -233 224 -18 11 -33
25 -33 31 0 7 5 6 11 -3 8 -12 10 -9 6 13 -2 15 -2 27 0 27 16 0 112 -78 208
-170 121 -115 234 -200 265 -200 10 0 20 -5 22 -11 7 -20 47 8 54 37 9 35 -9
93 -59 189 -53 101 -96 148 -194 210 -43 27 -102 66 -131 88 -29 21 -76 50
-105 64 -74 36 -83 45 -60 54 17 7 17 8 0 8 -10 1 -16 5 -12 10 10 17 210 -74
326 -149 68 -44 86 -46 80 -9 -6 45 -144 293 -182 328 -11 10 -53 26 -92 35
-106 26 -107 26 -107 47 0 10 -4 19 -10 19 -5 0 -10 4 -10 9 0 11 55 5 124
-15 122 -35 132 -19 100 164 -29 173 -43 189 -143 160z m-71 -1818 c0 -5 -2
-10 -4 -10 -3 0 -8 5 -11 10 -3 6 -1 10 4 10 6 0 11 -4 11 -10z"/>
<path d="M9336 3959 c-39 -31 -60 -99 -60 -203 l-1 -91 46 -65 c55 -79 80 -86
131 -41 45 39 128 182 128 219 0 34 -60 102 -135 154 -68 47 -80 50 -109 27z"/>
<path d="M180 3933 c-30 -20 -75 -57 -99 -82 -38 -40 -42 -50 -38 -81 7 -47
62 -144 114 -198 60 -63 84 -58 146 33 l48 70 -5 90 c-7 107 -18 150 -48 182
-30 32 -54 29 -118 -14z"/>
<path d="M664 3765 c-105 -54 -203 -134 -264 -216 -61 -82 -84 -136 -74 -175
10 -38 43 -36 129 6 174 84 280 175 315 268 49 129 7 174 -106 117z"/>
<path d="M8837 3769 c-26 -37 17 -156 82 -225 60 -65 279 -195 332 -196 73 -2
64 70 -26 196 -54 76 -89 108 -186 171 -119 78 -175 93 -202 54z"/>
<path d="M3357 3762 c-15 -16 -24 -52 -13 -52 1 0 17 5 35 11 23 8 31 17 31
35 0 29 -29 33 -53 6z"/>
<path d="M6622 3675 c0 -16 2 -22 5 -12 2 9 2 23 0 30 -3 6 -5 -1 -5 -18z"/>
<path d="M9607 3633 c-110 -181 -133 -257 -98 -320 39 -69 146 -109 171 -63 7
12 9 95 8 227 -3 204 -3 208 -24 211 -17 2 -30 -9 -57 -55z"/>
<path d="M0 3442 c0 -116 2 -212 5 -212 16 0 63 32 90 60 25 27 30 39 30 84 0
43 -9 69 -49 146 -81 157 -76 163 -76 -78z"/>
<path d="M3340 3585 c0 -2 11 -12 25 -21 30 -19 58 -8 30 13 -18 12 -55 18
-55 8z"/>
<path d="M513 3343 c-26 -14 -66 -38 -88 -53 -22 -15 -82 -48 -132 -74 -103
-53 -135 -84 -128 -125 2 -14 9 -63 14 -107 12 -93 51 -187 89 -212 24 -15 26
-15 40 6 10 16 24 22 49 22 65 0 76 16 104 155 7 36 23 76 41 100 16 22 46 64
68 94 44 60 58 120 41 174 -15 46 -40 51 -98 20z"/>
<path d="M9024 3349 c-13 -14 -18 -35 -18 -72 0 -59 17 -96 79 -177 54 -69 71
-104 80 -160 3 -25 14 -64 23 -88 14 -36 21 -42 39 -37 12 3 25 0 29 -6 4 -8
9 -7 15 2 7 11 9 10 9 -3 0 -9 5 -20 12 -24 8 -5 9 0 6 14 -9 34 6 26 19 -9
12 -30 13 -31 35 -17 42 27 79 118 93 223 6 53 10 107 8 120 -7 34 -38 59
-128 103 -44 22 -120 65 -169 96 -50 31 -95 56 -101 56 -7 0 -20 -9 -31 -21z
m326 -533 c0 -3 -4 -8 -10 -11 -5 -3 -10 -1 -10 4 0 6 5 11 10 11 6 0 10 -2
10 -4z"/>
<path d="M4205 3267 c-3 -6 -4 -161 -3 -342 3 -305 4 -330 21 -333 16 -3 17
18 17 342 0 304 -2 346 -15 346 -9 0 -18 -6 -20 -13z"/>
<path d="M9671 3194 c0 -11 3 -14 6 -6 3 7 2 16 -1 19 -3 4 -6 -2 -5 -13z"/>
<path d="M9682 3045 c0 -16 2 -22 5 -12 2 9 2 23 0 30 -3 6 -5 -1 -5 -18z"/>
<path d="M9538 3002 c-24 -28 -48 -99 -55 -163 -6 -57 -5 -59 23 -70 27 -10
52 -13 144 -18 27 -2 31 -4 16 -10 -20 -7 -20 -8 0 -13 18 -5 21 0 23 37 3 62
-32 142 -88 202 -45 48 -50 51 -63 35z"/>
<path d="M32 2977 c-32 -33 -32 -34 -32 -136 0 -93 2 -102 18 -97 9 3 39 8 65
12 64 9 71 26 45 129 -19 78 -40 125 -56 125 -5 0 -22 -15 -40 -33z"/>
<path d="M735 2826 c-16 -12 -43 -31 -60 -40 l-30 -16 30 7 c17 3 47 17 67 31
20 13 42 21 49 17 7 -5 10 -3 7 6 -7 22 -31 21 -63 -5z"/>
<path d="M8830 2842 c0 -10 114 -72 131 -72 8 1 1 8 -16 17 -16 9 -43 27 -58
39 -28 23 -57 32 -57 16z"/>
<path d="M551 2741 c-22 -22 -35 -61 -56 -171 -8 -41 -22 -100 -31 -130 -47
-158 -51 -184 -41 -249 6 -37 14 -60 21 -58 6 2 11 14 11 27 0 20 8 26 42 34
28 8 61 30 105 70 34 33 97 84 138 114 106 78 128 101 151 152 17 36 20 57 15
105 -3 32 -10 63 -14 67 -5 5 -84 -1 -176 -12 -92 -12 -170 -19 -174 -15 -4 3
4 24 16 46 25 43 22 49 -7 20z"/>
<path d="M9066 2723 c17 -34 18 -53 2 -53 -7 0 -84 10 -171 21 -178 25 -171
27 -183 -49 -14 -94 24 -157 150 -251 52 -39 122 -97 157 -128 41 -39 75 -61
103 -69 33 -8 41 -14 41 -34 0 -13 6 -25 13 -28 7 -2 12 0 10 5 -1 4 4 33 10
64 14 60 12 72 -42 244 -13 44 -27 100 -31 125 -9 60 -35 152 -47 168 -19 22
-27 12 -12 -15z"/>
<path d="M275 2634 c-54 -7 -102 -10 -105 -5 -3 4 -42 -9 -88 -30 l-82 -38 0
-134 0 -135 35 -57 c19 -32 47 -89 62 -127 25 -65 45 -89 60 -74 3 3 -1 14
-10 24 -30 33 -21 48 37 61 51 11 55 14 74 59 29 68 152 437 152 456 0 18 -1
18 -135 0z"/>
<path d="M9216 2613 c4 -21 18 -67 32 -103 13 -36 35 -101 49 -145 14 -44 39
-115 55 -157 l29 -77 54 -12 c60 -13 67 -27 39 -67 -14 -20 -14 -22 1 -22 8 0
20 11 27 25 6 13 14 22 19 20 4 -3 5 3 2 13 -7 27 95 218 110 207 4 -3 5 -2 3
1 -3 3 9 27 25 52 24 38 29 57 29 106 0 59 -2 62 -38 87 -52 36 -182 91 -199
85 -8 -3 -64 1 -126 9 -62 8 -113 15 -115 15 -2 0 0 -17 4 -37z"/>
<path d="M9542 2630 c0 -14 2 -19 5 -12 2 6 2 18 0 25 -3 6 -5 1 -5 -13z"/>
<path d="M9181 2584 c0 -11 3 -14 6 -6 3 7 2 16 -1 19 -3 4 -6 -2 -5 -13z"/>
<path d="M431 2524 c0 -11 3 -14 6 -6 3 7 2 16 -1 19 -3 4 -6 -2 -5 -13z"/>
<path d="M432 2440 c0 -14 2 -19 5 -12 2 6 2 18 0 25 -3 6 -5 1 -5 -13z"/>
<path d="M9661 2264 c-13 -27 -31 -71 -41 -99 -10 -27 -21 -57 -24 -66 -6 -13
3 -19 39 -29 25 -7 48 -10 51 -8 2 3 3 60 2 128 l-3 122 -24 -48z"/>
<path d="M1 2118 c-1 -31 3 -38 18 -38 12 0 21 -8 24 -22 4 -20 4 -19 6 5 0
15 -3 27 -9 27 -5 0 -16 15 -24 33 l-14 32 -1 -37z"/>
<path d="M848 2135 c-2 -3 -58 -8 -124 -11 -175 -10 -198 -26 -209 -149 -13
-165 -12 -209 8 -213 48 -10 130 54 190 147 24 36 74 93 110 125 47 41 67 65
67 82 0 17 -6 24 -18 24 -10 0 -21 -2 -24 -5z"/>
<path d="M8730 2117 c0 -19 17 -40 69 -84 39 -33 86 -86 110 -123 55 -88 68
-101 122 -128 73 -37 84 -30 82 53 -1 39 -5 105 -8 148 -7 77 -8 79 -48 108
-31 22 -43 26 -53 18 -8 -7 -14 -7 -14 -2 0 6 -44 13 -99 16 -54 4 -112 10
-130 13 -28 6 -31 4 -31 -19z"/>
<path d="M9572 2060 c0 -14 2 -19 5 -12 2 6 2 18 0 25 -3 6 -5 1 -5 -13z"/>
<path d="M375 2013 c-22 -6 -169 -101 -215 -139 -27 -23 -30 -32 -30 -82 0
-49 27 -180 29 -144 1 9 8 8 29 -5 15 -10 29 -20 32 -23 36 -38 138 -100 164
-100 15 0 53 96 42 107 -3 3 -31 -4 -62 -15 -44 -17 -60 -20 -76 -11 -17 9
-18 13 -7 21 10 7 8 8 -7 4 -13 -4 -27 1 -38 13 -17 19 -17 19 1 15 10 -2 59
11 108 29 l90 32 4 85 c2 47 5 114 5 150 1 62 0 65 -24 67 -14 0 -34 -1 -45
-4z"/>
<path d="M9174 1996 c-3 -14 -1 -70 5 -124 6 -53 12 -110 14 -127 2 -28 7 -32
97 -64 52 -19 97 -36 100 -38 7 -6 -23 -22 -31 -17 -4 2 -9 -3 -13 -11 -3 -8
-16 -15 -28 -15 -24 0 -84 19 -107 34 -20 13 -9 -81 12 -102 15 -14 20 -14 57
3 22 10 45 24 52 32 6 8 41 34 78 59 75 50 80 61 80 163 0 50 -4 61 -27 82
-73 66 -191 137 -242 145 -37 6 -41 4 -47 -20z"/>
<path d="M1 1949 c-1 -22 1 -39 3 -39 9 0 38 62 31 68 -18 18 -31 7 -34 -29z"/>
<path d="M9600 1944 c0 -23 21 -44 63 -62 l27 -12 0 44 0 44 -45 4 c-40 3 -45
1 -45 -18z"/>
<path d="M1030 1935 c-25 -7 -77 -18 -117 -25 -76 -12 -153 -54 -174 -92 -36
-66 10 -188 70 -188 27 0 30 3 109 106 22 28 63 66 92 84 50 32 54 56 7 31
-28 -13 -206 -81 -230 -86 -9 -2 -22 -7 -27 -10 -6 -4 -10 8 -10 28 0 41 0 41
189 107 130 45 172 62 145 59 -5 -1 -29 -7 -54 -14z"/>
<path d="M8601 1926 c3 -3 55 -23 115 -44 136 -47 150 -55 156 -86 7 -35 -3
-45 -32 -33 -14 5 -29 11 -35 13 -5 1 -54 18 -108 38 -105 38 -171 50 -107 18
49 -23 94 -66 148 -139 36 -50 51 -63 72 -63 72 0 114 142 61 204 -29 33 -95
64 -161 75 -36 7 -76 14 -90 17 -14 3 -22 3 -19 0z"/>
<path d="M1105 1879 c-4 -5 -4 -20 -1 -32 4 -17 -4 -28 -37 -50 -23 -16 -93
-93 -154 -170 -99 -124 -113 -147 -113 -180 0 -23 5 -40 14 -43 15 -6 120 29
206 69 30 13 66 27 80 31 14 3 19 3 13 0 -7 -3 -13 -14 -13 -24 0 -10 6 -20
13 -23 6 -2 -10 -14 -38 -27 -132 -60 -281 -136 -297 -152 -19 -19 -23 -63
-12 -130 6 -32 11 -38 38 -43 17 -3 69 -1 116 4 137 17 196 22 183 15 -7 -3
-10 -11 -7 -19 6 -15 -10 -21 -86 -30 -93 -11 -187 -35 -242 -62 -166 -79
-400 -280 -446 -383 -31 -67 -31 -68 -42 -50 -7 12 -10 11 -16 -4 -5 -12 -2
-23 8 -30 13 -10 14 -21 2 -91 -18 -107 -24 -123 -18 -49 4 51 2 63 -11 68 -9
3 -18 6 -20 6 -8 0 -12 -97 -4 -117 7 -18 5 -23 -8 -23 -13 0 -15 9 -10 59 2
32 1 65 -4 72 -6 10 -9 5 -10 -16 0 -26 -2 -28 -10 -10 -6 14 -7 8 -3 -21 3
-23 2 -44 -3 -47 -4 -3 -9 24 -11 59 -2 44 0 64 9 64 7 0 9 10 6 26 -2 14 0
44 5 67 7 34 6 44 -6 53 -19 13 -21 41 -4 46 13 5 -25 48 -42 48 -13 0 -13
-27 0 -35 6 -3 10 -1 10 4 0 6 5 11 10 11 6 0 10 -7 10 -16 0 -12 -7 -14 -30
-9 -31 7 -44 -10 -15 -21 8 -4 15 -10 15 -15 0 -5 -7 -9 -15 -9 -9 0 -15 -9
-15 -25 0 -14 -5 -25 -11 -25 -8 0 -10 -17 -6 -53 4 -34 3 -45 -3 -32 -5 11
-9 14 -9 8 -1 -7 -5 -13 -9 -13 -4 0 -8 50 -7 111 0 61 -3 113 -6 115 -10 6
-21 -45 -13 -58 4 -7 3 -8 -4 -4 -16 10 -16 -26 0 -42 7 -7 8 -12 2 -12 -6 0
-15 9 -20 20 -6 13 -10 -70 -12 -229 l-3 -249 29 -10 c35 -12 82 -4 82 14 0
10 6 11 23 5 12 -5 21 -14 20 -20 -2 -7 5 -8 20 -2 12 5 33 7 47 5 14 -1 35
-3 48 -3 13 -1 20 -5 17 -11 -4 -7 2 -9 19 -4 16 4 26 2 26 -4 0 -6 -12 -13
-27 -15 -26 -4 -26 -4 5 -6 26 -1 32 3 32 19 0 11 7 20 16 20 8 0 13 -4 10 -9
-3 -5 23 1 58 13 38 14 77 21 100 18 22 -3 36 0 36 7 0 6 12 11 26 11 14 0 23
-4 19 -10 -6 -10 44 -34 53 -25 3 3 -5 14 -17 24 -26 23 -20 42 12 40 17 -1
18 -2 5 -6 -24 -6 -23 -23 1 -23 11 0 23 -5 26 -10 7 -11 42 -9 63 4 7 4 19 2
28 -5 19 -16 30 -4 14 15 -10 13 -8 15 17 15 15 -1 42 1 58 4 17 3 33 6 38 6
4 1 7 5 7 11 0 5 -17 9 -37 7 -32 -2 -38 1 -41 20 -3 19 2 22 38 25 60 4 55
24 -14 48 -27 10 -27 12 -13 33 13 20 24 22 113 25 90 3 101 5 126 29 14 14
24 31 22 38 -3 7 3 28 13 47 20 37 19 -11 27 846 5 529 5 542 -14 542 -10 0
-22 -5 -25 -11z m-145 -1023 c0 -23 -6 -48 -12 -54 -10 -10 -10 -15 1 -21 9
-6 12 -18 8 -37 -4 -16 -9 -83 -13 -149 -3 -66 -9 -124 -13 -128 -10 -10 -24
252 -15 287 3 14 2 26 -3 26 -18 0 -44 -60 -41 -94 2 -19 -1 -35 -7 -35 -11 0
-12 175 -1 186 3 3 14 -5 25 -18 18 -22 20 -22 26 -6 4 9 5 26 2 37 -3 11 -1
23 4 26 5 3 9 14 9 26 0 17 2 18 15 8 9 -7 15 -29 15 -54z m58 -41 c-3 -20 -3
-20 -15 1 -7 11 -9 31 -6 44 l6 24 9 -24 c5 -13 7 -33 6 -45z m-211 -12 c-3
-10 -5 -2 -5 17 0 19 2 27 5 18 2 -10 2 -26 0 -35z m-33 -19 c3 -8 2 -12 -3
-9 -5 3 -12 1 -16 -5 -3 -6 0 -13 9 -16 8 -3 13 -11 10 -17 -2 -7 -11 -61 -19
-121 -14 -102 -23 -139 -26 -105 -1 8 -5 -2 -9 -21 -13 -55 -4 145 9 219 9 54
24 91 36 91 2 0 6 -7 9 -16z m-84 -35 c0 -7 6 -17 14 -23 18 -13 10 -66 -9
-66 -7 0 -15 14 -19 31 -9 45 -7 69 4 69 6 0 10 -5 10 -11z m122 -137 c-10
-27 -10 -26 -11 10 -1 20 -5 39 -10 42 -5 4 -4 22 2 43 l12 38 8 -53 c5 -32 5
-63 -1 -80z m-185 96 c-3 -8 -6 -5 -6 6 -1 11 2 17 5 13 3 -3 4 -12 1 -19z
m-2 -38 c17 0 21 -25 5 -35 -5 -3 -10 -15 -10 -26 0 -12 -5 -19 -12 -17 -8 3
-14 27 -15 64 -2 44 0 53 7 37 5 -13 16 -23 25 -23z m42 -2 c-3 -8 -6 -5 -6 6
-1 11 2 17 5 13 3 -3 4 -12 1 -19z m-504 -41 c7 -17 -3 -67 -13 -67 -9 0 -19
68 -11 75 8 9 19 5 24 -8z m847 -23 c0 -21 -4 -33 -10 -29 -5 3 -10 19 -10 36
0 16 5 29 10 29 6 0 10 -16 10 -36z m-243 -76 c-2 -13 -4 -3 -4 22 0 25 2 35
4 23 2 -13 2 -33 0 -45z m-90 30 c-3 -8 -6 -5 -6 6 -1 11 2 17 5 13 3 -3 4
-12 1 -19z m120 -10 c-3 -8 -6 -5 -6 6 -1 11 2 17 5 13 3 -3 4 -12 1 -19z
m-136 -35 c-8 -15 -10 -15 -11 -2 0 17 10 32 18 25 2 -3 -1 -13 -7 -23z m276
-79 c-3 -3 -12 -4 -19 -1 -8 3 -5 6 6 6 11 1 17 -2 13 -5z m-880 -76 c-3 -8
-6 -5 -6 6 -1 11 2 17 5 13 3 -3 4 -12 1 -19z m-17 -93 c0 -8 -7 -15 -15 -15
-9 0 -12 6 -9 15 4 8 10 15 15 15 5 0 9 -7 9 -15z m115 5 c-3 -6 1 -13 10 -16
13 -6 14 -8 3 -15 -24 -15 -38 -9 -38 16 0 16 6 25 16 25 8 0 12 -5 9 -10z
m660 0 c3 -5 -2 -10 -13 -10 -10 0 -21 -3 -25 -6 -3 -3 -29 -8 -56 -10 -42 -3
-49 -1 -45 11 4 8 1 15 -5 15 -6 0 -11 -7 -11 -15 0 -19 -100 -22 -101 -2 0
10 -2 10 -6 0 -2 -8 -22 -13 -44 -13 -30 0 -39 4 -40 18 0 14 -2 14 -9 -3 -6
-13 -9 -15 -9 -5 -1 13 -2 13 -11 0 -5 -8 -10 -10 -10 -4 0 6 -7 11 -15 11 -8
0 -15 -4 -15 -9 0 -4 -7 -8 -15 -8 -8 0 -15 5 -15 10 0 6 -7 10 -15 10 -8 0
-15 -4 -15 -10 0 -5 -7 -10 -15 -10 -8 0 -15 5 -15 10 0 14 -37 12 -43 -2 -4
-10 -8 -10 -15 1 -8 11 -11 9 -17 -8 -3 -11 -13 -21 -22 -21 -10 0 -13 6 -9
16 3 9 6 22 6 29 0 12 53 14 299 15 193 0 302 -3 306 -10z m-12 -47 c-7 -2
-21 -2 -30 0 -10 3 -4 5 12 5 17 0 24 -2 18 -5z m-403 -27 c0 -2 -7 -6 -15
-10 -8 -3 -15 -1 -15 4 0 6 7 10 15 10 8 0 15 -2 15 -4z m-136 -22 c4 -10 1
-14 -6 -12 -15 5 -23 28 -10 28 5 0 13 -7 16 -16z m-187 0 c-3 -3 -12 -4 -19
-1 -8 3 -5 6 6 6 11 1 17 -2 13 -5z"/>
<path d="M740 692 c0 -21 -5 -43 -11 -49 -8 -8 -8 -17 -1 -29 10 -17 11 -17
16 6 13 64 16 110 6 110 -5 0 -10 -17 -10 -38z"/>
<path d="M595 260 c-3 -5 -1 -10 4 -10 6 0 11 5 11 10 0 6 -2 10 -4 10 -3 0
-8 -4 -11 -10z"/>
<path d="M8479 1728 c0 -189 0 -196 1 -676 0 -231 4 -361 10 -357 13 8 13 5
-4 -41 -9 -25 -10 -47 -5 -62 5 -13 6 -35 3 -49 -5 -18 -3 -24 4 -19 11 7 18
-11 25 -61 2 -13 14 -34 27 -48 22 -23 30 -25 120 -25 99 0 120 -7 120 -42 0
-16 -10 -18 -95 -18 -52 0 -95 -3 -95 -7 1 -20 74 -43 134 -43 34 0 66 -3 69
-7 10 -9 -31 -35 -43 -28 -5 3 -18 1 -27 -4 -14 -8 -4 -10 41 -11 33 0 56 -3
52 -7 -4 -4 -24 -7 -44 -6 -20 1 13 -9 73 -23 75 -17 131 -24 175 -22 62 3 65
2 67 -20 1 -20 -3 -23 -31 -21 -17 2 -39 -2 -50 -8 -14 -8 -6 -9 35 -5 31 3
57 11 62 19 5 7 12 11 16 8 5 -2 20 6 34 19 26 24 38 21 48 -11 3 -10 9 -10
29 0 29 15 50 12 50 -9 0 -19 34 -18 50 1 11 13 15 13 22 3 8 -10 11 -10 15 0
5 13 33 17 33 5 0 -5 36 -7 81 -5 55 2 79 0 74 -7 -3 -6 1 -11 10 -11 9 0 13
5 10 10 -3 6 1 10 9 10 9 0 16 5 16 12 0 9 3 9 12 0 7 -7 25 -12 40 -12 15 0
28 -5 28 -11 0 -5 -4 -7 -10 -4 -5 3 -10 -1 -10 -9 0 -25 17 -27 24 -3 3 12 6
50 6 85 0 48 -3 62 -15 62 -8 0 -15 -4 -15 -10 0 -16 -27 -12 -34 5 -4 12 3
15 29 15 l35 0 0 445 c0 483 2 468 -54 424 -104 -81 -119 -273 -36 -439 43
-86 47 -99 26 -81 -9 8 -16 9 -21 2 -3 -6 6 -13 20 -17 15 -4 22 -11 18 -17
-4 -7 -7 -30 -6 -52 1 -22 -3 -45 -9 -52 -6 -7 -8 -19 -5 -28 4 -8 2 -17 -3
-20 -6 -4 -10 16 -10 47 0 38 -3 49 -10 38 -8 -12 -10 -10 -10 9 0 14 8 33 18
44 9 11 12 17 6 14 -7 -4 -14 3 -18 18 -4 14 -11 25 -17 25 -8 0 -10 -28 -7
-90 2 -50 1 -90 -2 -90 -11 0 -40 69 -41 98 -2 27 -2 27 -6 2 -5 -23 -7 -21
-24 20 l-19 45 6 -43 c8 -55 -11 -56 -20 0 -5 32 -9 39 -16 28 -14 -22 -12
-54 5 -86 16 -31 19 -97 5 -129 -7 -17 -9 -15 -9 11 -1 17 -8 37 -16 44 -12
10 -14 4 -13 -44 1 -38 -3 -62 -13 -71 -12 -12 -14 -3 -10 72 2 69 0 84 -10
81 -8 -3 -14 -10 -14 -16 0 -5 -3 -14 -7 -18 -12 -11 -9 -42 4 -46 8 -3 8 -12
0 -33 l-10 -30 -3 35 c-2 19 -3 47 -4 62 -1 15 -4 31 -8 34 -4 4 -7 16 -7 26
0 50 -45 146 -101 216 -32 40 -59 70 -59 67 0 -3 -12 6 -27 20 -57 54 -214
166 -273 196 -72 35 -180 65 -292 79 -45 5 -83 12 -86 15 -3 3 0 5 6 5 7 0 12
7 12 16 0 14 7 16 43 10 109 -16 224 -26 253 -20 27 5 33 11 38 42 10 63 7
113 -9 128 -13 13 -172 95 -305 158 -24 11 -36 23 -36 36 0 14 5 19 15 15 11
-4 12 -3 1 10 -17 21 -10 19 62 -13 108 -49 173 -73 203 -75 28 -2 30 1 33 36
3 33 -4 48 -51 110 -110 145 -165 208 -205 238 -31 22 -41 36 -38 52 3 20 -18
46 -36 47 -5 0 -8 -73 -9 -162z m217 -828 c8 0 14 -9 14 -20 0 -11 -4 -20 -10
-20 -14 0 -12 -16 4 -32 8 -8 16 -23 18 -34 2 -10 8 7 12 39 4 31 11 57 16 57
4 0 11 -27 15 -60 4 -33 13 -67 21 -75 20 -19 17 -38 -7 -53 -19 -12 -21 -20
-16 -65 l6 -52 -14 34 c-8 18 -15 50 -16 70 0 20 -4 45 -9 56 -6 17 -9 15 -14
-15 -5 -29 -12 -137 -15 -262 -1 -16 -5 -28 -9 -28 -9 0 -23 176 -27 330 -3
79 5 164 12 143 3 -7 11 -13 19 -13z m-86 -65 c-6 -30 -8 -33 -9 -13 -1 25 8
62 14 56 2 -2 -1 -21 -5 -43z m210 -5 c0 -5 -4 -10 -10 -10 -5 0 -10 5 -10 10
0 6 5 10 10 10 6 0 10 -4 10 -10z m42 -39 c1 -21 4 -28 12 -22 8 6 12 -6 14
-42 1 -29 7 -68 12 -87 13 -47 13 -127 -1 -135 -16 -10 -17 -6 -30 76 -6 40
-16 84 -22 97 l-11 23 -9 -23 c-5 -13 -7 -48 -4 -78 3 -30 2 -63 -2 -73 -4
-10 -8 11 -10 50 -6 140 -5 153 14 153 15 0 20 27 16 85 -2 22 0 27 9 19 6 -6
12 -25 12 -43z m88 -47 c0 -8 -4 -12 -10 -9 -5 3 -10 10 -10 16 0 5 5 9 10 9
6 0 10 -7 10 -16z m-5 -44 c8 -16 15 -37 14 -47 -1 -13 -3 -11 -9 7 l-8 25 -8
-24 c-7 -23 -8 -24 -15 -5 -11 28 -11 74 1 74 5 0 16 -13 25 -30z m64 -12 c1
6 5 12 10 12 5 0 12 -28 16 -61 4 -34 11 -56 15 -49 5 7 9 2 13 -17 6 -33 0
-44 -14 -23 -7 11 -8 8 -3 -11 3 -15 1 -29 -4 -32 -5 -4 -9 12 -10 34 -2 48
-9 62 -27 55 -18 -6 -27 36 -19 82 6 31 8 33 15 17 4 -11 8 -14 8 -7z m-222
-10 c-3 -8 -6 -5 -6 6 -1 11 2 17 5 13 3 -3 4 -12 1 -19z m-170 -40 c-3 -7 -5
-2 -5 12 0 14 2 19 5 13 2 -7 2 -19 0 -25z m11 -91 c-1 -48 -3 -55 -8 -32 -11
45 -11 107 -1 100 6 -3 9 -34 9 -68z m222 57 c0 -8 -4 -12 -10 -9 -5 3 -10 10
-10 16 0 5 5 9 10 9 6 0 10 -7 10 -16z m-123 -51 c-3 -10 -5 -4 -5 12 0 17 2
24 5 18 2 -7 2 -21 0 -30z m130 -30 c-3 -10 -5 -4 -5 12 0 17 2 24 5 18 2 -7
2 -21 0 -30z m103 27 c0 -5 -5 -10 -11 -10 -5 0 -7 5 -4 10 3 6 8 10 11 10 2
0 4 -4 4 -10z m7 -112 c-3 -8 -6 -5 -6 6 -1 11 2 17 5 13 3 -3 4 -12 1 -19z
m608 -27 c3 -5 1 -12 -5 -16 -5 -3 -10 1 -10 9 0 18 6 21 15 7z m37 -37 c-14
-24 -21 -3 -9 26 8 20 11 22 14 8 2 -10 0 -25 -5 -34z m-32 -3 c0 -6 -4 -13
-10 -16 -5 -3 -10 1 -10 9 0 9 5 16 10 16 6 0 10 -4 10 -9z m-260 -112 c-12
-21 -30 -25 -31 -6 0 10 -2 10 -6 0 -7 -20 -63 -16 -63 3 0 13 -3 14 -13 5
-20 -16 -145 -24 -202 -12 -31 6 -54 6 -59 0 -11 -10 -79 -12 -113 -3 -13 4
-23 13 -23 20 0 12 45 14 260 13 255 0 260 0 250 -20z m93 2 c4 -17 0 -20 -34
-18 -21 1 -39 2 -39 3 0 36 64 49 73 15z m34 -3 c-3 -8 -6 -5 -6 6 -1 11 2 17
5 13 3 -3 4 -12 1 -19z m56 15 c-7 -2 -13 -11 -13 -20 0 -20 -24 -11 -28 10
-3 13 4 17 25 16 15 0 22 -3 16 -6z m107 -18 c0 -30 -16 -33 -25 -4 -6 16 -13
20 -36 17 -16 -3 -29 -1 -29 4 0 4 20 8 45 8 41 0 45 -2 45 -25z m-70 -25 c0
-5 -7 -10 -16 -10 -8 0 -12 5 -9 10 3 6 10 10 16 10 5 0 9 -4 9 -10z m-583 -6
c-3 -3 -12 -4 -19 -1 -8 3 -5 6 6 6 11 1 17 -2 13 -5z m553 -44 c0 -5 -4 -10
-10 -10 -5 0 -10 5 -10 10 0 6 5 10 10 10 6 0 10 -4 10 -10z"/>
<path d="M8686 803 c-11 -11 -6 -23 9 -23 8 0 15 4 15 9 0 13 -16 22 -24 14z"/>
<path d="M8861 705 c0 -11 7 -36 14 -55 l14 -35 -6 40 c-7 47 -23 83 -22 50z"/>
<path d="M2657 1790 c-9 -42 -49 -134 -60 -138 -4 -2 -4 -8 -1 -14 4 -6 0 -14
-7 -19 -10 -6 -10 -9 -2 -9 7 0 17 -10 24 -22 10 -18 9 -20 -7 -14 -17 5 -17
5 1 -9 11 -9 26 -13 33 -10 8 3 31 5 53 5 39 0 39 0 39 40 0 40 0 40 -38 40
l-39 0 9 57 c5 32 8 73 6 93 l-3 35 -8 -35z"/>
<path d="M6985 1723 c6 -73 4 -91 -7 -90 -57 2 -64 -2 -60 -38 4 -33 6 -35 46
-36 22 -1 54 -3 70 -5 27 -3 27 -2 10 12 -18 13 -17 14 9 8 20 -5 27 -2 27 9
0 9 -5 19 -11 23 -6 3 -8 17 -5 30 6 22 -1 29 -25 26 -4 -1 -5 8 -2 18 3 11 0
20 -6 20 -6 0 -11 9 -11 21 0 11 -4 17 -10 14 -6 -4 -10 6 -10 22 0 15 -5 35
-11 43 -7 11 -8 -12 -4 -77z"/>
<path d="M9677 1770 l6 -40 -54 6 c-51 6 -55 5 -75 -23 -12 -16 -23 -48 -26
-71 l-4 -42 79 -30 c43 -16 81 -30 83 -30 2 0 4 61 3 135 0 74 -4 135 -9 135
-4 0 -6 -18 -3 -40z"/>
<path d="M5120 1755 c0 -8 5 -15 10 -15 6 0 10 7 10 15 0 8 -4 15 -10 15 -5 0
-10 -7 -10 -15z"/>
<path d="M0 1651 l0 -89 48 18 c42 16 47 21 44 45 -2 15 1 31 7 35 17 10 -51
80 -77 80 -21 0 -22 -4 -22 -89z"/>
<path d="M3563 1700 c0 -25 2 -35 4 -22 2 12 2 32 0 45 -2 12 -4 2 -4 -23z"/>
<path d="M5990 1707 c0 -20 4 -37 10 -37 5 0 7 14 3 33 -8 45 -13 47 -13 4z"/>
<path d="M591 1639 c-17 -22 -36 -59 -44 -82 -73 -220 -98 -302 -103 -341 -6
-42 -5 -46 14 -46 11 0 34 12 51 26 17 14 36 22 42 18 8 -4 9 -3 5 4 -4 7 12
36 36 66 106 134 137 193 137 268 1 83 -26 128 -78 128 -25 0 -37 -8 -60 -41z"/>
<path d="M8908 1634 c-16 -37 -19 -60 -15 -105 4 -49 13 -69 65 -147 83 -123
167 -212 199 -212 25 0 25 1 19 51 -4 28 -15 74 -26 102 -10 29 -32 98 -50
154 -17 56 -45 124 -63 150 -28 41 -37 48 -70 51 -36 3 -38 2 -59 -44z"/>
<path d="M9277 1649 c7 -7 15 -10 18 -7 3 3 -2 9 -12 12 -14 6 -15 5 -6 -5z"/>
<path d="M871 1604 c0 -11 3 -14 6 -6 3 7 2 16 -1 19 -3 4 -6 -2 -5 -13z"/>
<path d="M220 1575 c0 -14 4 -25 9 -25 4 0 6 11 3 25 -2 14 -6 25 -8 25 -2 0
-4 -11 -4 -25z"/>
<path d="M9390 1564 c0 -8 5 -12 10 -9 6 4 8 11 5 16 -9 14 -15 11 -15 -7z"/>
<path d="M7070 1540 c0 -5 5 -10 11 -10 5 0 7 5 4 10 -3 6 -8 10 -11 10 -2 0
-4 -4 -4 -10z"/>
<path d="M190 1499 c0 -22 7 -66 16 -97 17 -58 67 -142 85 -142 13 0 47 58 60
103 11 42 2 86 -25 112 -17 18 -109 65 -125 65 -6 0 -11 -18 -11 -41z"/>
<path d="M9356 1513 c-67 -34 -85 -58 -86 -113 0 -49 36 -135 57 -135 19 0 72
75 84 118 15 57 28 141 22 150 -7 12 -25 7 -77 -20z"/>
<path d="M9486 1523 c-5 -13 -9 -14 -15 -5 -5 8 -12 -1 -19 -26 -17 -56 -14
-63 8 -22 14 25 19 30 20 16 0 -29 13 -11 17 24 3 33 -1 39 -11 13z"/>
<path d="M9634 1520 c27 -11 51 -18 54 -16 6 6 -36 23 -76 31 -15 3 -5 -4 22
-15z"/>
<path d="M130 1520 c0 -5 4 -10 9 -10 5 0 12 -13 16 -30 7 -30 26 -52 24 -28
-1 26 -24 73 -36 76 -7 1 -13 -2 -13 -8z"/>
<path d="M9514 1503 c-12 -54 -37 -113 -48 -113 -6 0 -11 -12 -12 -27 -1 -16
-8 -53 -17 -83 -18 -65 -40 -237 -32 -251 16 -26 59 7 125 96 22 30 68 83 100
117 l60 62 0 86 0 86 -60 13 c-33 7 -67 19 -77 27 -26 19 -32 17 -39 -13z"/>
<path d="M38 1506 l-38 -10 0 -137 c0 -102 3 -140 13 -146 7 -4 31 -30 52 -58
99 -124 138 -155 152 -119 7 19 -14 183 -33 248 -7 27 -11 53 -7 59 4 6 1 7
-7 2 -9 -6 -10 0 -5 25 5 22 4 30 -3 26 -13 -8 -29 20 -46 77 -12 44 -22 48
-78 33z"/>
<path d="M1061 1454 c0 -11 3 -14 6 -6 3 7 2 16 -1 19 -3 4 -6 -2 -5 -13z"/>
<path d="M5080 1419 c0 -5 9 -9 20 -9 11 0 20 2 20 4 0 2 -9 6 -20 9 -11 3
-20 1 -20 -4z"/>
<path d="M7340 1399 c0 -5 5 -7 10 -4 6 3 10 8 10 11 0 2 -4 4 -10 4 -5 0 -10
-5 -10 -11z"/>
<path d="M4700 1330 c0 -23 10 -26 28 -8 18 18 15 28 -8 28 -13 0 -20 -7 -20
-20z"/>
<path d="M7551 1324 c0 -11 3 -14 6 -6 3 7 2 16 -1 19 -3 4 -6 -2 -5 -13z"/>
<path d="M8901 1244 c0 -11 3 -14 6 -6 3 7 2 16 -1 19 -3 4 -6 -2 -5 -13z"/>
<path d="M625 1194 c1 -12 -17 -47 -42 -80 -42 -57 -68 -118 -56 -137 9 -15
73 0 115 28 21 14 44 23 51 19 7 -4 9 -3 4 1 -4 5 0 19 8 31 21 33 27 82 15
120 -13 37 -33 43 -67 19 -20 -14 -22 -14 -26 2 -3 11 -4 10 -2 -3z"/>
<path d="M8887 1213 c-4 -3 -7 -11 -7 -17 0 -6 5 -5 12 2 6 6 9 14 7 17 -3 3
-9 2 -12 -2z"/>
<path d="M8913 1198 c-6 -7 -13 -35 -16 -62 -4 -45 -2 -51 30 -87 57 -63 156
-100 170 -63 9 24 -27 93 -85 161 -52 62 -80 76 -99 51z"/>
<path d="M0 1160 c0 -5 5 -10 11 -10 5 0 7 5 4 10 -3 6 -8 10 -11 10 -2 0 -4
-4 -4 -10z"/>
<path d="M35 1140 c3 -5 8 -10 11 -10 2 0 4 5 4 10 0 6 -5 10 -11 10 -5 0 -7
-4 -4 -10z"/>
<path d="M0 905 c0 -124 2 -225 4 -225 2 0 16 25 30 55 36 72 51 170 38 243
-15 83 -15 84 -34 106 -10 11 -18 26 -18 33 0 7 -4 13 -10 13 -6 0 -10 -82
-10 -225z"/>
<path d="M292 1080 c0 -19 2 -27 5 -17 2 9 2 25 0 35 -3 9 -5 1 -5 -18z"/>
<path d="M9321 1074 c0 -11 3 -14 6 -6 3 7 2 16 -1 19 -3 4 -6 -2 -5 -13z"/>
<path d="M235 1030 c-3 -5 -1 -10 4 -10 6 0 11 5 11 10 0 6 -2 10 -4 10 -3 0
-8 -4 -11 -10z"/>
<path d="M113 905 c0 -38 2 -53 4 -32 2 20 2 52 0 70 -2 17 -4 1 -4 -38z"/>
<path d="M9431 954 c0 -11 3 -14 6 -6 3 7 2 16 -1 19 -3 4 -6 -2 -5 -13z"/>
<path d="M235 910 c3 -25 1 -72 -4 -105 l-8 -60 -3 60 c-2 59 -2 60 -11 20
-11 -56 -11 -107 1 -100 5 3 12 -12 16 -35 4 -22 9 -40 13 -40 10 0 11 243 1
275 -8 26 -9 24 -5 -15z"/>
<path d="M170 930 c0 -5 5 -10 10 -10 6 0 10 5 10 10 0 6 -4 10 -10 10 -5 0
-10 -4 -10 -10z"/>
<path d="M8131 894 c0 -11 3 -14 6 -6 3 7 2 16 -1 19 -3 4 -6 -2 -5 -13z"/>
<path d="M9380 895 c-3 -5 -5 -39 -4 -75 1 -36 3 -77 3 -92 1 -39 21 -35 21 5
0 24 3 28 10 17 9 -13 10 -13 10 1 0 8 -6 21 -12 27 -7 7 -15 39 -18 70 -3 31
-7 53 -10 47z"/>
<path d="M9080 886 c0 -2 7 -9 15 -16 13 -11 14 -10 9 4 -5 14 -24 23 -24 12z"/>
<path d="M9433 830 c0 -36 2 -50 4 -32 2 17 2 47 0 65 -2 17 -4 3 -4 -33z"/>
<path d="M286 850 c8 -43 14 -51 14 -19 0 13 -5 31 -10 39 -7 11 -8 5 -4 -20z"/>
<path d="M182 840 c0 -14 2 -19 5 -12 2 6 2 18 0 25 -3 6 -5 1 -5 -13z"/>
<path d="M110 771 c0 -6 5 -13 10 -16 6 -3 10 1 10 9 0 9 -4 16 -10 16 -5 0
-10 -4 -10 -9z"/>
<path d="M170 770 c0 -5 5 -10 10 -10 6 0 10 5 10 10 0 6 -4 10 -10 10 -5 0
-10 -4 -10 -10z"/>
<path d="M3228 733 c6 -2 18 -2 25 0 6 3 1 5 -13 5 -14 0 -19 -2 -12 -5z"/>
<path d="M6268 713 c7 -3 16 -2 19 1 4 3 -2 6 -13 5 -11 0 -14 -3 -6 -6z"/>
<path d="M9577 695 c3 -8 9 -12 14 -9 12 7 11 11 -5 17 -10 4 -13 1 -9 -8z"/>
<path d="M9480 689 c0 -5 5 -7 10 -4 6 3 10 8 10 11 0 2 -4 4 -10 4 -5 0 -10
-5 -10 -11z"/>
<path d="M9511 604 c0 -11 3 -14 6 -6 3 7 2 16 -1 19 -3 4 -6 -2 -5 -13z"/>
<path d="M205 600 c-3 -5 -1 -10 4 -10 6 0 11 5 11 10 0 6 -2 10 -4 10 -3 0
-8 -4 -11 -10z"/>
<path d="M9405 590 c3 -5 8 -10 11 -10 2 0 4 5 4 10 0 6 -5 10 -11 10 -5 0 -7
-4 -4 -10z"/>
<path d="M9340 567 c0 -16 4 -26 10 -22 6 3 10 1 10 -4 0 -6 11 -11 25 -11 17
0 25 -6 26 -17 0 -15 2 -15 9 2 15 34 12 49 -5 35 -12 -10 -16 -9 -22 6 -6 16
-7 16 -13 -2 -6 -17 -9 -15 -23 11 l-16 30 -1 -28z"/>
<path d="M193 530 c0 -16 4 -30 9 -30 4 0 8 7 8 16 0 9 6 14 13 11 8 -3 20 -1
28 4 12 8 12 10 -1 18 -9 6 -19 6 -25 1 -7 -6 -15 -6 -22 1 -6 6 -10 0 -10
-21z"/>
<path d="M6116 541 c-3 -4 3 -16 14 -26 11 -10 20 -16 21 -14 7 35 4 49 -12
49 -10 0 -20 -4 -23 -9z"/>
<path d="M6170 513 c0 -5 24 -17 53 -28 28 -10 56 -24 60 -32 4 -7 15 -13 23
-13 9 0 22 -7 30 -15 16 -16 74 -16 71 0 -1 6 -14 9 -29 9 -16 -1 -26 2 -23 6
3 5 1 19 -4 32 -8 20 -10 21 -16 6 -9 -23 -27 -23 -42 1 -6 10 -24 21 -40 24
-15 3 -40 9 -55 13 -16 3 -28 2 -28 -3z"/>
<path d="M3299 483 c-1 -5 -1 -11 0 -15 0 -5 -23 -8 -51 -7 -42 1 -48 3 -28 9
19 6 9 8 -38 9 -58 1 -62 0 -53 -18 6 -10 7 -21 4 -25 -3 -3 1 -6 10 -6 11 0
14 5 10 16 -4 12 -2 15 8 12 8 -3 13 -10 12 -15 -1 -8 272 -11 302 -4 19 5
-40 19 -83 20 -24 1 -50 8 -58 16 -17 16 -33 20 -35 8z"/>
<path d="M6160 480 c0 -5 5 -10 11 -10 5 0 7 5 4 10 -3 6 -8 10 -11 10 -2 0
-4 -4 -4 -10z"/>
<path d="M2978 453 c7 -3 16 -2 19 1 4 3 -2 6 -13 5 -11 0 -14 -3 -6 -6z"/>
<path d="M3015 450 c3 -5 10 -10 16 -10 5 0 9 5 9 10 0 6 -7 10 -16 10 -8 0
-12 -4 -9 -10z"/>
<path d="M6181 440 c-1 -17 17 -40 31 -40 4 0 8 5 8 10 0 6 -6 10 -14 10 -8 0
-17 8 -19 18 -4 13 -5 13 -6 2z"/>
<path d="M4560 426 c0 -2 7 -6 15 -10 8 -3 15 -1 15 4 0 6 -7 10 -15 10 -8 0
-15 -2 -15 -4z"/>
<path d="M4815 420 c-17 -7 -15 -9 13 -9 17 -1 32 4 32 9 0 12 -17 12 -45 0z"/>
<path d="M4753 413 c9 -2 23 -2 30 0 6 3 -1 5 -18 5 -16 0 -22 -2 -12 -5z"/>
<path d="M4880 411 c0 -5 9 -7 20 -4 11 3 20 7 20 9 0 2 -9 4 -20 4 -11 0 -20
-4 -20 -9z"/>
<path d="M6520 409 c0 -5 5 -7 10 -4 6 3 10 8 10 11 0 2 -4 4 -10 4 -5 0 -10
-5 -10 -11z"/>
<path d="M4700 382 c0 -6 6 -13 13 -15 6 -3 -1 -6 -18 -7 -16 -1 -46 -3 -65
-4 -20 -2 -44 -7 -55 -13 -15 -9 -10 -12 33 -18 29 -4 50 -11 47 -15 -3 -5 3
-11 12 -13 14 -4 13 -5 -4 -6 -12 0 -23 5 -26 12 -3 9 -7 9 -20 -2 -27 -22
-20 -30 21 -25 31 4 33 3 15 -5 -13 -6 -23 -15 -23 -21 0 -13 48 -32 69 -27 9
2 -1 7 -21 11 -52 11 -47 24 10 28 45 3 46 4 22 16 -24 12 -24 12 8 8 24 -4
32 -2 32 10 0 12 7 14 30 9 25 -6 30 -4 30 13 0 18 -5 19 -39 15 -21 -3 -47 0
-57 6 -17 9 -15 10 12 11 19 0 34 6 38 15 3 10 -1 15 -13 15 -11 0 -26 3 -35
6 -9 3 -16 2 -16 -4z"/>
<path d="M3175 370 c4 -6 11 -8 16 -5 14 9 11 15 -7 15 -8 0 -12 -5 -9 -10z"/>
<path d="M3292 368 c-21 -21 -13 -30 21 -24 31 6 31 6 7 -6 -25 -11 -24 -12
15 -18 22 -4 31 -8 20 -9 -18 -1 -17 -4 8 -26 29 -25 80 -34 92 -15 3 6 -2 10
-12 10 -30 1 -65 34 -66 64 -2 23 -6 27 -25 23 -12 -2 -25 0 -28 4 -7 12 -18
11 -32 -3z"/>
<path d="M3505 370 c3 -5 8 -10 11 -10 2 0 4 5 4 10 0 6 -5 10 -11 10 -5 0 -7
-4 -4 -10z"/>
<path d="M4088 373 c6 -2 18 -2 25 0 6 3 1 5 -13 5 -14 0 -19 -2 -12 -5z"/>
<path d="M4230 370 c14 -4 39 -8 55 -8 29 0 29 0 5 8 -14 4 -38 8 -55 8 -29 0
-29 0 -5 -8z"/>
<path d="M4828 373 c7 -3 16 -2 19 1 4 3 -2 6 -13 5 -11 0 -14 -3 -6 -6z"/>
<path d="M6305 370 c3 -5 8 -10 11 -10 2 0 4 5 4 10 0 6 -5 10 -11 10 -5 0 -7
-4 -4 -10z"/>
<path d="M6471 371 c-7 -5 -22 -6 -32 -4 -10 3 -19 0 -19 -6 0 -6 16 -11 35
-11 24 0 35 5 35 15 0 17 -1 18 -19 6z"/>
<path d="M4388 353 c7 -3 16 -2 19 1 4 3 -2 6 -13 5 -11 0 -14 -3 -6 -6z"/>
<path d="M3506 341 c-4 -7 -5 -15 -2 -18 9 -9 19 4 14 18 -4 11 -6 11 -12 0z"/>
<path d="M6487 344 c-12 -12 20 -33 42 -27 27 7 27 19 -1 27 -29 7 -33 7 -41
0z"/>
<path d="M4820 320 c0 -13 7 -20 20 -20 24 0 27 25 4 34 -23 9 -24 8 -24 -14z"/>
<path d="M6560 301 c0 -9 34 -21 60 -21 9 1 5 7 -10 15 -29 16 -50 19 -50 6z"/>
<path d="M3452 244 c-23 -24 -17 -29 24 -18 15 4 20 11 17 25 -7 24 -13 23
-41 -7z"/>
<path d="M3585 260 c3 -5 13 -10 21 -10 8 0 14 5 14 10 0 6 -9 10 -21 10 -11
0 -17 -4 -14 -10z"/>
<path d="M4880 240 c0 -11 4 -20 9 -20 5 0 17 -3 25 -6 12 -5 15 -2 10 10 -4
10 -1 16 9 16 9 0 19 5 22 10 4 6 -10 10 -34 10 -34 0 -41 -3 -41 -20z"/>
<path d="M6720 250 c0 -15 31 -33 40 -24 5 5 -1 14 -16 21 -13 6 -24 8 -24 3z"/>
<path d="M8469 247 c-1 -7 -1 -16 0 -21 1 -5 -6 -6 -16 -2 -12 4 -11 1 5 -10
12 -9 22 -22 22 -28 0 -6 14 -11 30 -12 39 -1 38 7 -2 31 -18 10 -27 20 -20
23 17 5 15 19 -3 26 -8 3 -16 0 -16 -7z"/>
<path d="M1038 243 c12 -2 30 -2 40 0 9 3 -1 5 -23 4 -22 0 -30 -2 -17 -4z"/>
<path d="M8553 243 c9 -2 25 -2 35 0 9 3 1 5 -18 5 -19 0 -27 -2 -17 -5z"/>
<path d="M8685 240 c3 -5 8 -10 11 -10 2 0 4 5 4 10 0 6 -5 10 -11 10 -5 0 -7
-4 -4 -10z"/>
<path d="M3540 232 c0 -15 22 -20 45 -11 16 6 16 8 3 8 -9 1 -23 4 -32 7 -9 3
-16 2 -16 -4z"/>
<path d="M3620 205 c0 -8 5 -15 10 -15 6 0 10 4 10 9 0 5 8 12 18 14 10 3 6 5
-10 6 -19 1 -28 -4 -28 -14z"/>
<path d="M6930 210 c0 -5 7 -7 15 -4 8 4 15 8 15 10 0 2 -7 4 -15 4 -8 0 -15
-4 -15 -10z"/>
<path d="M3487 204 c-4 -4 -4 -10 -1 -15 6 -10 34 0 34 12 0 10 -24 12 -33 3z"/>
<path d="M4610 200 c0 -5 5 -10 10 -10 6 0 10 5 10 10 0 6 -4 10 -10 10 -5 0
-10 -4 -10 -10z"/>
<path d="M8550 165 c0 -5 5 -17 10 -25 5 -8 10 -10 10 -5 0 6 -5 17 -10 25 -5
8 -10 11 -10 5z"/>
<path d="M3915 150 c-3 -5 1 -13 10 -16 22 -9 29 1 11 15 -10 8 -16 9 -21 1z"/>
<path d="M8960 148 c0 -5 11 -8 25 -8 14 0 25 3 25 8 0 4 -11 7 -25 7 -14 0
-25 -3 -25 -7z"/>
<path d="M432 143 c-12 -2 -35 -11 -50 -19 -25 -13 -26 -14 -4 -14 12 0 22 5
22 10 0 6 14 10 30 10 17 0 30 5 30 10 0 6 -1 9 -2 9 -2 -1 -13 -4 -26 -6z"/>
<path d="M3517 144 c-4 -5 -20 -10 -35 -12 -39 -5 -41 -12 -3 -12 19 0 30 -4
26 -10 -3 -5 -1 -10 5 -10 12 0 24 24 18 40 -2 6 -7 8 -11 4z"/>
<path d="M649 126 c10 -12 8 -15 -11 -19 -20 -4 -20 -4 5 -6 15 0 27 4 27 9 0
6 8 10 17 10 22 0 14 6 -21 14 -25 6 -28 5 -17 -8z"/>
<path d="M6870 130 c-13 -8 -12 -10 3 -10 9 0 17 5 17 10 0 12 -1 12 -20 0z"/>
<path d="M9145 130 c3 -5 8 -10 11 -10 2 0 4 5 4 10 0 6 -5 10 -11 10 -5 0 -7
-4 -4 -10z"/>
<path d="M9512 125 c-7 -8 -9 -15 -4 -15 5 0 15 7 22 15 16 19 -1 19 -18 0z"/>
<path d="M8880 120 c0 -6 7 -10 15 -10 8 0 15 2 15 4 0 2 -7 6 -15 10 -8 3
-15 1 -15 -4z"/>
<path d="M9178 123 c7 -3 16 -2 19 1 4 3 -2 6 -13 5 -11 0 -14 -3 -6 -6z"/>
<path d="M9340 120 c0 -5 5 -10 11 -10 5 0 7 5 4 10 -3 6 -8 10 -11 10 -2 0
-4 -4 -4 -10z"/>
<path d="M120 110 c20 -13 40 -13 40 0 0 6 -12 10 -27 10 -22 0 -25 -2 -13
-10z"/>
<path d="M3919 107 c5 -5 26 -7 47 -5 l39 3 -47 5 c-26 3 -43 1 -39 -3z"/>
<path d="M9224 109 c-3 -5 6 -9 20 -9 31 0 34 6 6 13 -11 3 -23 1 -26 -4z"/>
<path d="M9428 113 c6 -2 18 -2 25 0 6 3 1 5 -13 5 -14 0 -19 -2 -12 -5z"/>
<path d="M9580 110 c0 -5 10 -10 23 -10 18 0 19 2 7 10 -19 13 -30 13 -30 0z"/>
<path d="M9098 103 c12 -2 30 -2 40 0 9 3 -1 5 -23 4 -22 0 -30 -2 -17 -4z"/>
</g>
</svg>
