<?xml version="1.0" standalone="no"?>
<!DOCTYPE svg PUBLIC "-//W3C//DTD SVG 20010904//EN"
 "http://www.w3.org/TR/2001/REC-SVG-20010904/DTD/svg10.dtd">
<svg version="1.0" xmlns="http://www.w3.org/2000/svg"
 width="1098.000000pt" height="732.000000pt" viewBox="0 0 1098.000000 732.000000"
 preserveAspectRatio="xMidYMid meet">

<g transform="translate(0.000000,732.000000) scale(0.100000,-0.100000)"
fill="#000000" stroke="none">
<path d="M0 7120 l1 -200 40 0 c32 0 39 -3 39 -20 0 -17 7 -20 40 -20 39 0 40
-1 40 -35 l0 -35 54 0 c68 0 83 14 66 65 -10 30 -9 40 4 60 9 14 21 25 26 25
6 0 10 18 10 40 l0 40 40 0 c33 0 40 -3 40 -20 0 -13 7 -20 20 -20 17 0 20 -7
20 -39 0 -22 5 -41 11 -43 14 -5 -11 -89 -30 -96 -7 -3 -17 1 -23 9 -7 10 -8
1 -4 -28 8 -54 -7 -56 -24 -3 -11 34 -17 40 -41 40 l-28 0 16 -32 c9 -18 19
-40 23 -48 4 -8 19 -16 34 -18 19 -2 26 -10 28 -25 0 -12 2 -26 3 -32 2 -5 3
-14 4 -19 0 -5 7 -3 15 3 11 9 15 3 24 -30 9 -36 8 -43 -10 -61 -11 -11 -17
-26 -14 -34 7 -18 26 -18 26 0 0 31 21 25 56 -14 20 -22 48 -43 63 -47 14 -3
32 -11 39 -16 11 -9 11 -13 -5 -19 -14 -6 -12 -7 7 -4 14 3 36 -1 50 -9 59
-33 136 -69 142 -67 4 1 5 -5 2 -13 -5 -11 1 -15 19 -15 14 0 29 -5 32 -11 4
-6 13 -8 20 -6 15 6 48 -30 39 -44 -3 -6 4 -7 20 -3 15 3 26 2 26 -4 0 -5 21
-15 48 -22 26 -7 51 -17 57 -21 5 -5 17 -9 27 -9 11 0 38 -10 61 -22 37 -19
276 -88 302 -88 14 1 -69 34 -130 53 -103 32 -200 69 -203 78 -2 5 -9 9 -16 9
-12 0 -89 38 -258 128 -72 37 -149 91 -247 172 -13 11 -28 20 -33 20 -5 0 -13
11 -20 24 -6 14 -23 30 -38 36 l-27 11 14 67 c26 123 31 147 44 177 l12 30 7
-25 7 -25 10 25 c11 27 -5 58 -19 36 -5 -7 -8 -6 -8 5 0 23 11 30 26 18 11 -9
16 -6 23 13 5 13 16 30 25 37 9 7 16 23 15 35 0 18 -3 16 -14 -9 -13 -27 -14
-27 -15 -7 0 12 -4 22 -10 22 -5 0 -10 9 -10 21 0 14 5 19 13 16 10 -4 13 2 9
18 -2 13 3 33 11 45 15 21 15 20 10 -19 -5 -37 -4 -41 16 -41 12 0 21 -6 21
-14 0 -24 22 -30 37 -11 12 17 13 15 13 -18 0 -20 5 -37 10 -37 6 0 10 18 10
40 0 29 4 40 15 40 11 0 15 -11 15 -40 0 -27 4 -40 13 -40 22 0 40 45 32 77
-4 15 -9 49 -12 75 -4 38 -2 49 11 54 20 8 21 34 1 34 -8 0 -15 5 -15 10 0 13
17 13 26 -1 3 -6 19 -9 35 -5 22 4 27 2 23 -9 -3 -8 -14 -17 -25 -20 -23 -8
-25 -31 -3 -39 20 -8 34 1 34 20 0 8 4 14 8 14 16 0 72 -32 68 -38 -4 -7 19
-32 29 -32 17 -1 34 -14 38 -32 3 -11 10 -17 17 -13 6 3 10 3 9 -2 -3 -20 2
-33 14 -33 12 0 36 -20 65 -55 7 -8 22 -15 34 -15 12 0 40 -20 67 -48 25 -27
74 -69 108 -95 34 -26 69 -54 77 -63 9 -8 16 -11 16 -6 0 6 -37 42 -82 80 -94
80 -126 110 -148 138 -14 18 -212 195 -319 285 -41 34 -48 37 -114 38 -47 1
-74 -3 -79 -12 -6 -9 -8 -9 -8 1 0 8 -20 12 -65 12 l-65 0 0 -38 c0 -21 -7
-47 -15 -58 -16 -22 -18 -16 -15 54 l2 42 -266 0 -266 0 0 -200z m438 66 c10
-22 9 -23 -14 -12 -26 12 -33 36 -11 36 8 0 19 -11 25 -24z m49 -98 c-3 -8 -6
-5 -6 6 -1 11 2 17 5 13 3 -3 4 -12 1 -19z m100 -80 c-3 -8 -6 -5 -6 6 -1 11
2 17 5 13 3 -3 4 -12 1 -19z m-87 -2 c0 -3 -4 -8 -10 -11 -5 -3 -10 -1 -10 4
0 6 5 11 10 11 6 0 10 -2 10 -4z m-408 -58 c-9 -9 -12 -7 -12 12 0 19 3 21 12
12 9 -9 9 -15 0 -24z"/>
<path d="M9600 7218 c0 -70 3 -98 10 -88 5 8 10 36 10 63 0 40 3 47 19 47 16
0 20 -9 25 -52 2 -29 9 -75 14 -103 l8 -50 12 43 c7 23 17 42 21 42 5 0 17
-25 26 -55 15 -47 19 -53 30 -38 16 22 36 8 33 -24 -3 -24 3 -30 52 -53 8 -4
17 -16 19 -26 5 -27 21 -44 42 -44 10 0 24 -9 31 -20 7 -11 21 -20 30 -20 14
0 18 -8 18 -40 0 -28 4 -40 15 -40 8 0 26 -11 40 -25 14 -14 25 -32 25 -40 0
-11 12 -15 40 -15 l40 0 0 -40 0 -40 40 0 40 0 0 -80 0 -80 40 0 40 0 0 -62
c0 -45 3 -59 10 -48 5 8 10 36 10 63 0 40 3 47 20 47 17 0 20 -7 20 -46 0 -66
13 -84 60 -84 28 0 40 -4 40 -14 0 -8 -5 -16 -11 -18 -5 -2 -7 -11 -4 -21 6
-14 20 -17 70 -17 34 0 90 -3 124 -6 l61 -7 1 -51 c0 -28 6 -69 13 -91 l12
-40 12 47 c7 26 12 61 12 77 0 21 5 31 15 31 8 0 15 -9 15 -20 0 -17 7 -20 40
-20 33 0 40 -3 40 -20 0 -17 -7 -20 -46 -20 -32 0 -44 -4 -42 -12 6 -18 79
-23 90 -6 6 10 15 5 36 -20 29 -35 42 -40 42 -17 0 8 5 15 10 15 7 0 10 213
10 620 l0 620 -690 0 -690 0 0 -102z"/>
<path d="M9337 7292 c-10 -10 -17 -22 -17 -27 0 -5 9 1 21 14 12 12 19 24 17
27 -3 2 -12 -4 -21 -14z"/>
<path d="M880 7064 c0 -17 22 -14 28 4 2 7 -3 12 -12 12 -9 0 -16 -7 -16 -16z"/>
<path d="M408 6880 c2 -22 8 -40 13 -40 5 0 9 18 9 40 0 26 -5 40 -13 40 -9 0
-11 -12 -9 -40z"/>
<path d="M543 6825 c0 -22 2 -30 4 -17 2 12 2 30 0 40 -3 9 -5 -1 -4 -23z"/>
<path d="M242 6764 c2 -11 11 -20 22 -22 13 -3 17 1 14 14 -2 11 -11 20 -22
22 -13 3 -17 -1 -14 -14z"/>
<path d="M1470 6741 c0 -6 4 -11 8 -11 5 0 18 -9 30 -20 12 -12 22 -16 22 -11
0 5 -13 19 -30 31 -16 12 -30 17 -30 11z"/>
<path d="M167 6723 c-4 -3 -7 -15 -7 -25 0 -13 7 -18 25 -18 23 0 24 2 13 25
-11 26 -19 30 -31 18z"/>
<path d="M350 6699 c0 -11 5 -17 10 -14 6 3 10 13 10 21 0 8 -4 14 -10 14 -5
0 -10 -9 -10 -21z"/>
<path d="M3007 6713 c-13 -12 -7 -21 18 -25 13 -3 22 -1 19 3 -3 5 0 9 5 9 6
0 11 -4 11 -10 0 -5 7 -10 15 -10 8 0 15 5 15 10 0 6 8 10 18 11 14 0 14 2 -3
9 -24 10 -89 13 -98 3z"/>
<path d="M240 6690 c0 -5 7 -10 15 -10 8 0 15 5 15 10 0 6 -7 10 -15 10 -8 0
-15 -4 -15 -10z"/>
<path d="M6915 6690 c-3 -5 1 -10 9 -10 8 0 22 -10 31 -22 12 -16 19 -19 22
-10 3 6 16 12 30 12 18 0 24 5 21 18 -2 13 -15 18 -55 20 -28 2 -54 -2 -58 -8z"/>
<path d="M1560 6665 c7 -9 15 -13 17 -11 7 7 -7 26 -19 26 -6 0 -6 -6 2 -15z"/>
<path d="M1607 6629 c7 -7 15 -10 18 -7 3 3 -2 9 -12 12 -14 6 -15 5 -6 -5z"/>
<path d="M377 6603 c-14 -4 -17 -11 -13 -26 3 -12 6 -26 6 -31 0 -5 9 3 20 17
20 25 26 48 13 46 -5 -1 -16 -3 -26 -6z"/>
<path d="M3041 6586 c2 -2 26 -6 53 -9 30 -3 43 -1 35 4 -13 8 -97 13 -88 5z"/>
<path d="M10400 6258 c0 -19 2 -20 10 -8 13 19 13 30 0 30 -5 0 -10 -10 -10
-22z"/>
<path d="M2 6239 c2 -15 17 -30 43 -44 22 -11 42 -23 43 -27 2 -5 14 -8 26 -8
12 0 31 -6 42 -14 11 -8 48 -28 82 -46 35 -17 61 -37 59 -43 -2 -7 2 -18 10
-25 10 -10 10 -19 2 -33 -5 -11 -7 -29 -4 -40 4 -11 2 -25 -3 -32 -8 -10 -14
-54 -27 -207 -3 -42 -7 -46 -15 -20 -7 21 -8 19 -9 -17 -1 -24 4 -43 10 -43 5
0 7 -5 3 -12 -4 -6 -9 -55 -10 -107 -2 -53 -5 -164 -8 -248 -6 -170 4 -218 48
-229 14 -3 32 -14 42 -25 9 -10 23 -19 30 -19 7 0 14 -4 16 -8 2 -4 35 -25 73
-46 39 -21 84 -49 102 -62 31 -24 73 -32 73 -15 0 5 -8 11 -17 14 -26 9 -124
68 -165 100 -19 15 -38 27 -42 27 -3 0 -29 17 -57 38 l-51 37 6 185 c7 209 27
447 51 601 9 57 19 120 22 140 l5 37 37 -10 c20 -5 55 -18 78 -29 46 -20 63
-24 63 -11 0 16 -69 51 -114 57 -33 5 -46 12 -47 24 0 14 -1 14 -7 -1 -6 -15
-19 -11 -107 33 -55 28 -120 61 -144 75 -24 13 -48 24 -53 24 -5 0 -27 12 -49
26 l-41 25 4 -22z"/>
<path d="M10480 6185 c0 -12 16 -15 80 -15 64 0 80 3 80 15 0 12 -16 15 -80
15 -64 0 -80 -3 -80 -15z"/>
<path d="M8717 6110 c-9 -11 -12 -20 -7 -20 5 0 9 -10 8 -22 -2 -19 -9 -23
-37 -25 l-36 -3 25 20 c30 23 19 27 -15 4 -15 -10 -22 -22 -18 -32 4 -13 3
-14 -5 -3 -8 11 -14 9 -31 -8 -26 -26 -28 -51 -2 -27 14 13 21 14 27 5 4 -7 0
-17 -9 -24 -10 -7 -17 -19 -17 -27 0 -9 -13 -21 -30 -28 -16 -7 -30 -20 -30
-29 0 -14 -2 -14 -10 -1 -8 13 -11 13 -19 1 -5 -7 -14 -10 -21 -6 -7 4 -13 -1
-17 -14 -3 -12 -18 -28 -34 -36 -37 -20 -42 -19 -34 5 6 19 -10 30 -17 11 -5
-13 -106 -91 -118 -91 -11 0 -10 -576 4 -2690 l3 -475 257 -2 257 -2 -6 432
c-3 238 -10 1019 -16 1737 -5 718 -13 1314 -17 1325 -5 16 -8 11 -13 -20 l-6
-40 -2 47 c-1 37 3 48 17 51 13 4 13 5 2 6 -9 0 -23 -8 -33 -19z m-70 -172
c-3 -8 -6 -5 -6 6 -1 11 2 17 5 13 3 -3 4 -12 1 -19z m84 -61 c-10 -9 -11 -8
-5 6 3 10 9 15 12 12 3 -3 0 -11 -7 -18z m-351 -67 c0 -5 -5 -10 -11 -10 -5 0
-7 5 -4 10 3 6 8 10 11 10 2 0 4 -4 4 -10z"/>
<path d="M350 6106 c0 -2 7 -6 15 -10 8 -3 15 -1 15 4 0 6 -7 10 -15 10 -8 0
-15 -2 -15 -4z"/>
<path d="M1520 6092 c0 -4 10 -12 23 -17 l22 -10 8 -444 c6 -332 12 -449 21
-463 11 -15 14 22 19 209 4 124 7 335 7 468 l0 243 -44 11 c-53 13 -56 13 -56
3z"/>
<path d="M8058 6083 c7 -3 16 -2 19 1 4 3 -2 6 -13 5 -11 0 -14 -3 -6 -6z"/>
<path d="M7980 6060 c-13 -9 -13 -10 0 -10 8 0 22 5 30 10 13 9 13 10 0 10 -8
0 -22 -5 -30 -10z"/>
<path d="M2288 6043 c7 -3 16 -2 19 1 4 3 -2 6 -13 5 -11 0 -14 -3 -6 -6z"/>
<path d="M2375 6035 c33 -7 67 -14 75 -15 11 -1 10 -3 -3 -9 -10 -4 -17 -9
-15 -12 2 -3 -3 -13 -11 -22 -12 -15 -10 -17 20 -18 19 -1 40 -1 47 0 6 1 12
-3 12 -9 0 -5 -10 -10 -22 -11 -21 -1 -20 -2 7 -14 17 -8 41 -14 55 -15 34 0
60 -33 60 -75 0 -53 28 -47 33 8 2 23 4 -103 5 -280 1 -178 5 -323 10 -323 4
0 7 -46 8 -103 0 -59 -2 -91 -7 -77 -5 19 -7 11 -8 -30 0 -41 2 -51 10 -40 7
10 8 -134 3 -470 -5 -267 -7 -586 -7 -710 1 -163 -2 -227 -10 -233 -9 -7 -9
-10 1 -14 6 -2 12 -14 11 -26 0 -21 -1 -21 -9 -2 -7 16 -9 14 -9 -15 -1 -19
-4 -46 -7 -60 -6 -24 -6 -25 9 -5 15 19 16 18 5 -12 -13 -34 -28 -44 -28 -18
0 8 -4 15 -10 15 -5 0 -10 -7 -10 -16 0 -13 -3 -14 -14 -5 -11 9 -15 9 -19 -1
-3 -7 -6 2 -6 20 -1 20 -5 31 -11 27 -6 -4 -8 -15 -5 -26 4 -11 2 -19 -4 -19
-6 0 -11 -7 -11 -15 0 -8 7 -15 15 -15 13 0 13 -3 3 -20 -7 -11 -20 -20 -30
-20 -9 0 -19 -8 -21 -17 -3 -10 -5 4 -6 31 -1 32 4 53 13 60 8 6 16 22 18 36
3 22 0 25 -24 22 -22 -3 -27 0 -22 12 8 20 -10 21 -26 2 -6 -8 -18 -12 -26 -9
-8 3 -14 0 -14 -6 0 -6 5 -11 10 -11 6 0 10 -7 10 -15 0 -8 -5 -15 -11 -15 -6
0 -8 -8 -4 -18 3 -11 -1 -33 -8 -50 l-13 -31 -19 30 c-25 36 -38 38 -25 3 12
-32 12 -34 0 -34 -5 0 -10 11 -10 25 0 14 -6 25 -12 25 -9 0 -8 4 2 10 8 5 13
10 10 11 -3 0 -14 2 -25 4 -10 2 -25 -1 -32 -7 -9 -7 -13 -7 -13 1 0 6 12 16
26 21 18 7 24 15 20 26 -3 9 -6 20 -6 25 0 5 -9 9 -20 9 -13 0 -20 -7 -20 -19
0 -10 -6 -19 -12 -18 -31 1 -48 -4 -48 -13 0 -5 8 -10 18 -11 14 0 14 -2 -3
-9 -18 -7 -18 -9 -3 -15 13 -5 16 -16 14 -38 -2 -18 2 -37 11 -46 14 -13 14
-16 -3 -21 -17 -6 -17 -7 0 -13 10 -4 24 -3 31 3 14 12 26 3 19 -15 -3 -7 2
-25 12 -40 9 -14 14 -28 11 -32 -4 -3 -11 6 -16 21 -6 14 -18 26 -26 26 -19 0
-47 -25 -38 -34 4 -3 -1 -6 -10 -6 -9 0 -26 9 -36 19 -18 18 -18 20 -1 37 10
11 20 31 24 47 6 26 4 27 -29 27 -25 0 -35 4 -35 16 0 49 -67 104 -127 104
-30 0 -93 -33 -106 -56 -12 -20 -26 -17 -20 4 2 11 -2 36 -11 56 -13 32 -20
37 -43 34 -21 -2 -29 -9 -31 -28 -1 -14 -5 -36 -8 -50 l-6 -25 -11 25 c-9 23
-10 23 -15 5 -2 -11 -9 -24 -16 -28 -7 -6 -5 -7 6 -4 19 7 29 -12 21 -41 -3
-13 -16 -23 -32 -25 -14 -3 19 -3 75 0 100 5 101 5 107 -18 4 -13 7 -34 7 -47
0 -13 9 -33 21 -45 l21 -22 -4 38 c-5 43 -2 44 33 14 35 -32 41 -61 17 -89
-17 -20 -17 -24 -4 -33 11 -8 15 -33 17 -87 2 -86 -2 -98 -36 -98 -30 0 -49
40 -58 122 -9 90 -49 150 -79 120 -19 -19 -25 -240 -6 -247 38 -15 185 -32
201 -23 18 9 23 28 7 28 -6 0 -10 40 -10 100 0 77 3 100 13 98 7 -2 13 2 13 7
0 6 -5 9 -11 8 -7 -2 -9 11 -6 35 4 26 6 30 9 15 4 -26 24 -30 42 -8 11 13 14
13 27 0 8 -8 21 -15 29 -15 8 0 15 -7 15 -15 3 -36 5 -40 22 -37 11 2 15 -2
11 -13 -3 -8 -7 -15 -8 -15 0 0 -25 9 -53 20 -52 19 -68 15 -38 -10 8 -7 15
-10 15 -6 0 4 14 -1 31 -9 17 -9 37 -14 45 -11 9 3 12 1 9 -5 -4 -6 1 -17 11
-24 15 -12 16 -15 4 -16 -8 -1 -21 -1 -28 0 -19 3 -8 -43 12 -47 9 -2 24 2 33
10 15 11 16 11 10 -5 -4 -12 -1 -20 11 -24 48 -16 133 -60 187 -96 74 -50 236
-213 280 -281 34 -55 75 -162 75 -199 0 -22 3 -22 128 -25 70 -1 150 0 177 3
l51 6 -1 69 c0 40 4 70 10 70 6 0 3 5 -5 10 -12 7 -15 32 -15 112 0 57 -4 121
-9 143 -6 29 -5 37 3 29 6 -5 13 -28 16 -50 2 -21 9 -74 15 -117 5 -43 10 -96
10 -118 0 -40 14 -53 24 -21 3 9 -3 79 -12 154 l-18 138 21 -6 c11 -4 22 -8
24 -10 3 -2 7 -54 9 -114 3 -61 9 -113 13 -116 9 -5 -18 -50 -53 -88 -21 -23
-24 -56 -4 -56 7 0 16 -10 19 -21 5 -17 11 -20 29 -15 13 4 151 9 308 12 157
3 289 9 294 15 6 5 -12 9 -50 10 -48 1 -53 3 -29 9 24 6 17 8 -35 10 -36 1
-75 2 -87 3 -18 0 -23 6 -23 26 0 14 -3 36 -6 47 -5 19 0 22 38 28 67 9 436
36 506 36 34 0 62 4 62 9 0 12 19 156 26 199 4 29 8 32 27 26 30 -9 31 -11 58
-135 21 -100 25 -109 46 -109 24 0 30 19 13 36 -5 5 -7 32 -3 64 5 42 8 49 13
30 5 -20 8 -14 19 34 12 52 15 57 34 51 12 -4 34 -8 49 -9 44 -4 14 23 -33 30
-22 4 -39 10 -39 14 0 7 -67 17 -169 26 -24 2 -49 8 -55 13 -6 5 -26 12 -43
16 -37 7 -44 36 -18 65 14 15 6 16 -103 12 -64 -2 -157 -7 -207 -11 -49 -5
-94 -5 -100 -2 -5 3 -37 6 -70 6 -33 1 -98 3 -145 5 l-85 4 115 6 115 6 -170
3 c-106 2 -157 6 -135 11 l35 7 -35 1 c-35 1 -100 -26 -70 -29 8 -1 21 -1 28
0 6 1 20 -3 30 -8 13 -8 7 -10 -28 -11 l-45 0 25 -23 c14 -12 21 -19 16 -14
-16 11 -26 8 -26 -8 0 -23 -28 -30 -49 -11 -23 21 -28 126 -6 126 8 0 15 5 15
10 0 9 -17 14 -47 13 -17 -1 -45 60 -31 68 6 4 -3 10 -21 14 -25 5 -31 12 -31
32 0 19 4 24 17 19 19 -8 275 -47 279 -43 9 9 12 65 5 106 -4 27 -4 56 1 65 5
8 9 139 9 290 -1 241 1 275 15 280 9 4 14 13 10 21 -3 8 0 15 6 15 7 0 5 6 -4
13 -32 24 -39 214 -43 1103 -1 390 -6 772 -10 850 l-8 141 -365 6 c-201 4
-368 11 -371 16 -3 5 -53 12 -111 15 -58 4 -134 9 -170 11 l-65 4 60 -14z
m355 -2599 c0 -8 -7 -16 -15 -20 -13 -4 -14 -2 -5 14 13 23 20 26 20 6z m-55
-26 c3 -5 -1 -10 -9 -10 -9 0 -16 5 -16 10 0 6 4 10 9 10 6 0 13 -4 16 -10z
m-35 -20 c0 -5 -4 -10 -10 -10 -5 0 -10 -7 -10 -17 0 -9 -3 -14 -6 -10 -8 8 5
47 17 47 5 0 9 -4 9 -10z m-350 -17 c0 -10 -6 -13 -16 -9 -9 3 -20 6 -25 6 -5
0 -9 4 -9 9 0 5 11 9 25 9 15 0 25 -6 25 -15z m50 -57 c0 -3 -4 -8 -10 -11 -5
-3 -10 -1 -10 4 0 6 5 11 10 11 6 0 10 -2 10 -4z m190 -30 c0 -2 -9 -6 -20 -9
-11 -3 -18 -1 -14 4 5 9 34 13 34 5z m-271 -92 c-6 -8 -19 -14 -28 -13 -10 0
-11 2 -3 6 6 2 12 14 12 25 0 17 2 18 15 8 12 -10 13 -16 4 -26z m536 6 c3 -5
-1 -10 -10 -10 -9 0 -13 5 -10 10 3 6 8 10 10 10 2 0 7 -4 10 -10z m-888 -76
c11 -39 17 -133 6 -104 -4 9 -11 1 -19 -25 l-12 -40 -1 32 c-1 17 -5 35 -11
38 -11 7 -14 104 -4 130 10 25 28 12 41 -31z m363 9 c0 -10 -4 -14 -8 -8 -4 6
-11 13 -16 18 -5 4 -2 7 7 7 10 0 17 -8 17 -17z m895 -144 c9 -17 14 -38 12
-47 -4 -14 -5 -13 -6 3 -1 11 -8 29 -16 39 -15 20 -19 36 -10 36 2 0 12 -14
20 -31z m-532 -14 c-20 -27 -29 -30 -38 -15 -3 6 -1 10 5 10 6 0 18 7 26 15
23 23 27 18 7 -10z m577 -64 c0 -5 -8 -12 -17 -16 -17 -6 -17 -7 -1 -19 10 -7
15 -16 11 -19 -3 -4 1 -7 10 -7 10 0 17 -5 17 -11 0 -7 -10 -5 -25 5 -13 9
-32 16 -41 16 -13 0 -14 3 -4 15 6 8 9 18 6 24 -5 8 8 15 37 20 4 0 7 -3 7 -8z
m125 -82 c11 -11 -19 -12 -64 -3 -17 4 -28 11 -25 16 6 10 74 0 89 -13z m129
-34 c62 -10 33 -17 -38 -10 -36 4 -63 11 -60 16 2 5 17 6 32 4 15 -2 44 -7 66
-10z m936 8 c0 -5 -5 -15 -10 -23 -8 -12 -10 -11 -10 8 0 12 5 22 10 22 6 0
10 -3 10 -7z m-270 -36 c0 -12 6 -50 14 -85 l13 -63 -31 3 c-34 3 -35 4 -21
121 6 54 25 72 25 24z m-561 -44 c30 -36 57 -124 49 -161 -3 -9 -8 8 -12 38
-8 58 -23 88 -64 133 -14 15 -21 27 -15 27 7 0 25 -17 42 -37z m641 -58 c0
-36 -3 -65 -7 -65 -5 0 -6 29 -5 65 2 36 6 65 8 65 2 0 4 -29 4 -65z m-1063
13 c-3 -8 -6 -5 -6 6 -1 11 2 17 5 13 3 -3 4 -12 1 -19z m413 -212 c0 -47 -3
-56 -21 -61 -21 -7 -49 16 -29 23 6 2 10 10 10 18 0 9 5 12 10 9 15 -9 12 4
-4 20 -10 10 -16 11 -25 2 -8 -8 -11 -6 -11 10 0 16 7 23 28 26 15 2 30 5 35
6 4 0 7 -23 7 -53z m-154 -42 c-5 -20 -12 -24 -36 -22 -29 2 -40 21 -20 33 6
3 10 1 10 -6 0 -6 10 1 22 16 24 30 34 21 24 -21z"/>
<path d="M7918 6043 c6 -2 18 -2 25 0 6 3 1 5 -13 5 -14 0 -19 -2 -12 -5z"/>
<path d="M7770 6030 c-30 -5 -85 -8 -121 -9 -81 -1 -131 -10 -123 -23 3 -5 22
-6 42 -3 28 4 32 3 17 -4 -14 -7 -16 -10 -5 -11 10 -1 9 -4 -5 -9 -30 -12 205
-13 240 -1 25 8 21 9 -27 6 -44 -4 -58 -1 -58 9 0 10 14 12 58 9 49 -4 54 -3
32 7 -24 12 -23 13 22 19 26 3 50 9 54 13 9 9 -51 7 -126 -3z"/>
<path d="M590 5973 c0 -5 11 -13 25 -20 27 -12 33 -5 13 15 -13 13 -38 16 -38
5z"/>
<path d="M8490 5930 c-9 -6 -10 -10 -3 -10 6 0 15 5 18 10 8 12 4 12 -15 0z"/>
<path d="M7521 5494 c2 -308 4 -391 10 -314 9 108 4 719 -6 728 -3 3 -4 -183
-4 -414z"/>
<path d="M10363 5613 c-24 -2 -43 -8 -43 -13 0 -6 48 -7 120 -3 88 4 120 3
120 -5 0 -8 -26 -12 -80 -12 -47 0 -80 -4 -80 -10 0 -6 -27 -10 -61 -10 -40 0
-58 -4 -54 -11 4 -6 -3 -13 -15 -16 -13 -3 -19 -11 -16 -19 6 -16 -10 -19 -19
-4 -8 13 -36 -1 -70 -36 -19 -19 -33 -24 -55 -20 -17 2 -30 0 -30 -6 0 -5 -7
-16 -15 -25 -8 -8 -13 -18 -10 -23 3 -4 -5 -8 -18 -8 -12 -1 -42 -5 -67 -9
-37 -7 -46 -12 -48 -32 -2 -13 2 -28 10 -32 9 -6 9 -9 1 -9 -6 0 -14 4 -18 10
-3 5 -12 7 -20 4 -8 -4 -12 -10 -9 -15 5 -9 -35 -14 -83 -11 -25 1 -31 -13
-10 -21 7 -3 5 -6 -5 -6 -10 -1 -18 -6 -18 -12 0 -5 -4 -7 -10 -4 -5 3 -10 1
-10 -4 0 -6 -10 -11 -22 -11 -13 -1 -34 -8 -48 -16 -14 -8 -17 -13 -7 -10 9 3
17 1 17 -5 0 -7 -17 -9 -47 -6 -27 3 -40 3 -30 1 24 -7 22 -28 -3 -21 -24 6
-27 -8 -4 -21 12 -7 5 -13 -34 -30 -28 -12 -54 -22 -58 -22 -4 0 -26 -9 -48
-19 -82 -39 -151 -62 -154 -52 -2 5 -10 7 -18 4 -11 -4 -12 -8 -5 -13 6 -3
-46 -31 -116 -60 -71 -30 -173 -73 -228 -97 l-100 -42 0 -543 c0 -299 2 -691
5 -873 l5 -329 45 -3 c87 -6 205 -25 211 -34 3 -5 29 -12 58 -16 35 -4 48 -9
39 -15 -8 -5 5 -6 31 -2 26 4 42 3 38 -2 -3 -5 17 -10 45 -11 l50 -2 -23 25
c-23 25 -23 26 -5 40 17 12 17 14 3 20 -10 3 -17 10 -17 15 0 4 6 6 14 3 15
-6 30 22 20 38 -6 9 -56 4 -90 -9 -8 -3 -14 -1 -14 5 0 5 9 12 20 15 16 4 20
11 16 32 -3 15 -1 37 4 50 7 20 6 22 -11 18 -10 -3 -19 0 -19 6 0 6 8 11 18
11 13 0 14 2 4 9 -10 6 -3 10 22 15 20 4 36 11 36 16 0 12 -13 13 -25 1 -13
-11 -77 -2 -69 11 3 5 14 6 25 3 23 -8 26 10 3 19 -8 3 -12 10 -9 16 4 6 11 8
16 5 5 -4 9 1 9 9 0 9 -4 16 -9 16 -5 0 -14 14 -20 30 -11 34 -5 37 26 15 17
-12 23 -12 32 -1 6 7 8 16 4 19 -3 4 3 7 14 7 16 0 21 -6 19 -24 -1 -17 -4
-21 -13 -15 -16 14 -23 -11 -9 -34 9 -14 7 -21 -6 -31 -25 -18 -23 -23 13 -31
21 -5 27 -10 19 -15 -7 -4 -10 -12 -6 -18 3 -6 -1 -17 -9 -26 -11 -11 -12 -17
-3 -22 8 -5 6 -10 -8 -15 -17 -6 -18 -7 -1 -13 51 -18 53 -19 30 -23 -13 -3
-23 -8 -23 -13 0 -5 -8 -11 -17 -13 -13 -3 -11 -5 7 -7 14 -1 29 -2 33 -1 4 1
10 -6 13 -14 4 -8 12 -15 20 -15 8 0 14 -10 14 -25 0 -16 -6 -25 -15 -25 -8 0
-15 7 -15 15 0 8 -4 15 -10 15 -13 0 -13 -17 0 -25 6 -4 8 -10 5 -15 -3 -4 5
-11 18 -15 21 -7 21 -8 -6 -12 -23 -4 -26 -7 -16 -19 6 -8 20 -14 31 -14 10 0
21 -7 24 -15 4 -8 17 -15 30 -15 13 0 24 -4 24 -10 0 -5 7 -10 15 -10 8 0 15
-4 15 -9 0 -17 42 -24 51 -10 6 11 11 11 21 1 9 -9 9 -12 -1 -12 -19 0 8 -24
51 -44 36 -17 48 -36 89 -133 8 -18 17 -33 21 -33 5 0 8 -4 8 -10 0 -5 -13
-10 -30 -10 -16 0 -30 -5 -30 -11 0 -7 9 -9 21 -6 41 11 60 -31 75 -158 2 -20
-4 -56 -30 -175 -8 -36 -13 -67 -11 -70 2 -3 -17 -3 -41 -1 -24 1 -41 7 -38
12 9 15 -53 10 -66 -6 -25 -30 13 -49 143 -70 20 -3 37 -10 37 -15 0 -19 -219
-7 -490 26 -134 16 -224 36 -378 83 -568 174 -645 195 -672 181 -12 -6 -20 -7
-20 -1 0 5 -8 9 -19 8 -16 -1 -15 -5 10 -28 l29 -27 -2 -269 c-1 -147 -4 -243
-8 -213 -5 46 -7 50 -11 25 l-6 -30 -2 28 c-1 25 -21 41 -21 17 0 -6 -7 -26
-15 -46 -12 -30 -17 -33 -33 -25 -29 16 -100 -6 -105 -33 -2 -11 -5 -2 -6 22
0 23 -11 63 -22 87 -26 56 -120 142 -172 157 l-37 11 37 21 c21 12 48 37 61
56 l24 35 -6 235 c-3 129 -9 361 -14 515 -9 351 -9 414 1 655 8 182 7 197 -11
230 -27 49 -63 72 -121 78 -54 5 -95 -13 -69 -29 9 -6 6 -9 -9 -9 -15 0 -23
-6 -24 -17 -3 -71 4 -429 8 -437 12 -19 18 -876 7 -981 -3 -33 -6 -106 -7
-162 0 -56 -4 -100 -8 -97 -23 14 -5 -36 21 -61 31 -30 41 -61 16 -52 -10 4
-12 0 -9 -14 3 -11 0 -19 -7 -19 -6 0 -11 -10 -10 -22 3 -39 0 -49 -11 -42 -7
4 -9 0 -5 -12 6 -20 -24 -64 -44 -64 -7 0 -10 -6 -7 -13 3 -8 -3 -33 -13 -55
-11 -23 -16 -42 -13 -42 3 0 0 -6 -6 -14 -6 -7 -12 -31 -13 -53 -1 -37 -3 -39
-30 -35 -15 2 -28 0 -28 -5 0 -11 66 -33 96 -33 11 0 39 -10 65 -23 25 -13 66
-29 92 -37 26 -7 50 -17 53 -21 3 -5 20 -9 37 -9 24 0 28 -3 17 -10 -15 -10 3
-12 115 -15 45 -1 88 -23 80 -42 -2 -7 0 -13 5 -13 6 0 28 -19 50 -41 29 -30
46 -40 60 -36 27 7 25 -1 -2 -13 -23 -9 -23 -9 2 -9 29 -1 45 8 53 29 3 8 7
-21 8 -65 1 -44 3 -89 4 -100 1 -11 -2 -30 -6 -42 -6 -15 -3 -23 6 -27 8 -3
12 -12 9 -21 -3 -8 -10 -12 -15 -9 -5 3 -6 10 -3 16 4 7 2 8 -4 4 -7 -4 -27 5
-46 19 -32 24 -34 25 -29 6 6 -25 -12 -28 -34 -6 -9 10 -27 14 -50 11 -25 -2
-45 3 -69 19 -19 13 -42 21 -53 18 -10 -2 -24 1 -32 9 -8 7 -40 33 -71 57 -32
24 -58 47 -58 51 0 4 -9 10 -20 13 -31 8 -24 -4 28 -50 68 -61 112 -96 112
-88 0 3 11 -5 24 -19 13 -15 31 -26 41 -26 10 0 16 -3 12 -6 -5 -6 79 -94 90
-94 6 0 23 -15 98 -86 21 -19 40 -34 43 -34 13 0 117 -99 106 -100 -7 0 -30
18 -53 40 -41 40 -64 49 -76 30 -3 -5 1 -10 9 -10 9 0 16 -4 16 -8 0 -5 10
-19 21 -31 17 -18 19 -25 8 -31 -7 -5 -17 -6 -23 -3 -5 3 -6 1 -2 -5 15 -25
-15 -11 -51 23 -60 57 -66 44 -8 -17 11 -11 13 -17 5 -13 -25 14 -114 89 -129
108 -7 10 -19 16 -27 13 -9 -3 -14 1 -14 13 0 12 -10 21 -25 25 -14 4 -23 11
-20 16 6 10 -42 46 -51 37 -11 -11 16 -45 41 -51 14 -4 25 -13 25 -20 0 -8 15
-24 33 -35 28 -17 157 -138 157 -147 0 -2 -7 -1 -15 2 -21 8 -19 -13 3 -25 15
-9 15 -10 0 -11 -14 0 -13 -4 5 -25 12 -13 24 -20 25 -15 6 16 22 11 22 -5 0
-8 4 -15 10 -15 5 0 13 -12 16 -27 4 -15 13 -38 20 -52 8 -14 14 -30 14 -34 0
-5 9 -20 19 -34 11 -13 17 -31 14 -40 -6 -14 59 -83 79 -83 4 0 8 -5 8 -12 0
-19 73 -79 84 -68 18 18 27 11 14 -10 -16 -25 -26 -25 -47 -1 -10 11 -30 23
-47 27 -27 7 -26 4 24 -44 28 -29 52 -57 52 -63 0 -5 4 -8 9 -5 5 4 21 -7 34
-24 14 -16 30 -30 34 -30 5 0 22 -18 39 -40 16 -22 34 -40 39 -40 14 -1 81
-70 68 -70 -7 0 -15 4 -18 10 -3 5 -11 10 -18 10 -15 0 25 -29 41 -30 6 0 40
-27 74 -60 81 -79 105 -77 34 3 -31 34 -56 65 -56 70 0 17 42 6 47 -13 3 -12
14 -20 27 -21 20 0 20 -1 1 -9 l-20 -8 20 -7 c37 -13 90 -40 96 -49 4 -5 14
-6 23 -3 10 4 16 1 16 -8 0 -24 18 -17 22 7 3 21 9 23 64 23 51 0 58 -2 47
-13 -7 -7 -13 -17 -13 -22 0 -5 89 -9 200 -9 144 0 200 3 200 12 0 8 3 8 12
-1 9 -9 189 -12 750 -12 l738 0 0 2014 c0 1602 -3 2015 -12 2019 -10 4 -10 6
0 6 15 1 17 131 2 131 -5 0 -10 7 -10 15 0 18 -12 19 -28 3 -9 -9 -12 7 -12
76 0 48 -5 97 -11 108 -6 11 -11 49 -10 84 0 36 -4 64 -9 64 -6 0 -10 10 -10
23 0 13 -6 29 -12 36 -10 11 -10 14 0 18 6 3 12 14 12 26 0 22 0 22 18 -1 l18
-23 10 23 c6 13 8 83 6 161 -4 137 -4 137 -28 137 -22 0 -24 4 -24 55 0 48 2
55 20 55 11 0 20 -7 20 -15 0 -8 9 -15 20 -15 11 0 20 7 20 15 0 9 -9 15 -22
15 l-21 0 7 224 6 224 -25 6 c-14 4 -25 11 -25 16 0 6 -35 10 -82 10 -84 0
-158 14 -158 30 0 4 -12 13 -27 18 l-28 10 28 7 c36 10 34 31 -4 39 -32 6
-170 6 -246 -1z m477 -143 c0 -13 -11 -13 -30 0 -12 8 -11 10 8 10 12 0 22 -4
22 -10z m40 -30 c0 -5 -7 -10 -15 -10 -8 0 -15 5 -15 10 0 6 7 10 15 10 8 0
15 -4 15 -10z m-543 -6 c-3 -3 -12 -4 -19 -1 -8 3 -5 6 6 6 11 1 17 -2 13 -5z
m-371 -111 c-4 -4 -11 -1 -16 7 -16 25 -11 35 7 17 9 -9 13 -20 9 -24z m-16
-33 c-8 -5 -19 -10 -25 -10 -5 0 -3 5 5 10 8 5 20 10 25 10 6 0 3 -5 -5 -10z
m-63 -26 c-3 -3 -12 -4 -19 -1 -8 3 -5 6 6 6 11 1 17 -2 13 -5z m-160 -40 c-3
-3 -12 -4 -19 -1 -8 3 -5 6 6 6 11 1 17 -2 13 -5z m8 -23 c-6 -5 -21 -11 -35
-15 -21 -5 -20 -3 5 9 35 17 42 18 30 6z m1142 -503 c-2 -13 -4 -3 -4 22 0 25
2 35 4 23 2 -13 2 -33 0 -45z m-1273 -744 c3 -8 2 -12 -4 -9 -6 3 -10 10 -10
16 0 14 7 11 14 -7z m-34 -68 c0 -3 -4 -8 -10 -11 -5 -3 -10 -1 -10 4 0 6 5
11 10 11 6 0 10 -2 10 -4z m574 -86 l6 -35 -15 30 c-8 17 -14 41 -14 55 0 23
1 23 8 5 5 -11 11 -36 15 -55z m-316 26 c-10 -7 -18 -18 -18 -23 0 -6 -6 -16
-13 -22 -8 -6 -14 -25 -15 -42 0 -18 -7 -36 -14 -41 -9 -7 -10 -11 -2 -14 7
-3 10 -14 7 -24 -3 -12 0 -20 8 -20 8 0 6 -5 -5 -13 -16 -12 -17 -15 -4 -20
11 -4 16 -20 16 -49 l1 -43 -17 50 c-13 37 -21 49 -34 47 -11 -2 -18 3 -18 14
0 10 5 14 15 10 15 -5 21 15 8 28 -16 16 -9 91 11 114 15 17 22 19 28 10 5 -9
8 -3 8 14 0 17 6 28 18 31 32 8 37 6 20 -7z m-394 -11 c-4 -8 -8 -15 -10 -15
-2 0 -4 7 -4 15 0 8 4 15 10 15 5 0 7 -7 4 -15z m-87 -17 c-3 -8 -6 -5 -6 6
-1 11 2 17 5 13 3 -3 4 -12 1 -19z m33 -28 c0 -16 -4 -30 -10 -30 -11 0 -14
43 -3 53 11 12 13 8 13 -23z m-230 -16 c0 -8 -5 -12 -10 -9 -6 4 -8 11 -5 16
9 14 15 11 15 -7z m47 3 c-3 -7 4 -19 14 -25 24 -15 25 -33 2 -25 -10 3 -3 -9
16 -26 18 -18 36 -29 39 -26 3 3 -2 11 -10 18 -19 14 -35 77 -20 77 5 0 13
-16 17 -36 4 -24 13 -38 26 -41 20 -6 20 -6 -1 -25 -26 -25 -26 -40 3 -33 19
5 22 2 24 -30 1 -19 9 -43 19 -52 11 -11 13 -18 5 -21 -17 -6 -13 -22 7 -23 9
0 12 -3 6 -5 -6 -3 -23 0 -39 6 -22 8 -25 13 -16 24 13 16 7 22 -37 37 l-27 9
27 -4 c15 -1 33 1 40 5 10 7 9 9 -4 9 -11 0 -15 5 -12 14 3 9 -4 15 -23 19
-33 6 -50 -2 -32 -15 11 -7 9 -8 -4 -4 -10 3 -35 6 -54 6 -42 0 -39 9 3 15 16
2 31 4 34 4 3 1 -2 6 -10 12 -11 7 -7 9 19 7 42 -4 50 14 16 32 -15 8 -29 26
-32 41 -3 18 -10 26 -19 22 -19 -7 -18 3 3 27 20 23 27 26 20 7z m143 3 c0 -5
-2 -10 -4 -10 -3 0 -8 5 -11 10 -3 6 -1 10 4 10 6 0 11 -4 11 -10z m101 -42
c-10 -9 -12 -9 -7 -1 4 7 -2 17 -14 23 -11 6 -18 16 -14 22 4 6 14 2 27 -11
18 -17 19 -23 8 -33z m154 32 c3 -5 1 -10 -4 -10 -6 0 -11 5 -11 10 0 6 2 10
4 10 3 0 8 -4 11 -10z m549 -5 c3 -8 1 -15 -4 -15 -6 0 -10 7 -10 15 0 8 2 15
4 15 2 0 6 -7 10 -15z m276 11 c0 -2 -11 -11 -25 -20 -28 -19 -33 -15 -9 8 14
15 34 22 34 12z m-890 -10 c0 -3 -4 -8 -10 -11 -5 -3 -10 -1 -10 4 0 6 5 11
10 11 6 0 10 -2 10 -4z m596 -66 c8 0 11 -6 7 -16 -5 -14 -8 -14 -24 3 -19 19
-32 67 -21 78 4 4 11 -9 15 -29 5 -20 15 -36 23 -36z m-766 28 c0 -4 10 -8 23
-8 18 0 19 2 7 10 -20 13 -4 13 21 0 22 -12 26 -32 4 -24 -8 4 -15 2 -15 -4 0
-6 6 -12 13 -15 6 -2 9 -8 5 -12 -4 -4 -14 0 -23 9 -18 18 -30 21 -20 7 3 -5
1 -12 -5 -16 -6 -4 -8 -10 -5 -14 2 -5 -7 -6 -20 -3 -14 2 -26 9 -27 16 0 6
-2 16 -2 21 -1 6 -5 16 -9 23 -5 6 -4 12 1 12 6 0 15 -14 21 -31 6 -17 15 -28
20 -25 10 6 3 46 -8 46 -3 0 -12 9 -19 20 -11 18 -10 19 13 8 14 -6 25 -15 25
-20z m447 -25 c-3 -10 -5 -4 -5 12 0 17 2 24 5 18 2 -7 2 -21 0 -30z m-215
-45 c-6 -6 -8 -1 -7 14 3 32 7 36 12 14 3 -10 1 -22 -5 -28z m513 -17 c-10
-16 -25 -3 -25 22 0 20 1 20 16 5 9 -9 13 -21 9 -27z m-980 11 c-3 -3 -11 0
-18 7 -9 10 -8 11 6 5 10 -3 15 -9 12 -12z m779 6 c-3 -4 -11 -5 -19 -1 -21 7
-19 12 4 10 11 0 18 -5 15 -9z m-489 -8 c-3 -5 -10 -10 -16 -10 -5 0 -9 5 -9
10 0 6 7 10 16 10 8 0 12 -4 9 -10z m40 -51 c-7 -21 -32 -20 -27 1 2 7 -3 17
-9 21 -10 6 -10 11 1 23 12 15 14 15 27 -4 8 -11 11 -29 8 -41z m505 51 c0 -5
-2 -10 -4 -10 -3 0 -8 5 -11 10 -3 6 -1 10 4 10 6 0 11 -4 11 -10z m100 -50
c0 -11 -2 -20 -4 -20 -2 0 -6 9 -9 20 -3 11 -1 20 4 20 5 0 9 -9 9 -20z m-410
0 c0 -5 -4 -10 -10 -10 -5 0 -10 5 -10 10 0 6 5 10 10 10 6 0 10 -4 10 -10z
m377 -27 c-3 -10 -5 -4 -5 12 0 17 2 24 5 18 2 -7 2 -21 0 -30z m-310 5 c-3
-8 -6 -5 -6 6 -1 11 2 17 5 13 3 -3 4 -12 1 -19z m30 -20 c-3 -8 -6 -5 -6 6
-1 11 2 17 5 13 3 -3 4 -12 1 -19z m-277 -19 c0 -5 -7 -6 -15 -3 -8 4 -15 13
-15 21 0 13 3 13 15 3 8 -7 15 -16 15 -21z m244 -30 c-3 -5 -10 -7 -15 -3 -5
3 -7 10 -3 15 3 5 10 7 15 3 5 -3 7 -10 3 -15z m379 -618 c3 -12 13 -18 32
-18 15 0 30 -5 34 -10 9 -14 64 -42 81 -40 31 2 80 -16 80 -29 0 -8 7 -14 15
-14 52 0 145 -97 145 -151 0 -13 20 -24 80 -44 72 -24 103 -45 66 -45 -10 0
-16 -22 -21 -80 -7 -75 -9 -80 -30 -80 -16 0 -25 -7 -29 -26 -5 -20 -11 -24
-27 -19 -24 8 -59 -19 -59 -47 0 -22 -18 -22 -90 1 -60 20 -101 16 -54 -4 16
-7 38 -20 48 -28 19 -14 18 -15 -15 -26 -47 -15 -179 -28 -209 -20 -14 3 -24
11 -22 18 1 8 -2 9 -10 5 -7 -4 -28 -9 -48 -10 l-35 -3 32 10 c18 5 38 19 44
31 17 31 -12 48 -82 48 l-56 0 -12 63 c-7 34 -19 90 -27 123 -14 55 -14 68 0
120 14 55 39 89 57 79 4 -3 10 -1 14 5 4 6 13 7 23 2 9 -5 31 -6 47 -2 28 5
29 7 10 17 -38 20 -75 25 -75 9 0 -8 -5 -18 -12 -22 -8 -5 -9 -2 -5 9 3 10 2
17 -2 17 -5 0 -11 -6 -14 -12 -2 -7 -7 -11 -10 -8 -3 3 2 37 11 77 16 69 18
72 42 67 22 -5 23 -4 7 6 -16 11 -16 12 5 30 30 25 64 25 71 1z m-360 -34 c15
-35 29 -97 22 -97 -2 0 -12 25 -21 55 -10 30 -21 55 -26 55 -4 0 -8 7 -8 16 0
23 19 7 33 -29z m107 23 c0 -5 -5 -10 -11 -10 -8 0 -8 -4 -1 -12 16 -21 22
-101 8 -120 -11 -15 -13 -8 -15 48 -1 36 -2 69 -3 73 0 3 0 12 1 19 1 14 21
17 21 2z m-45 -65 c3 -33 3 -57 0 -53 -11 11 -26 99 -19 110 9 14 11 8 19 -57z
m171 38 c-3 -10 -10 -37 -16 -60 -8 -33 -16 -43 -31 -43 -14 0 -19 5 -16 14 3
8 11 33 18 55 8 28 15 38 21 29 6 -10 8 -8 8 5 0 9 5 17 11 17 6 0 8 -8 5 -17z
m-64 -28 c-2 -14 -6 -25 -8 -25 -2 0 -4 11 -4 25 0 14 4 25 9 25 4 0 6 -11 3
-25z m-31 -101 c-5 -21 -9 -30 -10 -19 -1 24 10 67 15 62 3 -2 0 -22 -5 -43z
m54 -3 c6 -20 -12 -110 -26 -125 -4 -5 -8 26 -8 68 0 58 3 76 14 76 7 0 16 -9
20 -19z m-95 -51 c-5 -22 -8 -27 -9 -13 -1 21 9 56 14 51 2 -2 0 -19 -5 -38z
m51 -159 c-9 -35 -9 -35 -12 19 -6 122 0 169 12 81 4 -35 4 -80 0 -100z m-40
98 c-5 -13 -10 -19 -10 -12 -1 15 10 45 15 40 3 -2 0 -15 -5 -28z m679 21 c0
-5 -5 -10 -11 -10 -5 0 -7 5 -4 10 3 6 8 10 11 10 2 0 4 -4 4 -10z m-609 -112
c0 -2 8 -53 18 -114 l17 -111 -43 -2 c-36 -1 -41 1 -36 16 4 11 8 12 11 5 2
-7 7 -12 12 -12 4 0 2 26 -5 57 -15 62 -12 82 5 39 27 -69 33 -80 37 -70 2 6
-5 34 -17 63 -19 50 -25 131 -8 131 4 0 8 -1 9 -2z m-63 -103 l0 -50 -8 40
c-5 22 -9 54 -9 70 0 53 16 -4 17 -60z m-35 -43 c3 -49 0 -62 -12 -65 -10 -3
-8 -5 6 -6 12 0 24 4 26 9 3 6 4 5 3 -2 -1 -7 -17 -14 -36 -16 -30 -3 -32 -2
-27 20 4 13 12 47 18 76 7 28 14 51 15 49 2 -2 5 -31 7 -65z m242 -112 c-3 -5
-10 -10 -16 -10 -5 0 -9 5 -9 10 0 6 7 10 16 10 8 0 12 -4 9 -10z m-51 -38 c3
-5 -14 -9 -37 -9 l-42 -1 35 8 c19 4 36 8 37 9 1 0 4 -3 7 -7z m-1011 -91 c5
-23 4 -37 -5 -48 -10 -13 -10 -17 0 -20 6 -3 12 -12 12 -20 0 -9 -6 -13 -14
-10 -11 4 -13 -34 -10 -226 l2 -232 -8 195 c-5 107 -13 236 -19 285 -6 50 -11
101 -11 114 0 22 1 23 22 9 12 -8 26 -30 31 -47z m10 -211 c3 -11 1 -20 -4
-20 -5 0 -9 9 -9 20 0 11 2 20 4 20 2 0 6 -9 9 -20z m-756 -372 c-2 -13 -4 -3
-4 22 0 25 2 35 4 23 2 -13 2 -33 0 -45z m721 -98 c-3 -49 -1 -87 3 -84 5 3 9
-2 9 -10 0 -19 -6 -20 -24 -4 -9 9 -10 24 -5 53 5 22 8 61 9 88 0 26 3 47 6
47 4 0 4 -40 2 -90z m-978 -141 c0 -6 -4 -7 -10 -4 -5 3 -10 11 -10 16 0 6 5
7 10 4 6 -3 10 -11 10 -16z m145 -41 c14 -6 25 -16 25 -21 0 -5 -12 -2 -26 8
-29 19 -54 14 -54 -12 0 -13 -3 -14 -12 -5 -9 9 -8 15 8 27 23 18 27 18 59 3z
m67 -13 c0 -5 -5 -11 -11 -13 -6 -2 -11 4 -11 13 0 9 5 15 11 13 6 -2 11 -8
11 -13z m18 -335 c0 -5 -4 -10 -10 -10 -5 0 -10 5 -10 10 0 6 5 10 10 10 6 0
10 -4 10 -10z m35 -130 c3 -5 1 -10 -4 -10 -6 0 -11 5 -11 10 0 6 2 10 4 10 3
0 8 -4 11 -10z m100 -160 c3 -5 -1 -10 -9 -10 -9 0 -16 5 -16 10 0 6 4 10 9
10 6 0 13 -4 16 -10z m392 -125 c17 -9 35 -21 41 -28 14 -17 11 -47 -5 -47 -7
0 -13 6 -13 14 0 8 -14 28 -31 45 -35 35 -34 37 8 16z m193 -15 c0 -5 -5 -10
-11 -10 -5 0 -7 5 -4 10 3 6 8 10 11 10 2 0 4 -4 4 -10z m-265 -30 c3 -5 1
-10 -4 -10 -6 0 -11 5 -11 10 0 6 2 10 4 10 3 0 8 -4 11 -10z m-172 -57 c-7
-2 -19 -2 -25 0 -7 3 -2 5 12 5 14 0 19 -2 13 -5z m542 -3 c3 -5 1 -10 -4 -10
-6 0 -11 5 -11 10 0 6 2 10 4 10 3 0 8 -4 11 -10z m-505 -42 c14 -13 37 -29
52 -37 15 -8 25 -18 22 -22 -2 -4 5 -13 16 -19 11 -6 20 -20 20 -31 0 -17 -6
-14 -32 19 -18 23 -38 41 -43 41 -6 1 -16 10 -23 21 -7 11 -18 20 -26 20 -8 0
-16 7 -20 15 -8 21 5 19 34 -7z m585 -28 c3 -6 -1 -7 -9 -4 -18 7 -21 14 -7
14 6 0 13 -4 16 -10z m40 -38 c-3 -3 -11 0 -18 7 -9 10 -8 11 6 5 10 -3 15 -9
12 -12z m-245 -2 c0 -5 -2 -10 -4 -10 -3 0 -8 5 -11 10 -3 6 -1 10 4 10 6 0
11 -4 11 -10z m100 0 c0 -5 -5 -10 -11 -10 -5 0 -7 5 -4 10 3 6 8 10 11 10 2
0 4 -4 4 -10z m-40 -4 c0 -3 -4 -8 -10 -11 -5 -3 -10 -1 -10 4 0 6 5 11 10 11
6 0 10 -2 10 -4z m75 -26 c3 -5 1 -10 -4 -10 -6 0 -11 5 -11 10 0 6 2 10 4 10
3 0 8 -4 11 -10z m175 -26 c0 -3 -7 -1 -15 6 -8 7 -15 17 -15 22 0 5 7 3 15
-6 8 -8 15 -18 15 -22z m30 -11 c0 -5 16 -19 35 -32 19 -13 35 -27 35 -32 0
-16 -14 -9 -47 21 -18 17 -37 30 -43 30 -6 0 -8 5 -5 10 7 12 25 13 25 3z
m-575 -13 c3 -6 -1 -7 -9 -4 -18 7 -21 14 -7 14 6 0 13 -4 16 -10z m504 -50
c6 0 11 -4 11 -10 0 -5 6 -10 13 -10 6 0 17 -11 24 -25 6 -14 8 -25 3 -25 -4
0 -10 7 -14 15 -3 8 -12 15 -21 15 -8 0 -15 4 -15 10 0 5 -7 7 -15 4 -8 -4
-15 -2 -15 2 0 5 -3 20 -6 34 -5 23 -4 24 9 8 8 -10 19 -18 26 -18z m-163 -11
c19 -22 19 -22 -3 -8 -13 8 -23 17 -23 21 0 12 6 9 26 -13z m350 -24 c9 -8 11
-15 6 -15 -5 0 -15 7 -22 15 -7 8 -9 15 -6 15 4 0 14 -7 22 -15z m-329 -51
c-9 -9 -28 6 -21 18 4 6 10 6 17 -1 6 -6 8 -13 4 -17z m388 6 c10 -11 14 -20
9 -20 -12 1 -44 25 -44 34 0 12 17 6 35 -14z m-151 -5 c3 -8 1 -15 -4 -15 -6
0 -10 7 -10 15 0 8 2 15 4 15 2 0 6 -7 10 -15z m-314 -5 c0 -5 -5 -10 -11 -10
-5 0 -7 5 -4 10 3 6 8 10 11 10 2 0 4 -4 4 -10z"/>
<path d="M9748 3754 c-3 -3 -3 -14 -1 -25 5 -16 8 -18 14 -7 16 25 6 51 -13
32z"/>
<path d="M10552 2495 c0 -16 2 -22 5 -12 2 9 2 23 0 30 -3 6 -5 -1 -5 -18z"/>
<path d="M10398 2273 c12 -2 30 -2 40 0 9 3 -1 5 -23 4 -22 0 -30 -2 -17 -4z"/>
<path d="M10130 2210 c0 -5 5 -10 10 -10 6 0 10 5 10 10 0 6 -4 10 -10 10 -5
0 -10 -4 -10 -10z"/>
<path d="M9905 2680 c3 -5 8 -10 11 -10 2 0 4 5 4 10 0 6 -5 10 -11 10 -5 0
-7 -4 -4 -10z"/>
<path d="M10140 5500 c0 -5 5 -10 10 -10 6 0 10 5 10 10 0 6 -4 10 -10 10 -5
0 -10 -4 -10 -10z"/>
<path d="M862 5333 c-10 -4 -9 -8 5 -18 11 -8 20 -9 24 -4 3 6 9 -245 13 -557
7 -571 5 -606 -28 -587 -7 4 -8 2 -1 -5 6 -6 21 -12 35 -14 24 -3 25 -5 28
-101 2 -59 -1 -103 -7 -111 -12 -14 4 -36 25 -36 14 0 24 76 24 183 l0 77 40
16 c57 23 124 101 150 177 19 53 23 87 25 232 5 334 -26 494 -121 621 -30 41
-109 106 -134 110 -3 0 -18 6 -33 12 -16 7 -29 12 -30 11 -1 0 -8 -3 -15 -6z
m142 -100 c96 -96 146 -285 146 -552 0 -110 -32 -306 -58 -357 -37 -73 -138
-161 -160 -139 -8 8 -16 1038 -8 1079 8 41 9 41 80 -31z"/>
<path d="M10960 5160 c0 -22 5 -40 10 -40 6 0 10 18 10 40 0 22 -4 40 -10 40
-5 0 -10 -18 -10 -40z"/>
<path d="M5239 5179 c18 -6 30 -13 27 -16 -3 -4 0 -13 8 -22 23 -27 66 -115
66 -136 0 -11 7 -29 15 -39 13 -18 15 -7 15 102 l0 122 -82 -1 c-71 -1 -78 -2
-49 -10z"/>
<path d="M5442 5046 c4 -99 9 -150 18 -161 7 -9 9 -15 4 -13 -9 3 -14 -4 -14
-22 0 -5 21 -10 46 -10 38 0 47 -4 51 -20 6 -21 69 -60 97 -60 8 0 21 -6 28
-12 8 -7 22 -18 32 -23 18 -10 49 -89 39 -99 -3 -2 -19 -2 -37 1 l-32 5 1 -54
c0 -29 4 -56 10 -60 5 -4 7 -9 5 -11 -3 -3 -22 6 -42 19 -43 28 -51 66 -19 86
15 9 18 19 14 42 l-6 29 21 -21 c29 -29 42 -28 42 2 0 33 -12 39 -79 38 l-56
0 0 -62 c0 -34 3 -64 8 -67 17 -10 5 -32 -20 -35 -20 -2 -29 -11 -35 -33 -8
-29 -4 -78 9 -112 4 -10 2 -14 -4 -10 -6 4 -13 1 -16 -5 -7 -20 15 -58 33 -58
28 0 69 24 67 40 -1 8 3 17 8 20 6 3 10 -8 11 -23 1 -16 8 -36 17 -44 15 -15
18 -15 37 2 17 16 24 17 38 7 33 -24 45 -25 58 -8 11 16 13 16 18 -2 4 -10 18
-24 31 -30 14 -7 28 -19 31 -27 10 -24 22 -17 29 17 7 29 8 30 19 12 6 -11 19
-18 29 -16 12 2 17 -3 17 -17 0 -25 15 -28 24 -5 3 9 13 14 21 11 9 -4 12 -1
9 8 -4 10 0 12 15 8 14 -4 27 2 40 18 17 21 21 22 46 11 18 -8 47 -10 85 -6
57 6 57 6 63 -22 10 -43 24 -61 38 -47 12 12 3 53 -12 53 -5 0 -9 5 -9 11 0 8
21 9 69 4 55 -5 84 -2 147 15 106 29 147 42 159 52 16 14 51 9 123 -17 39 -14
78 -22 88 -19 34 11 -6 -15 -66 -43 -66 -30 -257 -93 -285 -93 -20 0 -81 15
-152 38 -18 6 -33 7 -33 3 0 -5 20 -14 45 -21 56 -16 57 -28 3 -33 -24 -2 7
-2 67 1 90 3 130 10 218 38 138 43 260 99 255 116 -3 7 -9 13 -14 14 -22 1
-100 28 -111 38 -9 8 5 11 52 10 36 -1 66 3 67 8 5 29 0 31 -72 33 -100 3
-149 24 -191 83 -41 59 -126 142 -144 142 -16 0 -38 34 -28 43 3 3 14 -4 24
-16 15 -17 18 -18 13 -4 -7 20 22 48 43 40 19 -8 16 15 -4 26 -10 5 -15 12
-12 15 3 4 30 -18 60 -47 77 -75 183 -154 253 -188 67 -33 66 -32 66 -20 0 6
-37 29 -82 53 -90 46 -228 169 -228 202 0 16 6 18 42 13 38 -5 66 -26 96 -72
10 -14 109 -101 144 -126 24 -17 28 -18 28 -4 0 8 -10 19 -22 24 -13 5 -41 27
-63 50 -22 22 -46 41 -52 41 -7 0 -13 7 -13 15 0 7 -6 18 -12 22 -12 8 -38 47
-38 58 0 2 7 2 15 -1 9 -4 15 0 15 10 0 9 -4 16 -10 16 -5 0 -10 3 -10 8 0 4
26 13 57 21 94 22 131 41 135 72 2 15 0 37 -4 50 -5 13 -5 26 2 33 15 15 12
57 -7 78 -15 17 -15 18 0 18 14 0 17 10 17 50 l0 50 -74 0 c-41 0 -78 -5 -81
-10 -4 -7 -13 -6 -26 1 -34 18 -32 4 6 -51 20 -29 34 -54 32 -57 -11 -10 -65
28 -101 71 l-39 45 -600 1 -600 0 5 -144z m1360 96 c72 -73 78 -82 53 -82 -19
0 -95 78 -95 97 0 20 12 16 42 -15z m-278 -22 c83 -39 98 -56 61 -70 -36 -14
-116 6 -114 29 3 34 -1 53 -12 49 -6 -2 -11 -8 -11 -13 -1 -11 -28 -34 -40
-35 -5 0 -8 12 -8 26 0 21 4 24 20 19 14 -5 20 -2 20 9 0 22 11 20 84 -14z
m-114 -60 c0 -5 -4 -10 -10 -10 -5 0 -10 5 -10 10 0 6 5 10 10 10 6 0 10 -4
10 -10z m70 -20 c13 -8 13 -10 -2 -10 -9 0 -20 5 -23 10 -8 13 5 13 25 0z
m350 -10 c0 -5 -5 -10 -11 -10 -5 0 -7 5 -4 10 3 6 8 10 11 10 2 0 4 -4 4 -10z
m-110 -6 c0 -3 -5 -14 -10 -25 -8 -14 -21 -19 -50 -19 -22 0 -40 5 -40 10 0
19 -28 10 -33 -10 -6 -24 -56 -45 -76 -33 -17 11 -34 63 -20 63 5 0 11 -11 15
-25 7 -30 30 -28 27 3 -3 23 23 33 70 25 18 -3 48 0 67 5 44 13 50 13 50 6z
m65 -2 c6 -4 12 -23 13 -42 l2 -35 -20 35 c-26 48 -24 63 5 42z m-385 -72 c-8
-5 -19 -10 -25 -10 -5 0 -3 5 5 10 8 5 20 10 25 10 6 0 3 -5 -5 -10z m320 -7
c0 -14 -19 -38 -25 -32 -8 8 5 39 16 39 5 0 9 -3 9 -7z m171 -26 c-8 -8 -11
-7 -11 4 0 20 13 34 18 19 3 -7 -1 -17 -7 -23z m-461 -31 c0 -7 -11 -21 -25
-30 -26 -17 -28 -15 -19 22 7 24 44 31 44 8z m295 -36 c3 -5 1 -10 -4 -10 -6
0 -11 5 -11 10 0 6 2 10 4 10 3 0 8 -4 11 -10z m-188 -42 c-3 -8 -6 -5 -6 6
-1 11 2 17 5 13 3 -3 4 -12 1 -19z m-142 -27 c3 -5 1 -12 -5 -16 -5 -3 -10 1
-10 9 0 18 6 21 15 7z m-235 -45 c0 -5 -7 -3 -15 4 -8 7 -15 20 -15 28 0 13 3
12 15 -4 8 -10 15 -23 15 -28z m334 22 c-8 -20 -53 -50 -64 -43 -15 9 -2 25
21 25 10 0 19 7 19 15 0 8 7 15 15 15 8 0 12 -6 9 -12z m-143 -17 c13 -11 21
-22 18 -25 -11 -11 -59 13 -59 29 0 20 13 19 41 -4z m-464 -36 l36 -15 -6 -51
c-4 -29 -9 -54 -12 -58 -6 -5 -20 12 -28 34 -3 6 -7 7 -11 4 -4 -4 -2 -18 5
-32 10 -22 8 -30 -10 -53 -11 -15 -21 -33 -21 -40 0 -17 -32 -18 -48 -2 -21
21 -13 38 17 38 37 0 51 32 27 59 -9 10 -16 31 -15 47 0 27 1 28 9 7 16 -38
23 -26 17 27 -3 28 -4 50 -1 50 2 0 21 -7 41 -15z m-97 -29 c0 -13 3 -31 6
-39 4 -12 0 -14 -15 -10 -28 7 -34 19 -27 49 8 32 36 32 36 0z m463 -25 c-6
-8 -31 34 -26 42 3 5 11 -2 17 -15 7 -12 11 -25 9 -27z m49 -2 c-8 -31 -9 -32
-16 -12 -4 14 -2 28 6 37 18 20 21 14 10 -25z m-330 3 c6 -16 24 -36 40 -45
28 -16 30 -16 50 3 29 26 42 25 33 -2 -17 -54 -17 -75 -1 -81 11 -4 16 -1 16
11 0 10 7 27 15 38 8 12 12 23 10 26 -3 2 8 3 25 0 16 -2 48 -20 71 -40 37
-32 39 -37 23 -43 -14 -6 -11 -8 14 -8 38 -1 42 -18 6 -27 -38 -10 -197 14
-210 31 -14 19 -28 19 -43 1 -10 -12 -8 -17 9 -26 12 -7 32 -9 45 -6 24 6 35
-8 35 -45 0 -42 -112 -12 -130 36 -5 14 -5 36 0 54 10 36 3 71 -15 71 -13 0
-25 30 -25 63 0 27 21 20 32 -11z m372 4 c-3 -9 -10 -16 -15 -16 -5 0 -4 9 3
20 14 22 21 20 12 -4z m126 1 c14 -12 40 -33 57 -45 36 -26 109 -110 101 -117
-3 -3 -19 1 -36 8 -33 14 -115 100 -105 111 3 3 1 6 -5 6 -6 0 -20 14 -32 30
-25 36 -15 39 20 7z m-340 3 c0 -5 -4 -10 -10 -10 -5 0 -10 5 -10 10 0 6 5 10
10 10 6 0 10 -4 10 -10z m301 -22 c13 -18 28 -37 35 -43 6 -5 21 -25 34 -44
l24 -34 -48 6 c-26 4 -56 12 -68 18 -22 12 -22 12 6 34 16 13 26 27 22 33 -4
7 -16 1 -31 -14 -27 -27 -45 -31 -45 -9 0 8 5 15 11 15 5 0 7 5 4 11 -5 6 -12
4 -20 -8 -7 -10 -16 -15 -20 -11 -9 9 44 78 61 78 7 0 23 -15 35 -32z m-391
13 c0 -14 -18 -23 -30 -16 -6 4 -8 11 -5 16 8 12 35 12 35 0z m210 -73 c0 -6
-6 -5 -15 2 -8 7 -15 14 -15 16 0 2 7 1 15 -2 8 -4 15 -11 15 -16z m45 -29
c11 -17 -1 -21 -15 -4 -8 9 -8 15 -2 15 6 0 14 -5 17 -11z m30 -19 c3 -5 1
-10 -4 -10 -6 0 -11 5 -11 10 0 6 2 10 4 10 3 0 8 -4 11 -10z m-747 -40 c-1
-16 -4 -30 -5 -30 -6 0 -43 40 -38 41 3 1 9 2 14 3 5 0 13 4 17 9 12 12 14 8
12 -23z m372 -16 c0 -31 -3 -34 -30 -34 -30 0 -37 11 -24 44 5 12 10 14 19 6
11 -9 12 -7 8 10 -4 16 -2 19 11 14 10 -4 16 -18 16 -40z m468 -17 c31 -18 72
-39 90 -46 17 -7 32 -16 32 -20 0 -12 -138 -52 -197 -58 l-55 -6 7 31 c4 20 3
32 -4 32 -5 0 -11 -10 -13 -22 -5 -34 -38 -37 -38 -4 0 23 -3 26 -24 20 -17
-4 -24 -1 -28 13 -7 26 1 43 20 43 10 0 46 11 82 24 36 14 66 25 68 25 2 1 29
-14 60 -32z m124 21 c21 1 38 -3 38 -8 0 -6 7 -10 16 -10 9 0 12 5 8 13 -4 6
5 0 20 -15 16 -15 37 -30 47 -33 37 -12 18 -25 -28 -19 -53 7 -154 53 -161 74
-3 8 0 10 8 5 7 -5 30 -7 52 -7z m-318 -19 c-3 -6 -17 -9 -30 -6 -13 2 -24 0
-24 -4 0 -5 -4 -9 -10 -9 -5 0 -10 7 -10 15 0 11 11 15 41 15 26 0 38 -4 33
-11z m-491 -46 c-7 -2 -19 -2 -25 0 -7 3 -2 5 12 5 14 0 19 -2 13 -5z m435
-21 c2 -13 11 -22 20 -22 14 0 13 -4 -5 -22 -27 -27 -32 -23 -37 31 -3 29 -1
41 7 38 7 -2 13 -13 15 -25z m-58 9 c0 -12 -28 -22 -34 -12 -3 5 -3 11 1 15 9
9 33 7 33 -3z m480 -38 c0 -11 -196 -56 -212 -50 -9 4 -9 6 2 6 8 1 49 12 90
25 77 25 120 32 120 19z"/>
<path d="M6260 4430 c0 -5 5 -10 10 -10 6 0 10 5 10 10 0 6 -4 10 -10 10 -5 0
-10 -4 -10 -10z"/>
<path d="M9550 5161 c0 -6 -12 -17 -27 -25 -16 -8 -21 -15 -13 -15 19 1 99 37
83 38 -6 1 -18 4 -27 7 -9 3 -16 1 -16 -5z"/>
<path d="M5199 5135 c-6 -73 9 -128 37 -139 11 -4 11 2 -2 32 -8 20 -19 41
-25 47 -16 16 -10 25 19 25 l27 0 -21 18 c-12 9 -24 24 -27 32 -3 9 -7 2 -8
-15z"/>
<path d="M9450 5110 c-18 -12 -2 -12 25 0 13 6 15 9 5 9 -8 0 -22 -4 -30 -9z"/>
<path d="M5276 5061 c5 -20 4 -23 -12 -17 -15 6 -17 5 -6 -5 19 -20 38 3 23
28 -11 16 -11 15 -5 -6z"/>
<path d="M5305 4970 c3 -5 8 -10 11 -10 2 0 4 5 4 10 0 6 -5 10 -11 10 -5 0
-7 -4 -4 -10z"/>
<path d="M5460 4779 c0 -5 5 -7 10 -4 6 3 10 8 10 11 0 2 -4 4 -10 4 -5 0 -10
-5 -10 -11z"/>
<path d="M5501 4756 c-9 -10 -8 -15 3 -19 9 -4 18 -2 21 3 3 5 12 7 20 3 9 -3
15 1 15 11 0 20 -43 22 -59 2z"/>
<path d="M5450 4473 c0 -15 2 -15 24 -7 22 9 20 20 -4 20 -11 0 -20 -6 -20
-13z"/>
<path d="M0 4256 c0 -8 14 -17 33 -21 17 -4 56 -15 85 -26 57 -21 107 -25 97
-9 -3 6 -15 10 -26 10 -11 0 -19 7 -19 18 0 12 -3 14 -8 4 -7 -10 -20 -9 -63
5 -30 9 -55 21 -57 25 -6 14 -42 9 -42 -6z"/>
<path d="M6105 4250 c-7 -12 2 -30 16 -30 5 0 9 9 9 20 0 21 -15 27 -25 10z"/>
<path d="M5840 4220 c0 -5 7 -10 16 -10 8 0 12 5 9 10 -3 6 -10 10 -16 10 -5
0 -9 -4 -9 -10z"/>
<path d="M6020 4193 c0 -4 8 -17 16 -28 15 -20 16 -20 12 4 -3 22 -28 44 -28
24z"/>
<path d="M6243 4183 c15 -2 37 -2 50 0 12 2 0 4 -28 4 -27 0 -38 -2 -22 -4z"/>
<path d="M3900 4180 c-3 -12 -9 -73 -15 -171 -4 -76 -3 -108 5 -111 8 -2 8
-11 1 -31 -16 -42 -13 -76 10 -124 18 -37 19 -47 8 -77 -14 -38 -10 -50 13
-41 9 4 15 21 16 46 1 23 4 45 7 49 3 5 -2 15 -10 23 -19 19 -19 31 0 47 20
17 20 193 0 210 -10 8 -12 25 -9 58 4 29 0 62 -10 87 -8 22 -15 38 -16 35z"/>
<path d="M340 4137 c14 -7 43 -18 65 -24 22 -6 48 -14 58 -18 10 -4 17 -3 17
4 0 6 -7 11 -15 11 -9 0 -41 9 -72 20 -65 23 -90 26 -53 7z"/>
<path d="M4141 4111 c-1 -8 -7 -22 -15 -30 -17 -18 -33 -121 -20 -121 5 0 9
-25 8 -55 0 -30 2 -55 6 -55 4 0 10 -9 13 -20 3 -12 14 -20 25 -20 21 0 35 22
23 36 -5 5 -4 38 1 74 12 92 12 113 -4 124 -8 6 -19 27 -25 46 -6 19 -11 29
-12 21z"/>
<path d="M500 4091 c0 -15 49 -22 68 -11 14 9 14 10 -5 5 -14 -4 -23 -2 -23 4
0 6 -9 11 -20 11 -11 0 -20 -4 -20 -9z"/>
<path d="M4005 4091 c-3 -6 -11 -8 -17 -5 -8 5 -9 -44 -6 -165 3 -94 7 -173 9
-174 2 -1 14 -8 26 -14 13 -7 26 -13 29 -13 4 0 5 79 2 176 -4 139 -8 178 -20
191 -11 10 -18 12 -23 4z"/>
<path d="M3683 4068 c3 -11 -1 -37 -9 -56 -10 -25 -14 -75 -14 -178 0 -140 1
-144 21 -144 17 0 20 5 16 25 -2 14 2 44 10 66 14 41 12 235 -3 287 -8 28 -28
29 -21 0z"/>
<path d="M3776 4050 c-3 -18 -5 -128 -5 -244 1 -116 3 -202 6 -191 14 68 12
65 38 55 19 -7 25 -6 25 4 0 8 -6 16 -14 19 -7 3 -16 20 -19 39 -3 18 -8 42
-12 53 -5 14 -4 16 2 7 17 -23 31 8 38 86 l8 72 -27 0 c-29 0 -42 20 -30 48
11 25 13 55 4 71 -5 9 -9 3 -14 -19z"/>
<path d="M3465 4033 c-4 -16 -8 -36 -10 -45 -2 -10 1 -21 6 -24 5 -3 9 3 9 13
0 11 6 25 13 32 9 10 9 15 0 18 -7 2 -9 11 -6 19 3 8 2 14 -1 14 -3 0 -8 -12
-11 -27z"/>
<path d="M618 4043 c7 -3 16 -2 19 1 4 3 -2 6 -13 5 -11 0 -14 -3 -6 -6z"/>
<path d="M717 4009 c7 -7 15 -10 18 -7 3 3 -2 9 -12 12 -14 6 -15 5 -6 -5z"/>
<path d="M3583 4013 c-19 -7 -17 -93 2 -93 8 0 15 -4 15 -10 0 -5 7 -7 15 -4
8 4 15 15 15 26 0 10 -4 17 -8 14 -4 -2 -14 -1 -21 4 -11 6 -9 14 8 39 21 28
21 31 4 30 -10 0 -24 -3 -30 -6z"/>
<path d="M3490 3920 c0 -23 10 -26 28 -8 18 18 15 28 -8 28 -13 0 -20 -7 -20
-20z"/>
<path d="M3582 3882 c-9 -7 -12 -34 -8 -108 5 -103 11 -134 28 -134 6 0 8 -14
5 -35 -3 -20 -2 -35 4 -35 6 0 7 -4 4 -10 -3 -5 -1 -10 4 -10 7 0 11 55 11
164 0 140 -2 165 -16 170 -19 7 -16 7 -32 -2z"/>
<path d="M3482 3848 c-7 -7 -12 -20 -12 -29 0 -10 -4 -19 -9 -21 -5 -1 -12
-19 -16 -39 -7 -35 -6 -36 33 -46 40 -10 40 -10 45 21 3 22 -1 37 -15 53 -14
15 -19 31 -16 47 6 30 6 30 -10 14z"/>
<path d="M0 1800 l0 -1800 3921 0 3921 0 -20 33 c-14 23 -17 38 -11 54 4 13 4
25 -1 28 -12 7 -23 -12 -14 -27 5 -7 3 -8 -5 -3 -8 5 -11 18 -7 37 5 26 3 30
-13 25 -14 -3 -18 0 -15 17 2 11 2 15 -2 9 -3 -7 -13 -13 -21 -13 -14 0 -14 2
1 19 14 16 15 19 2 24 -8 3 -16 1 -18 -5 -5 -13 -10 -7 -63 65 -19 26 -35 52
-35 57 0 6 -5 10 -11 10 -6 0 -9 7 -5 15 3 9 0 15 -9 15 -8 0 -15 5 -15 11 0
6 -23 34 -50 61 -28 27 -50 55 -50 62 0 18 -40 57 -51 51 -12 -8 -12 11 1 34
8 16 5 18 -18 17 -21 -1 -28 4 -30 21 -2 13 -9 23 -15 23 -7 0 -29 27 -51 60
-21 33 -44 64 -51 68 -7 4 -32 39 -56 77 -24 39 -47 73 -51 76 -4 3 -11 160
-14 350 -5 232 -11 346 -18 351 -6 4 -30 8 -53 8 l-43 0 0 43 c0 48 -39 114
-95 159 -36 29 -62 32 -118 11 -32 -12 -115 -17 -362 -24 -176 -4 -356 -12
-400 -17 -81 -10 -135 -28 -135 -44 0 -5 -4 -7 -9 -3 -5 3 -12 1 -16 -5 -11
-18 -24 0 -41 56 -9 31 -18 53 -21 50 -3 -2 4 -33 15 -68 12 -35 22 -73 24
-85 4 -31 -14 -33 -23 -3 -3 14 -25 90 -49 168 -42 146 -47 190 -10 111 l20
-44 -7 40 c-3 22 -12 53 -20 68 -8 16 -12 35 -9 44 5 11 -1 14 -21 11 -16 -2
-29 -10 -30 -18 -1 -8 -5 -50 -8 -94 -6 -68 -8 -75 -18 -56 -7 13 -19 26 -27
28 -12 4 -12 1 2 -19 16 -25 36 -120 23 -107 -15 14 -44 113 -45 150 0 29 -3
36 -15 32 -15 -6 -20 9 -17 51 2 16 0 17 -8 5 -8 -12 -10 -10 -10 9 0 20 -3
22 -12 13 -9 -9 -9 -20 1 -48 7 -20 15 -68 17 -108 2 -39 10 -91 19 -116 10
-29 12 -46 5 -48 -15 -5 -12 -39 6 -67 29 -44 9 -47 -22 -3 -18 26 -52 55 -85
73 -53 29 -57 30 -223 33 -146 4 -169 6 -173 21 -3 13 -16 15 -79 13 -58 -3
-74 -1 -72 10 2 8 -7 13 -26 13 -25 0 -29 4 -31 30 -2 32 6 59 65 225 12 36
24 79 27 95 3 23 0 21 -12 -13 -9 -24 -32 -80 -51 -125 -18 -45 -34 -91 -34
-104 0 -12 -10 -31 -22 -43 -14 -13 -17 -20 -8 -20 7 0 10 -3 6 -7 -4 -5 -60
-11 -124 -15 -64 -4 -161 -10 -214 -14 -54 -3 -98 -4 -98 -1 0 25 57 168 80
202 17 24 30 47 30 51 0 4 6 15 14 23 17 18 86 140 86 149 -1 10 -40 -41 -40
-51 0 -4 -5 -13 -11 -20 -5 -7 -19 -27 -29 -44 -13 -22 -25 -31 -35 -27 -11 5
-15 -1 -15 -25 0 -25 -3 -29 -17 -24 -14 5 -16 3 -6 -7 9 -10 7 -19 -10 -41
-11 -16 -27 -29 -35 -29 -10 0 -13 -8 -9 -26 3 -17 0 -28 -10 -31 -11 -4 -12
-8 -3 -13 20 -12 2 -29 -23 -22 -21 5 -21 4 -5 -14 17 -19 16 -20 -55 -16 -40
2 -93 10 -119 18 -59 18 -77 18 -98 -1 -23 -21 -117 -37 -141 -25 -14 8 -23 6
-39 -10 -24 -24 -50 -26 -50 -5 0 19 -13 19 -76 1 -86 -24 -93 -25 -87 -10 3
8 10 14 17 14 6 0 4 5 -4 10 -19 12 -105 3 -148 -17 -22 -9 -46 -13 -68 -8
-21 3 -34 2 -34 -5 0 -5 -5 -10 -11 -10 -5 0 -8 4 -5 9 11 17 -96 20 -186 5
-65 -11 -179 -17 -378 -18 -157 -2 -377 -6 -490 -11 -164 -6 -220 -4 -281 7
-49 10 -94 12 -130 8 -36 -5 -62 -3 -79 5 -14 7 -40 16 -57 20 -33 7 -42 18
-23 30 12 7 13 25 2 25 -5 0 -18 -9 -30 -20 -12 -12 -22 -18 -22 -14 0 4 -14
-11 -32 -34 -18 -23 -39 -43 -48 -43 -29 -2 -55 3 -69 14 -12 10 -14 9 -8 -5
4 -12 2 -18 -8 -18 -8 0 -15 -4 -15 -10 0 -5 -6 -7 -13 -4 -7 2 -19 -7 -27
-21 -7 -14 -17 -25 -21 -25 -4 0 -24 -16 -45 -35 -41 -39 -48 -39 -38 -1 9 37
81 96 116 96 15 0 28 6 28 13 1 15 63 71 116 102 78 48 152 84 158 78 3 -3 8
1 11 10 4 8 68 41 143 73 75 32 143 62 150 67 22 17 13 30 -16 22 -15 -4 -40
-9 -57 -10 -16 -2 -38 -6 -47 -10 -9 -4 -21 -4 -26 -1 -6 3 -12 -1 -16 -9 -3
-8 -15 -15 -26 -15 -11 0 -32 -7 -45 -16 -14 -9 -31 -14 -39 -11 -8 3 -17 -2
-21 -11 -5 -14 -7 -14 -15 -2 -8 12 -10 12 -15 -2 -4 -9 -20 -22 -36 -28 -16
-7 -29 -16 -29 -20 0 -9 -58 -38 -92 -45 -16 -3 -28 -12 -28 -20 0 -8 -9 -15
-21 -15 -11 0 -18 -4 -14 -9 3 -6 -12 -11 -32 -13 -30 -2 -39 -8 -41 -24 -3
-23 -53 -67 -112 -100 -21 -11 -50 -35 -65 -52 -22 -26 -30 -30 -45 -22 -10 6
-34 10 -53 10 -43 0 -97 10 -97 19 0 3 21 15 48 25 26 11 62 26 81 33 18 8 31
17 28 19 -7 8 -170 26 -247 29 -62 1 -65 3 -66 27 -2 39 -12 48 -53 48 -22 0
-44 6 -51 15 -13 15 -6 35 12 35 16 0 120 52 136 67 8 7 23 18 35 25 12 6 66
41 121 77 54 36 123 82 152 101 29 20 57 40 61 44 15 16 -113 -2 -180 -25 -51
-17 -70 -20 -76 -11 -5 8 -46 11 -135 11 -129 -1 -184 12 -109 26 63 12 93 34
93 71 0 22 6 34 18 38 9 2 -1 2 -23 -1 -22 -3 -42 -9 -45 -12 -13 -18 -79 -58
-110 -69 -19 -6 -60 -14 -90 -18 -30 -4 -74 -16 -97 -26 -46 -20 -55 -46 -33
-89 11 -20 -3 -28 -15 -8 -5 7 -15 3 -30 -11 -17 -16 -24 -18 -29 -8 -3 7 -4
-5 -2 -27 2 -22 1 -32 -1 -23 -2 9 -10 15 -17 12 -7 -3 -25 15 -42 42 -34 55
-120 116 -185 132 -48 12 -140 3 -179 -18 -11 -6 -20 -8 -20 -6 0 12 84 47
133 57 82 15 197 13 239 -5 32 -14 38 -14 38 -2 0 11 14 14 63 13 45 -2 72 3
97 17 24 13 57 20 105 21 70 1 165 22 165 37 0 15 -43 26 -139 36 -121 14
-134 25 -50 41 l44 8 -42 8 c-42 7 -50 25 -12 25 10 0 19 4 19 8 0 9 -88 32
-123 32 -15 0 -32 16 -55 51 -20 31 -38 49 -47 46 -7 -3 -21 3 -30 13 -16 18
-90 45 -149 55 -16 2 -31 6 -33 9 -13 12 67 16 437 20 217 2 409 7 426 11 44
10 101 59 109 95 6 26 11 30 38 29 38 -1 122 -14 155 -24 17 -6 21 -4 17 7 -3
8 -27 20 -53 28 l-47 13 45 8 c25 4 54 6 65 4 11 -2 63 -6 115 -9 72 -4 88 -2
68 5 -16 6 -28 14 -28 18 0 3 -19 6 -42 4 -40 -2 -41 -1 -13 7 24 7 20 8 -19
4 -51 -6 -78 10 -89 52 -3 14 -5 11 -6 -8 -1 -35 -9 -35 -49 1 -17 16 -34 25
-37 20 -11 -16 -25 -10 -37 17 -8 17 -18 24 -30 21 -11 -3 -18 0 -18 8 0 7 -6
15 -12 18 -7 2 34 7 92 11 58 4 122 10 143 12 25 3 37 0 37 -8 0 -10 2 -10 8
-1 4 7 6 30 4 50 -4 32 -6 35 -14 18 -6 -16 -7 -13 -5 12 2 20 -2 34 -10 37
-7 3 -13 15 -13 26 0 14 -7 20 -22 20 -16 0 -28 11 -39 33 -9 19 -25 33 -37
35 -27 4 -44 33 -31 53 5 7 9 19 9 24 0 6 -4 5 -8 -2 -5 -8 -21 -10 -45 -6
-31 5 -37 10 -37 29 0 13 3 23 8 22 4 0 14 1 22 5 8 3 22 8 30 10 9 3 4 6 -10
6 -14 1 -32 6 -40 11 -11 7 -5 10 25 11 27 1 14 5 -39 11 -55 7 -82 6 -89 -1
-8 -8 2 -11 36 -11 27 0 47 -5 47 -11 0 -7 -11 -8 -30 -4 -19 4 -30 3 -30 -4
0 -6 11 -11 25 -11 25 0 30 -18 10 -32 -18 -14 -37 -9 -31 8 5 12 2 15 -9 10
-9 -3 -13 -2 -10 4 9 15 -11 12 -24 -4 -6 -7 -9 -21 -5 -30 9 -23 -13 -20 -26
4 -7 14 -7 20 0 20 15 0 12 26 -4 39 -9 8 -22 8 -39 2 -16 -6 -28 -6 -35 1 -5
5 -39 12 -74 15 -34 3 -65 7 -67 9 -7 6 99 3 172 -5 38 -4 70 -4 73 0 6 10
-104 17 -446 29 -157 6 -384 15 -505 20 -121 5 -255 10 -297 10 l-78 0 0
-1800z m987 1744 c-3 -3 -12 -4 -19 -1 -8 3 -5 6 6 6 11 1 17 -2 13 -5z m313
-40 c0 -9 -28 -34 -39 -34 -6 0 -3 9 6 20 17 19 33 26 33 14z m-175 -14 c3 -6
-1 -7 -9 -4 -18 7 -21 14 -7 14 6 0 13 -4 16 -10z m75 1 c0 -5 -9 -11 -21 -14
-16 -4 -18 -3 -8 9 13 16 29 19 29 5z m186 -91 c8 0 11 6 7 16 -5 13 -2 15 18
9 34 -11 35 -14 11 -31 -12 -8 -22 -22 -22 -30 0 -16 -16 -19 -25 -4 -3 6 -1
10 4 10 19 0 12 18 -9 25 -12 4 -20 15 -19 28 l0 22 11 -22 c6 -13 17 -23 24
-23z m124 -10 c0 -5 -7 -10 -15 -10 -8 0 -15 5 -15 10 0 6 7 10 15 10 8 0 15
-4 15 -10z m-133 -297 c-3 -10 -5 -4 -5 12 0 17 2 24 5 18 2 -7 2 -21 0 -30z
m-37 -3 c0 -5 -5 -10 -11 -10 -5 0 -7 5 -4 10 3 6 8 10 11 10 2 0 4 -4 4 -10z
m87 -16 c-3 -3 -12 -4 -19 -1 -8 3 -5 6 6 6 11 1 17 -2 13 -5z m-417 -24 c18
-12 2 -12 -25 0 -13 6 -15 9 -5 9 8 0 22 -4 30 -9z m-410 -655 c0 -8 -4 -15
-10 -15 -5 0 -10 7 -10 15 0 8 5 15 10 15 6 0 10 -7 10 -15z m-189 -87 c22 -6
39 -14 39 -18 0 -5 10 -11 23 -14 26 -7 79 -77 95 -126 l12 -35 -22 28 c-15
21 -23 25 -29 16 -6 -10 -11 -10 -21 -1 -10 8 -18 8 -25 1 -20 -20 -181 -13
-280 13 -36 9 -43 15 -44 37 -2 26 -2 26 -6 -2 -4 -24 -7 -26 -19 -16 -12 10
-16 8 -21 -9 -6 -26 -23 -29 -23 -4 0 24 28 62 45 62 7 0 16 8 19 18 15 45
171 76 257 50z m654 -98 c3 -5 -1 -10 -9 -10 -9 0 -16 -4 -16 -10 0 -6 -37
-10 -90 -10 -93 0 -113 10 -57 28 42 13 164 15 172 2z m-560 -80 c3 -5 -1 -10
-10 -10 -9 0 -13 5 -10 10 3 6 8 10 10 10 2 0 7 -4 10 -10z m1329 -275 c-7
-16 -24 -21 -24 -6 0 8 7 13 27 20 1 1 0 -6 -3 -14z m243 -27 c-3 -8 -6 -5 -6
6 -1 11 2 17 5 13 3 -3 4 -12 1 -19z m-1038 -46 c3 -5 31 -12 62 -16 31 -4 76
-18 100 -32 24 -14 52 -27 62 -31 22 -7 22 -39 0 -45 -10 -3 -112 -3 -226 -2
-164 2 -215 0 -243 -12 -42 -18 -56 -11 -48 22 5 21 3 24 -19 24 -14 0 -27 7
-31 15 -3 9 0 15 9 15 8 0 12 6 9 14 -8 20 35 42 86 44 25 0 46 6 49 13 4 14
181 6 190 -9z m-706 -39 c-7 -2 -19 -2 -25 0 -7 3 -2 5 12 5 14 0 19 -2 13 -5z
m5642 -125 c33 -15 32 -31 -2 -24 -16 3 -47 8 -70 11 -24 4 -43 11 -43 16 0
13 84 11 115 -3z m-5352 -150 c-6 -12 -33 -10 -33 2 0 6 5 10 10 10 6 0 10 8
11 18 0 14 2 14 8 -3 5 -11 7 -23 4 -27z m6797 -888 c0 -5 -4 -10 -10 -10 -5
0 -10 5 -10 10 0 6 5 10 10 10 6 0 10 -4 10 -10z"/>
<path d="M1538 3533 c12 -2 30 -2 40 0 9 3 -1 5 -23 4 -22 0 -30 -2 -17 -4z"/>
<path d="M1658 3533 c7 -3 16 -2 19 1 4 3 -2 6 -13 5 -11 0 -14 -3 -6 -6z"/>
<path d="M1534 3495 c8 -8 19 -15 25 -15 6 0 11 7 11 15 0 9 -10 15 -26 15
-23 0 -24 -2 -10 -15z"/>
<path d="M1585 3501 c-3 -5 -1 -12 5 -16 5 -3 10 1 10 9 0 18 -6 21 -15 7z"/>
<path d="M2365 3480 c-3 -5 -15 -10 -26 -10 -10 0 -19 -5 -19 -11 0 -5 5 -7
10 -4 6 3 10 -3 10 -13 0 -11 8 -30 18 -42 17 -21 19 -21 32 -4 8 10 10 15 4
11 -7 -4 -19 4 -29 19 -16 24 -16 26 4 31 12 3 21 12 21 19 0 16 -16 19 -25 4z"/>
<path d="M3470 3400 c20 -13 43 -13 35 0 -3 6 -16 10 -28 10 -18 0 -19 -2 -7
-10z"/>
<path d="M1618 3393 c7 -3 16 -2 19 1 4 3 -2 6 -13 5 -11 0 -14 -3 -6 -6z"/>
<path d="M9318 3373 c7 -3 16 -2 19 1 4 3 -2 6 -13 5 -11 0 -14 -3 -6 -6z"/>
<path d="M2140 3160 c0 -5 5 -10 11 -10 5 0 7 5 4 10 -3 6 -8 10 -11 10 -2 0
-4 -4 -4 -10z"/>
<path d="M1971 3141 c-10 -6 -10 -10 -1 -16 13 -8 24 -1 19 14 -3 6 -10 7 -18
2z"/>
<path d="M1492 3113 c-15 -6 -6 -23 14 -23 8 0 14 7 14 15 0 15 -6 17 -28 8z"/>
<path d="M2120 3080 c0 -5 4 -10 9 -10 6 0 13 5 16 10 3 6 -1 10 -9 10 -9 0
-16 -4 -16 -10z"/>
<path d="M1545 3070 c3 -5 8 -10 11 -10 2 0 4 5 4 10 0 6 -5 10 -11 10 -5 0
-7 -4 -4 -10z"/>
<path d="M1698 3053 c-24 -6 -23 -23 2 -23 11 0 20 -4 20 -10 0 -5 10 -10 23
-9 l22 0 -23 11 c-13 7 -21 17 -18 25 6 13 3 14 -26 6z"/>
<path d="M2079 3018 c0 -7 -2 -25 -4 -40 -4 -28 -3 -28 20 -10 24 17 34 62 15
62 -6 0 -10 -7 -8 -16 2 -10 -2 -19 -9 -21 -7 -3 -9 3 -6 16 3 12 3 21 -1 21
-3 0 -6 -6 -7 -12z"/>
<path d="M2160 3010 c0 -5 5 -10 10 -10 6 0 10 5 10 10 0 6 -4 10 -10 10 -5 0
-10 -4 -10 -10z"/>
<path d="M3240 2910 c0 -6 7 -10 15 -10 8 0 15 2 15 4 0 2 -7 6 -15 10 -8 3
-15 1 -15 -4z"/>
<path d="M4519 2736 c12 -12 21 -29 21 -37 1 -11 2 -11 10 2 15 26 1 57 -26
57 l-25 0 20 -22z"/>
<path d="M9633 2713 c-26 -10 -13 -25 17 -19 20 4 30 2 30 -7 0 -13 20 12 20
26 0 8 -48 8 -67 0z"/>
<path d="M4554 2594 c4 -38 6 -90 6 -116 -1 -67 17 -68 22 0 6 85 -4 175 -21
180 -11 4 -12 -8 -7 -64z m13 -1 c-3 -10 -5 -2 -5 17 0 19 2 27 5 18 2 -10 2
-26 0 -35z"/>
<path d="M4402 2630 c0 -14 2 -19 5 -12 2 6 2 18 0 25 -3 6 -5 1 -5 -13z"/>
<path d="M721 2624 c0 -11 3 -14 6 -6 3 7 2 16 -1 19 -3 4 -6 -2 -5 -13z"/>
<path d="M2165 2596 c-34 -15 -59 -40 -53 -55 1 -6 21 5 42 24 22 19 51 36 65
38 l26 4 -25 1 c-14 1 -39 -5 -55 -12z"/>
<path d="M5230 2540 c0 -17 87 -16 105 1 5 5 -13 9 -48 9 -31 0 -57 -4 -57
-10z"/>
<path d="M5347 2497 c-3 -8 -1 -20 4 -28 6 -10 9 -7 9 14 0 29 -5 35 -13 14z"/>
<path d="M2265 2489 c-4 -6 -5 -12 -2 -15 7 -7 37 7 37 17 0 13 -27 11 -35 -2z"/>
<path d="M2594 2443 c-10 -55 -66 -133 -95 -133 -6 0 -18 -8 -27 -17 -16 -16
-16 -16 3 -9 11 5 45 17 75 27 30 10 77 27 104 37 l49 19 -36 5 c-20 2 -43 0
-51 -4 -13 -7 -14 1 -11 52 5 67 -1 79 -11 23z"/>
<path d="M2190 2429 c0 -5 5 -7 10 -4 6 3 10 8 10 11 0 2 -4 4 -10 4 -5 0 -10
-5 -10 -11z"/>
<path d="M2152 2418 c5 -15 28 -23 28 -10 0 5 -7 13 -16 16 -10 4 -14 1 -12
-6z"/>
<path d="M2305 2400 c11 -5 35 -9 53 -9 19 -1 31 -5 27 -11 -3 -5 -1 -10 4
-10 6 0 11 6 11 14 0 16 -31 26 -80 25 -29 0 -31 -2 -15 -9z"/>
<path d="M2417 2373 c-12 -11 -8 -23 8 -23 8 0 15 7 15 15 0 16 -12 20 -23 8z"/>
<path d="M4125 2315 c-37 -34 -51 -52 -38 -49 11 3 34 19 49 35 15 16 34 29
41 29 7 0 13 9 13 20 0 11 -1 20 -2 20 -2 -1 -30 -25 -63 -55z"/>
<path d="M4678 2349 c-10 -10 -13 -21 -8 -24 5 -3 14 4 20 16 15 27 10 30 -12
8z"/>
<path d="M2263 2346 c-22 -10 -31 -26 -15 -26 12 0 48 28 42 32 -3 2 -15 -1
-27 -6z"/>
<path d="M4210 2336 c0 -10 28 -13 41 -5 10 6 7 9 -13 9 -16 0 -28 -2 -28 -4z"/>
<path d="M5021 2294 c0 -11 3 -14 6 -6 3 7 2 16 -1 19 -3 4 -6 -2 -5 -13z"/>
<path d="M2416 2284 c-4 -9 1 -14 14 -14 23 0 27 15 6 23 -8 3 -17 -1 -20 -9z"/>
<path d="M1563 2223 c-35 -3 -43 -8 -43 -24 0 -10 3 -19 7 -19 18 0 93 34 93
41 0 5 -3 8 -7 7 -5 -1 -27 -3 -50 -5z"/>
<path d="M3956 2160 c-39 -39 -73 -70 -76 -70 -20 0 -85 -76 -95 -110 -6 -19
0 -15 23 17 17 22 43 49 58 60 28 19 139 125 163 156 32 41 -9 11 -73 -53z"/>
<path d="M3850 2201 c0 -5 -10 -12 -22 -14 -21 -4 -20 -4 3 -6 16 0 29 5 33
14 3 8 1 15 -4 15 -6 0 -10 -4 -10 -9z"/>
<path d="M5240 2140 c-11 -7 -5 -9 22 -7 20 1 34 5 31 10 -6 10 -35 9 -53 -3z"/>
<path d="M1405 2129 c-22 -5 -44 -14 -49 -19 -6 -6 -17 -10 -26 -10 -9 0 -26
-9 -38 -20 -12 -11 -25 -20 -29 -20 -15 0 -83 -50 -83 -61 0 -14 31 -4 115 37
39 19 76 34 83 34 24 0 192 55 192 62 0 11 -115 8 -165 -3z"/>
<path d="M3750 2126 c0 -2 14 -6 30 -8 17 -3 30 -1 30 4 0 4 -13 8 -30 8 -16
0 -30 -2 -30 -4z"/>
<path d="M5168 2063 c7 -3 16 -2 19 1 4 3 -2 6 -13 5 -11 0 -14 -3 -6 -6z"/>
<path d="M1956 2024 c-4 -10 -1 -14 6 -12 15 5 23 28 10 28 -5 0 -13 -7 -16
-16z"/>
<path d="M1125 1960 c-3 -5 3 -10 14 -10 12 0 21 5 21 10 0 6 -6 10 -14 10 -8
0 -18 -4 -21 -10z"/>
<path d="M3750 1939 c0 -5 5 -7 10 -4 6 3 10 8 10 11 0 2 -4 4 -10 4 -5 0 -10
-5 -10 -11z"/>
<path d="M5811 1914 c0 -11 3 -14 6 -6 3 7 2 16 -1 19 -3 4 -6 -2 -5 -13z"/>
<path d="M1760 1910 c-9 -6 -10 -10 -3 -10 6 0 15 5 18 10 8 12 4 12 -15 0z"/>
<path d="M1780 1890 c-9 -6 -10 -10 -3 -10 6 0 15 5 18 10 8 12 4 12 -15 0z"/>
<path d="M1720 1849 c0 -5 5 -7 10 -4 6 3 10 8 10 11 0 2 -4 4 -10 4 -5 0 -10
-5 -10 -11z"/>
<path d="M8130 1450 c0 -5 5 -10 11 -10 5 0 7 5 4 10 -3 6 -8 10 -11 10 -2 0
-4 -4 -4 -10z"/>
<path d="M8215 1440 c-19 -7 -19 -8 -2 -15 19 -8 31 -2 26 13 -2 5 -13 6 -24
2z"/>
<path d="M7596 1405 c4 -8 11 -15 16 -15 6 0 5 6 -2 15 -7 8 -14 15 -16 15 -2
0 -1 -7 2 -15z"/>
<path d="M8231 1394 c0 -11 3 -14 6 -6 3 7 2 16 -1 19 -3 4 -6 -2 -5 -13z"/>
<path d="M8120 1300 c0 -5 7 -10 16 -10 8 0 12 5 9 10 -3 6 -10 10 -16 10 -5
0 -9 -4 -9 -10z"/>
<path d="M7780 1246 c0 -13 79 -84 100 -90 20 -6 16 0 -20 34 -44 40 -80 65
-80 56z"/>
<path d="M7620 1202 c1 -15 39 -56 46 -49 4 4 -5 18 -19 31 -15 14 -27 22 -27
18z"/>
<path d="M7675 1120 c3 -5 8 -10 11 -10 2 0 4 5 4 10 0 6 -5 10 -11 10 -5 0
-7 -4 -4 -10z"/>
<path d="M7710 1101 c0 -5 5 -13 10 -16 6 -3 10 -2 10 4 0 5 -4 13 -10 16 -5
3 -10 2 -10 -4z"/>
<path d="M7510 1071 c0 -6 4 -13 10 -16 6 -3 7 1 4 9 -7 18 -14 21 -14 7z"/>
<path d="M7800 1007 c25 -24 55 -56 67 -70 13 -15 28 -27 35 -27 11 0 -7 21
-95 111 -16 16 -34 29 -40 29 -7 0 8 -20 33 -43z"/>
<path d="M7735 920 c-3 -5 1 -10 10 -10 9 0 13 5 10 10 -3 6 -8 10 -10 10 -2
0 -7 -4 -10 -10z"/>
<path d="M8100 905 c0 -8 2 -15 4 -15 2 0 6 7 10 15 3 8 1 15 -4 15 -6 0 -10
-7 -10 -15z"/>
<path d="M7710 846 c0 -2 7 -7 16 -10 8 -3 12 -2 9 4 -6 10 -25 14 -25 6z"/>
<path d="M7752 800 c7 -10 14 -18 15 -16 6 6 -9 36 -18 36 -5 0 -4 -9 3 -20z"/>
<path d="M8022 781 c16 -26 27 -27 24 -3 -2 9 -11 19 -20 20 -15 3 -16 1 -4
-17z"/>
<path d="M7780 753 c0 -10 4 -23 8 -29 9 -14 62 -24 62 -13 0 5 -7 9 -15 9 -9
0 -21 11 -27 25 -13 29 -28 33 -28 8z"/>
<path d="M7652 713 c25 -53 34 -63 52 -63 20 1 20 1 3 11 -10 6 -22 22 -27 35
-5 13 -14 24 -20 24 -6 0 -10 -3 -8 -7z"/>
<path d="M7616 666 c6 -16 34 -29 43 -20 6 6 -27 34 -41 34 -4 0 -5 -6 -2 -14z"/>
<path d="M8246 578 c4 -7 25 -28 46 -47 21 -19 38 -40 38 -48 0 -7 9 -13 20
-13 11 0 20 3 20 6 0 8 -91 94 -113 106 -15 8 -18 7 -11 -4z"/>
<path d="M7690 570 c0 -6 7 -13 15 -16 8 -4 15 -12 15 -20 0 -8 5 -14 10 -14
6 0 10 -4 10 -10 0 -5 10 -19 23 -32 12 -13 29 -34 38 -48 9 -14 20 -22 24
-18 7 7 -114 167 -127 168 -5 0 -8 -5 -8 -10z"/>
<path d="M8253 530 c6 -11 15 -20 19 -20 12 0 -3 28 -18 34 -11 4 -12 2 -1
-14z"/>
<path d="M7594 519 c-4 -7 -3 -9 4 -5 5 3 13 0 15 -6 4 -9 6 -10 6 -1 1 17
-16 25 -25 12z"/>
<path d="M8060 480 c0 -5 5 -10 11 -10 5 0 7 5 4 10 -3 6 -8 10 -11 10 -2 0
-4 -4 -4 -10z"/>
<path d="M8110 420 c0 -5 5 -10 11 -10 5 0 7 5 4 10 -3 6 -8 10 -11 10 -2 0
-4 -4 -4 -10z"/>
<path d="M7828 393 c7 -3 20 -18 28 -35 13 -25 13 -32 3 -39 -8 -4 -10 -12 -5
-16 5 -4 11 -2 13 5 7 18 30 15 42 -5 10 -17 10 -17 11 0 0 21 -72 97 -92 96
-10 0 -10 -2 0 -6z"/>
<path d="M7635 320 c4 -6 11 -8 16 -5 14 9 11 15 -7 15 -8 0 -12 -5 -9 -10z"/>
<path d="M8221 303 c13 -17 49 -56 137 -151 79 -85 76 -80 61 -98 -14 -18 -12
-17 40 13 2 2 -29 37 -70 79 -41 42 -95 98 -121 125 -46 48 -74 67 -47 32z"/>
<path d="M7940 276 c0 -9 108 -146 115 -146 12 0 3 22 -19 47 -73 84 -95 107
-96 99z"/>
<path d="M8060 183 c1 -10 36 -53 44 -53 14 0 5 24 -16 41 -23 21 -28 23 -28
12z"/>
<path d="M8070 123 c0 -6 20 -36 46 -67 50 -61 84 -74 84 -31 0 14 -4 25 -10
25 -5 0 -7 -7 -4 -15 12 -31 -16 -13 -65 43 -28 31 -51 52 -51 45z"/>
<path d="M8175 119 c-4 -6 -5 -12 -2 -15 2 -3 7 2 10 11 7 17 1 20 -8 4z"/>
<path d="M7851 107 c-1 -10 -8 -20 -16 -23 -24 -10 -17 -32 15 -49 17 -9 30
-20 30 -25 0 -6 7 -10 15 -10 18 0 19 14 2 32 -7 7 -20 31 -30 53 -9 22 -16
32 -16 22z"/>
<path d="M8150 71 c0 -6 4 -13 10 -16 6 -3 7 1 4 9 -7 18 -14 21 -14 7z"/>
<path d="M8446 45 c-11 -8 -16 -18 -12 -22 4 -4 11 -1 16 7 7 12 12 11 28 -8
19 -22 42 -29 42 -14 0 7 -46 53 -53 52 -1 0 -11 -7 -21 -15z"/>
<path d="M8020 29 c0 -5 5 -7 10 -4 6 3 10 8 10 11 0 2 -4 4 -10 4 -5 0 -10
-5 -10 -11z"/>
<path d="M8245 10 c-3 -5 -1 -10 4 -10 6 0 11 5 11 10 0 6 -2 10 -4 10 -3 0
-8 -4 -11 -10z"/>
</g>
</svg>
