<?xml version="1.0" standalone="no"?>
<!DOCTYPE svg PUBLIC "-//W3C//DTD SVG 20010904//EN"
 "http://www.w3.org/TR/2001/REC-SVG-20010904/DTD/svg10.dtd">
<svg version="1.0" xmlns="http://www.w3.org/2000/svg"
 width="455.000000pt" height="569.000000pt" viewBox="0 0 455.000000 569.000000"
 preserveAspectRatio="xMidYMid meet">

<g transform="translate(0.000000,569.000000) scale(0.100000,-0.100000)"
fill="#000000" stroke="none">
<path d="M0 4199 l0 -1491 68 5 c71 6 73 7 -46 -19 l-22 -4 1 -1098 c0 -603 4
-1106 9 -1117 8 -17 9 -18 11 -2 3 33 4 35 12 43 4 4 7 2 7 -4 0 -7 11 -12 24
-12 13 0 29 -6 35 -14 14 -16 61 -9 61 10 0 17 17 18 24 2 3 -10 8 -8 16 4 6
9 17 15 25 12 8 -4 13 -9 10 -13 -2 -4 2 -8 10 -8 8 0 16 6 19 14 3 7 -1 13
-10 13 -10 0 -14 6 -10 15 7 19 -8 19 -24 0 -15 -18 -29 -19 -65 -5 -42 16
-16 36 44 35 34 -1 47 3 44 11 -2 6 5 14 16 17 12 3 21 1 21 -4 0 -5 7 -9 15
-9 18 0 20 17 2 23 -19 7 -11 10 131 57 93 31 132 48 133 59 0 11 2 12 6 4 2
-7 12 -13 20 -13 10 0 13 -6 9 -16 -4 -10 -1 -14 6 -11 7 2 12 14 11 25 -2 16
4 23 25 28 15 4 33 11 39 16 16 13 149 48 179 48 12 0 25 6 28 13 3 6 4 1 3
-13 -2 -21 2 -25 21 -23 26 3 29 -12 4 -26 -13 -8 -4 -10 35 -7 55 3 80 -5 69
-23 -4 -6 -13 -8 -19 -4 -7 4 -6 -1 2 -11 8 -9 22 -15 31 -13 9 2 25 -2 36
-10 16 -12 17 -15 4 -23 -13 -9 -13 -10 0 -11 8 -1 18 -1 22 0 11 2 10 -6 -16
-84 -18 -53 -25 -64 -27 -45 -2 14 -12 26 -23 28 -11 3 -16 0 -12 -7 4 -6 0
-18 -8 -27 -9 -9 -14 -20 -11 -25 4 -5 1 -9 -4 -9 -6 0 -11 -4 -11 -10 0 -5
11 -10 25 -10 19 0 25 5 25 22 0 16 3 19 11 11 22 -22 -16 -69 -66 -83 -25 -7
-45 -17 -45 -22 0 -5 7 -5 18 0 9 4 24 8 32 7 8 -1 21 3 28 8 8 6 12 5 12 -4
0 -24 -14 -36 -50 -44 -43 -9 -60 -22 -53 -41 3 -9 -2 -14 -18 -15 -17 -1 -19
-3 -6 -6 37 -10 14 -22 -38 -20 -37 1 -55 6 -55 15 0 7 -6 12 -14 10 -8 -2
-15 2 -15 7 0 6 -10 13 -23 17 -23 6 -23 6 2 7 14 1 34 8 44 16 20 15 17 18
-29 28 -15 4 -14 5 6 6 18 1 34 12 50 35 13 19 29 32 36 29 18 -7 16 12 -3 28
-15 12 -14 15 5 30 11 9 18 19 15 22 -4 3 -54 4 -113 2 -66 -2 -92 -1 -68 4
49 10 59 21 18 21 -22 0 -30 4 -26 13 4 6 1 5 -7 -4 -7 -9 -28 -16 -46 -17
-18 0 -40 -6 -48 -13 -13 -10 -17 -10 -24 1 -7 12 -13 10 -33 -8 -22 -21 -35
-23 -140 -25 -64 -1 -112 -4 -106 -8 10 -6 -65 -39 -88 -39 -6 0 -13 -6 -16
-14 -5 -12 2 -12 46 1 29 8 59 21 67 28 16 14 80 30 80 21 0 -9 -39 -46 -48
-46 -16 0 -107 -49 -93 -49 13 -1 13 -3 2 -13 -11 -10 -15 -10 -18 -1 -3 8
-15 10 -34 6 -18 -3 -29 -1 -29 6 0 6 -7 11 -16 11 -10 0 -14 -6 -11 -14 3 -8
-1 -17 -9 -20 -9 -3 -12 -1 -9 4 3 6 -1 10 -9 10 -8 0 -18 -4 -21 -10 -8 -12
-25 -13 -25 -1 0 5 13 14 30 21 16 7 27 16 24 21 -3 5 4 9 16 9 12 0 19 4 16
9 -7 11 -48 2 -58 -13 -7 -11 -14 -13 -54 -15 -18 -1 -22 -7 -22 -42 l-1 -41
35 5 c19 3 34 2 34 -4 0 -5 18 -9 41 -9 24 0 38 -4 34 -10 -8 -13 -62 -13 -70
0 -3 6 -22 10 -41 10 -34 0 -34 -1 -34 -44 0 -26 5 -46 13 -49 10 -4 10 -6 0
-6 -8 -1 -13 -15 -13 -36 0 -27 4 -35 18 -35 16 -1 16 -1 0 -14 -14 -10 -18
-28 -18 -70 l0 -56 390 0 c263 1 390 4 390 11 0 6 -14 9 -32 7 -19 -2 -33 2
-35 10 -3 7 4 13 16 14 49 4 78 8 106 14 l30 7 -28 -23 c-22 -18 -26 -25 -15
-31 19 -13 290 -9 306 3 8 7 16 7 25 -1 10 -8 484 -11 1705 -11 l1692 0 0
2845 0 2845 -929 0 -930 0 -103 -34 c-82 -26 -291 -89 -411 -123 -10 -3 -16
-7 -14 -9 5 -5 382 102 399 112 16 10 126 25 221 30 93 6 97 5 97 -14 0 -13
-8 -22 -22 -25 -13 -3 2 -3 32 -1 54 3 54 3 25 -11 -40 -18 -260 -86 -413
-127 -68 -18 -118 -34 -112 -36 6 -2 51 8 101 22 49 14 100 26 112 26 13 0 27
4 33 8 5 5 57 21 115 36 88 22 113 25 140 17 32 -10 33 -11 4 -7 -26 4 -28 3
-12 -9 14 -10 15 -14 5 -19 -7 -3 3 -3 22 -1 l35 5 -30 -14 -30 -15 30 5 c23
4 27 3 15 -5 -8 -6 -23 -11 -33 -11 -10 0 -15 -5 -12 -10 4 -6 16 -8 28 -5 21
5 21 5 2 -4 -11 -6 -90 -29 -175 -52 -85 -23 -162 -46 -170 -51 -9 -5 -3 -6
15 -1 17 4 41 7 55 8 14 0 27 3 30 6 7 10 333 89 339 83 3 -3 -1 -9 -9 -14
-12 -8 -9 -10 10 -10 14 0 32 -5 40 -10 13 -8 11 -11 -7 -16 -42 -12 -23 -21
35 -17 l57 3 -60 -19 c-33 -10 -88 -27 -122 -37 -83 -23 -74 -29 13 -9 38 9
86 18 108 20 33 4 36 2 26 -10 -9 -11 -9 -15 -1 -15 18 0 13 -18 -6 -23 -13
-3 -11 -5 7 -7 l25 -2 -25 -8 c-23 -7 -22 -8 10 -9 l35 -2 -40 -14 c-22 -7
-66 -21 -99 -30 -67 -19 -71 -31 -5 -16 82 19 199 37 199 31 0 -3 -28 -12 -62
-20 -39 -9 -54 -16 -40 -18 12 -2 22 -7 22 -12 0 -5 6 -8 13 -6 30 10 101 15
82 6 -18 -8 -18 -9 -2 -9 34 -2 7 -19 -40 -26 -26 -4 -67 -16 -92 -26 l-46
-20 55 6 c30 4 75 8 100 10 l45 5 -40 -14 c-22 -8 -32 -15 -23 -15 9 -1 25 -4
35 -7 15 -5 15 -4 3 5 -13 9 -13 11 0 10 8 -1 26 -4 40 -8 25 -7 27 -7 -345
-87 -130 -28 -333 -69 -725 -147 -14 -3 -162 -32 -330 -66 -168 -34 -393 -77
-500 -96 -107 -19 -232 -42 -278 -51 -46 -9 -86 -14 -88 -11 -3 2 10 8 28 12
18 4 28 9 21 11 -6 3 -37 -2 -69 -10 -32 -8 -60 -14 -62 -12 -3 3 90 34 153
50 26 7 -122 -4 -155 -11 -24 -5 -24 -5 -5 10 19 15 19 16 -10 22 -49 11 -52
13 -19 14 19 1 34 7 38 16 4 12 -4 15 -39 15 -25 0 -45 4 -45 9 0 5 -9 13 -20
16 -29 9 -25 21 12 33 l33 10 -37 1 c-21 1 -38 6 -38 12 0 7 -10 20 -22 30
-11 11 -16 19 -10 19 7 0 12 5 12 11 0 7 -14 8 -40 4 -32 -5 -41 -3 -46 9 -3
9 -15 16 -25 16 -24 0 -25 30 -1 30 9 1 28 7 42 15 25 14 25 14 -15 15 -22 0
-50 7 -62 15 -15 11 -35 14 -65 10 -52 -7 -36 6 38 31 81 27 97 34 91 40 -6 6
-80 -12 -114 -28 -24 -12 -53 -5 -53 12 0 6 5 8 10 5 14 -8 50 4 50 17 0 6 -9
8 -20 5 -10 -3 -19 -2 -18 2 2 18 -3 24 -11 12 -6 -9 -11 -10 -15 -3 -4 6 16
22 46 37 29 15 42 24 28 21 -14 -4 -47 -9 -75 -13 -44 -6 -49 -4 -37 9 19 24
-9 42 -56 35 -36 -5 -36 -5 13 17 28 12 82 33 122 46 40 13 71 26 69 28 -2 1
-49 -9 -104 -23 -111 -28 -126 -30 -117 -15 3 6 14 10 24 10 10 0 18 7 18 16
0 11 -7 14 -26 9 -25 -6 -25 -6 -6 9 19 15 18 15 -15 10 -33 -4 -32 -3 15 19
28 13 136 54 240 91 105 37 206 73 225 81 19 8 76 28 125 45 50 17 155 53 234
80 79 27 147 53 150 56 9 10 -81 -5 -94 -15 -5 -5 -62 -27 -125 -49 -63 -22
-167 -59 -230 -82 -63 -23 -153 -54 -200 -70 -47 -16 -134 -46 -195 -68 -121
-43 -180 -57 -170 -42 3 6 19 10 35 10 16 0 31 4 35 9 5 9 -7 12 -85 24 -14 3
-1 5 28 6 29 0 52 6 52 12 0 6 -15 9 -34 8 -19 -2 -38 0 -42 4 -4 4 0 7 9 7
10 0 17 3 17 8 0 4 15 12 33 18 73 25 312 119 317 124 3 4 30 14 61 24 90 28
209 78 169 71 -19 -3 -117 -37 -217 -75 -347 -134 -403 -152 -410 -133 -7 17
-39 53 -48 53 -2 0 -2 -7 2 -17 5 -14 1 -15 -26 -10 -18 4 -41 2 -52 -3 -11
-6 -19 -7 -19 -1 0 5 17 16 38 26 20 9 53 25 73 36 45 24 66 24 72 2 3 -14 6
-12 15 10 7 15 24 32 39 37 16 6 37 14 48 19 11 5 36 16 56 25 20 8 47 20 60
25 13 5 17 10 9 10 -17 1 -105 -31 -116 -42 -4 -4 -16 -7 -27 -7 -10 0 -31 -6
-45 -14 -45 -24 -152 -59 -159 -52 -3 3 1 6 10 6 9 0 17 4 17 9 0 5 6 11 13
14 6 2 0 2 -15 0 -14 -2 -29 1 -33 6 -4 7 1 9 12 5 11 -3 7 4 -12 21 l-30 27
28 -6 c18 -4 27 -2 27 6 0 10 2 10 9 0 6 -10 10 -10 20 2 7 8 8 16 4 19 -4 3
-72 5 -150 6 l-143 1 0 -1491z m2980 1291 c-8 -5 -22 -10 -30 -10 -13 0 -13 1
0 10 8 5 22 10 30 10 13 0 13 -1 0 -10z m-2670 -25 c0 -8 -9 -15 -20 -15 -13
0 -18 5 -14 15 4 8 12 15 20 15 8 0 14 -7 14 -15z m265 -465 c13 -6 15 -9 5
-9 -8 0 -22 4 -30 9 -18 12 -2 12 25 0z m2245 -19 c-14 -7 -77 -21 -169 -36
-69 -11 -19 8 61 24 102 20 129 23 108 12z m-223 -47 c-3 -3 -12 -4 -19 -1 -8
3 -5 6 6 6 11 1 17 -2 13 -5z m-1634 -291 c-7 -2 -19 -2 -25 0 -7 3 -2 5 12 5
14 0 19 -2 13 -5z m-70 -10 c-7 -2 -19 -2 -25 0 -7 3 -2 5 12 5 14 0 19 -2 13
-5z m902 -535 c1 -13 3 -45 4 -73 1 -45 3 -48 15 -32 11 14 15 15 19 5 4 -9 6
-9 6 2 1 9 10 16 21 17 19 2 20 -5 22 -100 1 -67 3 -82 5 -43 4 51 6 56 17 41
11 -16 14 -13 24 27 7 25 19 48 27 52 8 3 15 16 15 30 0 14 5 28 10 31 6 4 10
-46 11 -142 l2 -148 12 80 c7 44 13 65 14 48 0 -18 5 -33 10 -33 5 0 7 -10 4
-22 -4 -22 -4 -23 11 -4 18 22 22 92 6 99 -6 3 -5 4 2 3 7 -1 16 -22 19 -47 4
-29 7 -35 7 -16 1 16 6 26 11 22 6 -3 12 14 15 37 13 100 14 80 9 -172 -6
-310 -6 -411 2 -418 3 -3 5 27 5 66 0 46 4 72 11 72 7 0 9 -10 5 -25 -5 -19
-2 -27 11 -31 10 -3 26 -10 35 -15 30 -15 36 18 24 118 -7 51 -9 96 -5 100 4
5 9 41 10 81 1 40 6 75 11 78 4 3 8 15 8 26 0 12 3 19 6 15 10 -10 0 -704 -11
-759 -6 -32 -9 -35 -21 -23 -8 7 -14 21 -14 29 0 13 -4 12 -20 -4 -12 -12 -25
-18 -29 -15 -5 2 -12 -5 -17 -18 -5 -15 -10 10 -14 78 l-6 100 -2 -82 c-3
-113 -12 -132 -47 -96 -16 16 -18 16 -27 0 -5 -9 -16 -17 -23 -17 -12 0 -15
16 -16 68 l-1 67 -9 -60 c-12 -79 -12 -80 -31 -61 -9 9 -21 16 -26 16 -6 0
-12 6 -15 13 -2 6 -4 -6 -3 -28 1 -36 -2 -40 -29 -46 -33 -7 -19 -10 53 -11
38 0 42 -3 43 -27 l1 -26 9 27 c9 24 13 26 35 18 13 -5 24 -6 24 -3 0 4 5 2
12 -5 8 -8 15 -9 25 -1 11 9 13 -2 14 -62 0 -80 16 -71 19 11 l2 45 13 -30 c8
-16 14 -24 15 -16 0 25 29 -21 30 -49 1 -14 4 -19 7 -12 2 6 9 10 14 6 5 -3 9
0 9 5 0 6 4 11 9 11 11 0 14 -167 4 -229 -7 -44 -7 -45 -14 -16 l-7 30 -2 -35
c-2 -32 -3 -33 -9 -10 -6 21 -8 17 -14 -26 -7 -49 -26 -81 -40 -67 -4 3 -8
-20 -8 -53 -1 -32 -5 -72 -9 -89 -4 -17 -9 74 -11 210 l-3 240 -6 -145 c-10
-202 -9 -188 -20 -170 -5 8 -10 11 -10 5 0 -5 -7 -2 -14 8 -13 17 -15 15 -26
-19 -8 -24 -15 -32 -20 -24 -6 9 -9 8 -12 -6 -3 -10 -8 13 -12 51 -9 85 -14
103 -15 53 -1 -42 -21 -53 -21 -12 0 22 -2 25 -15 14 -12 -10 -15 -10 -16 1 0
8 -5 2 -10 -13 -6 -16 -19 -28 -32 -30 -20 -3 -22 -10 -25 -75 -2 -56 -6 -73
-17 -73 -10 0 -15 12 -16 38 -1 20 -4 48 -8 62 -7 23 -9 21 -18 -20 l-11 -45
-2 35 c-1 19 -4 29 -7 23 -15 -38 -42 21 -44 96 l-1 46 -13 -55 c-7 -30 -13
-48 -14 -40 -2 23 -19 -2 -24 -35 -3 -16 -3 2 -2 41 3 70 3 72 -21 72 -13 0
-21 -4 -18 -9 3 -5 0 -26 -6 -48 -12 -45 5 -40 -310 -85 -221 -32 -340 -42
-348 -29 -4 5 -45 17 -92 27 -239 49 -405 88 -419 97 -11 7 9 9 66 6 50 -3 85
-1 89 5 4 5 29 8 58 7 28 -2 76 0 106 4 198 25 352 23 564 -8 163 -24 256 -31
244 -19 -5 5 -43 12 -75 13 -7 1 -15 12 -19 26 -8 33 -24 32 -24 -1 0 -44 -25
-21 -26 24 -1 54 11 74 30 49 22 -28 30 -4 36 102 6 111 20 126 46 49 17 -51
18 -52 24 -23 3 17 11 29 18 28 13 -3 24 34 26 86 1 23 5 35 14 34 6 -2 12 6
12 16 0 25 -10 28 -110 30 -98 2 -130 8 -130 25 0 6 7 51 15 99 9 48 13 93 9
99 -4 6 -3 8 3 5 6 -4 13 10 17 36 4 23 14 77 24 120 l17 77 91 0 c101 0 125
11 105 49 -6 11 -11 30 -12 43 0 22 -1 22 -8 3 -5 -11 -7 -23 -4 -28 6 -11 -7
-47 -18 -47 -5 0 -9 43 -9 95 0 76 -3 97 -15 101 -16 6 -11 53 7 65 4 3 12 32
17 65 l9 59 1 -50 c2 -73 14 -86 41 -44 14 22 19 26 15 12 -4 -14 -2 -23 5
-23 16 0 20 17 30 116 5 49 11 103 15 119 3 17 11 56 17 88 11 58 19 67 23 25z
m442 -110 c-3 -8 -6 -5 -6 6 -1 11 2 17 5 13 3 -3 4 -12 1 -19z m-540 -25 c-3
-10 -5 -4 -5 12 0 17 2 24 5 18 2 -7 2 -21 0 -30z m580 -20 c-3 -10 -5 -2 -5
17 0 19 2 27 5 18 2 -10 2 -26 0 -35z m-128 -111 c1 -7 -3 -10 -9 -7 -5 3 -10
21 -9 38 1 31 1 31 9 7 4 -14 8 -31 9 -38z m129 -72 c-3 -66 -1 -117 3 -114 5
3 7 -23 4 -58 -3 -45 -2 -52 3 -23 l8 40 6 -48 c6 -52 1 -90 -12 -82 -4 3 -10
-4 -13 -15 -3 -11 -2 -18 2 -16 4 3 15 -4 24 -14 14 -17 19 -33 27 -85 1 -5 6
1 12 15 l10 25 9 -30 c11 -37 0 -272 -12 -253 -6 9 -9 10 -9 1 0 -7 -7 -10
-15 -7 -9 4 -15 0 -15 -7 0 -8 -9 -25 -20 -39 -38 -48 -42 -16 -36 280 6 312
17 550 24 550 3 0 3 -54 0 -120z m19 23 c-3 -10 -5 -4 -5 12 0 17 2 24 5 18 2
-7 2 -21 0 -30z m-153 -123 c-3 -43 -2 -50 6 -30 8 22 9 20 4 -10 -3 -19 -8
-56 -11 -82 -3 -26 -10 -45 -14 -42 -10 6 -12 87 -3 97 4 3 6 50 6 104 0 75 2
89 8 58 4 -22 6 -65 4 -95z m39 -45 c4 -8 2 -17 -3 -20 -6 -4 -10 3 -10 14 0
25 6 27 13 6z m-646 -112 c-2 -21 -4 -4 -4 37 0 41 2 58 4 38 2 -21 2 -55 0
-75z m643 37 c0 -5 -7 -10 -15 -10 -8 0 -15 5 -15 10 0 6 7 10 15 10 8 0 15
-4 15 -10z m299 -169 c17 -11 29 -187 14 -202 -6 -6 -17 -1 -31 11 l-22 20
-12 -20 c-7 -11 -16 -20 -20 -20 -11 0 -10 52 1 69 5 8 3 24 -6 42 -8 16 -12
41 -10 56 4 26 4 26 6 -4 2 -45 17 -42 26 4 10 56 21 65 54 44z m-218 -566 c7
-7 8 -4 4 6 -4 10 -2 20 4 24 18 10 17 -51 -1 -72 -7 -9 -3 -23 12 -48 19 -31
21 -42 13 -83 -6 -34 -14 -50 -30 -57 -16 -7 -23 -20 -26 -50 -2 -22 -4 -1 -5
46 -2 98 11 319 16 274 2 -16 8 -34 13 -40z m86 -187 c-3 -7 -5 -2 -5 12 0 14
2 19 5 13 2 -7 2 -19 0 -25z m-1017 12 c0 -5 -2 -10 -4 -10 -3 0 -8 5 -11 10
-3 6 -1 10 4 10 6 0 11 -4 11 -10z m1047 -62 c-2 -13 -4 -5 -4 17 -1 22 1 32
4 23 2 -10 2 -28 0 -40z m-300 -140 c-2 -13 -4 -3 -4 22 0 25 2 35 4 23 2 -13
2 -33 0 -45z m103 12 c0 -5 -4 -10 -10 -10 -5 0 -10 5 -10 10 0 6 5 10 10 10
6 0 10 -4 10 -10z m-433 -22 c-3 -8 -6 -5 -6 6 -1 11 2 17 5 13 3 -3 4 -12 1
-19z m769 -127 c5 -6 43 -27 84 -48 58 -30 75 -43 76 -60 1 -13 -5 -23 -12
-23 -8 0 -14 -6 -14 -12 0 -10 -2 -10 -8 0 -5 7 -16 10 -25 6 -10 -3 -17 -1
-17 5 0 6 -9 11 -20 11 -22 0 -27 -16 -8 -22 17 -6 0 -28 -21 -28 -22 0 -41
-19 -41 -42 0 -10 -4 -18 -10 -18 -5 0 -10 -7 -10 -15 0 -19 -42 -43 -48 -26
-2 6 -15 11 -28 11 -19 0 -24 -5 -24 -26 0 -15 -4 -23 -11 -19 -6 4 -13 -2
-16 -14 -3 -12 -12 -21 -19 -21 -8 0 -13 -3 -13 -7 3 -21 -2 -33 -16 -33 -8 0
-14 -3 -14 -7 4 -23 -3 -35 -16 -29 -10 4 -22 -5 -35 -27 -11 -17 -20 -29 -20
-26 0 13 26 65 54 108 15 24 49 87 74 140 64 133 121 231 136 231 7 0 16 -4
22 -9z m285 -120 c-6 -4 -27 -5 -47 -3 -20 3 -31 8 -25 11 6 4 27 5 47 3 20
-3 31 -8 25 -11z m-171 -51 c0 -5 -2 -10 -4 -10 -3 0 -8 5 -11 10 -3 6 -1 10
4 10 6 0 11 -4 11 -10z m-69 -29 c-8 -5 -11 -16 -8 -25 5 -11 1 -16 -13 -16
-11 0 -20 6 -20 13 0 18 21 37 40 37 12 0 13 -2 1 -9z m39 -11 c0 -5 -4 -10
-10 -10 -5 0 -10 5 -10 10 0 6 5 10 10 10 6 0 10 -4 10 -10z m-536 -226 c78
-20 145 -40 149 -44 5 -4 3 -18 -4 -31 -7 -13 -12 -27 -11 -31 1 -5 -2 -8 -8
-8 -6 0 -5 -9 1 -24 7 -14 17 -22 25 -19 8 3 14 1 14 -3 0 -5 34 -22 75 -39
74 -29 93 -45 55 -45 -11 0 -20 4 -20 9 0 5 -37 21 -82 36 -68 22 -91 25 -145
19 -64 -6 -72 -11 -52 -31 7 -7 21 -8 42 -2 19 5 35 5 41 -1 11 -11 -2 -16
-61 -23 -40 -5 -43 -3 -43 18 0 29 -10 55 -20 55 -5 0 -6 -8 -4 -17 7 -31 -20
-52 -70 -57 -26 -3 -58 0 -71 6 -19 8 -27 7 -39 -4 -19 -19 -11 -28 26 -28 15
0 28 -4 28 -10 0 -18 -44 -11 -94 15 -52 26 -71 32 -46 14 12 -9 11 -10 -5 -4
-45 15 -87 17 -110 5 -13 -7 -33 -10 -45 -7 -16 4 -24 1 -27 -13 -3 -11 -11
-16 -19 -13 -8 3 -11 10 -8 15 7 10 -13 28 -31 28 -5 0 -3 -4 5 -10 23 -14 8
-20 -59 -25 -42 -2 -65 0 -73 9 -7 7 -20 11 -29 9 -9 -3 -23 3 -32 11 -8 9
-39 21 -69 27 -29 6 -58 15 -64 21 -7 5 -16 8 -20 7 -5 -1 -16 -1 -24 0 -13 1
-13 2 0 12 11 7 6 8 -20 3 -101 -19 67 34 195 61 33 8 141 35 240 60 159 42
333 82 359 84 5 1 73 -15 150 -35z m172 -215 c3 -6 2 -15 -2 -19 -12 -12 -38
5 -30 19 9 14 23 14 32 0z m-76 -29 c0 -5 -7 -10 -16 -10 -8 0 -12 5 -9 10 3
6 10 10 16 10 5 0 9 -4 9 -10z m-197 -19 c13 -5 27 -17 30 -25 5 -12 0 -16
-21 -16 -34 0 -68 23 -58 38 9 14 17 15 49 3z m344 1 c8 -5 2 -12 -18 -21 -23
-10 -34 -10 -42 -2 -8 8 -5 11 11 11 12 0 22 5 22 10 0 12 10 13 27 2z m-294
-69 c-13 -2 -33 -2 -45 0 -13 2 -3 4 22 4 25 0 35 -2 23 -4z m-986 -80 c-2
-16 -4 -5 -4 22 0 28 2 40 4 28 2 -13 2 -35 0 -50z m-182 17 c-11 -5 -29 -9
-40 -9 -17 -1 -17 1 -5 9 8 5 26 9 40 9 23 0 23 -1 5 -9z m-77 -16 c-3 -3 -20
-6 -37 -6 -18 -1 -34 -5 -37 -10 -3 -4 -17 -8 -32 -7 -26 0 -25 1 8 13 35 14
108 21 98 10z m1052 -58 c69 -24 169 -62 223 -83 95 -38 97 -40 72 -53 -34
-18 -25 -24 22 -11 33 9 36 8 20 -4 -18 -13 -18 -13 0 -18 10 -3 5 -5 -14 -6
-17 0 -39 -4 -49 -8 -12 -4 -15 -3 -10 6 12 19 -43 -12 -84 -48 -26 -23 -32
-33 -22 -39 7 -5 10 -16 6 -25 -3 -10 -1 -17 5 -17 6 0 11 -4 11 -10 0 -5 -13
-10 -28 -10 -27 0 -29 -3 -28 -39 1 -23 9 -47 20 -60 l19 -21 -39 -1 c-61 -2
-88 -12 -94 -38 -3 -13 -14 -27 -25 -31 -18 -6 -18 -9 9 -33 16 -15 34 -27 39
-27 6 0 5 -5 -2 -12 -11 -10 -14 -10 -18 0 -5 14 -43 17 -43 3 0 -5 15 -13 33
-17 17 -4 26 -9 20 -11 -13 -5 -106 27 -152 52 -15 7 -80 39 -146 70 -66 31
-147 69 -180 85 l-60 29 40 -4 c31 -4 34 -3 15 4 -25 8 -24 10 20 24 9 3 6 6
-8 6 -20 1 -21 4 -12 21 6 11 17 20 25 20 8 0 15 4 15 9 0 25 -14 41 -36 41
-13 0 -24 5 -24 10 0 6 17 10 37 10 20 0 33 3 29 7 -3 4 -24 6 -45 5 -22 -2
-42 2 -46 8 -4 6 5 10 21 10 27 0 27 1 8 15 -10 8 -26 15 -35 15 -16 0 -32 35
-33 70 -1 11 -11 14 -36 12 -22 -2 4 11 70 34 175 61 314 103 340 103 14 1 81
-19 150 -43z m-793 -8 c-3 -7 -5 -2 -5 12 0 14 2 19 5 13 2 -7 2 -19 0 -25z
m3 -27 c0 -15 -60 -31 -109 -30 l-46 1 51 8 c28 4 60 12 70 18 23 14 34 15 34
3z m28 -68 c3 -32 2 -32 -65 -53 -38 -11 -73 -28 -79 -38 -14 -22 0 -62 21
-62 8 0 15 -5 15 -11 0 -5 -13 -2 -30 8 -16 9 -30 21 -30 26 0 4 -15 -6 -32
-23 -22 -21 -29 -34 -20 -37 6 -2 12 -11 12 -18 0 -7 -6 -16 -12 -19 -7 -3 -2
-3 12 0 23 6 24 5 9 -11 -14 -14 -20 -15 -38 -3 -25 15 -27 28 -6 28 8 0 15 4
15 9 0 16 -38 23 -61 10 -13 -6 -48 -15 -78 -20 -31 -5 -79 -12 -107 -17 -29
-4 -60 -5 -70 -1 -17 7 -17 8 -1 8 9 1 17 6 17 11 0 6 -1 10 -2 10 -2 0 -41
-7 -88 -15 -97 -17 -159 -19 -100 -4 19 5 42 13 50 18 9 5 36 12 60 16 25 4
52 13 61 21 12 11 117 33 161 34 5 0 7 6 5 12 -1 7 8 14 21 16 12 2 22 8 22
14 0 16 -117 0 -159 -23 -19 -10 -47 -19 -61 -18 -24 1 -23 1 8 15 17 8 32 19
32 24 0 6 10 10 21 10 12 0 37 9 56 21 19 12 43 19 54 16 27 -7 49 1 49 19 0
18 -6 18 -76 -6 -32 -11 -68 -20 -79 -20 -11 0 -33 -7 -49 -15 -15 -8 -43 -15
-62 -15 -19 0 -57 -9 -86 -20 -29 -11 -66 -20 -83 -20 l-30 0 30 16 c17 9 80
30 140 46 61 16 126 34 145 40 133 38 380 63 380 38 0 -6 -20 -8 -47 -5 -46 4
-83 -7 -83 -25 0 -13 97 -13 105 0 4 6 14 10 23 9 24 -3 52 11 52 26 0 7 12
12 28 11 23 -1 27 -6 30 -33z m-643 -14 c-44 -10 -88 -23 -97 -28 -27 -16
-148 -24 -148 -10 0 6 8 9 20 6 11 -3 20 -1 20 5 0 5 5 6 10 3 6 -4 22 0 35 9
13 9 30 13 38 10 8 -3 30 2 48 10 19 8 61 14 94 14 l60 1 -80 -20z m-318 -55
c-3 -3 -12 -4 -19 -1 -8 3 -5 6 6 6 11 1 17 -2 13 -5z m-50 -50 c-3 -3 -12 -4
-19 -1 -8 3 -5 6 6 6 11 1 17 -2 13 -5z m363 -24 c-8 -5 -24 -9 -35 -9 -16 1
-16 2 5 9 35 11 48 11 30 0z m-265 -19 c-11 -5 -36 -11 -55 -15 l-35 -6 30 15
c17 8 41 14 55 14 23 0 23 -1 5 -8z m820 -31 c28 0 15 -17 -22 -29 -21 -7 -45
-15 -53 -17 -13 -5 -13 -4 0 5 13 9 13 11 -1 11 -9 0 -19 9 -22 20 -3 10 -2
19 2 18 20 -2 31 3 25 13 -3 6 8 4 24 -5 17 -9 38 -16 47 -16z m-675 -50 c0
-5 -4 -10 -10 -10 -5 0 -10 5 -10 10 0 6 5 10 10 10 6 0 10 -4 10 -10z m450 0
c-8 -5 -28 -9 -45 -9 l-30 1 30 8 c17 4 37 8 45 9 13 1 13 0 0 -9z m-393 -6
c-3 -3 -12 -4 -19 -1 -8 3 -5 6 6 6 11 1 17 -2 13 -5z m463 -2 c0 -4 -11 -9
-26 -10 -14 -1 -23 2 -19 8 7 12 45 14 45 2z m-91 -26 c10 -12 8 -13 -8 -9
-12 3 -18 9 -15 14 7 12 10 11 23 -5z m-334 -6 c-11 -5 -29 -9 -40 -9 -17 -1
-17 1 -5 9 8 5 26 9 40 9 23 0 23 -1 5 -9z m292 -5 c0 -10 -11 -15 -33 -15
-39 0 -54 17 -22 23 44 8 55 7 55 -8z m-409 -13 c2 -7 -17 -11 -52 -11 -63 0
-76 16 -18 21 52 5 65 3 70 -10z m52 8 c0 -5 -7 -10 -16 -10 -8 0 -12 5 -9 10
3 6 10 10 16 10 5 0 9 -4 9 -10z m-213 -16 c-3 -3 -12 -4 -19 -1 -8 3 -5 6 6
6 11 1 17 -2 13 -5z m493 -4 c13 -9 13 -10 0 -10 -8 0 -22 5 -30 10 -13 9 -13
10 0 10 8 0 22 -5 30 -10z m-55 -9 c-12 -11 -75 -25 -75 -16 0 8 41 24 65 24
11 1 15 -3 10 -8z m-198 -67 c-3 -3 -12 -4 -19 -1 -8 3 -5 6 6 6 11 1 17 -2
13 -5z m203 -24 c-8 -6 -24 -9 -35 -9 -15 0 -13 4 10 14 32 14 49 10 25 -5z
m776 -297 c-3 -8 -6 -20 -6 -26 0 -8 -3 -8 -8 -2 -4 6 -30 8 -62 4 -51 -5 -52
-6 -15 -8 36 -3 38 -4 15 -11 -19 -7 -11 -8 30 -7 48 2 55 5 61 27 6 23 7 22
8 -7 1 -22 -4 -33 -13 -33 -9 0 -12 -8 -9 -24 4 -19 0 -24 -29 -31 l-33 -8 35
-7 c32 -7 33 -8 13 -15 -32 -10 -21 -21 29 -30 40 -6 41 -8 19 -16 -18 -7 -35
-4 -70 12 -58 28 -58 28 -42 38 9 6 -1 11 -30 16 -24 4 -50 12 -56 17 -10 8
-13 6 -13 -6 0 -9 7 -16 15 -16 8 0 15 -4 15 -9 0 -5 -11 -8 -24 -8 -20 0 -24
4 -21 26 2 14 12 46 23 71 25 59 66 80 140 72 24 -3 32 -8 28 -19z m-1211 -43
c-3 -5 1 -10 9 -10 9 0 16 -4 16 -9 0 -4 -11 -6 -25 -3 -27 5 -35 32 -9 32 8
0 12 -4 9 -10z m-40 -10 c-3 -5 -10 -10 -16 -10 -5 0 -9 5 -9 10 0 6 7 10 16
10 8 0 12 -4 9 -10z m685 -25 c0 -19 19 -20 26 -1 6 16 44 18 44 2 0 -5 -7
-18 -17 -28 -9 -11 -11 -18 -5 -18 7 0 12 -4 12 -9 0 -5 -8 -7 -19 -4 -12 3
-25 -5 -39 -21 -11 -14 -25 -26 -32 -26 -6 0 -8 -4 -5 -10 3 -5 1 -10 -5 -10
-24 0 3 -20 28 -21 23 -1 22 -2 -8 -8 -45 -9 -60 -18 -60 -37 0 -10 -7 -13
-25 -8 -15 4 -32 1 -40 -6 -9 -8 -15 -8 -15 -2 0 6 -10 13 -22 15 -14 3 -8 5
17 7 31 1 35 3 17 8 -13 4 -22 11 -20 17 2 5 -10 13 -27 16 l-30 7 30 1 c17 0
40 -6 52 -14 20 -14 23 -14 32 3 6 11 7 22 4 26 -3 3 5 7 18 7 17 1 19 3 6 6
-9 2 -14 9 -11 15 5 8 -5 9 -32 5 -21 -4 -48 -7 -59 -7 -15 0 -17 -2 -7 -9 19
-12 -33 -24 -61 -14 -20 6 -20 7 8 13 21 4 29 11 27 23 -2 9 2 17 8 17 5 0 10
-4 10 -9 0 -5 15 -7 33 -5 17 1 41 3 52 4 29 1 49 16 40 30 -5 8 -11 7 -24 -4
-12 -11 -28 -14 -53 -9 -48 7 -117 -5 -97 -18 10 -6 10 -9 2 -9 -25 0 -28 2
-26 18 1 9 0 12 -3 5 -3 -7 -12 -9 -20 -6 -8 3 -22 2 -31 -2 -15 -6 -11 -10
17 -20 32 -12 33 -14 10 -16 -14 -1 -34 -1 -45 -1 -11 1 -15 -1 -10 -5 6 -5
11 -13 12 -20 3 -14 -25 -38 -34 -29 -4 4 -1 11 7 16 9 6 10 10 3 10 -6 0 -19
-9 -27 -21 -8 -12 -19 -18 -24 -15 -5 3 -16 -2 -23 -12 -11 -14 -11 -15 1 -5
10 9 17 10 27 2 9 -8 13 -8 13 0 0 7 9 9 25 5 16 -4 25 -2 25 6 0 7 7 10 15 6
8 -3 15 -1 15 4 0 22 26 8 28 -14 1 -19 -5 -27 -29 -35 -17 -6 -36 -8 -43 -4
-6 4 -40 6 -76 5 -57 -2 -63 -1 -48 11 10 8 18 19 18 24 0 9 27 26 63 37 9 3
17 11 17 17 0 8 -4 8 -15 -1 -12 -10 -15 -10 -15 1 1 21 23 45 49 54 18 5 20
9 10 16 -9 5 0 6 22 3 20 -4 39 -2 43 4 3 5 27 8 53 6 l48 -3 -55 11 c-51 10
-53 11 -26 19 15 4 70 9 122 11 51 2 96 7 100 11 14 13 54 7 54 -8z m630 -15
c0 -11 -2 -20 -4 -20 -2 0 -12 -3 -20 -6 -14 -6 -17 10 -7 44 1 1 8 2 16 2 8
0 15 -9 15 -20z m-940 -20 c0 -5 -4 -10 -9 -10 -6 0 -13 5 -16 10 -3 6 1 10 9
10 9 0 16 -4 16 -10z m964 -31 c-3 -5 -1 -9 5 -9 5 0 12 4 15 8 7 11 66 3 66
-9 0 -5 5 -9 11 -9 6 0 17 -7 25 -15 9 -8 29 -15 45 -15 16 0 29 -4 29 -9 0
-5 -15 -8 -34 -7 -26 1 -32 -2 -24 -11 5 -7 7 -17 3 -23 -9 -15 6 -12 26 6 11
10 19 12 24 5 3 -6 0 -11 -7 -11 -10 0 -9 -3 2 -10 12 -7 7 -12 -20 -24 -30
-13 -38 -13 -57 0 -29 18 -39 18 -23 -1 8 -10 9 -15 2 -15 -6 0 -15 6 -19 14
-4 8 -21 16 -37 18 -16 1 -32 9 -34 17 -4 11 0 12 14 6 11 -4 37 -9 59 -9 36
-1 40 2 43 24 2 14 -1 21 -5 15 -10 -13 -163 -20 -163 -7 0 5 18 14 39 20 34
8 39 7 34 -6 -4 -10 -2 -13 5 -8 16 10 15 36 0 38 -51 6 -91 20 -78 28 17 10
61 9 54 -1z m-187 -25 c30 -8 21 -22 -12 -19 -14 2 -23 -1 -19 -6 3 -5 14 -9
25 -9 10 0 19 -5 19 -11 0 -6 -7 -8 -16 -5 -9 4 -27 0 -40 -9 -17 -11 -30 -12
-48 -5 -16 6 -27 6 -31 0 -4 -6 0 -10 7 -11 7 0 4 -4 -7 -8 -26 -11 -28 -8
-14 22 10 21 15 24 30 17 25 -14 29 -13 29 10 0 12 10 24 23 30 28 11 27 11
54 4z m-1187 -18 c0 -3 -4 -8 -10 -11 -5 -3 -10 -1 -10 4 0 6 5 11 10 11 6 0
10 -2 10 -4z m595 -5 c3 -5 1 -13 -5 -16 -15 -9 -43 3 -35 15 8 13 32 13 40 1z
m-370 -28 c-11 -3 -27 -11 -35 -18 -20 -16 -70 -28 -70 -16 0 11 76 40 105 39
l20 0 -20 -5z m1084 -10 c17 -10 31 -25 31 -33 0 -13 -1 -13 -10 0 -5 8 -10
10 -10 5 0 -14 -68 -37 -112 -39 -40 -1 -51 -11 -20 -19 12 -3 7 -8 -20 -20
-48 -22 -65 -22 -48 -2 19 23 -2 17 -32 -10 -27 -23 -38 -65 -18 -65 6 0 10 4
10 10 0 5 3 9 8 9 24 -4 42 3 42 16 0 8 7 15 16 15 8 0 13 -4 10 -9 -12 -18
40 1 187 69 52 24 77 25 77 4 0 -14 -3 -14 -15 -4 -10 8 -15 9 -15 2 0 -6 -17
-14 -37 -18 -31 -6 -34 -8 -18 -15 17 -6 15 -8 -10 -8 -17 -1 -35 -5 -40 -9
-6 -5 -40 -21 -77 -36 -37 -16 -65 -32 -62 -37 6 -10 -84 0 -106 12 -9 5 -10
9 -3 9 7 0 10 10 7 25 -3 20 0 25 16 25 12 0 20 7 20 18 0 14 -2 15 -10 2 -7
-12 -10 -8 -10 15 0 22 3 26 12 17 7 -7 22 -12 34 -12 13 0 26 -4 29 -10 9
-15 25 -12 25 5 0 11 -11 15 -40 15 -27 0 -40 4 -40 14 0 10 13 12 53 9 33 -3
47 -1 39 5 -7 5 -25 7 -39 4 -18 -3 -24 -1 -19 7 4 6 19 11 33 11 34 0 103 21
103 32 0 13 26 9 59 -9z m-819 3 c0 -9 -40 -13 -46 -5 -3 5 6 9 20 9 14 0 26
-2 26 -4z m466 -12 c-3 -9 -9 -27 -12 -40 -5 -19 -13 -24 -36 -24 -17 0 -27 4
-23 10 3 6 13 10 21 10 8 0 20 14 25 30 6 17 15 30 21 30 6 0 7 -7 4 -16z
m-439 -15 c-9 -6 -15 -14 -12 -20 4 -5 -5 -9 -19 -9 -14 0 -28 5 -32 12 -5 8
-2 9 10 5 10 -4 19 -1 22 8 4 8 16 15 28 15 19 -1 19 -2 3 -11z m403 1 c0 -5
-2 -10 -4 -10 -3 0 -8 5 -11 10 -3 6 -1 10 4 10 6 0 11 -4 11 -10z m787 -20
c-44 -24 -58 -25 -51 -6 5 14 27 22 69 25 13 1 6 -6 -18 -19z m10 -50 c-9 -13
-18 -17 -21 -11 -4 5 -14 7 -23 4 -11 -4 -14 -3 -9 6 5 7 16 9 28 5 15 -4 18
-3 13 6 -4 7 -1 16 6 21 20 12 23 -7 6 -31z m37 25 c-4 -8 -8 -15 -10 -15 -2
0 -4 7 -4 15 0 8 4 15 10 15 5 0 7 -7 4 -15z m-1738 -10 c-15 -8 -33 -12 -39
-8 -12 7 17 21 48 22 16 1 14 -2 -9 -14z m144 5 c0 -5 -4 -10 -10 -10 -5 0
-10 5 -10 10 0 6 5 10 10 10 6 0 10 -4 10 -10z m531 -6 c8 4 6 1 -3 -7 -10 -8
-16 -16 -14 -18 2 -2 -30 -4 -72 -5 -66 0 -77 -3 -90 -22 -17 -26 -28 -27 -50
-5 -16 16 -17 16 -20 0 -2 -9 -10 -17 -18 -17 -8 0 -14 -4 -14 -10 0 -5 9 -10
20 -10 11 0 20 -5 20 -11 0 -6 17 -8 48 -4 l47 6 -49 -26 c-28 -14 -59 -24
-70 -24 -17 1 -18 2 -3 6 9 2 15 8 12 13 -3 4 -15 6 -27 2 -14 -3 -19 -2 -14
6 4 7 17 12 29 13 19 0 18 2 -6 11 -15 5 -35 7 -45 3 -9 -4 -29 -9 -44 -10
-16 -1 -39 -10 -52 -19 -19 -12 -26 -12 -30 -3 -5 9 -7 9 -12 0 -3 -7 -11 -10
-17 -8 -7 2 -24 6 -40 9 -15 4 -27 11 -27 17 0 6 9 8 20 4 11 -4 34 -4 51 0
23 5 28 11 24 25 -7 23 12 30 93 35 42 3 62 1 62 -7 0 -6 8 -3 19 8 10 10 16
23 13 28 -2 4 5 5 17 1 14 -4 21 -3 19 5 -2 7 3 15 11 18 9 3 11 0 6 -8 -6
-10 0 -12 26 -7 19 3 43 9 53 13 14 5 17 4 12 -4 -5 -8 1 -12 18 -12 14 0 26
4 26 9 0 13 43 19 51 7 4 -5 13 -5 20 -2z m874 -13 c-8 -25 -17 -26 -55 -6
-33 17 -40 30 -11 20 10 -3 29 -1 42 4 29 11 33 8 24 -18z m-1191 1 c2 -4 -4
-9 -15 -9 -11 -1 -17 2 -14 8 7 11 22 12 29 1z m41 -2 c3 -5 2 -10 -4 -10 -5
0 -13 5 -16 10 -3 6 -2 10 4 10 5 0 13 -4 16 -10z m1125 -47 c0 -3 -12 -3 -27
0 -32 6 -87 -14 -99 -36 -8 -12 -42 -25 -81 -29 -6 -1 -9 -7 -6 -14 3 -9 -2
-12 -17 -9 -16 3 -20 0 -16 -11 5 -12 1 -14 -17 -9 -40 13 -39 22 5 39 24 10
69 33 101 52 32 19 68 34 79 34 19 0 19 1 -3 20 -19 16 -13 14 29 -6 28 -14
52 -28 52 -31z m-1345 38 c3 -5 1 -12 -5 -16 -5 -3 -10 1 -10 9 0 18 6 21 15
7z m1225 5 c0 -3 -4 -8 -10 -11 -5 -3 -10 -1 -10 4 0 6 5 11 10 11 6 0 10 -2
10 -4z m-774 -44 c-7 -11 -84 -27 -93 -19 -3 3 13 11 36 18 23 7 41 17 41 23
0 6 4 6 11 -1 6 -6 8 -16 5 -21z m739 18 c3 -5 1 -10 -4 -10 -6 0 -11 5 -11
10 0 6 2 10 4 10 3 0 8 -4 11 -10z m-1255 -30 c-8 -5 -22 -9 -30 -9 -10 0 -8
3 5 9 27 12 43 12 25 0z m1170 6 c0 -3 -4 -8 -10 -11 -5 -3 -10 -1 -10 4 0 6
5 11 10 11 6 0 10 -2 10 -4z m465 -6 c3 -5 1 -10 -4 -10 -6 0 -11 5 -11 10 0
6 2 10 4 10 3 0 8 -4 11 -10z m65 0 c0 -5 -7 -10 -16 -10 -8 0 -12 5 -9 10 3
6 10 10 16 10 5 0 9 -4 9 -10z m-1129 -23 c-10 -9 -11 -8 -5 6 3 10 9 15 12
12 3 -3 0 -11 -7 -18z m564 13 c-3 -5 -16 -10 -28 -10 -18 0 -19 2 -7 10 20
13 43 13 35 0z m295 1 c0 -6 -5 -13 -12 -17 -6 -4 -8 -3 -4 4 3 6 -2 13 -11
15 -14 4 -13 5 5 6 12 0 22 -3 22 -8z m-55 -11 c-3 -5 -11 -10 -16 -10 -6 0
-7 5 -4 10 3 6 11 10 16 10 6 0 7 -4 4 -10z m189 -2 c-5 -8 3 -10 28 -5 19 3
41 1 49 -4 10 -6 1 -9 -28 -9 -53 0 -80 9 -61 21 18 12 20 11 12 -3z m-476 -7
c10 -6 9 -10 -7 -14 -14 -3 -21 0 -21 9 0 16 9 18 28 5z m737 -1 c-3 -5 1 -10
9 -10 9 0 16 -4 16 -10 0 -11 -6 -12 -37 -4 -27 7 -30 21 -5 27 9 3 18 5 20 6
2 0 0 -3 -3 -9z m-1285 -10 c0 -5 -4 -10 -10 -10 -5 0 -10 5 -10 10 0 6 5 10
10 10 6 0 10 -4 10 -10z m800 0 c0 -5 -4 -10 -9 -10 -5 0 -17 -3 -27 -7 -16
-6 -17 -5 -4 10 17 18 40 22 40 7z m380 0 c-8 -5 -24 -9 -35 -9 -16 1 -16 2 5
9 35 11 48 11 30 0z m-801 -9 c8 -5 9 -11 3 -15 -5 -3 -15 1 -22 9 -14 16 -3
20 19 6z m1101 -1 c0 -5 -5 -10 -11 -10 -5 0 -7 5 -4 10 3 6 8 10 11 10 2 0 4
-4 4 -10z m-1522 -5 c-3 -3 -16 -8 -29 -10 -13 -3 -25 -9 -27 -15 -2 -5 -12
-10 -23 -10 -10 0 -19 -4 -19 -9 0 -5 -13 -11 -29 -14 -16 -3 -42 -9 -57 -13
l-29 -6 25 18 c14 10 28 22 31 26 3 5 17 10 30 12 13 2 31 6 39 9 34 13 98 22
88 12z m727 -43 c-15 -16 -16 -15 -4 12 7 15 15 23 17 16 3 -7 -3 -19 -13 -28z
m571 23 c-10 -8 -23 -12 -29 -8 -11 7 12 23 33 23 12 -1 11 -4 -4 -15z m-1782
-4 c3 -5 -3 -11 -13 -14 -14 -3 -18 -1 -14 9 6 16 19 18 27 5z m991 -20 c-3
-6 -11 -11 -17 -11 -6 0 -6 6 2 15 14 17 26 13 15 -4z m315 7 c0 -11 -32 -10
-50 2 -11 7 -6 9 17 7 18 -1 33 -5 33 -9z m530 2 c11 -7 4 -10 -25 -9 -31 0
-36 2 -20 9 26 11 28 11 45 0z m-960 -4 c0 -3 -4 -8 -10 -11 -5 -3 -10 -1 -10
4 0 6 5 11 10 11 6 0 10 -2 10 -4z m830 0 c0 -2 -7 -7 -16 -10 -8 -3 -12 -2
-9 4 6 10 25 14 25 6z m-350 -16 c0 -5 -2 -10 -4 -10 -3 0 -8 5 -11 10 -3 6
-1 10 4 10 6 0 11 -4 11 -10z m394 -11 c-10 -4 -13 -8 -6 -8 7 -1 10 -6 7 -11
-7 -12 -45 5 -45 20 0 11 30 18 49 11 11 -3 10 -6 -5 -12z m-1214 -6 c-1 -17
-38 -55 -48 -49 -6 4 -2 15 11 31 22 24 37 32 37 18z m730 -1 c0 -14 -23 -32
-42 -32 -23 0 -23 9 0 26 19 15 42 18 42 6z m-1350 -6 c0 -3 -4 -8 -10 -11 -5
-3 -10 -1 -10 4 0 6 5 11 10 11 6 0 10 -2 10 -4z m555 -6 c3 -5 -1 -10 -9 -10
-9 0 -16 5 -16 10 0 6 4 10 9 10 6 0 13 -4 16 -10z m1198 -7 c-7 -2 -19 -2
-25 0 -7 3 -2 5 12 5 14 0 19 -2 13 -5z m-1470 -20 c-7 -2 -19 -2 -25 0 -7 3
-2 5 12 5 14 0 19 -2 13 -5z m904 -9 c-3 -3 -12 -4 -19 -1 -8 3 -5 6 6 6 11 1
17 -2 13 -5z"/>
<path d="M1700 3700 c0 -34 5 -37 27 -15 17 18 11 45 -12 45 -10 0 -15 -10
-15 -30z"/>
<path d="M1992 3620 c-1 -63 -5 -140 -8 -170 -4 -42 -3 -51 6 -38 7 11 9 72 7
170 -2 141 -3 144 -5 38z"/>
<path d="M2223 3650 c0 -25 2 -35 4 -22 2 12 2 32 0 45 -2 12 -4 2 -4 -23z"/>
<path d="M1873 3455 c0 -27 2 -38 4 -22 2 15 2 37 0 50 -2 12 -4 0 -4 -28z"/>
<path d="M1907 3463 c-4 -3 -7 -13 -7 -22 1 -13 3 -13 11 2 11 19 8 33 -4 20z"/>
<path d="M2017 3463 c-13 -12 -7 -33 8 -33 8 0 15 9 15 20 0 20 -11 26 -23 13z"/>
<path d="M1982 3340 c0 -19 2 -27 5 -17 2 9 2 25 0 35 -3 9 -5 1 -5 -18z"/>
<path d="M1671 2918 c0 -70 1 -72 13 -39 10 28 14 31 19 17 4 -9 12 -14 18
-11 5 4 8 9 5 12 -2 3 -1 16 4 29 6 14 6 26 -1 29 -5 4 -7 10 -4 15 5 9 -18
20 -41 20 -11 0 -14 -16 -13 -72z"/>
<path d="M1562 2655 c0 -16 2 -22 5 -12 2 9 2 23 0 30 -3 6 -5 -1 -5 -18z"/>
<path d="M1651 2654 c0 -11 3 -14 6 -6 3 7 2 16 -1 19 -3 4 -6 -2 -5 -13z"/>
<path d="M1750 2530 c-8 -26 -7 -41 2 -32 6 6 8 16 5 24 -3 7 -6 11 -7 8z"/>
<path d="M2428 3213 c6 -2 18 -2 25 0 6 3 1 5 -13 5 -14 0 -19 -2 -12 -5z"/>
<path d="M2570 2230 c0 -5 7 -10 15 -10 8 0 15 5 15 10 0 6 -7 10 -15 10 -8 0
-15 -4 -15 -10z"/>
<path d="M2635 2170 c3 -5 8 -10 11 -10 2 0 4 5 4 10 0 6 -5 10 -11 10 -5 0
-7 -4 -4 -10z"/>
<path d="M1715 1821 c-13 -5 -3 -8 30 -8 33 0 43 3 30 8 -11 4 -24 8 -30 8 -5
0 -19 -4 -30 -8z"/>
<path d="M1578 1783 c7 -3 16 -2 19 1 4 3 -2 6 -13 5 -11 0 -14 -3 -6 -6z"/>
<path d="M1440 1766 c-25 -7 -52 -15 -60 -19 -8 -3 -35 -10 -60 -15 -41 -9
-42 -10 -12 -11 21 -1 32 -6 32 -16 0 -18 0 -18 56 -4 25 7 43 17 41 23 -2 6
17 21 42 33 49 25 33 28 -39 9z m-35 -46 c-3 -5 -10 -10 -16 -10 -5 0 -9 5 -9
10 0 6 7 10 16 10 8 0 12 -4 9 -10z"/>
<path d="M1655 1770 c3 -5 10 -10 16 -10 5 0 9 5 9 10 0 6 -7 10 -16 10 -8 0
-12 -4 -9 -10z"/>
<path d="M1581 1731 c-12 -12 -27 -21 -35 -21 -8 0 -18 -4 -21 -10 -3 -5 -17
-10 -31 -10 -14 0 -22 -4 -19 -10 7 -11 48 -13 93 -4 21 4 29 11 25 20 -3 8 0
21 7 29 20 24 4 29 -19 6z"/>
<path d="M1748 1743 c7 -3 16 -2 19 1 4 3 -2 6 -13 5 -11 0 -14 -3 -6 -6z"/>
<path d="M1680 1640 c20 -13 50 -13 50 0 0 6 -15 10 -32 10 -25 0 -29 -3 -18
-10z"/>
<path d="M1790 1640 c0 -5 5 -10 10 -10 6 0 10 5 10 10 0 6 -4 10 -10 10 -5 0
-10 -4 -10 -10z"/>
<path d="M1395 1620 c-8 -13 20 -24 36 -15 8 6 7 10 -2 16 -18 11 -26 11 -34
-1z"/>
<path d="M2045 1240 c-3 -5 3 -10 14 -10 12 0 21 5 21 10 0 6 -6 10 -14 10 -8
0 -18 -4 -21 -10z"/>
<path d="M1440 1061 c0 -18 29 -34 43 -23 8 7 29 9 50 5 22 -3 37 -2 37 5 0
14 -73 21 -83 8 -6 -8 -10 -7 -14 2 -5 14 -33 17 -33 3z"/>
<path d="M1625 980 c3 -5 13 -10 21 -10 8 0 12 5 9 10 -3 6 -13 10 -21 10 -8
0 -12 -4 -9 -10z"/>
<path d="M560 1080 c0 -5 5 -10 10 -10 6 0 10 5 10 10 0 6 -4 10 -10 10 -5 0
-10 -4 -10 -10z"/>
<path d="M1170 516 c0 -2 9 -6 20 -9 11 -3 18 -1 14 4 -5 9 -34 13 -34 5z"/>
<path d="M1198 483 c7 -3 16 -2 19 1 4 3 -2 6 -13 5 -11 0 -14 -3 -6 -6z"/>
<path d="M616 465 c4 -8 9 -15 13 -15 4 0 8 7 8 15 0 8 -6 15 -13 15 -8 0 -11
-6 -8 -15z"/>
<path d="M585 460 c-3 -5 1 -10 10 -10 9 0 13 5 10 10 -3 6 -8 10 -10 10 -2 0
-7 -4 -10 -10z"/>
<path d="M1469 399 c-10 -6 -4 -9 19 -9 17 0 32 2 32 4 0 9 -39 13 -51 5z"/>
<path d="M1255 312 l-30 -17 27 -3 c24 -3 88 21 88 33 0 12 -58 3 -85 -13z"/>
<path d="M307 164 c3 -9 9 -11 12 -6 3 5 15 12 26 15 13 3 9 5 -12 6 -26 1
-31 -2 -26 -15z"/>
<path d="M1238 5683 c7 -3 16 -2 19 1 4 3 -2 6 -13 5 -11 0 -14 -3 -6 -6z"/>
<path d="M1650 5651 c-63 -21 -191 -64 -285 -94 -257 -85 -491 -166 -480 -166
13 -1 203 58 475 148 118 40 266 88 328 107 61 19 112 37 112 40 0 10 -42 0
-150 -35z"/>
<path d="M2205 5683 c-11 -3 -83 -25 -160 -50 -77 -24 -152 -43 -167 -41 -15
3 -29 0 -31 -6 -5 -13 -46 -28 -252 -91 -82 -26 -175 -55 -205 -65 -30 -10
-110 -35 -177 -56 -68 -21 -121 -39 -119 -41 2 -2 80 19 172 48 93 28 185 56
204 61 49 13 274 82 400 123 58 18 159 50 225 70 176 54 173 53 150 53 -11 0
-29 -3 -40 -5z"/>
<path d="M796 5661 c-4 -5 3 -7 14 -4 23 6 26 13 6 13 -8 0 -17 -4 -20 -9z"/>
<path d="M290 5630 c20 -13 47 -13 55 0 4 6 -9 10 -32 10 -28 0 -34 -3 -23
-10z"/>
<path d="M400 5520 c0 -13 11 -13 30 0 12 8 11 10 -7 10 -13 0 -23 -4 -23 -10z"/>
<path d="M1935 5464 c-99 -29 -232 -69 -295 -88 -63 -19 -135 -39 -159 -46
-23 -6 -41 -13 -38 -16 6 -6 110 22 287 76 74 23 171 52 215 65 144 40 195 56
195 61 0 8 -25 1 -205 -52z"/>
<path d="M2825 5480 c4 -6 11 -8 16 -5 14 9 11 15 -7 15 -8 0 -12 -5 -9 -10z"/>
<path d="M2235 5415 c-54 -17 -33 -18 30 -1 28 8 41 14 30 14 -11 0 -38 -5
-60 -13z"/>
<path d="M2075 5370 c-25 -11 1 -11 35 0 20 6 21 8 5 8 -11 0 -29 -3 -40 -8z"/>
<path d="M768 5353 c7 -3 16 -2 19 1 4 3 -2 6 -13 5 -11 0 -14 -3 -6 -6z"/>
<path d="M2010 5350 c-18 -12 -2 -12 25 0 13 6 15 9 5 9 -8 0 -22 -4 -30 -9z"/>
<path d="M1895 5322 c-33 -8 -55 -17 -50 -18 6 -2 42 5 80 15 39 11 61 19 50
19 -11 0 -47 -7 -80 -16z"/>
<path d="M645 5320 l-20 -9 20 0 c11 0 27 4 35 9 13 9 13 10 0 9 -8 0 -24 -4
-35 -9z"/>
<path d="M1360 5295 c-47 -18 -27 -18 30 -1 25 8 36 15 25 15 -11 0 -36 -7
-55 -14z"/>
<path d="M1808 5293 c7 -3 16 -2 19 1 4 3 -2 6 -13 5 -11 0 -14 -3 -6 -6z"/>
<path d="M2778 5293 c7 -3 16 -2 19 1 4 3 -2 6 -13 5 -11 0 -14 -3 -6 -6z"/>
<path d="M1740 5280 c-20 -6 -21 -8 -5 -8 11 0 29 3 40 8 25 11 -1 11 -35 0z"/>
<path d="M2738 5283 c7 -3 16 -2 19 1 4 3 -2 6 -13 5 -11 0 -14 -3 -6 -6z"/>
<path d="M2698 5273 c7 -3 16 -2 19 1 4 3 -2 6 -13 5 -11 0 -14 -3 -6 -6z"/>
<path d="M1191 5249 c-18 -6 -31 -12 -29 -14 2 -3 24 1 49 9 49 16 33 20 -20
5z"/>
<path d="M1128 5223 c7 -3 16 -2 19 1 4 3 -2 6 -13 5 -11 0 -14 -3 -6 -6z"/>
<path d="M1078 5213 c7 -3 16 -2 19 1 4 3 -2 6 -13 5 -11 0 -14 -3 -6 -6z"/>
<path d="M1478 5203 c7 -3 16 -2 19 1 4 3 -2 6 -13 5 -11 0 -14 -3 -6 -6z"/>
<path d="M2908 5203 c6 -2 18 -2 25 0 6 3 1 5 -13 5 -14 0 -19 -2 -12 -5z"/>
<path d="M3088 5193 c7 -3 16 -2 19 1 4 3 -2 6 -13 5 -11 0 -14 -3 -6 -6z"/>
<path d="M938 4773 c6 -2 18 -2 25 0 6 3 1 5 -13 5 -14 0 -19 -2 -12 -5z"/>
<path d="M1118 4723 c7 -3 16 -2 19 1 4 3 -2 6 -13 5 -11 0 -14 -3 -6 -6z"/>
<path d="M698 687 c-16 -6 -28 -14 -28 -19 0 -10 1 -10 39 3 17 6 31 15 31 20
0 11 -7 10 -42 -4z"/>
<path d="M830 635 c16 -19 -3 -45 -31 -45 -11 0 -19 -5 -19 -11 0 -6 9 -8 23
-4 12 4 31 9 42 12 11 3 23 10 26 16 7 10 69 -21 69 -34 0 -4 -12 -9 -27 -11
-31 -4 -44 -28 -14 -28 11 0 23 5 26 10 3 6 17 10 31 10 13 0 24 5 24 10 0 6
-6 10 -13 10 -7 0 -24 11 -38 24 -14 13 -35 27 -47 30 -12 4 -22 12 -22 17 0
5 -10 9 -21 9 -18 0 -19 -2 -9 -15z"/>
<path d="M910 640 c-11 -7 -4 -10 25 -10 29 0 36 3 25 10 -8 5 -19 10 -25 10
-5 0 -17 -5 -25 -10z"/>
<path d="M1045 630 c-3 -5 -1 -10 5 -10 6 0 8 -4 5 -10 -3 -5 -15 -10 -26 -10
-10 0 -19 -5 -19 -11 0 -5 4 -8 9 -4 5 3 16 -2 25 -11 15 -14 17 -13 26 11 5
14 10 33 10 41 0 16 -26 19 -35 4z"/>
<path d="M740 620 c0 -5 5 -10 10 -10 6 0 10 5 10 10 0 6 -4 10 -10 10 -5 0
-10 -4 -10 -10z"/>
<path d="M425 610 c-3 -5 -2 -10 4 -10 5 0 13 5 16 10 3 6 2 10 -4 10 -5 0
-13 -4 -16 -10z"/>
<path d="M360 600 c8 -5 22 -9 30 -9 10 0 8 3 -5 9 -27 12 -43 12 -25 0z"/>
<path d="M515 590 c-8 -13 5 -13 25 0 13 8 13 10 -2 10 -9 0 -20 -4 -23 -10z"/>
<path d="M648 593 c7 -3 16 -2 19 1 4 3 -2 6 -13 5 -11 0 -14 -3 -6 -6z"/>
<path d="M465 580 c5 -8 -2 -10 -27 -5 -22 4 -49 1 -76 -10 -47 -19 -47 -34 1
-36 28 -2 29 -2 7 -7 -23 -4 -23 -5 -5 -12 25 -9 57 -1 52 14 -2 6 -17 14 -33
17 -16 4 -21 7 -12 8 9 0 24 4 34 8 13 5 15 3 9 -7 -6 -10 -1 -12 25 -7 18 4
39 7 46 7 21 0 17 18 -7 31 -16 8 -20 8 -14 -1z"/>
<path d="M538 563 c7 -3 16 -2 19 1 4 3 -2 6 -13 5 -11 0 -14 -3 -6 -6z"/>
<path d="M827 553 c-3 -5 6 -9 19 -9 13 -1 21 2 18 7 -6 11 -31 12 -37 2z"/>
<path d="M938 518 c-31 -11 -38 -38 -10 -38 14 0 15 2 2 10 -13 8 -13 10 1 10
9 0 22 7 29 15 14 17 15 17 -22 3z"/>
<path d="M45 480 c-3 -5 1 -10 10 -10 9 0 13 5 10 10 -3 6 -8 10 -10 10 -2 0
-7 -4 -10 -10z"/>
<path d="M45 450 c-11 -5 -18 -9 -15 -10 30 -9 50 -7 66 5 18 14 18 14 -6 14
-14 0 -34 -4 -45 -9z"/>
<path d="M0 430 c0 -5 5 -10 10 -10 6 0 10 5 10 10 0 6 -4 10 -10 10 -5 0 -10
-4 -10 -10z"/>
</g>
</svg>
